<?xml version="1.0" standalone="no"?>
<!DOCTYPE svg PUBLIC "-//W3C//DTD SVG 1.1//EN" "http://www.w3.org/Graphics/SVG/1.1/DTD/svg11.dtd" >
<svg>
<metadata>
Created by FontForge 20120731 at Wed Aug 13 13:04:09 2014
 By World Wide Web Server
Converted by ALLTYPE
</metadata>
<defs>
<font id="Trajan-Regular" horiz-adv-x="325" >
  <font-face 
    font-family="Trajan-Regular"
    font-weight="5"
    font-stretch="normal"
    units-per-em="1000"
    panose-1="0 0 0 0 0 0 0 0 0 0"
    ascent="800"
    descent="-200"
    x-height="752"
    cap-height="752"
    bbox="-69 -252 1517 964"
    underline-thickness="50"
    underline-position="-55"
    unicode-range="U+0020-F002"
  />
<missing-glyph 
 />
    <glyph glyph-name=".notdef" 
 />
    <glyph glyph-name="glyph1" horiz-adv-x="0" 
 />
    <glyph glyph-name="glyph2" 
 />
    <glyph glyph-name="space" unicode=" " 
 />
    <glyph glyph-name="space" unicode="&#xa0;" 
 />
    <glyph glyph-name="exclam" unicode="!" horiz-adv-x="320" 
d="M160 -17q-22 0 -34 12t-15 27q0 3 -0.5 5.5t-0.5 5.5q0 4 0.5 8t1.5 7q5 14 16.5 25t32.5 11q22 0 36.5 -13t14.5 -35t-14.5 -37.5t-37.5 -15.5v0zM158 154q-7 -1 -9.5 8t-4.5 31q0 3 -0.5 6t-0.5 6q-1 11 -3 49.5t-5 81.5q-3 48 -5.5 88.5t-2.5 46.5t-1.5 35t-3.5 62
q-2 29 -4.5 55t-5.5 37q-1 6 -2.5 10.5t-1.5 8.5q0 2 0.5 3.5t0.5 3.5q1 2 2 3.5t2 3.5q3 5 6.5 10t8.5 11q9 10 20.5 20t22.5 18q4 3 8 5l8 4q5 3 8 4t5 1h1.5h0.5q3 0 4.5 -2t1.5 -8q0 -3 -3 -20.5t-6 -45.5q-2 -15 -3.5 -31t-2.5 -35q0 -7 -3.5 -76t-8.5 -150
q-3 -76 -6.5 -140t-4.5 -73v-4t-1 -4q0 -9 -2.5 -16.5t-8.5 -7.5v1z" />
    <glyph glyph-name="quotedbl" unicode="&#x22;" horiz-adv-x="500" 
 />
    <glyph glyph-name="numbersign" unicode="#" horiz-adv-x="500" 
 />
    <glyph glyph-name="dollar" unicode="$" horiz-adv-x="558" 
d="M265 0l-7 -81q-1 -4 -3.5 -5.5t-6.5 -2.5l-19 -6q-4 -1 -5.5 0.5t-1.5 6.5v1.5v1.5l8 85q-12 0 -32.5 1.5t-42.5 5.5q-15 3 -29.5 7t-26.5 9q-5 2 -9.5 4t-7.5 4q-7 5 -9 11t-2 17q0 25 2 48t4 41q1 10 2.5 18t2.5 11q2 9 4.5 14t6.5 5q3 0 4 -2.5t1 -9.5v-4.5v-5.5v-3
v-3v-3.5v-3.5q0 -22 5 -41.5t21 -38.5q17 -20 41 -30.5t50 -12.5q4 -1 9 -1h9l29 321q-34 23 -61 44t-47 41q-30 31 -45.5 63t-15.5 72q0 72 45.5 114t100.5 57q15 5 31 7t30 2l7 81q0 3 1.5 5t4.5 3l23 8q1 -1 1.5 -1h1.5q2 0 3.5 -1t1.5 -4l-9 -90q37 -1 68 -5.5t44 -9.5
q5 -2 6.5 -5t1.5 -10t-0.5 -23.5t-0.5 -34.5q-1 -19 -1.5 -35.5t-1.5 -23.5q-1 -6 -3 -8t-5 -2q-4 0 -6 3t-2 12t-0.5 18t-3.5 18q-3 11 -8.5 22t-16.5 21q-8 8 -20.5 14t-25.5 10q-7 2 -14.5 3.5t-14.5 1.5l-29 -297q8 -6 15.5 -11t15.5 -10q60 -41 102 -87.5t42 -121.5
q0 -74 -39 -117.5t-86 -62.5q-24 -10 -46.5 -14t-40.5 -4v0zM295 335l-26 -297q64 2 100 39.5t36 98.5q0 50 -29.5 87.5t-80.5 70.5v1zM270 453l26 273q-10 -1 -27 -4t-35 -10q-28 -12 -51 -37t-23 -71q0 -31 13.5 -57t39.5 -50q12 -11 26 -22t31 -23v1z" />
    <glyph glyph-name="percent" unicode="%" horiz-adv-x="870" 
d="M300 -4l-46 -8h-0.5h-1.5h-1.5h-0.5q-4 0 -6.5 2t-1.5 5v0.5v1.5t0.5 1.5l0.5 0.5q26 58 60.5 137.5t71.5 163.5q1 3 2 5.5t2 5.5q66 153 121 282.5t59 139.5q-19 -1 -47.5 -3t-58.5 -4q-1 0 -2.5 -0.5t-3.5 -0.5q-41 -3 -76 -5.5t-46 -2.5h-0.5h-0.5h-0.5h-0.5v-1
q27 -20 46 -58t19 -86q0 -6 -0.5 -11.5t-0.5 -11.5q-6 -63 -48 -115.5t-123 -52.5q-72 0 -111.5 42t-50.5 93q-2 11 -3 21t-1 20v8t1 8q4 66 47.5 121t129.5 55h20.5h21.5q53 2 105.5 5t96.5 7q53 4 89.5 7.5t46.5 3.5q3 0 5 -1t2 -3q0 -4 -3 -11t-8 -18l-294 -731
q-1 -3 -1.5 -4t-0.5 -3q-2 -2 -3.5 -3t-4.5 -2v0zM220 410q58 -1 82 43.5t24 104.5v8.5t-1 9.5q-4 54 -31 99.5t-76 45.5q-57 0 -81.5 -44.5t-24.5 -105.5v-8v-8q4 -55 30.5 -100.5t77.5 -45.5v1zM647 0q-72 0 -111.5 41.5t-50.5 92.5q-2 11 -3 21t-1 20v9.5t1 8.5
q4 65 45.5 119t126.5 54q72 0 112 -43t50 -95q2 -10 3 -19.5t1 -18.5q0 -6 -0.5 -11.5t-0.5 -11.5q-6 -63 -47.5 -115t-124.5 -52v0zM651 28q58 -1 82.5 43.5t24.5 104.5v8t-1 8q-3 55 -30.5 100.5t-77.5 45.5q-57 0 -81.5 -44t-24.5 -105v-8v-8q4 -55 30.5 -100.5
t77.5 -45.5v1z" />
    <glyph glyph-name="ampersand" unicode="&#x26;" horiz-adv-x="775" 
d="M293 -17q-97 0 -152 45.5t-77 100.5q-7 19 -10.5 38t-3.5 36q0 88 47.5 147.5t105.5 93.5q-20 29 -31 53.5t-15 49.5q-2 8 -2.5 17t-0.5 18q0 12 2.5 24.5t6.5 24.5q19 51 72 93t134 42q38 0 69.5 -7t51.5 -18q1 -1 2.5 -1.5t1.5 -1.5q6 -4 7.5 -9t1.5 -13q0 -9 -0.5 -23
t-1.5 -29q0 -13 -1 -26t-2 -22q-1 -5 -1.5 -9t-0.5 -6q-2 -11 -4.5 -14t-5.5 -3q-4 0 -5 4t-1 15q0 10 -1.5 20.5t-4.5 22.5q-4 11 -10 21.5t-15 20.5q-16 17 -41.5 30.5t-58.5 13.5q-4 0 -8.5 -0.5t-8.5 -0.5q-41 -5 -75.5 -35.5t-34.5 -94.5q0 -12 2 -24.5t5 -24.5
q14 -44 52 -92t99 -115q12 -13 36.5 -37t51.5 -50q2 -1 3.5 -2.5l2.5 -2.5q30 -28 56.5 -52.5t38.5 -34.5q17 24 30.5 60t18.5 74q1 8 1.5 16t0.5 16q0 6 -1 12t-3 13q-2 6 -5.5 12t-9.5 12t-13 9t-15 5q-5 1 -10.5 1.5t-10.5 0.5q-4 0 -8 1.5t-4 5.5t5 5.5t11 1.5
q18 0 48 -1t72 -6q11 -1 14.5 -6.5t3.5 -13.5q0 -18 -3.5 -37.5t-9.5 -38.5q-11 -35 -28 -68.5t-35 -60.5q-6 -9 -11.5 -16.5t-11.5 -14.5q50 -42 83.5 -64.5t54.5 -34.5q1 -1 2 -1.5l3 -1.5q13 -7 28.5 -14t32.5 -12q14 -5 27.5 -7.5t25.5 -2.5q7 0 10.5 -1t3.5 -6
q0 -3 -5 -4.5t-12 -1.5h-98q-20 0 -36.5 1t-31.5 4q-26 8 -57 27.5t-83 60.5q-7 -7 -22 -21.5t-38 -29.5q-31 -21 -78.5 -38.5t-111.5 -17.5v0zM328 36q63 -1 107.5 19t71.5 44l5.5 5.5l4.5 4.5q-16 13 -35 30t-39 35l-5.5 5.5l-5.5 5.5q-31 29 -58 55t-38 38
q-10 11 -26.5 29t-33.5 38q-3 3 -5.5 6t-4.5 6q-14 17 -26.5 32.5t-21.5 28.5q-39 -25 -64.5 -66.5t-25.5 -101.5q0 -94 58 -154.5t142 -60.5v1z" />
    <glyph glyph-name="quotesingle" unicode="'" horiz-adv-x="500" 
 />
    <glyph glyph-name="parenleft" unicode="(" horiz-adv-x="360" 
d="M137 369q0 -155 40 -253t102 -171q2 -3 3.5 -4.5t2.5 -3.5q1 -1 1 -2v-2q0 -3 -2 -5t-5 -2q-1 0 -3.5 1.5t-5.5 3.5q-17 12 -36 30.5t-39 41.5q-50 59 -91.5 148.5t-41.5 203.5q0 102 36.5 189t80.5 147q25 35 49 59.5t41 36.5l6 4t5 2q3 0 5 -2.5t2 -5.5q0 -2 -2 -5
t-5 -6q-12 -12 -27 -32.5t-31 -48.5q-32 -56 -58.5 -139.5t-26.5 -185.5v1z" />
    <glyph glyph-name="parenright" unicode=")" horiz-adv-x="360" 
d="M223 351q0 154 -40 251.5t-102 171.5q-2 3 -3.5 4.5t-2.5 3.5q-1 1 -1 2v2q0 3 2 5t5 2q2 0 4 -1.5t5 -3.5q17 -12 36 -30.5t39 -41.5q50 -59 91.5 -148.5t41.5 -202.5q0 -103 -36.5 -190.5t-80.5 -147.5q-25 -34 -49 -58.5t-41 -36.5l-6 -4t-5 -2q-3 0 -5 2.5t-2 5.5
q0 2 2 5t5 6q12 12 27 32.5t31 47.5q32 56 58.5 139.5t26.5 185.5v1z" />
    <glyph glyph-name="asterisk" unicode="*" horiz-adv-x="350" 
d="M207 797q0 -12 -3.5 -32t-8.5 -42q-2 -9 -4.5 -17t-4.5 -16q-1 -6 -2.5 -11t-3.5 -10q0 -1 -0.5 -2l-0.5 -1q0 -1 0.5 -2t0.5 -2q1 -1 2 -1t3 1q16 4 30.5 11.5t27.5 14.5q14 9 23.5 17t12.5 12q3 2 4.5 4t3.5 2q0 1 0.5 1h1.5q2 0 5.5 -4.5t7.5 -11.5q2 -5 4.5 -10
t4.5 -11q3 -7 4.5 -14t1.5 -12q0 -4 -2.5 -5.5t-9.5 -3.5q-1 0 -15 -0.5t-33 -1.5h-7h-8q-15 -1 -29 -1.5t-23 -0.5q-1 0 -2 -0.5t-2 -0.5t-1 -0.5t-1 -0.5q-1 -1 -0.5 -3t1.5 -4q3 -6 11.5 -14t17.5 -17q4 -2 7 -4.5t6 -5.5q14 -11 26 -19t16 -10q2 -1 4 -1.5t3 -1.5
q2 -1 3 -2.5t1 -3.5q0 -4 -3 -9.5t-8 -11.5q-3 -5 -8 -9.5t-10 -8.5q-6 -5 -12 -8t-10 -3q-3 0 -6.5 3.5t-7.5 10.5t-9 18.5t-11 24.5q-1 3 -2 5.5t-2 5.5q-6 14 -11 27t-8 22q0 1 -0.5 1.5l-0.5 0.5l-1.5 3t-1.5 1h-0.5h-1.5l-1.5 -1.5t-0.5 -1.5q-2 -3 -7.5 -14.5
t-11.5 -24.5q0 -1 -0.5 -2l-0.5 -1q-6 -13 -11 -24.5t-7 -16.5q0 -2 -1 -3.5t-1 -3.5q-2 -4 -3 -8t-1 -8q0 -2 -3 -3.5t-9 -1.5h-1.5h-1.5q-22 0 -41 4t-19 9q0 3 1.5 6.5t5.5 9.5q4 5 17.5 18t29.5 27l1.5 1.5l1.5 1.5q17 14 31 26.5t19 16.5q2 2 2.5 3.5t0.5 2.5
q0 2 -1 2.5t-3 0.5q-8 2 -19.5 3.5t-24.5 1.5q-16 1 -31 1.5t-20 0.5q-2 0 -4 -0.5t-3 -0.5l-3 -1.5t-2 -0.5q-4 0 -6 11t-3 25q-1 9 -1.5 17.5t-0.5 13.5q0 4 3 6t7 2q9 0 22.5 -6t28.5 -15q5 -2 9.5 -5.5t9.5 -6.5q15 -10 27 -19l16 -12q1 -1 2 -1.5t2 -0.5t2 0.5t2 0.5
q1 2 1 3.5v3.5v0v1v0v0q0 6 -3 19.5t-7 27.5l-2 6l-2 6q-3 13 -6.5 23.5t-5.5 14.5q0 1 -0.5 1.5t-0.5 1.5q-2 3 -2.5 5t-0.5 3q0 2 3.5 5t8.5 7q5 2 11 5t13 5q8 3 15.5 5t12.5 2q4 0 6 -2.5t2 -8.5v1z" />
    <glyph glyph-name="plus" unicode="+" horiz-adv-x="500" 
 />
    <glyph glyph-name="comma" unicode="," horiz-adv-x="250" 
d="M111 -2q0 16 -5.5 27.5t-11.5 19.5t-11.5 13.5t-5.5 9.5q0 16 14 30.5t30 20.5q5 1 9.5 2t8.5 1h1.5t1.5 -1q3 -1 6 -5t9 -13q10 -15 13.5 -25.5t3.5 -17.5q0 -4 -1.5 -11t-3.5 -14q-1 -4 -2.5 -7.5t-2.5 -6.5q-4 -10 -12 -25.5t-19 -33.5q-7 -13 -15.5 -25t-17.5 -22
q-1 -2 -3 -3.5t-3 -2.5q-2 -2 -3.5 -2.5t-3.5 -0.5h-0.5h-1.5q-2 1 -3.5 3t-1.5 4q0 1 1 3l2 4l0.5 0.5t0.5 1.5q1 1 1.5 2.5t1.5 2.5q13 22 18.5 39.5t5.5 31.5v0z" />
    <glyph glyph-name="hyphen" unicode="-" horiz-adv-x="390" 
d="M73 410h252q13 -1 21.5 -3t8.5 -8q0 -8 -9 -11.5t-19 -4.5q-2 0 -3.5 -0.5t-3.5 -0.5q-10 -2 -45 -7t-75 -11q-4 0 -8 -0.5t-8 -1.5q-34 -5 -62.5 -9.5t-39.5 -7.5q-5 -1 -9.5 -2.5t-8.5 -3.5q-8 -3 -14 -6t-9 -3t-5 2t-1 6v3.5t1 3.5l15 57q2 4 6 5.5t16 1.5v1z" />
    <glyph glyph-name="period" unicode="." horiz-adv-x="250" 
d="M124 0q-24 0 -37 13.5t-16 29.5q-1 3 -1 5.5v5.5q0 4 0.5 8t1.5 8q5 15 17.5 27t35.5 12t39 -14t16 -38t-15 -40.5t-41 -16.5v0z" />
    <glyph glyph-name="slash" unicode="/" horiz-adv-x="552" 
d="M55 -15l-32 21q-1 0 -2 1.5t-1 2.5q0 2 1.5 4.5t2.5 5.5l461 740q1 0 1.5 0.5t0.5 1.5q3 3 5.5 3t6.5 -2l30 -17q2 -2 2.5 -3.5t0.5 -3.5v-2t-1 -2l-464 -745q-1 -2 -2 -3l-2 -2t-2 -1h-2h-0.5h-1.5t-1.5 0.5l-0.5 0.5v0z" />
    <glyph glyph-name="zero" unicode="0" horiz-adv-x="651" 
d="M64 352q0 178 69.5 296t199.5 118q112 0 168.5 -80.5t75.5 -176.5q5 -29 7.5 -57.5t2.5 -54.5q0 -178 -71 -296t-199 -118q-110 0 -167 80t-75 176q-6 29 -8.5 57.5t-2.5 54.5v1zM148 393q0 -16 0.5 -30.5t1.5 -29.5q8 -118 53 -216t134 -98q74 0 120 90.5t46 244.5
q0 17 -1 34.5t-2 34.5q-10 115 -55.5 210.5t-131.5 95.5q-74 0 -119.5 -91t-45.5 -246v1z" />
    <glyph glyph-name="one" unicode="1" horiz-adv-x="470" 
d="M293 486v-185q0 -76 0.5 -137t4.5 -94q3 -23 9.5 -35.5t30.5 -17.5q5 -1 13.5 -2t17.5 -2q11 -1 21 -1.5t14 -0.5q3 0 5.5 -2.5t2.5 -5.5t-4 -4.5t-13 -1.5q-28 0 -53.5 0.5t-44.5 0.5q-20 1 -32 1.5t-14 0.5t-17 -0.5t-37 -1.5h-28.5t-30.5 -1h-20h-20q-8 0 -12 1.5
t-4 4.5t2.5 5.5t5.5 2.5q5 0 17 0.5t25 1.5q11 1 21.5 2.5t16.5 2.5q25 5 33 17t9 35q2 33 2.5 94t0.5 136v176v36v35v2v2q-1 18 -1 36.5v39.5q0 15 -3 23t-15 8q-8 0 -24.5 -6.5t-34.5 -14.5q-2 -2 -4.5 -3t-5.5 -2q-13 -6 -25 -12l-20 -10l-4 -2l-4 -2h-2h-2q-2 0 -3.5 2
t-2.5 5v1v1q0 1 0.5 2.5t1.5 2.5l2.5 2.5l2.5 2.5q2 2 32 21.5t65 43.5q34 23 63.5 42.5t32.5 21.5q7 5 13 8.5t11 3.5q6 0 8 -6t2 -12v-1.5v-1.5q0 -3 -1 -22.5t-1 -53.5q-1 -33 -2 -80t-1 -104v1z" />
    <glyph glyph-name="two" unicode="2" horiz-adv-x="585" 
d="M417 0h-379q-5 0 -9.5 3.5t-4.5 9.5q0 2 1 4l2 4q2 3 5 6.5t6 5.5l2 2l2 2q64 57 120 109t100 104q60 69 94.5 140.5t34.5 154.5q0 84 -35.5 125t-78.5 54q-11 3 -22.5 4.5t-22.5 1.5q-36 0 -60.5 -9t-46.5 -29q-18 -17 -26.5 -42.5t-8.5 -54.5q0 -7 -2.5 -11t-6.5 -4
q-3 0 -5 3t-3 10q0 3 -1 15.5t-2 29.5q0 5 -0.5 10.5t-0.5 11.5q-1 16 -1.5 31t-0.5 25q0 2 0.5 4t1.5 4l3 3t5 4q1 1 2.5 1.5t3.5 1.5q28 12 70 22t100 10q113 0 169.5 -61t56.5 -141q0 -107 -67 -204.5t-147 -174.5q-36 -35 -70.5 -64.5t-63.5 -54.5l-1.5 -1.5l-0.5 -0.5
q-1 -1 -1 -1.5v-1.5t1.5 -1.5t3.5 -0.5l73 1q7 -1 33.5 -0.5t56.5 0.5q24 1 46.5 2t34.5 2q55 5 81.5 30.5t35.5 65.5q2 8 5 11.5t7 3.5q3 0 4 -3t2 -7v-2.5v-2.5q0 -8 -4 -28.5t-10 -42.5q-1 -4 -2 -7.5t-2 -7.5q-3 -13 -6 -24.5t-6 -20.5q-6 -20 -19.5 -24.5t-45.5 -4.5v0
z" />
    <glyph glyph-name="three" unicode="3" horiz-adv-x="590" 
d="M423 203q0 68 -35.5 108.5t-77.5 60.5q-19 9 -38 15t-34 9q-4 1 -7.5 1.5t-5.5 1.5q-7 2 -10 4t-3 6q0 5 6.5 8t16.5 4q13 2 31 8.5t37 17.5q34 19 62.5 55.5t28.5 92.5q0 11 -3 26t-10 31q-13 30 -43.5 54t-87.5 24q-55 0 -90.5 -30t-35.5 -88q0 -6 -1.5 -8.5t-3.5 -3.5
h-1.5h-0.5q-2 0 -4 2t-3 9q-1 9 -2 19l-2 20q-1 18 -2 34t-1 27q0 4 0.5 6.5t2.5 5.5q1 2 3.5 4t6.5 5q4 2 8.5 4t9.5 4q25 10 61.5 18t82.5 8q82 0 124 -28t59 -61q8 -17 11.5 -32.5t3.5 -28.5q0 -44 -22.5 -79t-48.5 -59q-19 -16 -36 -27t-27 -15v-4q13 -4 28 -10t30 -14
q40 -23 73.5 -64.5t33.5 -104.5q0 -105 -82.5 -180.5t-216.5 -75.5q-10 0 -21.5 1t-22.5 2q-24 4 -45.5 9t-32.5 11q-3 2 -5.5 4t-3.5 3q-5 5 -6 10t-1 11v15v15q1 22 2.5 42.5t2.5 35.5q1 5 1.5 9.5t0.5 7.5q1 8 2.5 11.5t5.5 3.5t5 -3t2 -11q5 -58 38 -96.5t112 -38.5
q76 0 128.5 44t52.5 133v1z" />
    <glyph glyph-name="four" unicode="4" horiz-adv-x="637" 
d="M455 600v-321h76q10 -1 17 0.5t12 4.5q5 2 8 3.5t4 1.5q3 0 4 -2.5t1 -5.5v-2v-2q0 -2 -1.5 -9t-2.5 -14q-1 -3 -1.5 -5.5t-1.5 -4.5q0 -2 -0.5 -3.5t-1.5 -3.5q0 -1 -0.5 -1.5l-1.5 -1.5q-3 -6 -7 -8t-12 -2l-92 1v-15v-18q0 -12 -0.5 -25.5t0.5 -27.5q0 -19 0.5 -37
t1.5 -32q2 -22 10.5 -35.5t32.5 -19.5q4 -1 8.5 -1.5t8.5 -1.5q8 0 15 -0.5t12 -0.5q4 0 6.5 -2.5t2.5 -5.5t-4 -4.5t-12 -1.5h-11.5h-11.5q-15 0 -30 0.5t-28 1.5q-18 0 -30 0.5t-15 0.5t-13.5 -0.5t-26.5 -1.5q-16 0 -35.5 -0.5t-40.5 -0.5q-8 0 -12 1.5t-4 4.5t2 5.5
t6 2.5q5 0 13 0.5t18 0.5q4 1 8 1.5t8 0.5q25 4 33 19t10 37q1 14 1.5 32t0.5 37q1 14 0.5 27.5t-0.5 25.5v18v14l-330 1q-9 -1 -15 1.5t-6 9.5q0 5 2 10t5 8q0 1 1 1.5t1 1.5q2 3 62.5 78.5t132.5 166.5q67 84 124 157t69 89q4 6 7.5 10t6.5 6q2 1 3.5 1.5t3.5 0.5
q5 0 7.5 -4.5t2.5 -12.5v-22v-38q-1 -10 -1 -20v-20v-26v-24v1zM379 279v354h-2q-6 -11 -48 -64.5t-92 -116.5q-48 -61 -90 -113t-49 -61l281 1v0z" />
    <glyph glyph-name="five" unicode="5" horiz-adv-x="569" 
d="M189 687l-14 -154q23 -4 47.5 -10t50.5 -15q80 -28 147 -88t67 -162q0 -11 -1 -21.5t-3 -21.5q-14 -87 -87.5 -159.5t-208.5 -72.5q-8 0 -17 0.5t-18 1.5q-15 2 -30 5.5t-27 9.5q-13 7 -16 14t-3 14v8v8v21.5v23.5q0 18 1 35.5t3 29.5q2 8 4 13t5 5q5 0 6.5 -4t1.5 -13
q0 -80 41 -104.5t96 -24.5q5 0 10 0.5t10 0.5q59 6 107.5 52t48.5 141q0 77 -45 129t-100 80q-30 16 -59 24.5t-50 9.5q-15 1 -21 5.5t-5 12.5l23 256q1 7 6 9.5t13 2.5l235 1q21 -1 35 0t23 3q9 1 13.5 2t7.5 1t5 -2t2 -8q0 -7 -2.5 -39t-10.5 -87v-1.5t-1 -0.5
q-1 -3 -2.5 -6t-4.5 -3t-4.5 4t-1.5 9q0 29 -14.5 46.5t-73.5 17.5l-189 1v0z" />
    <glyph glyph-name="six" unicode="6" horiz-adv-x="603" 
d="M461 195q0 78 -32 127.5t-71 68.5q-12 7 -24.5 10t-23.5 3q-19 0 -38.5 -2.5t-36.5 -10.5q-1 0 -2.5 -0.5t-2.5 -1.5h-0.5h-0.5q-2 -1 -4 -1.5t-3 -0.5q-2 0 -3 2t-1 6q0 3 1 4.5t3 3.5q1 1 2.5 2t2.5 2q4 3 8.5 5.5t10.5 5.5q16 9 41 16.5t56 7.5q86 0 133.5 -48
t61.5 -105q3 -13 4.5 -25.5t1.5 -24.5q0 -59 -19.5 -108.5t-52.5 -81.5q-35 -34 -76 -50t-97 -16q-105 0 -170 75.5t-65 211.5q0 17 1.5 34.5t4.5 34.5q23 130 117.5 247t222.5 173q7 3 12.5 5t8.5 2t5.5 -2t2.5 -7q0 -4 -2.5 -7t-7.5 -5q-2 -2 -4 -3t-5 -3q-8 -4 -16 -9
t-17 -11q-88 -59 -162 -172.5t-74 -276.5q0 -9 0.5 -18.5t1.5 -19.5q7 -80 47.5 -146t117.5 -66q60 0 101.5 46t41.5 128v1z" />
    <glyph glyph-name="seven" unicode="7" horiz-adv-x="550" 
d="M176 750h324q10 -1 14 -3.5t4 -7.5q0 -3 -1 -8t-5 -11q-22 -32 -50.5 -87.5t-58.5 -122.5q-12 -27 -24.5 -56t-24.5 -59q-39 -95 -68 -182t-35 -135q-1 -4 -1 -8v-7v-5.5t1 -4.5v-4.5v-5.5q0 -5 -6 -11.5t-16 -13.5q-6 -5 -13.5 -9.5t-15.5 -8.5q-15 -7 -28 -12t-19 -5
q-4 0 -6.5 2.5t-2.5 7.5q0 3 0.5 7t1.5 8q0 5 1.5 9.5t2.5 8.5q28 95 101.5 268.5t180.5 363.5l8 14l8 14l-246 1q-9 -1 -19 -1.5t-20 -2.5q-15 -3 -29 -8t-25 -14q-12 -10 -21 -26t-14 -33q-1 -5 -2 -9.5t-1 -8.5q-1 -7 -3 -10.5t-6 -3.5t-5 4t-1 12q0 11 2 32t4 44
q1 3 1 6t1 6q2 26 4.5 46.5t2.5 24.5q0 8 3 11t7 3q2 0 8 -1.5t17 -3.5q12 -2 29 -3.5t41 -1.5v1z" />
    <glyph glyph-name="eight" unicode="8" horiz-adv-x="625" 
d="M80 177q0 83 55 139t123 83q-58 35 -99 78t-41 110q0 12 2 24.5t7 25.5q17 48 67 88.5t137 40.5q78 0 130.5 -39.5t52.5 -113.5q0 -58 -29.5 -98.5t-65.5 -65.5q-12 -9 -24.5 -16t-23.5 -13q14 -7 30 -16t32 -20q42 -28 77 -72t35 -110q0 -87 -65.5 -153t-172.5 -66
q-94 0 -160.5 51t-66.5 142v1zM315 21q69 -1 111 45t42 113q0 82 -54 125.5t-122 78.5q-55 -27 -95 -74.5t-40 -122.5q0 -67 44 -116.5t114 -49.5v1zM319 733q-55 -1 -86 -30.5t-40 -65.5q-2 -8 -3 -15.5t-1 -15.5q0 -60 39.5 -96.5t97.5 -67.5q3 -2 5.5 -3t5.5 -3
q9 5 19 11.5t21 14.5q25 20 46 52.5t21 86.5q0 57 -33.5 94t-91.5 37v1z" />
    <glyph glyph-name="nine" unicode="9" horiz-adv-x="590" 
d="M297 767q106 -1 167.5 -80t61.5 -193q0 -145 -66 -251.5t-146 -173.5q-36 -31 -70.5 -53t-63.5 -36q-4 -2 -8.5 -3t-7.5 -1t-5.5 2.5t-2.5 7.5q0 4 3 8t7 6q17 8 34.5 20t35.5 27q76 62 139 168.5t63 249.5q0 131 -49.5 197.5t-115.5 66.5q-67 0 -102 -47t-35 -106
q0 -70 24 -110.5t54 -61.5q22 -15 42.5 -21t29.5 -6q29 0 46 4.5t27 9.5q2 1 3.5 2t3.5 2q5 3 8 4.5t5 1.5t3 -1.5t2 -3.5v-1.5v-0.5v-2t-1 -2q0 -1 -1 -2l-2 -2q-14 -15 -35 -25.5t-43 -15.5q-10 -2 -21 -3.5t-21 -1.5q-87 0 -134 45t-62 99q-3 13 -4.5 25t-1.5 24
q0 104 68 168.5t171 64.5v1z" />
    <glyph glyph-name="colon" unicode=":" horiz-adv-x="250" 
d="M124 30q-24 -1 -37 13t-16 30q-1 3 -1 5.5v5.5q0 4 0.5 8t1.5 8q5 15 17.5 27t35.5 12t39 -14t16 -38t-15 -41t-41 -17v1zM124 368q-24 -1 -37 13t-16 30q-1 3 -1 5.5v5.5q0 4 0.5 8t1.5 8q5 15 17.5 27t35.5 12t39 -14t16 -38t-15 -41t-41 -17v1z" />
    <glyph glyph-name="semicolon" unicode=";" horiz-adv-x="250" 
d="M116 -2q0 16 -5.5 27.5t-11.5 19.5t-11.5 13.5t-5.5 9.5q0 16 14 30.5t30 20.5q5 1 9.5 2t8.5 1h1.5t1.5 -1q3 -1 6 -5t9 -13q10 -15 13.5 -25.5t3.5 -17.5q0 -4 -1.5 -11t-3.5 -14q-1 -4 -2.5 -7.5t-2.5 -6.5q-4 -10 -12 -25.5t-19 -33.5q-7 -13 -15.5 -25t-17.5 -22
q-1 -2 -3 -3.5t-3 -2.5q-2 -2 -3.5 -2.5t-3.5 -0.5h-0.5h-1.5q-2 1 -3.5 3t-1.5 4q0 1 1 3l2 4l0.5 0.5t0.5 1.5q1 1 1.5 2.5t1.5 2.5q13 22 18.5 39.5t5.5 31.5v0zM124 368q-24 -1 -37 13t-16 30q-1 3 -1 5.5v5.5q0 4 0.5 8t1.5 8q5 15 17.5 27t35.5 12t39 -14t16 -38
t-15 -41t-41 -17v1z" />
    <glyph glyph-name="less" unicode="&#x3c;" horiz-adv-x="500" 
 />
    <glyph glyph-name="equal" unicode="=" horiz-adv-x="500" 
 />
    <glyph glyph-name="greater" unicode="&#x3e;" horiz-adv-x="500" 
 />
    <glyph glyph-name="question" unicode="?" horiz-adv-x="488" 
d="M224 -17q-22 0 -34 12t-15 27q0 3 -0.5 5.5t-0.5 5.5q0 4 0.5 8t1.5 7q5 14 16.5 25t32.5 11q22 0 36.5 -13t14.5 -35t-14.5 -37.5t-37.5 -15.5v0zM223 733q-37 -1 -61.5 -13t-36.5 -27q-18 -22 -25.5 -44.5t-9.5 -48.5q-1 -7 -2.5 -12t-5.5 -5t-5.5 2.5t-2.5 7.5
q-1 7 -2 28t-2 44v23.5v21.5q0 2 0.5 4t1.5 4t3 4t6 4q3 2 7 4t9 4q24 12 62.5 22t87.5 10q87 0 128.5 -40t50.5 -89q1 -7 1.5 -13.5t0.5 -13.5q0 -43 -13 -76.5t-36 -64.5q-23 -32 -54.5 -66.5t-68.5 -79.5q-27 -34 -34 -50t-7 -28v-1.5v-0.5q0 -11 4.5 -24t14.5 -27
q5 -7 7 -11t2 -6v-1t-1 -1q0 -2 -2 -3.5t-4 -2.5q-1 0 -2 -0.5t-2 -0.5q-4 0 -10 4.5t-13 10.5q-3 2 -5.5 5t-5.5 6q-2 2 -4 4.5t-4 4.5q-12 15 -19 26.5t-9 22.5q-1 3 -1 5.5v4.5q0 11 5.5 23.5t16.5 26.5q6 8 11.5 15t11.5 14q5 6 10.5 11.5t10.5 11.5q6 8 12.5 15.5
t12.5 15.5q40 50 59 88.5t25 74.5q2 12 3 23.5t1 23.5q0 10 -1.5 22t-5.5 24q-9 31 -35 57t-75 26v1z" />
    <glyph glyph-name="at" unicode="@" horiz-adv-x="500" 
 />
    <glyph glyph-name="A" unicode="A" horiz-adv-x="700" 
d="M95 107l227 621q7 19 11 27t8 10q0 1 1 1h2h2t1 -1q4 -1 8 -8.5t11 -26.5q7 -17 45 -117t83 -216q30 -79 58.5 -151.5t46.5 -118.5q27 -67 48.5 -86.5t37.5 -24.5q11 -4 22 -5t18 -1q5 0 7.5 -1t2.5 -5t-6 -5.5t-14 -1.5h-53t-91 2h-6.5h-6.5h-4h-4q-10 1 -16 1.5t-6 4.5
q0 3 2 4.5t5 2.5h0.5t1.5 1q2 1 4.5 4.5t1.5 9.5v2v2q0 2 -0.5 4t-1.5 4l-93 247q-1 2 -3 3.5t-6 1.5l-215 1q-4 -1 -6 -3t-4 -6l-60 -176q-7 -20 -10.5 -37t-3.5 -31q0 -13 9.5 -19.5t20.5 -8.5q2 -1 4 -1h4l10 1q5 -1 7.5 -2.5t2.5 -4.5q0 -4 -4 -5.5t-11 -1.5t-15 0.5
t-17 0.5h-6h-6q-11 1 -20.5 1.5t-13.5 0.5t-15.5 -0.5t-27.5 -1.5q-11 0 -23 -0.5t-25 -0.5h-10.5h-10.5q-10 0 -14.5 1.5t-4.5 5.5q0 3 2.5 4.5t6.5 1.5h7t8 1q3 0 6.5 0.5t6.5 0.5q35 5 53 31t31 63v1zM235 328h191q4 -1 4.5 1t-0.5 5l-95 271q-4 10 -7.5 10t-7.5 -11
l-88 -269q-1 -2 -1 -3v-2t1.5 -2t2.5 -1v1z" />
    <glyph glyph-name="B" unicode="B" horiz-adv-x="687" 
d="M178 287v176v150.5t-2 61.5v1.5v1.5q-1 26 -9.5 39t-33.5 18q-3 1 -8 1.5t-10 0.5q-4 1 -8.5 1h-7.5t-5.5 1.5t-2.5 4.5q0 5 4 6.5t12 1.5h16.5h17.5q10 -1 19.5 -1h18.5q16 -1 27.5 -1.5t13.5 -0.5q9 0 20.5 0.5t25.5 1.5q14 0 30 0.5t33 0.5q82 0 124.5 -28t60.5 -61
q8 -17 11.5 -32.5t3.5 -28.5q0 -61 -29.5 -102t-64.5 -78q11 -3 23 -8t24 -12q47 -25 86.5 -73t39.5 -118v-5.5v-5.5q-5 -78 -68 -142t-187 -64q-8 0 -26 1t-38 2h-4h-4q-22 1 -40 2t-21 1q-2 0 -13.5 -0.5t-26.5 -1.5h-8h-9q-11 0 -22 -0.5t-19 -0.5t-12 1.5t-4 5.5
q0 2 2 4t6 2q3 0 7 0.5t8 0.5q4 1 8 1.5t7 1.5q15 3 20.5 18t8.5 37q4 32 4.5 88.5t0.5 128.5v1zM258 392v-57v-38.5v-40.5v-89t1 -49q0 -3 0.5 -6t0.5 -6q2 -29 6.5 -42t23.5 -23q1 0 1.5 -0.5t1.5 -0.5q8 -4 17.5 -6.5t18.5 -4.5q16 -2 30 -3t22 -1q11 0 24 2t26 6
q34 11 62.5 42t28.5 92q0 20 -3.5 43t-11.5 47q-10 30 -30 59t-52 51q-25 17 -45 22t-38 7q-5 1 -16 1.5t-24 0.5h-22h-16q-3 0 -4.5 -1.5t-1.5 -5.5v1zM258 709v-268q0 -6 1.5 -8t5.5 -4q2 0 5 -0.5t8 -1.5q8 -1 19.5 -1.5t28.5 -0.5q36 0 52.5 2.5t29.5 14.5q2 2 4.5 4
t4.5 5q16 18 26 44t10 57v8v8q-4 58 -35 107t-100 49q-5 0 -13.5 -0.5t-17.5 -1.5q-4 0 -8.5 -1t-8.5 -2q-7 -1 -9.5 -3.5t-2.5 -7.5v1z" />
    <glyph glyph-name="C" unicode="C" horiz-adv-x="805" 
d="M515 -17q-112 0 -191.5 27t-138.5 80q-43 38 -68 82.5t-37 89.5q-9 32 -12.5 63.5t-3.5 60.5q0 32 8.5 77t31.5 93q12 27 30 53t42 50q45 45 117.5 76t187.5 31q21 0 46.5 -1t52.5 -4q12 -2 23.5 -3.5t22.5 -3.5q29 -5 53.5 -9t48.5 -6q8 -1 10.5 -3.5t2.5 -7.5
q0 -4 -1 -11.5t-2 -21.5q-1 -5 -1.5 -10.5t-0.5 -12.5q-1 -9 -1 -19.5t-1 -21.5v-18.5v-17.5q0 -9 -0.5 -15.5t-0.5 -10.5q-1 -11 -2.5 -16t-6.5 -5t-6.5 5.5t-1.5 15.5v5.5v5.5q-2 27 -13 51.5t-29 39.5q-26 23 -80 40t-120 17q-88 0 -138.5 -19t-78.5 -42q-4 -3 -7 -6
l-6 -6q-55 -52 -72.5 -118t-17.5 -143q0 -143 100.5 -254.5t260.5 -111.5q56 0 100 9.5t74 40.5q7 8 13 18t11 21q5 14 8.5 26t4.5 19q2 8 4 11.5t6 3.5t5.5 -4.5t1.5 -10.5q0 -3 -3 -24.5t-7 -46.5q-2 -10 -4 -20.5t-4 -19.5q-1 -5 -2 -9l-2 -8q-1 -3 -1.5 -5.5t-1.5 -4.5
q-2 -5 -4.5 -8t-7.5 -6q-2 -1 -4.5 -2t-6.5 -3q-22 -8 -57.5 -13.5t-72.5 -7.5q-13 0 -25.5 -0.5t-24.5 -0.5v0z" />
    <glyph glyph-name="D" unicode="D" horiz-adv-x="917" 
d="M178 287v176v150.5t-2 61.5v1.5v1.5q-1 26 -9.5 39t-33.5 18q-3 1 -8 1.5t-10 0.5q-4 1 -8.5 1h-7.5t-5.5 1.5t-2.5 4.5q0 5 4 6.5t12 1.5h16.5h17.5q10 -1 19.5 -1h18.5q16 -1 27.5 -1.5t13.5 -0.5q5 0 18 0.5t32 1.5q16 0 35.5 0.5t39.5 0.5h5h5h10h10q41 0 94 -2
t109 -15q47 -11 93 -34t85 -63q38 -39 67.5 -102t29.5 -152q0 -94 -33 -166t-75 -116q-8 -9 -19 -19t-25 -20q-39 -28 -102 -51.5t-157 -23.5q-17 0 -35 0.5t-36 1.5t-35.5 2t-32.5 2q-33 2 -56 4t-27 2q-2 0 -13.5 -0.5t-26.5 -1.5h-8h-9q-11 0 -22 -0.5t-19 -0.5t-12 1.5
t-4 5.5q0 2 2 4t6 2q3 0 7 0.5t8 0.5q4 1 8 1.5t7 1.5q15 3 20.5 18t8.5 37q4 32 4.5 88.5t0.5 128.5v1zM262 479v-124q0 -80 0.5 -142t1.5 -76q0 -6 0.5 -13.5t1.5 -15.5q1 -15 3 -28.5t6 -18.5q1 -1 2 -2.5t2 -2.5q12 -13 48.5 -24t117.5 -11q70 0 132 24.5t106 68.5
q36 35 56 94t23 122q1 6 1 11.5v11.5q0 76 -22 131t-48 90q-7 9 -13.5 16.5t-12.5 14.5q-70 74 -154 93.5t-173 19.5q-6 0 -13 -0.5t-14 -0.5q-12 -1 -23 -2.5t-15 -3.5q-7 -3 -9.5 -7.5t-2.5 -12.5q-1 -19 -1 -60v-87v-33.5v-32.5v1z" />
    <glyph glyph-name="E" unicode="E" horiz-adv-x="610" 
d="M178 287v176v150.5t-2 61.5v1.5v1.5q-1 26 -9.5 39t-33.5 18q-3 1 -8 1.5t-10 0.5q-4 1 -8.5 1h-7.5t-5.5 1.5t-2.5 4.5q0 5 4 6.5t12 1.5h16.5h17.5q10 -1 19.5 -1h18.5q16 -1 27.5 -1.5t13.5 -0.5h38.5h76.5q39 0 72.5 0.5t41.5 0.5q14 1 25.5 2.5t17.5 2.5q2 0 3.5 1
t2.5 1q0 1 0.5 1h0.5q2 1 3.5 1.5t3.5 0.5t3 -2.5t1 -6.5t-1.5 -10t-3.5 -17q-1 -4 -1.5 -9t-1.5 -11q0 -4 -1 -13.5t-1 -20.5q-1 -10 -1.5 -19t-1.5 -13v-1.5v-0.5q-1 -3 -2.5 -6t-4.5 -3q-4 0 -6 3.5t-2 9.5q0 4 -0.5 10t-1.5 13q-1 3 -2 6.5t-2 6.5q-5 12 -17.5 21
t-53.5 13q-6 1 -25.5 1.5t-42.5 0.5q-24 1 -44.5 1h-24.5q-3 0 -4.5 -2.5t-1.5 -7.5v-275q0 -6 1 -8.5t5 -2.5h29h52q25 0 47.5 0.5t30.5 1.5q18 2 29 4.5t18 9.5q5 6 8.5 9.5t6.5 3.5q2 0 3.5 -1.5t1.5 -6.5q0 -3 -1.5 -11t-3.5 -21q-1 -5 -1.5 -11t-1.5 -13
q-1 -5 -1.5 -12t-0.5 -14q-1 -13 -1.5 -24t-0.5 -14v-2.5v-2.5q0 -6 -1.5 -10t-5.5 -4t-5.5 2.5t-1.5 6.5q0 8 -0.5 15.5t-3.5 17.5q-1 2 -1.5 4t-1.5 4q-4 9 -14.5 17t-34.5 10q-9 1 -28.5 2t-40.5 1q-25 1 -46 1.5t-28 0.5q-4 0 -5.5 -2t-1.5 -5v-87v-24v-32v-13.5v-13.5
v-55v-34q2 -52 22.5 -67t93.5 -15h22.5t25.5 1t25.5 3.5t22.5 6.5q20 8 30 24.5t15 47.5q2 8 3.5 11.5t5.5 3.5t5 -4t1 -9v-0.5v-1.5q0 -3 -1.5 -18.5t-4.5 -32.5q0 -5 -1 -10.5t-1 -10.5q-2 -7 -3 -14t-2 -11q-5 -19 -15 -22t-39 -3q-57 0 -98.5 1t-70.5 2q-30 1 -48.5 2
t-29.5 1q-2 0 -13.5 -0.5t-26.5 -1.5h-8h-9q-11 0 -22 -0.5t-19 -0.5t-12 1.5t-4 5.5q0 2 2 4t6 2q3 0 7 0.5t8 0.5q4 1 8 1.5t7 1.5q15 3 20.5 18t8.5 37q4 32 4.5 88.5t0.5 128.5v1z" />
    <glyph glyph-name="F" unicode="F" horiz-adv-x="592" 
d="M178 287v176v150.5t-2 61.5v1.5v1.5q-1 26 -9.5 39t-33.5 18q-3 1 -8 1.5t-10 0.5q-4 1 -8.5 1h-7.5t-5.5 1.5t-2.5 4.5q0 5 4 6.5t12 1.5h16.5h17.5q10 -1 19.5 -1h18.5q16 -1 27.5 -1.5t13.5 -0.5h44.5h78.5t78 0.5t45 0.5h7t7 1q9 0 17 0.5t13 2.5l3 1.5t2 0.5
q3 2 5 3t4 1q3 0 4.5 -2.5t1.5 -6.5t-1.5 -10t-3.5 -17q-1 -4 -1.5 -9t-1.5 -11q0 -4 -1 -13.5t-1 -20.5q-1 -10 -1.5 -19t-1.5 -13v-1.5v-0.5q-1 -3 -3 -6t-5 -3q-4 0 -5.5 3.5t-1.5 8.5q0 4 -1 11t-3 14q-1 4 -2.5 7t-2.5 6q-1 2 -2.5 4.5t-4.5 4.5q-8 9 -23 15.5t-38 7.5
l-154 4q-4 -1 -6.5 -3.5t-2.5 -8.5v-275q0 -5 1.5 -7.5t5.5 -2.5l128 2q13 -1 24 -1t21 1q18 2 28.5 5t17.5 13q2 2 3 3.5t3 3.5q1 1 2.5 2t2.5 1q3 0 4 -2t1 -6q0 -3 -1.5 -11t-3.5 -21q-1 -5 -1.5 -11t-1.5 -13q-1 -6 -1.5 -13.5t-0.5 -14.5q-1 -13 -1.5 -24.5t-0.5 -14.5
v-1.5v-0.5q0 -7 -1 -12t-6 -5q-4 0 -5.5 2.5t-1.5 6.5q0 5 -1 11t-2 13q0 3 -1 6l-2 6q-1 2 -2 4.5t-3 5.5q-6 8 -17.5 16t-29.5 10q-9 1 -30 1.5t-44 1.5h-48h-29q-4 0 -5.5 -2t-1.5 -7v-84q0 -73 0.5 -129.5t4.5 -88.5q2 -22 9.5 -37t29.5 -18q4 -1 8.5 -1.5t9.5 -0.5
q8 -1 15.5 -1.5t11.5 -0.5q5 0 6.5 -2t1.5 -4q0 -4 -4 -5.5t-12 -1.5h-10h-10q-16 0 -31.5 0.5t-28.5 0.5q-18 1 -29.5 1.5t-13.5 0.5t-13.5 -0.5t-26.5 -1.5h-8h-9q-11 0 -22 -0.5t-19 -0.5t-12 1.5t-4 5.5q0 2 2 4t6 2q3 0 7 0.5t8 0.5q4 1 8 1.5t7 1.5q15 3 20.5 18
t8.5 37q4 32 4.5 88.5t0.5 128.5v1z" />
    <glyph glyph-name="G" unicode="G" horiz-adv-x="862" 
d="M653 82v170q0 60 -7.5 77t-37.5 25q-3 1 -8 1.5t-10 0.5q-4 1 -8.5 1h-7.5t-5.5 1.5t-2.5 4.5q0 5 4 6.5t12 1.5h16.5h17.5q10 -1 19.5 -1h18.5q16 -1 27.5 -1.5t13.5 -0.5t13.5 0.5t26.5 1.5h8h9q11 0 22 0.5t19 0.5t12 -1.5t4 -6.5q0 -3 -2.5 -4.5t-5.5 -1.5h-1.5h-1.5
q-4 0 -9 -1t-13 -2q-20 -4 -27.5 -17.5t-9.5 -39.5q0 -3 -0.5 -6.5t-0.5 -7.5q-1 -20 -1 -41.5v-48.5v-111q0 -31 -1.5 -40t-8.5 -13l-1 -0.5t-2 -1.5q-22 -11 -46.5 -19t-50.5 -13q-31 -6 -61 -9t-54 -3q-39 0 -97 6.5t-119 30.5q-29 12 -57.5 29t-55.5 40
q-46 40 -82.5 115.5t-36.5 169.5q0 120 50 203.5t117 125.5q20 12 40 21.5t40 15.5q49 17 97 21.5t89 4.5h12.5t12.5 -1q22 -1 43.5 -3t39.5 -5q15 -2 27 -4.5t18 -3.5q9 -2 21.5 -4t24.5 -3l18 -2t17 -1q8 -1 10 -3.5t2 -5.5q0 -5 -1 -14t-2 -25q-2 -16 -3 -40.5t-1 -62.5
q0 -12 -2 -16.5t-7 -4.5q-4 0 -5 4t-2 11q-1 8 -3.5 21.5t-8.5 28.5l-4 8t-5 8q-2 3 -4.5 6t-5.5 6q-24 26 -81 47.5t-144 21.5q-47 0 -102 -10.5t-112 -55.5q-43 -34 -71 -100t-28 -154q0 -70 19.5 -126.5t43.5 -94.5q11 -19 22.5 -33t20.5 -23q59 -58 126 -82.5t136 -24.5
q10 0 22 0.5t24 2.5q19 2 37.5 6.5t30.5 11.5q10 5 15 13.5t5 21.5v1z" />
    <glyph glyph-name="H" unicode="H" horiz-adv-x="960" 
d="M782 463v-176q0 -73 0.5 -129.5t4.5 -88.5q2 -22 9.5 -37t29.5 -18q4 -1 8.5 -1.5t9.5 -0.5q8 -1 15.5 -1.5t11.5 -0.5q5 0 6.5 -2t1.5 -4q0 -4 -4 -5.5t-12 -1.5h-10h-10q-16 0 -31.5 0.5t-28.5 0.5q-18 1 -29.5 1.5t-13.5 0.5t-13.5 -0.5t-26.5 -1.5h-8h-9
q-11 0 -22 -0.5t-19 -0.5t-12 1.5t-4 5.5q0 2 2 4t6 2q3 0 7 0.5t8 0.5q4 1 8 1.5t7 1.5q15 3 20.5 18t8.5 37q4 32 4.5 88.5t0.5 128.5v106q0 2 -2 3.5t-4 1.5l-424 1l-4 -2t-2 -5v-104q0 -73 0.5 -129.5t4.5 -88.5q2 -22 9.5 -37t29.5 -18q4 -1 8.5 -1.5t9.5 -0.5
q8 -1 15.5 -1.5t11.5 -0.5q5 0 6.5 -2t1.5 -4q0 -4 -4 -5.5t-12 -1.5h-10h-10q-16 0 -31.5 0.5t-28.5 0.5q-18 1 -29.5 1.5t-13.5 0.5t-13.5 -0.5t-26.5 -1.5h-8h-9q-11 0 -22 -0.5t-19 -0.5t-12 1.5t-4 5.5q0 2 2 4t6 2q3 0 7 0.5t8 0.5q4 1 8 1.5t7 1.5q15 3 20.5 18
t8.5 37q4 32 4.5 88.5t0.5 128.5v177v150.5t-2 61.5v1.5v1.5q-1 26 -9.5 39t-33.5 18q-3 1 -8 1.5t-10 0.5q-4 1 -8.5 1h-7.5t-5.5 1.5t-2.5 4.5q0 5 4 6.5t12 1.5h16.5h17.5q10 -1 19.5 -1h18.5q16 -1 27.5 -1.5t13.5 -0.5t13.5 0.5t26.5 1.5h8h9q11 0 22 0.5t19 0.5
t12 -1.5t4 -6.5q0 -3 -2.5 -4.5t-5.5 -1.5h-1.5h-1.5q-4 0 -9 -1t-13 -2q-20 -4 -27.5 -17.5t-9.5 -39.5v-1.5v-1.5q-2 -23 -2 -61.5v-151.5v-20q0 -5 2 -6t4 -1l424 1q2 -1 4 0t2 5v22v150.5t-2 61.5v1.5v1.5q-1 26 -9.5 39t-33.5 18q-3 1 -8 1.5t-10 0.5q-4 1 -8.5 1h-7.5
t-5.5 1.5t-2.5 4.5q0 5 4 6.5t12 1.5h16.5h17.5q10 -1 19.5 -1h18.5q16 -1 27.5 -1.5t13.5 -0.5t13.5 0.5t26.5 1.5h8h9q11 0 22 0.5t19 0.5t12 -1.5t4 -6.5q0 -3 -2.5 -4.5t-5.5 -1.5h-1.5h-1.5q-4 0 -9 -1t-13 -2q-20 -4 -27.5 -17.5t-9.5 -39.5v-1.5v-1.5
q-2 -23 -2 -61.5v-151.5v1z" />
    <glyph glyph-name="I" unicode="I" horiz-adv-x="440" 
d="M262 463v-176q0 -73 0.5 -129.5t4.5 -88.5q2 -22 9.5 -37t29.5 -18q4 -1 8.5 -1.5t9.5 -0.5q8 -1 15.5 -1.5t11.5 -0.5q5 0 6.5 -2t1.5 -4q0 -4 -4 -5.5t-12 -1.5h-10h-10q-16 0 -31.5 0.5t-28.5 0.5q-18 1 -29.5 1.5t-13.5 0.5t-13.5 -0.5t-26.5 -1.5h-8h-9
q-11 0 -22 -0.5t-19 -0.5t-12 1.5t-4 5.5q0 2 2 4t6 2q3 0 7 0.5t8 0.5q4 1 8 1.5t7 1.5q15 3 20.5 18t8.5 37q4 32 4.5 88.5t0.5 128.5v177v150.5t-2 61.5v1.5v1.5q-1 26 -9 39t-25 17q-2 1 -4 1.5t-4 0.5q-7 1 -13 1.5t-10 0.5q-3 0 -5.5 1.5t-2.5 4.5q0 5 4 6.5t12 1.5
h19t22 -1h10h10q15 -1 26.5 -1.5t13.5 -0.5t13.5 0.5t26.5 1.5h8h9q11 0 22 0.5t19 0.5t12 -1.5t4 -6.5q0 -3 -2.5 -4.5t-5.5 -1.5h-1.5h-1.5q-4 0 -9 -1t-13 -2q-20 -4 -27.5 -17.5t-9.5 -39.5v-1.5v-1.5q-2 -23 -2 -61.5v-151.5v1z" />
    <glyph glyph-name="J" unicode="J" horiz-adv-x="414" 
d="M262 463v-240q0 -112 -3 -170.5t-20 -107.5q-2 -4 -3.5 -8.5t-3.5 -8.5q-4 -9 -9 -18.5t-11 -18.5q-19 -28 -49.5 -56.5t-76.5 -59.5q-2 -2 -5 -3.5t-5 -3.5q-1 -1 -2 -1.5t-2 -0.5q-7 -5 -13.5 -9.5t-11.5 -6.5q-1 -1 -3 -1.5t-4 -0.5h-0.5h-1.5q-2 1 -3.5 2.5t-1.5 3.5
t1 4t3 3q1 2 4 4l6 4q3 1 5.5 3t5.5 4t6 4.5t6 5.5t6 5.5t6 5.5l6 6t5 6q43 46 64 114.5t21 249.5v290v150.5t-2 61.5v1.5v1.5q-1 26 -9.5 39t-33.5 18q-3 1 -8 1.5t-10 0.5q-4 1 -8.5 1h-7.5t-5.5 1.5t-2.5 4.5q0 5 4 6.5t12 1.5h16.5h17.5q10 -1 19.5 -1h18.5
q16 -1 27.5 -1.5t13.5 -0.5t13.5 0.5t26.5 1.5h8h9q11 0 22 0.5t19 0.5t12 -1.5t4 -6.5q0 -3 -2.5 -4.5t-5.5 -1.5h-1.5h-1.5q-4 0 -9 -1t-13 -2q-20 -4 -27.5 -17.5t-9.5 -39.5v-1.5v-1.5q-2 -23 -2 -61.5v-151.5v1z" />
    <glyph glyph-name="K" unicode="K" horiz-adv-x="752" 
d="M178 287v176v150.5t-2 61.5v1.5v1.5q-1 26 -9.5 39t-33.5 18q-3 1 -8 1.5t-10 0.5q-4 1 -8.5 1h-7.5t-5.5 1.5t-2.5 4.5q0 5 4 6.5t12 1.5h14.5h14.5q11 -1 21 -1h20q15 -1 26.5 -1.5t13.5 -0.5q3 0 14.5 0.5t26.5 1.5h8h8q11 0 21.5 0.5t18.5 0.5t12 -1.5t4 -6.5
q0 -3 -2.5 -4.5t-5.5 -1.5h-1.5h-1.5q-4 0 -9 -1t-13 -2q-20 -4 -27.5 -17.5t-9.5 -39.5v-1.5v-1.5q-2 -23 -2 -61.5v-151.5v-59h4q7 7 42.5 43.5t76.5 78.5q37 38 69.5 71.5t45.5 47.5q21 22 37.5 40.5t16.5 31.5q0 9 -3.5 14t-9.5 7q-4 2 -6.5 3.5t-2.5 4.5q0 4 3.5 5.5
t8.5 1.5q8 0 17 -0.5t19 -0.5q2 -1 4.5 -1h4.5q8 0 15.5 -0.5t14.5 -0.5q2 0 13.5 0.5t27.5 1.5h5.5h6.5q12 0 23.5 0.5t19.5 0.5t11.5 -1.5t3.5 -5.5t-2 -5.5t-8 -1.5q-10 0 -22 -2.5t-25 -7.5q-3 -1 -5 -2l-4 -2q-14 -6 -25.5 -13.5t-22.5 -16.5q-13 -11 -27.5 -24.5
t-32.5 -31.5q-9 -9 -41 -40t-69 -67q-37 -37 -69.5 -70t-40.5 -42q10 -11 51 -54t89 -92q43 -44 81.5 -83t53.5 -53q43 -40 66.5 -61t43.5 -33q7 -5 14.5 -9t16.5 -7l4 -2l4 -2t4.5 -2t4.5 -2q18 -5 33 -7t20 -2t9 -1.5t4 -4.5q0 -4 -4.5 -5.5t-17.5 -1.5h-51h-28.5t-24.5 1
q-4 0 -8 0.5t-8 0.5q-24 1 -42 8t-34 18q-11 7 -21.5 15.5t-23.5 18.5q-17 14 -60.5 59t-92.5 97l-5.5 5.5t-4.5 5.5q-46 49 -85.5 93t-56.5 65l-5 1v-98q0 -73 0.5 -129.5t4.5 -88.5q2 -22 9.5 -37t29.5 -18q2 0 4.5 -0.5t5.5 -0.5l16 -2t13 -1t6.5 -2t1.5 -4q0 -4 -4 -5.5
t-12 -1.5h-11.5h-11.5q-13 0 -26 0.5t-24 1.5q-16 0 -27.5 0.5t-14.5 0.5t-14 -0.5t-26 -1.5h-8h-8q-11 0 -21.5 -0.5t-18.5 -0.5t-12 1.5t-4 5.5q0 2 2 4t6 2q3 0 7 0.5t8 0.5q4 1 8 1.5t7 1.5q15 3 20.5 18t8.5 37q4 32 4.5 88.5t0.5 128.5v1z" />
    <glyph glyph-name="L" unicode="L" horiz-adv-x="592" 
d="M262 463v-178q0 -111 4.5 -163.5t17.5 -66.5q12 -12 37 -17.5t83 -5.5q40 0 71.5 4t49.5 26q6 7 11 16.5t8 18.5q3 7 4.5 13t2.5 12t3 9.5t6 3.5t5 -3.5t1 -11.5q0 -5 -2 -21.5t-4 -35.5q-2 -12 -4.5 -23.5t-4.5 -19.5q0 -1 -0.5 -2.5t-1.5 -2.5q-4 -14 -14 -17.5
t-47 -3.5q-54 0 -94.5 1t-71.5 2q-32 1 -56 2t-46 1q-3 0 -14.5 -0.5t-26.5 -1.5h-8h-8q-11 0 -22 -0.5t-19 -0.5t-12 1.5t-4 5.5q0 2 2 4t6 2q3 0 7 0.5t8 0.5q4 1 8 1.5t7 1.5q15 3 20.5 18t8.5 37q4 32 4.5 88.5t0.5 128.5v177v150.5t-2 61.5v1.5v1.5q-1 26 -9.5 39
t-33.5 18q-3 1 -8 1.5t-10 0.5q-4 1 -8.5 1h-7.5t-5.5 1.5t-2.5 4.5q0 5 4 6.5t12 1.5h16.5h17.5q10 -1 19.5 -1h18.5q16 -1 27.5 -1.5t13.5 -0.5t15 0.5t30 1.5h7h8q14 0 26.5 0.5t21.5 0.5q8 0 12 -1.5t4 -6.5q0 -3 -2.5 -4.5t-5.5 -1.5q-4 0 -11 -0.5t-14 -1.5
q-2 0 -4 -0.5t-4 -0.5q-22 -4 -29.5 -17.5t-9.5 -39.5v-1.5v-1.5q-2 -23 -2 -61.5v-151.5v1z" />
    <glyph glyph-name="M" unicode="M" horiz-adv-x="1050" 
d="M855 740l67 -614q1 -10 2.5 -20t3.5 -20q5 -22 15.5 -41t32.5 -26t40 -8t25 -1q4 0 6 -1t2 -4q0 -4 -6 -6t-15 -2t-34 0.5t-54 1.5q-23 1 -44.5 1.5t-34.5 1.5q-17 2 -22.5 4t-5.5 6q0 3 1.5 4.5t5.5 2.5q2 1 3.5 6.5t1.5 13.5v8t-1 8l-48 517h-3l-245 -520
q-12 -26 -17.5 -37t-9.5 -15q-1 0 -2.5 -0.5t-3.5 -0.5h-1.5h-1.5q-4 1 -10 11t-18 34q-8 16 -23 45.5t-32 62.5l-41 82l-21 42q-3 7 -23 49t-43 92q-23 49 -42.5 91.5t-23.5 52.5l-4 1l-40 -464q0 -9 -0.5 -17.5t-0.5 -17.5v-8.5v-8.5q0 -11 7.5 -20t18.5 -11
q13 -3 23.5 -4t14.5 -1q3 0 5.5 -1.5t2.5 -3.5q0 -5 -4.5 -6.5t-13.5 -1.5h-12.5h-12.5q-8 1 -16.5 1h-15.5q-14 1 -23.5 1.5t-12.5 0.5t-13 -0.5t-22 -1.5h-8h-8q-9 -1 -17.5 -1h-15.5t-12 1.5t-5 6.5q0 2 3 3.5t7 1.5h1.5h1.5q5 0 11 0.5t16 2.5q24 4 30.5 28t9.5 51v2v2
l72 653q2 7 4.5 12t6.5 5q3 0 5.5 -1.5t4.5 -4.5q1 -2 2.5 -4t2.5 -5l306 -628l294 628q3 6 6.5 10.5t8.5 4.5t8 -6.5t4 -20.5v1z" />
    <glyph glyph-name="N" unicode="N" horiz-adv-x="947" 
d="M192 612l13 -479q2 -62 10.5 -86.5t28.5 -30.5q3 -1 5.5 -1.5t5.5 -0.5q12 -3 23 -3.5t16 -0.5q4 0 6 -1.5t2 -4.5q0 -4 -4.5 -5.5t-13.5 -1.5q-21 0 -39 0.5t-32 0.5q-14 1 -23 1.5t-12 0.5t-12.5 -0.5t-21.5 -1.5q-13 0 -29 -0.5t-33 -0.5q-7 0 -11.5 1.5t-4.5 5.5
q0 3 2 4.5t6 1.5q5 0 13 0.5t17 2.5q3 1 5.5 1.5t5.5 1.5q19 5 24.5 32t5.5 95l1 574q0 28 2.5 38.5t8.5 10.5q3 0 8.5 -4.5t10.5 -10.5l2 -2l1 -1q4 -4 7 -7.5t6 -6.5q11 -13 107 -116t211 -227q9 -9 17.5 -18.5t16.5 -18.5l6 -6l6 -6q63 -69 118.5 -130t75.5 -82l-11 509
q-1 48 -8.5 68t-30.5 26q-3 1 -7 1.5t-7 0.5q-11 2 -20.5 2.5t-14.5 0.5t-6.5 2t-1.5 5q0 5 5.5 6t14.5 1h5.5h4.5q15 0 29 -0.5t26 -0.5q14 -1 24.5 -1.5t14.5 -0.5t12 0.5t19 1.5q11 0 25 0.5t29 0.5q8 0 13 -1t5 -6q0 -3 -3 -5t-8 -2q-4 0 -9.5 -0.5t-14.5 -2.5
q-25 -5 -31 -24.5t-6 -64.5l-2 -585q0 -50 -2 -60.5t-7 -10.5q-6 0 -19.5 11.5t-53.5 51.5q-6 6 -63 64t-124 128q-2 3 -4.5 5.5l-4.5 4.5q-17 18 -33.5 35t-31.5 34l-2 2l-2 2q-86 93 -159.5 174.5t-97.5 108.5v1z" />
    <glyph glyph-name="O" unicode="O" horiz-adv-x="915" 
d="M64 376q0 27 4.5 56.5t14.5 59.5q32 103 123.5 188.5t251.5 85.5q169 0 281 -100t112 -275q0 -168 -109 -288t-290 -120q-178 0 -269.5 99.5t-112.5 218.5q-3 19 -4.5 37.5t-1.5 36.5v1zM159 404q0 -176 92.5 -280t227.5 -104q23 0 53 5.5t61 19.5q61 29 111.5 101.5
t50.5 216.5q0 180 -92.5 274.5t-211.5 94.5q-125 0 -208.5 -82.5t-83.5 -246.5v1z" />
    <glyph glyph-name="P" unicode="P" horiz-adv-x="642" 
d="M178 287v176v150.5t-2 61.5v1.5v1.5q-1 26 -9.5 39t-33.5 18q-3 1 -8 1.5t-10 0.5q-4 1 -8.5 1h-7.5t-5.5 1.5t-2.5 4.5q0 5 4 6.5t12 1.5h16h16q10 -1 19.5 -1h18.5q17 -1 28.5 -1.5t14.5 -0.5q8 0 22.5 0.5t31.5 1.5h18t18 1h18h18q57 0 93.5 -9.5t57.5 -21.5
q13 -8 21.5 -15t13.5 -11l6 -6t6 -7q14 -18 26 -45.5t12 -60.5q0 -106 -69.5 -172t-176.5 -66h-4.5h-5.5t-6 0.5t-5 0.5h-1.5h-0.5q-3 1 -6 2.5t-3 4.5q0 6 5.5 7.5t21.5 1.5q73 0 123 47t50 116q0 18 -3.5 47t-19.5 60q-6 12 -14 24t-19 23q-7 7 -14 13t-14 10
q-31 21 -59.5 24t-44.5 3h-2.5h-2.5q-13 0 -24.5 -1.5t-18.5 -4.5q-4 -1 -6 -6t-2 -13v-410q0 -73 0.5 -129.5t4.5 -88.5q2 -22 9.5 -37t29.5 -18q4 -1 8.5 -1.5t9.5 -0.5q8 -1 15.5 -1.5t11.5 -0.5q5 0 6.5 -2t1.5 -4q0 -4 -4 -5.5t-12 -1.5h-10h-10q-16 0 -31.5 0.5
t-28.5 0.5q-18 1 -29.5 1.5t-13.5 0.5q-1 0 -12 -0.5t-26 -1.5h-8.5h-9.5q-11 -1 -21.5 -1h-18.5t-12 1.5t-4 5.5q0 2 2 4t6 2q3 0 7 0.5t8 0.5q4 1 8 1.5t7 1.5q15 3 20.5 18t8.5 37q4 32 4.5 88.5t0.5 128.5v1z" />
    <glyph glyph-name="Q" unicode="Q" horiz-adv-x="920" 
d="M780 -76l-168 93q-18 -11 -46 -18t-57 -12q-14 -2 -27.5 -3t-26.5 -1q-180 0 -272 99.5t-113 218.5q-3 19 -4.5 37.5t-1.5 36.5q0 28 4.5 57.5t14.5 59.5q32 103 123.5 188.5t251.5 85.5q169 0 281 -100.5t112 -274.5q0 -94 -35 -165t-77 -116q-17 -18 -34 -32t-31 -23
l205 -105q164 -85 274 -101.5t147 -16.5q28 0 66.5 5t79.5 16q13 4 25.5 8.5t25.5 9.5q5 1 8.5 2.5t5.5 1.5q3 0 4.5 -2t1.5 -4q0 -3 -1.5 -5.5t-6.5 -4.5q-12 -6 -27.5 -12t-33.5 -13q-47 -16 -111.5 -30t-144.5 -14q-91 0 -190.5 33.5t-221.5 100.5v0zM159 404
q0 -176 92.5 -280t227.5 -104q23 0 53 5.5t61 19.5q61 29 111.5 101.5t50.5 216.5q0 180 -92.5 274.5t-211.5 94.5q-125 0 -208.5 -82.5t-83.5 -246.5v1z" />
    <glyph glyph-name="R" unicode="R" horiz-adv-x="754" 
d="M178 287v176v150.5t-2 61.5v1.5v1.5q-1 26 -9.5 39t-33.5 18q-3 1 -8 1.5t-10 0.5q-4 1 -8.5 1h-7.5t-5.5 1.5t-2.5 4.5q0 5 4 6.5t12 1.5h16.5h17.5q10 -1 19.5 -1h18.5q16 -1 27.5 -1.5t13.5 -0.5q4 0 18.5 0.5t33.5 1.5h6.5h6.5q15 0 29 0.5t24 0.5q11 0 21.5 -0.5
t20.5 -0.5q38 -2 74 -11.5t67 -31.5q6 -4 12.5 -10t13.5 -14q16 -19 29.5 -47.5t13.5 -64.5q0 -55 -26.5 -112t-94.5 -119q62 -79 113.5 -144t94.5 -112q41 -43 72 -56t50 -16q14 -2 24.5 -2.5t14.5 -0.5t6.5 -2t2.5 -4q0 -4 -5 -5.5t-19 -1.5h-71q-41 0 -63.5 3.5
t-41.5 13.5l-0.5 0.5t-1.5 0.5q-9 5 -17 11t-16 13q-23 20 -47 51t-55 72q-5 6 -10 13t-10 13q-2 3 -4.5 6.5t-4.5 6.5q-25 33 -46.5 63.5t-33.5 45.5l-1.5 1.5l-1.5 1.5q-2 1 -4.5 2t-5.5 1l-123 3q-4 -1 -5.5 -3t-1.5 -6v-23q0 -73 0.5 -129.5t4.5 -88.5q2 -22 9.5 -37
t29.5 -18q4 -1 8.5 -1.5t9.5 -0.5q8 -1 15.5 -1.5t11.5 -0.5q5 0 6.5 -2t1.5 -4q0 -4 -4 -5.5t-12 -1.5h-10h-10q-16 0 -31.5 0.5t-28.5 0.5q-18 1 -29.5 1.5t-13.5 0.5l-10.5 -0.5t-25.5 -1.5h-9.5h-9.5q-11 -1 -21 -1h-18t-12 1.5t-4 5.5q0 2 2 4t6 2q3 0 7 0.5t8 0.5
q4 1 8 1.5t7 1.5q15 3 20.5 18t8.5 37q4 32 4.5 88.5t0.5 128.5v1zM258 703v-327q0 -5 1.5 -8t5.5 -5q11 -6 38.5 -10.5t58.5 -5.5h4h4q8 0 16.5 0.5t17.5 2.5q10 2 20.5 5.5t20.5 10.5q26 18 43.5 57.5t17.5 96.5q0 94 -46.5 147t-126.5 53q-22 0 -40.5 -2t-26.5 -4
q-4 -1 -6 -4t-2 -8v1z" />
    <glyph glyph-name="S" unicode="S" horiz-adv-x="570" 
d="M248 -17q-35 0 -69 6t-65 20q-1 1 -2 1.5t-2 0.5q-8 5 -9.5 11.5t-1.5 24.5q0 21 1 40t2 33q0 11 1 19.5t1 13.5q1 8 2.5 12t5.5 4q5 0 6 -2.5t1 -8.5q0 -7 0.5 -16.5t2.5 -20.5q11 -55 54.5 -78.5t93.5 -23.5q67 0 102.5 37.5t39.5 82.5q1 3 1 6.5v6.5q0 25 -5.5 46
t-17.5 41q-14 21 -36.5 43t-55.5 50l-45 38q-64 52 -92 94.5t-35 82.5q-2 10 -2.5 19.5t-0.5 19.5q0 80 56 130t151 50q29 0 51.5 -2.5t41.5 -7.5q14 -3 21.5 -4t13.5 -1t8 -1.5t2 -5.5q0 -2 -0.5 -9t-1.5 -20t-1.5 -32t-0.5 -45q0 -12 -1.5 -17.5t-5.5 -5.5t-5.5 3.5
t-2.5 9.5q0 4 -1.5 10.5t-2.5 13.5q-2 8 -4.5 15t-4.5 11t-7 10.5t-15 14.5q-14 11 -38.5 19.5t-64.5 8.5q-52 0 -87.5 -30.5t-35.5 -85.5q0 -15 3 -28t9 -26q12 -24 38 -50t72 -64l28 -21q56 -45 87 -81.5t45 -71.5q8 -20 11 -40.5t3 -42.5q0 -17 -4.5 -41.5t-17.5 -50.5
q-10 -20 -25 -39t-38 -35q-32 -22 -71 -31.5t-80 -9.5v0z" />
    <glyph glyph-name="T" unicode="T" horiz-adv-x="691" 
d="M391 710v-423q0 -73 0.5 -129.5t4.5 -88.5q2 -22 9.5 -37t29.5 -18q4 -1 8.5 -1.5t9.5 -0.5q8 -1 15.5 -1.5t11.5 -0.5q5 0 6.5 -2t1.5 -4q0 -4 -4 -5.5t-12 -1.5h-10h-10q-16 0 -31.5 0.5t-28.5 0.5q-18 1 -29.5 1.5t-13.5 0.5t-13.5 -0.5t-26.5 -1.5h-8h-9
q-11 0 -22 -0.5t-19 -0.5t-12 1.5t-4 5.5q0 2 2 4t6 2q3 0 7 0.5t8 0.5q4 1 8 1.5t7 1.5q15 3 20.5 18t8.5 37q4 32 4.5 88.5t0.5 128.5v424l-148 -2q-46 -2 -68 -8.5t-34 -24.5q-8 -13 -11.5 -19.5t-5.5 -11.5q-2 -6 -4.5 -8t-5.5 -2q-2 0 -3.5 2.5t-1.5 6.5t3 19t7 33
q0 1 0.5 2t0.5 2q4 17 7 31t4 17q1 2 1.5 4t1.5 4q1 4 3 7.5t4 3.5q3 0 7 -2t10 -4q5 -2 11.5 -3.5t15.5 -2.5q6 -1 12 -1.5t12 -0.5q17 -1 32.5 -2t22.5 -1l375 1q24 -1 41.5 0.5t29.5 3.5q11 2 18 3.5t10 1.5q4 0 4.5 -3.5t0.5 -8.5q0 -9 -0.5 -22t-0.5 -27v-6.5v-6.5
q-1 -17 -1.5 -30.5t-0.5 -17.5q0 -7 -2 -10t-5 -3q-4 0 -5.5 3.5t-2.5 13.5l-1 12q-3 22 -27 37.5t-96 16.5l-126 3v0z" />
    <glyph glyph-name="U" unicode="U" horiz-adv-x="830" 
d="M120 317v146v150.5t-2 61.5v1.5v1.5q-1 26 -9.5 39t-33.5 18q-3 1 -8 1.5t-10 0.5q-4 1 -8.5 1h-7.5t-5.5 1.5t-2.5 4.5q0 5 4 6.5t12 1.5h16.5h17.5q9 -1 18.5 -1h18.5q17 -1 29 -1.5t15 -0.5t15 0.5t27 1.5h7h8q12 0 23 0.5t19 0.5t12 -1.5t4 -6.5q0 -3 -2.5 -4.5
t-5.5 -1.5h-1.5h-1.5q-4 0 -9 -1t-13 -2q-20 -3 -27.5 -17t-9.5 -40v-1.5v-1.5q-2 -23 -2 -61.5v-151.5v-139q0 -109 21.5 -163t53.5 -85q9 -9 18 -16t18 -12q27 -16 55 -21.5t60 -5.5q46 0 88 20t69 52q35 43 46.5 105.5t11.5 139.5v126v150.5t-2 61.5v1.5v1.5
q-1 26 -9.5 39t-33.5 18q-3 1 -8 1.5t-10 0.5q-4 1 -8.5 1h-7.5t-5.5 1.5t-2.5 4.5q0 5 4 6.5t12 1.5h12h11q12 0 23.5 -0.5t21.5 -0.5q15 -1 25.5 -1.5t12.5 -0.5q3 0 12 0.5t21 1.5h10.5h10.5q8 1 15.5 1h14.5q8 0 12 -1.5t4 -6.5q0 -3 -2.5 -4.5t-5.5 -1.5h-1.5h-1.5
q-4 0 -9 -0.5t-13 -2.5q-20 -4 -27.5 -17.5t-9.5 -39.5v-1.5v-1.5q-2 -23 -2 -61.5v-151.5v-106q0 -17 -0.5 -33t-1.5 -33q-4 -66 -23 -128.5t-67 -105.5q-9 -8 -17.5 -14.5t-16.5 -11.5q-46 -30 -90.5 -38.5t-81.5 -8.5q-18 0 -55.5 4t-78.5 20q-19 8 -37.5 19t-34.5 27
q-37 35 -62 94.5t-25 168.5v1z" />
    <glyph glyph-name="V" unicode="V" horiz-adv-x="742" 
d="M203 631l192 -512q18 40 43 102.5t52 131.5q2 6 4.5 11.5t4.5 11.5q37 96 69 181.5t41 115.5q4 11 6.5 21t2.5 17v3.5t-1 3.5q-1 5 -4 9t-8 7l-8 2t-9 1q-5 1 -10.5 1h-10.5q-4 0 -7.5 1t-3.5 5q0 5 5 6.5t17 1.5h9.5h8.5q11 0 21.5 -0.5t19.5 -0.5q14 -1 24.5 -1.5
t14.5 -0.5q2 0 10.5 0.5t19.5 1.5h10.5h11.5q7 1 13.5 1h12.5q8 0 12.5 -1.5t4.5 -5.5t-3 -5.5t-9 -1.5q-4 0 -15 -1t-23 -6q-3 -1 -5.5 -2t-4.5 -3q-10 -7 -22.5 -25t-32.5 -69q-8 -21 -41 -100t-71 -171q-46 -109 -79 -187.5t-50 -115.5q-17 -36 -24 -52t-12 -21l-3 -1.5
t-3 -0.5q-3 0 -5.5 1.5t-4.5 3.5q-5 6 -10.5 19t-15.5 37l-245 614q-4 10 -8 18.5t-8 15.5q-11 20 -24 28t-32 14q-2 0 -3.5 0.5t-3.5 1.5q-10 1 -18 1.5t-12 0.5q-5 0 -6.5 2t-1.5 5q0 5 7 6t18 1h12h13q12 0 24 -0.5t23 -0.5q16 -1 28.5 -1.5t16.5 -0.5t13.5 0.5t22.5 1.5
q9 0 18.5 0.5t19.5 0.5h9.5h9.5q14 0 20.5 -1.5t6.5 -5.5t-2.5 -5.5t-7.5 -1.5h-8.5t-8.5 -1q-6 0 -11.5 -1t-9.5 -3q-6 -3 -9 -7t-4 -8v-2.5v-2.5q0 -10 8 -32t19 -51v1z" />
    <glyph glyph-name="W" unicode="W" horiz-adv-x="1100" 
d="M599 702l199 -567h4l33 108t47 152q1 3 1.5 5.5t1.5 5.5q21 67 40 131t31 107q8 28 9.5 41t1.5 23q0 14 -11 22t-46 8q-4 0 -6.5 2t-2.5 5q0 4 4 5.5t13 1.5q19 0 36 -0.5t31 -0.5q13 -1 22.5 -1.5t12.5 -0.5t11.5 0.5t20.5 1.5h11.5t12.5 1h13h12q7 0 10.5 -1.5
t3.5 -4.5q0 -4 -2 -6t-7 -2q-2 0 -8 -0.5t-13 -1.5q-3 0 -6.5 -1t-6.5 -2q-19 -7 -31.5 -28t-23.5 -52q-3 -7 -5 -14t-5 -14q-16 -46 -40 -119t-49 -151q-28 -86 -54 -164.5t-41 -122.5q-15 -43 -22.5 -60.5t-12.5 -22.5q-2 -1 -3.5 -1.5t-3.5 -0.5t-4.5 1t-4.5 4
q-4 5 -9 16t-12 30l-196 557h-2q-13 -37 -42.5 -115t-61.5 -165q-33 -86 -62 -163.5t-43 -112.5q-7 -19 -12 -30t-9 -16q-3 -3 -5.5 -4.5t-6.5 -1.5q-2 0 -3.5 0.5t-3.5 2.5q-5 4 -11 20.5t-17 54.5l-178 594q-2 6 -4.5 12.5t-4.5 12.5q-9 24 -19.5 35t-26.5 17q-4 2 -9 3
t-10 1q-8 1 -15.5 1.5t-9.5 0.5q-4 0 -6.5 1.5t-2.5 5.5t4 5.5t11 1.5h4.5h5.5q17 0 33.5 -0.5t30.5 -0.5q17 -1 28.5 -1.5t15.5 -0.5q3 0 12.5 0.5t23.5 1.5q14 0 31 0.5t36 0.5q11 0 14.5 -2t3.5 -5q0 -4 -3 -5.5t-7 -1.5h-10t-13 -1l-8 -2t-8 -3q-1 0 -1.5 -0.5
l-0.5 -0.5q-4 -3 -7.5 -8.5t-3.5 -14.5q0 -10 6 -34.5t13 -57.5q6 -24 25.5 -95t41.5 -151t41.5 -149t25.5 -89l2 1l212 570q10 25 14.5 34t7.5 11h1.5h1.5h1.5t1.5 -1q4 -2 9 -13t13 -33v1z" />
    <glyph glyph-name="X" unicode="X" horiz-adv-x="694" 
d="M124 97l181 286l-160 269q-2 3 -4.5 6.5t-4.5 7.5q-15 24 -31 40.5t-38 24.5q-3 1 -5.5 1.5t-5.5 1.5q-10 2 -18.5 3t-12.5 1t-6.5 2t-2.5 5q0 4 3.5 5.5t13.5 1.5q9 0 23.5 -0.5t30.5 -0.5h6h6q19 -1 33.5 -1.5t17.5 -0.5t13.5 0.5t24.5 1.5h11.5h12.5q8 1 16.5 1h15.5
q11 0 14 -1.5t3 -5.5t-2 -5.5t-7 -1.5h-7t-8 -1q-3 0 -6 -0.5t-6 -1.5q-7 -2 -9.5 -7t-2.5 -10t1.5 -10.5t3.5 -11.5q1 -3 2.5 -5.5t2.5 -5.5q3 -5 5.5 -10t4.5 -10q7 -12 13.5 -24.5t13.5 -24.5q23 -41 46.5 -82.5t51.5 -87.5q10 14 29.5 44t40.5 64q1 2 2 3t1 3
q26 41 48 77t26 44t6 13.5t3 11.5q0 2 0.5 5t0.5 6v2t-1 2q-1 4 -5.5 8t-10.5 6q-2 1 -5 1.5t-6 0.5q-6 1 -11 1h-8q-4 0 -6.5 1.5t-2.5 5.5q0 3 4 5t13 2h6h6q12 0 23 -0.5t20 -0.5q13 -1 22 -1.5t12 -0.5t12 0.5t21 1.5q7 0 15.5 0.5t16.5 0.5h9.5h9.5q8 0 12 -2t4 -5
t-3 -5t-8 -2q-3 0 -9 -0.5t-12 -1.5q-3 0 -6 -1l-6 -2q-11 -3 -20 -10t-18 -18q-9 -10 -18.5 -23.5t-20.5 -29.5l-161 -241q7 -13 38.5 -65.5t67.5 -113.5q35 -59 66 -110t39 -61q1 -2 2.5 -3.5l3.5 -3.5q10 -13 22 -22.5t31 -15.5q1 0 2 -0.5t2 -0.5q10 -3 18.5 -4t12.5 -1
t6 -1.5t2 -4.5q0 -4 -3.5 -5.5t-10.5 -1.5q-37 0 -69 0.5t-63 0.5q-7 1 -14 1h-14q-4 0 -7 0.5t-6 0.5q-11 0 -14.5 1.5t-3.5 4.5t1.5 5t4.5 3q1 0 1.5 0.5l0.5 0.5q3 2 5 5.5t2 8.5q0 3 -1 6t-3 7q-40 74 -83.5 148t-88.5 150l-156 -264q-1 -3 -2.5 -5.5t-2.5 -5.5
q-4 -10 -6 -19t-2 -15q0 -7 4.5 -12t11.5 -7q2 0 4 -0.5t4 -0.5q3 -1 6 -1h5q4 0 6 -2t2 -5t-3.5 -4.5t-8.5 -1.5q-8 0 -19.5 0.5t-24.5 0.5h-4.5h-5.5q-15 1 -27 1.5t-15 0.5t-13 -0.5t-23 -1.5h-12h-12q-8 -1 -16 -1h-15q-5 0 -7 1.5t-2 4.5t2 5t5 2q6 0 16.5 1t21.5 4
q10 3 18.5 7.5t16.5 12.5q11 9 22.5 24t25.5 37v1z" />
    <glyph glyph-name="Y" unicode="Y" horiz-adv-x="654" 
d="M289 170v86q0 32 -4.5 52t-11.5 37q-2 4 -3.5 7.5t-3.5 7.5q-3 7 -30 51.5t-59 97.5q-1 1 -1.5 2.5t-1.5 2.5q-26 42 -49.5 79.5t-34.5 54.5q-19 28 -36.5 46.5t-31.5 27.5q-3 2 -6.5 4t-7.5 4q-8 4 -15.5 6t-12.5 2q-4 0 -7 1.5t-3 5.5q0 3 3 5t10 2q6 0 19 -0.5
t27 -0.5h4t4 -1q16 0 29 -0.5t15 -0.5q3 0 11 0.5t19 1.5q11 0 25 0.5t29 0.5q8 0 10.5 -2t2.5 -5q0 -1 -1 -2.5t-3 -1.5q-2 -1 -5 -2t-6 -3q-6 -3 -9.5 -7.5t-3.5 -10.5q0 -9 3.5 -18.5t9.5 -20.5t33.5 -58t58.5 -102q31 -53 58 -99t34 -57q7 15 30 57t50 89q1 1 1.5 2.5
t1.5 2.5q27 48 51.5 89.5t31.5 53.5q10 16 13.5 28.5t3.5 22.5q0 11 -3.5 18.5t-12.5 9.5q-2 1 -3.5 1.5t-2.5 0.5q-4 2 -6.5 3.5t-2.5 4.5t4.5 4.5t11.5 1.5h8h8q6 -1 12 -1h12q9 -1 16 -1.5t10 -0.5q2 0 15 0.5t29 1.5h3h4q14 0 27 0.5t19 0.5q5 0 9 -1.5t4 -4.5
q0 -4 -3.5 -6t-9.5 -2t-14.5 -1.5t-17.5 -5.5q-4 -2 -7.5 -3.5t-6.5 -3.5q-7 -4 -12.5 -8t-10.5 -10q-7 -6 -14 -14t-16 -19q-12 -14 -38 -55t-55 -89q-2 -4 -4.5 -8t-4.5 -7q-31 -52 -56.5 -97.5t-32.5 -61.5q-8 -19 -11 -37t-4 -35v-14v-14v-85q0 -13 0.5 -41t2.5 -60
q2 -22 10.5 -37t30.5 -18q4 -1 8.5 -1.5t9.5 -0.5q8 -1 15.5 -1.5t11.5 -0.5q5 0 6.5 -2t1.5 -4q0 -4 -4 -5.5t-12 -1.5h-10h-10q-16 0 -31.5 0.5t-28.5 0.5q-18 1 -29.5 1.5t-13.5 0.5t-13.5 -0.5t-26.5 -1.5h-8h-9q-11 0 -22 -0.5t-19 -0.5t-12 1.5t-4 5.5q0 2 2 4t6 2
q3 0 7 0.5t8 0.5q4 1 8 1.5t7 1.5q15 3 22.5 18t8.5 37q2 32 2.5 60t0.5 40v1z" />
    <glyph glyph-name="Z" unicode="Z" horiz-adv-x="692" 
d="M184 40h272q79 -1 110.5 12.5t47.5 35.5q4 5 7 12.5t6 15.5q3 7 4.5 14t2.5 12q2 8 3.5 12t5.5 4q5 0 6.5 -4.5t1.5 -18.5q0 -10 -2 -24.5t-5 -28.5l-2 -12l-2 -12q-3 -12 -5 -21.5t-4 -16.5q-1 -3 -1.5 -6t-1.5 -5q-3 -9 -8 -11.5t-19 -2.5q-63 0 -125.5 1t-126.5 1
l-128 2t-130 1q-9 0 -13.5 1t-4.5 6q0 4 2.5 9.5t11.5 18.5l32 48l32 48q96 145 191 290t184 290l-217 1q-10 -1 -20 -1t-21 -1q-29 -1 -57 -5.5t-46 -13.5q-15 -8 -26 -19.5t-18 -23.5q-6 -10 -9 -19t-4 -17q-1 -11 -4 -14.5t-7 -3.5t-5 3.5t-1 9.5q0 5 3 26t7 45
q0 1 0.5 2.5t0.5 3.5q3 17 5.5 32t3.5 24q2 11 4 15t6 4h1.5h1.5l6 -2t7 -2t10.5 -2t15.5 -1q59 -2 96.5 -2.5t60.5 -0.5h9h8l279 1q11 -1 15.5 -2.5t4.5 -6.5v-2v-2t-1 -3t-3 -5q-109 -172 -221.5 -344.5t-226.5 -345.5v1z" />
    <glyph glyph-name="bracketleft" unicode="[" horiz-adv-x="360" 
d="M97 -58v839q0 7 3 9.5t14 2.5l170 1q6 -1 9 -2.5t3 -5.5q0 -3 -4 -5t-13 -3q-12 -1 -26.5 -2.5t-29.5 -4.5q-14 -2 -28 -5.5t-25 -8.5q-4 -16 -5.5 -38.5t-1.5 -54.5v-609q0 -32 1.5 -54.5t5.5 -38.5q11 -5 25 -8.5t29 -6.5q15 -2 29 -3.5t25 -2.5q9 -1 13 -2.5t4 -5.5
t-3 -5.5t-9 -1.5h-170q-11 0 -13.5 2.5t-2.5 13.5v0z" />
    <glyph glyph-name="backslash" unicode="\" horiz-adv-x="500" 
 />
    <glyph glyph-name="bracketright" unicode="]" horiz-adv-x="360" 
d="M263 778v-839q0 -8 -3 -10.5t-14 -2.5h-170q-6 0 -9 1.5t-3 5.5q0 3 4 5t13 3q12 1 26.5 2.5t29.5 4.5q14 2 28 5.5t25 8.5q4 16 5.5 38.5t1.5 53.5v611q0 31 -1.5 53.5t-5.5 38.5q-11 5 -25 8.5t-29 6.5q-15 2 -29 3.5t-25 2.5q-9 1 -13 2.5t-4 5.5t3 5.5t9 1.5l170 1
q11 -1 13.5 -3.5t2.5 -13.5v1z" />
    <glyph glyph-name="asciicircum" unicode="^" horiz-adv-x="500" 
 />
    <glyph glyph-name="underscore" unicode="_" horiz-adv-x="500" 
d="M0 -75h500v-50h-500v50v0z" />
    <glyph glyph-name="grave" unicode="`" horiz-adv-x="911" 
d="M506 830q-7 -1 -33.5 7.5t-56.5 18.5q-2 1 -4.5 1.5t-4.5 1.5q-28 10 -52 18.5t-30 10.5q-13 5 -19.5 8t-8.5 6q-1 1 -1 1.5v1.5q0 3 2 4.5t5 2.5q1 0 2 0.5t2 0.5q5 1 9.5 2.5t9.5 3.5q2 0 4 0.5t4 1.5q10 3 19 6t14 5q6 2 9.5 3.5t6.5 1.5q1 0 2 -0.5t2 -1.5
q2 -2 4.5 -5.5t6.5 -8.5q4 -4 21.5 -18t39.5 -30l8 -6t8 -5q6 -4 11 -7.5t10 -6.5q6 -4 11 -6.5t7 -5.5l0.5 -0.5t0.5 -1.5q0 -2 -2.5 -3.5t-6.5 -1.5v1z" />
    <glyph glyph-name="a" unicode="a" horiz-adv-x="700" 
d="M95 107l227 621q7 19 11 27t8 10q0 1 1 1h2h2t1 -1q4 -1 8 -8.5t11 -26.5q7 -17 45 -117t83 -216q30 -79 58.5 -151.5t46.5 -118.5q27 -67 48.5 -86.5t37.5 -24.5q11 -4 22 -5t18 -1q5 0 7.5 -1t2.5 -5t-6 -5.5t-14 -1.5h-53t-91 2h-6.5h-6.5h-4h-4q-10 1 -16 1.5t-6 4.5
q0 3 2 4.5t5 2.5h0.5t1.5 1q2 1 4.5 4.5t1.5 9.5v2v2q0 2 -0.5 4t-1.5 4l-93 247q-1 2 -3 3.5t-6 1.5l-215 1q-4 -1 -6 -3t-4 -6l-60 -176q-7 -20 -10.5 -37t-3.5 -31q0 -13 9.5 -19.5t20.5 -8.5q2 -1 4 -1h4l10 1q5 -1 7.5 -2.5t2.5 -4.5q0 -4 -4 -5.5t-11 -1.5t-15 0.5
t-17 0.5h-6h-6q-11 1 -20.5 1.5t-13.5 0.5t-15.5 -0.5t-27.5 -1.5q-11 0 -23 -0.5t-25 -0.5h-10.5h-10.5q-10 0 -14.5 1.5t-4.5 5.5q0 3 2.5 4.5t6.5 1.5h7t8 1q3 0 6.5 0.5t6.5 0.5q35 5 53 31t31 63v1zM235 328h191q4 -1 4.5 1t-0.5 5l-95 271q-4 10 -7.5 10t-7.5 -11
l-88 -269q-1 -2 -1 -3v-2t1.5 -2t2.5 -1v1z" />
    <glyph glyph-name="b" unicode="b" horiz-adv-x="687" 
d="M178 287v176v150.5t-2 61.5v1.5v1.5q-1 26 -9.5 39t-33.5 18q-3 1 -8 1.5t-10 0.5q-4 1 -8.5 1h-7.5t-5.5 1.5t-2.5 4.5q0 5 4 6.5t12 1.5h16.5h17.5q10 -1 19.5 -1h18.5q16 -1 27.5 -1.5t13.5 -0.5q9 0 20.5 0.5t25.5 1.5q14 0 30 0.5t33 0.5q82 0 124.5 -28t60.5 -61
q8 -17 11.5 -32.5t3.5 -28.5q0 -61 -29.5 -102t-64.5 -78q11 -3 23 -8t24 -12q47 -25 86.5 -73t39.5 -118v-5.5v-5.5q-5 -78 -68 -142t-187 -64q-8 0 -26 1t-38 2h-4h-4q-22 1 -40 2t-21 1q-2 0 -13.5 -0.5t-26.5 -1.5h-8h-9q-11 0 -22 -0.5t-19 -0.5t-12 1.5t-4 5.5
q0 2 2 4t6 2q3 0 7 0.5t8 0.5q4 1 8 1.5t7 1.5q15 3 20.5 18t8.5 37q4 32 4.5 88.5t0.5 128.5v1zM258 392v-57v-38.5v-40.5v-89t1 -49q0 -3 0.5 -6t0.5 -6q2 -29 6.5 -42t23.5 -23q1 0 1.5 -0.5t1.5 -0.5q8 -4 17.5 -6.5t18.5 -4.5q16 -2 30 -3t22 -1q11 0 24 2t26 6
q34 11 62.5 42t28.5 92q0 20 -3.5 43t-11.5 47q-10 30 -30 59t-52 51q-25 17 -45 22t-38 7q-5 1 -16 1.5t-24 0.5h-22h-16q-3 0 -4.5 -1.5t-1.5 -5.5v1zM258 709v-268q0 -6 1.5 -8t5.5 -4q2 0 5 -0.5t8 -1.5q8 -1 19.5 -1.5t28.5 -0.5q36 0 52.5 2.5t29.5 14.5q2 2 4.5 4
t4.5 5q16 18 26 44t10 57v8v8q-4 58 -35 107t-100 49q-5 0 -13.5 -0.5t-17.5 -1.5q-4 0 -8.5 -1t-8.5 -2q-7 -1 -9.5 -3.5t-2.5 -7.5v1z" />
    <glyph glyph-name="c" unicode="c" horiz-adv-x="805" 
d="M515 -17q-112 0 -191.5 27t-138.5 80q-43 38 -68 82.5t-37 89.5q-9 32 -12.5 63.5t-3.5 60.5q0 32 8.5 77t31.5 93q12 27 30 53t42 50q45 45 117.5 76t187.5 31q21 0 46.5 -1t52.5 -4q12 -2 23.5 -3.5t22.5 -3.5q29 -5 53.5 -9t48.5 -6q8 -1 10.5 -3.5t2.5 -7.5
q0 -4 -1 -11.5t-2 -21.5q-1 -5 -1.5 -10.5t-0.5 -12.5q-1 -9 -1 -19.5t-1 -21.5v-18.5v-17.5q0 -9 -0.5 -15.5t-0.5 -10.5q-1 -11 -2.5 -16t-6.5 -5t-6.5 5.5t-1.5 15.5v5.5v5.5q-2 27 -13 51.5t-29 39.5q-26 23 -80 40t-120 17q-88 0 -138.5 -19t-78.5 -42q-4 -3 -7 -6
l-6 -6q-55 -52 -72.5 -118t-17.5 -143q0 -143 100.5 -254.5t260.5 -111.5q56 0 100 9.5t74 40.5q7 8 13 18t11 21q5 14 8.5 26t4.5 19q2 8 4 11.5t6 3.5t5.5 -4.5t1.5 -10.5q0 -3 -3 -24.5t-7 -46.5q-2 -10 -4 -20.5t-4 -19.5q-1 -5 -2 -9l-2 -8q-1 -3 -1.5 -5.5t-1.5 -4.5
q-2 -5 -4.5 -8t-7.5 -6q-2 -1 -4.5 -2t-6.5 -3q-22 -8 -57.5 -13.5t-72.5 -7.5q-13 0 -25.5 -0.5t-24.5 -0.5v0z" />
    <glyph glyph-name="d" unicode="d" horiz-adv-x="917" 
d="M178 287v176v150.5t-2 61.5v1.5v1.5q-1 26 -9.5 39t-33.5 18q-3 1 -8 1.5t-10 0.5q-4 1 -8.5 1h-7.5t-5.5 1.5t-2.5 4.5q0 5 4 6.5t12 1.5h16.5h17.5q10 -1 19.5 -1h18.5q16 -1 27.5 -1.5t13.5 -0.5q5 0 18 0.5t32 1.5q16 0 35.5 0.5t39.5 0.5h5h5h10h10q41 0 94 -2
t109 -15q47 -11 93 -34t85 -63q38 -39 67.5 -102t29.5 -152q0 -94 -33 -166t-75 -116q-8 -9 -19 -19t-25 -20q-39 -28 -102 -51.5t-157 -23.5q-17 0 -35 0.5t-36 1.5t-35.5 2t-32.5 2q-33 2 -56 4t-27 2q-2 0 -13.5 -0.5t-26.5 -1.5h-8h-9q-11 0 -22 -0.5t-19 -0.5t-12 1.5
t-4 5.5q0 2 2 4t6 2q3 0 7 0.5t8 0.5q4 1 8 1.5t7 1.5q15 3 20.5 18t8.5 37q4 32 4.5 88.5t0.5 128.5v1zM262 479v-124q0 -80 0.5 -142t1.5 -76q0 -6 0.5 -13.5t1.5 -15.5q1 -15 3 -28.5t6 -18.5q1 -1 2 -2.5t2 -2.5q12 -13 48.5 -24t117.5 -11q70 0 132 24.5t106 68.5
q36 35 56 94t23 122q1 6 1 11.5v11.5q0 76 -22 131t-48 90q-7 9 -13.5 16.5t-12.5 14.5q-70 74 -154 93.5t-173 19.5q-6 0 -13 -0.5t-14 -0.5q-12 -1 -23 -2.5t-15 -3.5q-7 -3 -9.5 -7.5t-2.5 -12.5q-1 -19 -1 -60v-87v-33.5v-32.5v1z" />
    <glyph glyph-name="e" unicode="e" horiz-adv-x="610" 
d="M178 287v176v150.5t-2 61.5v1.5v1.5q-1 26 -9.5 39t-33.5 18q-3 1 -8 1.5t-10 0.5q-4 1 -8.5 1h-7.5t-5.5 1.5t-2.5 4.5q0 5 4 6.5t12 1.5h16.5h17.5q10 -1 19.5 -1h18.5q16 -1 27.5 -1.5t13.5 -0.5h38.5h76.5q39 0 72.5 0.5t41.5 0.5q14 1 25.5 2.5t17.5 2.5q2 0 3.5 1
t2.5 1q0 1 0.5 1h0.5q2 1 3.5 1.5t3.5 0.5t3 -2.5t1 -6.5t-1.5 -10t-3.5 -17q-1 -4 -1.5 -9t-1.5 -11q0 -4 -1 -13.5t-1 -20.5q-1 -10 -1.5 -19t-1.5 -13v-1.5v-0.5q-1 -3 -2.5 -6t-4.5 -3q-4 0 -6 3.5t-2 9.5q0 4 -0.5 10t-1.5 13q-1 3 -2 6.5t-2 6.5q-5 12 -17.5 21
t-53.5 13q-6 1 -25.5 1.5t-42.5 0.5q-24 1 -44.5 1h-24.5q-3 0 -4.5 -2.5t-1.5 -7.5v-275q0 -6 1 -8.5t5 -2.5h29h52q25 0 47.5 0.5t30.5 1.5q18 2 29 4.5t18 9.5q5 6 8.5 9.5t6.5 3.5q2 0 3.5 -1.5t1.5 -6.5q0 -3 -1.5 -11t-3.5 -21q-1 -5 -1.5 -11t-1.5 -13
q-1 -5 -1.5 -12t-0.5 -14q-1 -13 -1.5 -24t-0.5 -14v-2.5v-2.5q0 -6 -1.5 -10t-5.5 -4t-5.5 2.5t-1.5 6.5q0 8 -0.5 15.5t-3.5 17.5q-1 2 -1.5 4t-1.5 4q-4 9 -14.5 17t-34.5 10q-9 1 -28.5 2t-40.5 1q-25 1 -46 1.5t-28 0.5q-4 0 -5.5 -2t-1.5 -5v-87v-24v-32v-13.5v-13.5
v-55v-34q2 -52 22.5 -67t93.5 -15h22.5t25.5 1t25.5 3.5t22.5 6.5q20 8 30 24.5t15 47.5q2 8 3.5 11.5t5.5 3.5t5 -4t1 -9v-0.5v-1.5q0 -3 -1.5 -18.5t-4.5 -32.5q0 -5 -1 -10.5t-1 -10.5q-2 -7 -3 -14t-2 -11q-5 -19 -15 -22t-39 -3q-57 0 -98.5 1t-70.5 2q-30 1 -48.5 2
t-29.5 1h-4.5t-8.5 -1h-12h-15q-4 0 -8.5 -0.5t-8.5 -0.5q-11 0 -22 -0.5t-19 -0.5t-12 1.5t-4 5.5q0 2 2 4t6 2q3 0 7 0.5t8 0.5q4 1 8 1.5t7 1.5q15 3 20.5 18t8.5 37q4 32 4.5 88.5t0.5 128.5v1z" />
    <glyph glyph-name="f" unicode="f" horiz-adv-x="592" 
d="M178 287v176v150.5t-2 61.5v1.5v1.5q-1 26 -9.5 39t-33.5 18q-3 1 -8 1.5t-10 0.5q-4 1 -8.5 1h-7.5t-5.5 1.5t-2.5 4.5q0 5 4 6.5t12 1.5h16.5h17.5q10 -1 19.5 -1h18.5q16 -1 27.5 -1.5t13.5 -0.5h44.5h78.5t78 0.5t45 0.5h7t7 1q9 0 17 0.5t13 2.5l3 1.5t2 0.5
q3 2 5 3t4 1q3 0 4.5 -2.5t1.5 -6.5t-1.5 -10t-3.5 -17q-1 -4 -1.5 -9t-1.5 -11q0 -4 -1 -13.5t-1 -20.5q-1 -10 -1.5 -19t-1.5 -13v-1.5v-0.5q-1 -3 -3 -6t-5 -3q-4 0 -5.5 3.5t-1.5 8.5q0 4 -1 11t-3 14q-1 4 -2.5 7t-2.5 6q-1 2 -2.5 4.5t-4.5 4.5q-8 9 -23 15.5t-38 7.5
l-154 4q-4 -1 -6.5 -3.5t-2.5 -8.5v-275q0 -5 1.5 -7.5t5.5 -2.5l128 2q13 -1 24 -1t21 1q18 2 28.5 5t17.5 13q2 2 3 3.5t3 3.5q1 1 2.5 2t2.5 1q3 0 4 -2t1 -6q0 -3 -1.5 -11t-3.5 -21q-1 -5 -1.5 -11t-1.5 -13q-1 -6 -1.5 -13.5t-0.5 -14.5q-1 -13 -1.5 -24.5t-0.5 -14.5
v-1.5v-0.5q0 -7 -1 -12t-6 -5q-4 0 -5.5 2.5t-1.5 6.5q0 5 -1 11t-2 13q0 3 -1 6l-2 6q-1 2 -2 4.5t-3 5.5q-6 8 -17.5 16t-29.5 10q-9 1 -30 1.5t-44 1.5h-48h-29q-4 0 -5.5 -2t-1.5 -7v-84q0 -73 0.5 -129.5t4.5 -88.5q2 -22 9.5 -37t29.5 -18q4 -1 8.5 -1.5t9.5 -0.5
q8 -1 15.5 -1.5t11.5 -0.5q5 0 6.5 -2t1.5 -4q0 -4 -4 -5.5t-12 -1.5h-10h-10q-16 0 -31.5 0.5t-28.5 0.5q-18 1 -29.5 1.5t-13.5 0.5t-13.5 -0.5t-26.5 -1.5h-8h-9q-11 0 -22 -0.5t-19 -0.5t-12 1.5t-4 5.5q0 2 2 4t6 2q3 0 7 0.5t8 0.5q4 1 8 1.5t7 1.5q15 3 20.5 18
t8.5 37q4 32 4.5 88.5t0.5 128.5v1z" />
    <glyph glyph-name="g" unicode="g" horiz-adv-x="862" 
d="M653 82v170q0 60 -7.5 77t-37.5 25q-3 1 -8 1.5t-10 0.5q-4 1 -8.5 1h-7.5t-5.5 1.5t-2.5 4.5q0 5 4 6.5t12 1.5h16.5h17.5q10 -1 19.5 -1h18.5q16 -1 27.5 -1.5t13.5 -0.5t13.5 0.5t26.5 1.5h8h9q11 0 22 0.5t19 0.5t12 -1.5t4 -6.5q0 -3 -2.5 -4.5t-5.5 -1.5h-1.5h-1.5
q-4 0 -9 -1t-13 -2q-20 -4 -27.5 -17.5t-9.5 -39.5q0 -3 -0.5 -6.5t-0.5 -7.5q-1 -20 -1 -41.5v-48.5v-111q0 -31 -1.5 -40t-8.5 -13l-1 -0.5t-2 -1.5q-22 -11 -46.5 -19t-50.5 -13q-31 -6 -61 -9t-54 -3q-39 0 -97 6.5t-119 30.5q-29 12 -57.5 29t-55.5 40
q-46 40 -82.5 115.5t-36.5 169.5q0 120 50 203.5t117 125.5q20 12 40 21.5t40 15.5q49 17 97 21.5t89 4.5h12.5t12.5 -1q22 -1 43.5 -3t39.5 -5q15 -2 27 -4.5t18 -3.5q9 -2 21.5 -4t24.5 -3l18 -2t17 -1q8 -1 10 -3.5t2 -5.5q0 -5 -1 -14t-2 -25q-2 -16 -3 -40.5t-1 -62.5
q0 -12 -2 -16.5t-7 -4.5q-4 0 -5 4t-2 11q-1 8 -3.5 21.5t-8.5 28.5l-4 8t-5 8q-2 3 -4.5 6t-5.5 6q-24 26 -81 47.5t-144 21.5q-47 0 -102 -10.5t-112 -55.5q-43 -34 -71 -100t-28 -154q0 -70 19.5 -126.5t43.5 -94.5q11 -19 22.5 -33t20.5 -23q59 -58 126 -82.5t136 -24.5
q10 0 22 0.5t24 2.5q19 2 37.5 6.5t30.5 11.5q10 5 15 13.5t5 21.5v1z" />
    <glyph glyph-name="h" unicode="h" horiz-adv-x="960" 
d="M782 463v-176q0 -73 0.5 -129.5t4.5 -88.5q2 -22 9.5 -37t29.5 -18q4 -1 8.5 -1.5t9.5 -0.5q8 -1 15.5 -1.5t11.5 -0.5q5 0 6.5 -2t1.5 -4q0 -4 -4 -5.5t-12 -1.5h-10h-10q-16 0 -31.5 0.5t-28.5 0.5q-18 1 -29.5 1.5t-13.5 0.5t-13.5 -0.5t-26.5 -1.5h-8h-9
q-11 0 -22 -0.5t-19 -0.5t-12 1.5t-4 5.5q0 2 2 4t6 2q3 0 7 0.5t8 0.5q4 1 8 1.5t7 1.5q15 3 20.5 18t8.5 37q4 32 4.5 88.5t0.5 128.5v106q0 2 -2 3.5t-4 1.5l-424 1l-4 -2t-2 -5v-104q0 -73 0.5 -129.5t4.5 -88.5q2 -22 9.5 -37t29.5 -18q4 -1 8.5 -1.5t9.5 -0.5
q8 -1 15.5 -1.5t11.5 -0.5q5 0 6.5 -2t1.5 -4q0 -4 -4 -5.5t-12 -1.5h-10h-10q-16 0 -31.5 0.5t-28.5 0.5q-18 1 -29.5 1.5t-13.5 0.5t-13.5 -0.5t-26.5 -1.5h-8h-9q-11 0 -22 -0.5t-19 -0.5t-12 1.5t-4 5.5q0 2 2 4t6 2q3 0 7 0.5t8 0.5q4 1 8 1.5t7 1.5q15 3 20.5 18
t8.5 37q4 32 4.5 88.5t0.5 128.5v177v150.5t-2 61.5v1.5v1.5q-1 26 -9.5 39t-33.5 18q-3 1 -8 1.5t-10 0.5q-4 1 -8.5 1h-7.5t-5.5 1.5t-2.5 4.5q0 5 4 6.5t12 1.5h16.5h17.5q10 -1 19.5 -1h18.5q16 -1 27.5 -1.5t13.5 -0.5t13.5 0.5t26.5 1.5h8h9q11 0 22 0.5t19 0.5
t12 -1.5t4 -6.5q0 -3 -2.5 -4.5t-5.5 -1.5h-1.5h-1.5q-4 0 -9 -1t-13 -2q-20 -4 -27.5 -17.5t-9.5 -39.5v-1.5v-1.5q-2 -23 -2 -61.5v-151.5v-20q0 -5 2 -6t4 -1l424 1q2 -1 4 0t2 5v22v150.5t-2 61.5v1.5v1.5q-1 26 -9.5 39t-33.5 18q-3 1 -8 1.5t-10 0.5q-4 1 -8.5 1h-7.5
t-5.5 1.5t-2.5 4.5q0 5 4 6.5t12 1.5h16.5h17.5q10 -1 19.5 -1h18.5q16 -1 27.5 -1.5t13.5 -0.5t13.5 0.5t26.5 1.5h8h9q11 0 22 0.5t19 0.5t12 -1.5t4 -6.5q0 -3 -2.5 -4.5t-5.5 -1.5h-1.5h-1.5q-4 0 -9 -1t-13 -2q-20 -4 -27.5 -17.5t-9.5 -39.5v-1.5v-1.5
q-2 -23 -2 -61.5v-151.5v1z" />
    <glyph glyph-name="i" unicode="i" horiz-adv-x="440" 
d="M262 463v-176q0 -73 0.5 -129.5t4.5 -88.5q2 -22 9.5 -37t29.5 -18q4 -1 8.5 -1.5t9.5 -0.5q8 -1 15.5 -1.5t11.5 -0.5q5 0 6.5 -2t1.5 -4q0 -4 -4 -5.5t-12 -1.5h-10h-10q-16 0 -31.5 0.5t-28.5 0.5q-18 1 -29.5 1.5t-13.5 0.5t-13.5 -0.5t-26.5 -1.5h-8h-9
q-11 0 -22 -0.5t-19 -0.5t-12 1.5t-4 5.5q0 2 2 4t6 2q3 0 7 0.5t8 0.5q4 1 8 1.5t7 1.5q15 3 20.5 18t8.5 37q4 32 4.5 88.5t0.5 128.5v177v150.5t-2 61.5v1.5v1.5q-1 26 -9 39t-25 17q-2 1 -4 1.5t-4 0.5q-7 1 -13 1.5t-10 0.5q-3 0 -5.5 1.5t-2.5 4.5q0 5 4 6.5t12 1.5
h19t22 -1h10h10q15 -1 26.5 -1.5t13.5 -0.5t13.5 0.5t26.5 1.5h8h9q11 0 22 0.5t19 0.5t12 -1.5t4 -6.5q0 -3 -2.5 -4.5t-5.5 -1.5h-1.5h-1.5q-4 0 -9 -1t-13 -2q-20 -4 -27.5 -17.5t-9.5 -39.5v-1.5v-1.5q-2 -23 -2 -61.5v-151.5v1z" />
    <glyph glyph-name="j" unicode="j" horiz-adv-x="414" 
d="M262 463v-240q0 -112 -3 -170.5t-20 -107.5q-2 -4 -3.5 -8.5t-3.5 -8.5q-4 -9 -9 -18.5t-11 -18.5q-19 -28 -49.5 -56.5t-76.5 -59.5q-2 -2 -5 -3.5t-5 -3.5q-1 -1 -2 -1.5t-2 -0.5q-7 -5 -13.5 -9.5t-11.5 -6.5q-1 -1 -3 -1.5t-4 -0.5h-0.5h-1.5q-2 1 -3.5 2.5t-1.5 3.5
t1 4t3 3q1 2 4 4l6 4q3 1 5.5 3t5.5 4t6 4.5t6 5.5t6 5.5t6 5.5l6 6t5 6q43 46 64 114.5t21 249.5v290v150.5t-2 61.5v1.5v1.5q-1 26 -9.5 39t-33.5 18q-3 1 -8 1.5t-10 0.5q-4 1 -8.5 1h-7.5t-5.5 1.5t-2.5 4.5q0 5 4 6.5t12 1.5h16.5h17.5q10 -1 19.5 -1h18.5
q16 -1 27.5 -1.5t13.5 -0.5t13.5 0.5t26.5 1.5h8h9q11 0 22 0.5t19 0.5t12 -1.5t4 -6.5q0 -3 -2.5 -4.5t-5.5 -1.5h-1.5h-1.5q-4 0 -9 -1t-13 -2q-20 -4 -27.5 -17.5t-9.5 -39.5v-1.5v-1.5q-2 -23 -2 -61.5v-151.5v1z" />
    <glyph glyph-name="k" unicode="k" horiz-adv-x="752" 
d="M178 287v176v150.5t-2 61.5v1.5v1.5q-1 26 -9.5 39t-33.5 18q-3 1 -8 1.5t-10 0.5q-4 1 -8.5 1h-7.5t-5.5 1.5t-2.5 4.5q0 5 4 6.5t12 1.5h14.5h14.5q11 -1 21 -1h20q15 -1 26.5 -1.5t13.5 -0.5q3 0 14.5 0.5t26.5 1.5h8h8q11 0 21.5 0.5t18.5 0.5t12 -1.5t4 -6.5
q0 -3 -2.5 -4.5t-5.5 -1.5h-1.5h-1.5q-4 0 -9 -1t-13 -2q-20 -4 -27.5 -17.5t-9.5 -39.5v-1.5v-1.5q-2 -23 -2 -61.5v-151.5v-59h4q7 7 42.5 43.5t76.5 78.5q37 38 69.5 71.5t45.5 47.5q21 22 37.5 40.5t16.5 31.5q0 9 -3.5 14t-9.5 7q-4 2 -6.5 3.5t-2.5 4.5q0 4 3.5 5.5
t8.5 1.5q8 0 17 -0.5t19 -0.5q2 -1 4.5 -1h4.5q8 0 15.5 -0.5t14.5 -0.5q2 0 13.5 0.5t27.5 1.5h5.5h6.5q12 0 23.5 0.5t19.5 0.5t11.5 -1.5t3.5 -5.5t-2 -5.5t-8 -1.5q-10 0 -22 -2.5t-25 -7.5q-3 -1 -5 -2l-4 -2q-14 -6 -25.5 -13.5t-22.5 -16.5q-13 -11 -27.5 -24.5
t-32.5 -31.5q-9 -9 -41 -40t-69 -67q-37 -37 -69.5 -70t-40.5 -42q10 -11 51 -54t89 -92q43 -44 81.5 -83t53.5 -53q43 -40 66.5 -61t43.5 -33q7 -5 14.5 -9t16.5 -7l4 -2l4 -2t4.5 -2t4.5 -2q18 -5 33 -7t20 -2t9 -1.5t4 -4.5q0 -4 -4.5 -5.5t-17.5 -1.5h-51h-28.5t-24.5 1
q-4 0 -8 0.5t-8 0.5q-24 1 -42 8t-34 18q-11 7 -21.5 15.5t-23.5 18.5q-17 14 -60.5 59t-92.5 97l-5.5 5.5t-4.5 5.5q-46 49 -85.5 93t-56.5 65l-5 1v-98q0 -73 0.5 -129.5t4.5 -88.5q2 -22 9.5 -37t29.5 -18q2 0 4.5 -0.5t5.5 -0.5l16 -2t13 -1t6.5 -2t1.5 -4q0 -4 -4 -5.5
t-12 -1.5h-11.5h-11.5q-13 0 -26 0.5t-24 1.5q-16 0 -27.5 0.5t-14.5 0.5t-14 -0.5t-26 -1.5h-8h-8q-11 0 -21.5 -0.5t-18.5 -0.5t-12 1.5t-4 5.5q0 2 2 4t6 2q3 0 7 0.5t8 0.5q4 1 8 1.5t7 1.5q15 3 20.5 18t8.5 37q4 32 4.5 88.5t0.5 128.5v1z" />
    <glyph glyph-name="l" unicode="l" horiz-adv-x="592" 
d="M262 463v-178q0 -111 4.5 -163.5t17.5 -66.5q12 -12 37 -17.5t83 -5.5q40 0 71.5 4t49.5 26q6 7 11 16.5t8 18.5q3 7 4.5 13t2.5 12t3 9.5t6 3.5t5 -3.5t1 -11.5q0 -5 -2 -21.5t-4 -35.5q-2 -12 -4.5 -23.5t-4.5 -19.5q0 -1 -0.5 -2.5t-1.5 -2.5q-4 -14 -14 -17.5
t-47 -3.5q-54 0 -94.5 1t-71.5 2q-32 1 -56 2t-46 1h-5t-9 -1h-12.5h-14.5h-6.5t-7.5 -1q-11 0 -22.5 -0.5t-20.5 -0.5q-8 0 -12 1.5t-4 5.5q0 2 2 4t6 2q3 0 7 0.5t8 0.5q4 1 8 1.5t7 1.5q15 3 20.5 18t8.5 37q4 32 4.5 88.5t0.5 128.5v177v150.5t-2 61.5v1.5v1.5
q-1 26 -9.5 39t-33.5 18q-3 1 -8 1.5t-10 0.5q-4 1 -8.5 1h-7.5t-5.5 1.5t-2.5 4.5q0 5 4 6.5t12 1.5h16.5h17.5q10 -1 19.5 -1h18.5q16 -1 27.5 -1.5t13.5 -0.5t15 0.5t30 1.5h7h8q14 0 26.5 0.5t21.5 0.5q8 0 12 -1.5t4 -6.5q0 -3 -2.5 -4.5t-5.5 -1.5q-4 0 -11 -0.5
t-14 -1.5q-2 0 -4 -0.5t-4 -0.5q-22 -4 -29.5 -17.5t-9.5 -39.5v-1.5v-1.5q-2 -23 -2 -61.5v-151.5v1z" />
    <glyph glyph-name="m" unicode="m" horiz-adv-x="1050" 
d="M855 740l67 -614q1 -10 2.5 -20t3.5 -20q5 -22 15.5 -41t32.5 -26t40 -8t25 -1q4 0 6 -1t2 -4q0 -4 -6 -6t-15 -2t-34 0.5t-54 1.5q-23 1 -44.5 1.5t-34.5 1.5q-17 2 -22.5 4t-5.5 6q0 3 1.5 4.5t5.5 2.5q2 1 3.5 6.5t1.5 13.5v8t-1 8l-48 517h-3l-245 -520
q-12 -26 -17.5 -37t-9.5 -15q-1 0 -2.5 -0.5t-3.5 -0.5h-1.5h-1.5q-4 1 -10 11t-18 34q-8 16 -23 45.5t-32 62.5l-41 82l-21 42q-3 7 -23 49t-43 92q-23 49 -42.5 91.5t-23.5 52.5l-4 1l-40 -464q0 -9 -0.5 -17.5t-0.5 -17.5v-8.5v-8.5q0 -11 7.5 -20t18.5 -11
q13 -3 23.5 -4t14.5 -1q3 0 5.5 -1.5t2.5 -3.5q0 -5 -4.5 -6.5t-13.5 -1.5h-12.5h-12.5q-8 1 -16.5 1h-15.5q-14 1 -23.5 1.5t-12.5 0.5t-13 -0.5t-22 -1.5h-8h-8q-9 -1 -17.5 -1h-15.5t-12 1.5t-5 6.5q0 2 3 3.5t7 1.5h1.5h1.5q5 0 11 0.5t16 2.5q24 4 30.5 28t9.5 51v2v2
l72 653q2 7 4.5 12t6.5 5q3 0 5.5 -1.5t4.5 -4.5q1 -2 2.5 -4t2.5 -5l306 -628l294 628q3 6 6.5 10.5t8.5 4.5t8 -6.5t4 -20.5v1z" />
    <glyph glyph-name="n" unicode="n" horiz-adv-x="947" 
d="M192 612l13 -479q2 -62 10.5 -86.5t28.5 -30.5q3 -1 5.5 -1.5t5.5 -0.5q12 -3 23 -3.5t16 -0.5q4 0 6 -1.5t2 -4.5q0 -4 -4.5 -5.5t-13.5 -1.5q-21 0 -39 0.5t-32 0.5q-14 1 -23 1.5t-12 0.5t-12.5 -0.5t-21.5 -1.5q-13 0 -29 -0.5t-33 -0.5q-7 0 -11.5 1.5t-4.5 5.5
q0 3 2 4.5t6 1.5q5 0 13 0.5t17 2.5q3 1 5.5 1.5t5.5 1.5q19 5 24.5 32t5.5 95l1 574q0 28 2.5 38.5t8.5 10.5q3 0 8.5 -4.5t10.5 -10.5l2 -2l1 -1q4 -4 7 -7.5t6 -6.5q11 -13 107 -116t211 -227q9 -9 17.5 -18.5t16.5 -18.5l6 -6l6 -6q63 -69 118.5 -130t75.5 -82l-11 509
q-1 48 -8.5 68t-30.5 26q-3 1 -7 1.5t-7 0.5q-11 2 -20.5 2.5t-14.5 0.5t-6.5 2t-1.5 5q0 5 5.5 6t14.5 1h5.5h4.5q15 0 29 -0.5t26 -0.5q14 -1 24.5 -1.5t14.5 -0.5t12 0.5t19 1.5q11 0 25 0.5t29 0.5q8 0 13 -1t5 -6q0 -3 -3 -5t-8 -2q-4 0 -9.5 -0.5t-14.5 -2.5
q-25 -5 -31 -24.5t-6 -64.5l-2 -585q0 -50 -2 -60.5t-7 -10.5q-6 0 -19.5 11.5t-53.5 51.5q-6 6 -63 64t-124 128q-2 3 -4.5 5.5l-4.5 4.5q-17 18 -33.5 35t-31.5 34l-2 2l-2 2q-86 93 -159.5 174.5t-97.5 108.5v1z" />
    <glyph glyph-name="o" unicode="o" horiz-adv-x="915" 
d="M64 376q0 27 4.5 56.5t14.5 59.5q32 103 123.5 188.5t251.5 85.5q169 0 281 -100t112 -275q0 -168 -109 -288t-290 -120q-178 0 -269.5 99.5t-112.5 218.5q-3 19 -4.5 37.5t-1.5 36.5v1zM159 404q0 -176 92.5 -280t227.5 -104q23 0 53 5.5t61 19.5q61 29 111.5 101.5
t50.5 216.5q0 180 -92.5 274.5t-211.5 94.5q-125 0 -208.5 -82.5t-83.5 -246.5v1z" />
    <glyph glyph-name="p" unicode="p" horiz-adv-x="642" 
d="M178 287v176v150.5t-2 61.5v1.5v1.5q-1 26 -9.5 39t-33.5 18q-3 1 -8 1.5t-10 0.5q-4 1 -8.5 1h-7.5t-5.5 1.5t-2.5 4.5q0 5 4 6.5t12 1.5h16h16q10 -1 19.5 -1h18.5q17 -1 28.5 -1.5t14.5 -0.5q8 0 22.5 0.5t31.5 1.5h18t18 1h18h18q57 0 93.5 -9.5t57.5 -21.5
q13 -8 21.5 -15t13.5 -11l6 -6t6 -7q14 -18 26 -45.5t12 -60.5q0 -106 -69.5 -172t-176.5 -66h-4.5h-5.5t-6 0.5t-5 0.5h-1.5h-0.5q-3 1 -6 2.5t-3 4.5q0 6 5.5 7.5t21.5 1.5q73 0 123 47t50 116q0 18 -3.5 47t-19.5 60q-6 12 -14 24t-19 23q-7 7 -14 13t-14 10
q-31 21 -59.5 24t-44.5 3h-2.5h-2.5q-13 0 -24.5 -1.5t-18.5 -4.5q-4 -1 -6 -6t-2 -13v-410q0 -73 0.5 -129.5t4.5 -88.5q2 -22 9.5 -37t29.5 -18q4 -1 8.5 -1.5t9.5 -0.5q8 -1 15.5 -1.5t11.5 -0.5q5 0 6.5 -2t1.5 -4q0 -4 -4 -5.5t-12 -1.5h-10h-10q-16 0 -31.5 0.5
t-28.5 0.5q-18 1 -29.5 1.5t-13.5 0.5q-1 0 -12 -0.5t-26 -1.5h-8.5h-9.5q-11 -1 -21.5 -1h-18.5t-12 1.5t-4 5.5q0 2 2 4t6 2q3 0 7 0.5t8 0.5q4 1 8 1.5t7 1.5q15 3 20.5 18t8.5 37q4 32 4.5 88.5t0.5 128.5v1z" />
    <glyph glyph-name="q" unicode="q" horiz-adv-x="920" 
d="M780 -76l-168 93q-18 -11 -46 -18t-57 -12q-14 -2 -27.5 -3t-26.5 -1q-180 0 -272 99.5t-113 218.5q-3 19 -4.5 37.5t-1.5 36.5q0 28 4.5 57.5t14.5 59.5q32 103 123.5 188.5t251.5 85.5q169 0 281 -100.5t112 -274.5q0 -94 -35 -165t-77 -116q-17 -18 -34 -32t-31 -23
l205 -105q164 -85 274 -101.5t147 -16.5q28 0 66.5 5t79.5 16q13 4 25.5 8.5t25.5 9.5q5 1 8.5 2.5t5.5 1.5q3 0 4.5 -2t1.5 -4q0 -3 -1.5 -5.5t-6.5 -4.5q-12 -6 -27.5 -12t-33.5 -13q-47 -16 -111.5 -30t-144.5 -14q-91 0 -190.5 33.5t-221.5 100.5v0zM159 404
q0 -176 92.5 -280t227.5 -104q23 0 53 5.5t61 19.5q61 29 111.5 101.5t50.5 216.5q0 180 -92.5 274.5t-211.5 94.5q-125 0 -208.5 -82.5t-83.5 -246.5v1z" />
    <glyph glyph-name="r" unicode="r" horiz-adv-x="754" 
d="M178 287v176v150.5t-2 61.5v1.5v1.5q-1 26 -9.5 39t-33.5 18q-3 1 -8 1.5t-10 0.5q-4 1 -8.5 1h-7.5t-5.5 1.5t-2.5 4.5q0 5 4 6.5t12 1.5h16.5h17.5q10 -1 19.5 -1h18.5q16 -1 27.5 -1.5t13.5 -0.5q4 0 18.5 0.5t33.5 1.5h6.5h6.5q15 0 29 0.5t24 0.5q11 0 21.5 -0.5
t20.5 -0.5q38 -2 74 -11.5t67 -31.5q6 -4 12.5 -10t13.5 -14q16 -19 29.5 -47.5t13.5 -64.5q0 -55 -26.5 -112t-94.5 -119q62 -79 113.5 -144t94.5 -112q41 -43 72 -56t50 -16q14 -2 24.5 -2.5t14.5 -0.5t6.5 -2t2.5 -4q0 -4 -5 -5.5t-19 -1.5h-71q-41 0 -63.5 3.5
t-41.5 13.5l-0.5 0.5t-1.5 0.5q-9 5 -17 11t-16 13q-23 20 -47 51t-55 72q-5 6 -10 13t-10 13q-2 3 -4.5 6.5t-4.5 6.5q-25 33 -46.5 63.5t-33.5 45.5l-1.5 1.5l-1.5 1.5q-2 1 -4.5 2t-5.5 1l-123 3q-4 -1 -5.5 -3t-1.5 -6v-23q0 -73 0.5 -129.5t4.5 -88.5q2 -22 9.5 -37
t29.5 -18q4 -1 8.5 -1.5t9.5 -0.5q8 -1 15.5 -1.5t11.5 -0.5q5 0 6.5 -2t1.5 -4q0 -4 -4 -5.5t-12 -1.5h-10h-10q-16 0 -31.5 0.5t-28.5 0.5q-18 1 -29.5 1.5t-13.5 0.5l-10.5 -0.5t-25.5 -1.5h-9.5h-9.5q-11 -1 -21 -1h-18t-12 1.5t-4 5.5q0 2 2 4t6 2q3 0 7 0.5t8 0.5
q4 1 8 1.5t7 1.5q15 3 20.5 18t8.5 37q4 32 4.5 88.5t0.5 128.5v1zM258 703v-327q0 -5 1.5 -8t5.5 -5q11 -6 38.5 -10.5t58.5 -5.5h4h4q8 0 16.5 0.5t17.5 2.5q10 2 20.5 5.5t20.5 10.5q26 18 43.5 57.5t17.5 96.5q0 94 -46.5 147t-126.5 53q-22 0 -40.5 -2t-26.5 -4
q-4 -1 -6 -4t-2 -8v1z" />
    <glyph glyph-name="s" unicode="s" horiz-adv-x="570" 
d="M248 -17q-35 0 -69 6t-65 20q-1 1 -2 1.5t-2 0.5q-8 5 -9.5 11.5t-1.5 24.5q0 21 1 40t2 33q0 11 1 19.5t1 13.5q1 8 2.5 12t5.5 4q5 0 6 -2.5t1 -8.5q0 -7 0.5 -16.5t2.5 -20.5q11 -55 54.5 -78.5t93.5 -23.5q67 0 102.5 37.5t39.5 82.5q1 3 1 6.5v6.5q0 25 -5.5 46
t-17.5 41q-14 21 -36.5 43t-55.5 50l-45 38q-64 52 -92 94.5t-35 82.5q-2 10 -2.5 19.5t-0.5 19.5q0 80 56 130t151 50q29 0 51.5 -2.5t41.5 -7.5q14 -3 21.5 -4t13.5 -1t8 -1.5t2 -5.5q0 -2 -0.5 -9t-1.5 -20t-1.5 -32t-0.5 -45q0 -12 -1.5 -17.5t-5.5 -5.5t-5.5 3.5
t-2.5 9.5q0 4 -1.5 10.5t-2.5 13.5q-2 8 -4.5 15t-4.5 11t-7 10.5t-15 14.5q-14 11 -38.5 19.5t-64.5 8.5q-52 0 -87.5 -30.5t-35.5 -85.5q0 -15 3 -28t9 -26q12 -24 38 -50t72 -64l28 -21q56 -45 87 -81.5t45 -71.5q8 -20 11 -40.5t3 -42.5q0 -17 -4.5 -41.5t-17.5 -50.5
q-10 -20 -25 -39t-38 -35q-32 -22 -71 -31.5t-80 -9.5v0z" />
    <glyph glyph-name="t" unicode="t" horiz-adv-x="691" 
d="M391 710v-423q0 -73 0.5 -129.5t4.5 -88.5q2 -22 9.5 -37t29.5 -18q4 -1 8.5 -1.5t9.5 -0.5q8 -1 15.5 -1.5t11.5 -0.5q5 0 6.5 -2t1.5 -4q0 -4 -4 -5.5t-12 -1.5h-10h-10q-16 0 -31.5 0.5t-28.5 0.5q-18 1 -29.5 1.5t-13.5 0.5t-13.5 -0.5t-26.5 -1.5h-8h-9
q-11 0 -22 -0.5t-19 -0.5t-12 1.5t-4 5.5q0 2 2 4t6 2q3 0 7 0.5t8 0.5q4 1 8 1.5t7 1.5q15 3 20.5 18t8.5 37q4 32 4.5 88.5t0.5 128.5v424l-148 -2q-46 -2 -68 -8.5t-34 -24.5q-8 -13 -11.5 -19.5t-5.5 -11.5q-2 -6 -4.5 -8t-5.5 -2q-2 0 -3.5 2.5t-1.5 6.5t3 19t7 33
q0 1 0.5 2t0.5 2q4 17 7 31t4 17q1 2 1.5 4t1.5 4q1 4 3 7.5t4 3.5q3 0 7 -2t10 -4q5 -2 11.5 -3.5t15.5 -2.5q6 -1 12 -1.5t12 -0.5q17 -1 32.5 -2t22.5 -1l375 1q18 -1 32.5 0t25.5 2q3 1 6.5 1.5t6.5 0.5q11 2 18 3.5t10 1.5q4 0 4.5 -3.5t0.5 -8.5q0 -9 -0.5 -22
t-0.5 -27v-6.5v-6.5q-1 -17 -1.5 -30.5t-0.5 -17.5q0 -7 -2 -10t-5 -3q-4 0 -5.5 3.5t-2.5 13.5l-1 12q-3 22 -27 37.5t-96 16.5l-126 3v0z" />
    <glyph glyph-name="u" unicode="u" horiz-adv-x="830" 
d="M120 317v146v150.5t-2 61.5v1.5v1.5q-1 26 -9.5 39t-33.5 18q-3 1 -8 1.5t-10 0.5q-4 1 -8.5 1h-7.5t-5.5 1.5t-2.5 4.5q0 5 4 6.5t12 1.5h16.5h17.5q9 -1 18.5 -1h18.5q17 -1 29 -1.5t15 -0.5t15 0.5t27 1.5h7h8q12 0 23 0.5t19 0.5t12 -1.5t4 -6.5q0 -3 -2.5 -4.5
t-5.5 -1.5h-1.5h-1.5q-4 0 -9 -1t-13 -2q-20 -3 -27.5 -17t-9.5 -40v-1.5v-1.5q-2 -23 -2 -61.5v-151.5v-139q0 -109 21.5 -163t53.5 -85q9 -9 18 -16t18 -12q27 -16 55 -21.5t60 -5.5q46 0 88 20t69 52q35 43 46.5 105.5t11.5 139.5v126v150.5t-2 61.5v1.5v1.5
q-1 26 -9.5 39t-33.5 18q-3 1 -8 1.5t-10 0.5q-4 1 -8.5 1h-7.5t-5.5 1.5t-2.5 4.5q0 5 4 6.5t12 1.5h12h11q12 0 23.5 -0.5t21.5 -0.5q15 -1 25.5 -1.5t12.5 -0.5q3 0 12 0.5t21 1.5h10.5h10.5q8 1 15.5 1h14.5q8 0 12 -1.5t4 -6.5q0 -3 -2.5 -4.5t-5.5 -1.5h-1.5h-1.5
q-4 0 -9 -0.5t-13 -2.5q-20 -4 -27.5 -17.5t-9.5 -39.5v-1.5v-1.5q-2 -23 -2 -61.5v-151.5v-106q0 -17 -0.5 -33t-1.5 -33q-4 -66 -23 -128.5t-67 -105.5q-9 -8 -17.5 -14.5t-16.5 -11.5q-46 -30 -90.5 -38.5t-81.5 -8.5q-18 0 -55.5 4t-78.5 20q-19 8 -37.5 19t-34.5 27
q-37 35 -62 94.5t-25 168.5v1z" />
    <glyph glyph-name="v" unicode="v" horiz-adv-x="742" 
d="M203 631l192 -512q18 40 43 102.5t52 131.5q2 6 4.5 11.5t4.5 11.5q37 96 69 181.5t41 115.5q4 11 6.5 21t2.5 17v3.5t-1 3.5q-1 5 -4 9t-8 7l-8 2t-9 1q-5 1 -10.5 1h-10.5q-4 0 -7.5 1t-3.5 5q0 5 5 6.5t17 1.5h9.5h8.5q11 0 21.5 -0.5t19.5 -0.5q14 -1 24.5 -1.5
t14.5 -0.5q2 0 10.5 0.5t19.5 1.5h10.5h11.5q7 1 13.5 1h12.5q8 0 12.5 -1.5t4.5 -5.5t-3 -5.5t-9 -1.5q-4 0 -15 -1t-23 -6q-3 -1 -5.5 -2t-4.5 -3q-10 -7 -22.5 -25t-32.5 -69q-8 -21 -41 -100t-71 -171q-46 -109 -79 -187.5t-50 -115.5q-17 -36 -24 -52t-12 -21l-3 -1.5
t-3 -0.5q-3 0 -5.5 1.5t-4.5 3.5q-5 6 -10.5 19t-15.5 37l-245 614q-4 10 -8 18.5t-8 15.5q-11 20 -24 28t-32 14q-2 0 -3.5 0.5t-3.5 1.5q-10 1 -18 1.5t-12 0.5q-5 0 -6.5 2t-1.5 5q0 5 7 6t18 1h12h13q12 0 24 -0.5t23 -0.5q16 -1 28.5 -1.5t16.5 -0.5t13.5 0.5t22.5 1.5
q9 0 18.5 0.5t19.5 0.5h9.5h9.5q14 0 20.5 -1.5t6.5 -5.5t-2.5 -5.5t-7.5 -1.5h-8.5t-8.5 -1q-6 0 -11.5 -1t-9.5 -3q-6 -3 -9 -7t-4 -8v-2.5v-2.5q0 -10 8 -32t19 -51v1z" />
    <glyph glyph-name="w" unicode="w" horiz-adv-x="1100" 
d="M599 702l199 -567h4l33 108t47 152q1 3 1.5 5.5t1.5 5.5q21 67 40 131t31 107q8 28 9.5 41t1.5 23q0 14 -11 22t-46 8q-4 0 -6.5 2t-2.5 5q0 4 4 5.5t13 1.5q19 0 36 -0.5t31 -0.5q13 -1 22.5 -1.5t12.5 -0.5t11.5 0.5t20.5 1.5h11.5t12.5 1h13h12q7 0 10.5 -1.5
t3.5 -4.5q0 -4 -2 -6t-7 -2q-2 0 -8 -0.5t-13 -1.5q-3 0 -6.5 -1t-6.5 -2q-19 -7 -31.5 -28t-23.5 -52q-3 -7 -5 -14t-5 -14q-16 -46 -40 -119t-49 -151q-28 -86 -54 -164.5t-41 -122.5q-15 -43 -22.5 -60.5t-12.5 -22.5q-2 -1 -3.5 -1.5t-3.5 -0.5t-4.5 1t-4.5 4
q-4 5 -9 16t-12 30l-196 557h-2q-13 -37 -42.5 -115t-61.5 -165q-33 -86 -62 -163.5t-43 -112.5q-7 -19 -12 -30t-9 -16q-3 -3 -5.5 -4.5t-6.5 -1.5q-2 0 -3.5 0.5t-3.5 2.5q-5 4 -11 20.5t-17 54.5l-178 594q-2 6 -4.5 12.5t-4.5 12.5q-9 24 -19.5 35t-26.5 17q-4 2 -9 3
t-10 1q-8 1 -15.5 1.5t-9.5 0.5q-4 0 -6.5 1.5t-2.5 5.5t4 5.5t11 1.5h4.5h5.5q17 0 33.5 -0.5t30.5 -0.5q17 -1 28.5 -1.5t15.5 -0.5q3 0 12.5 0.5t23.5 1.5q14 0 31 0.5t36 0.5q11 0 14.5 -2t3.5 -5q0 -4 -3 -5.5t-7 -1.5h-10t-13 -1l-8 -2t-8 -3q-1 0 -1.5 -0.5
l-0.5 -0.5q-4 -3 -7.5 -8.5t-3.5 -14.5q0 -10 6 -34.5t13 -57.5q6 -24 25.5 -95t41.5 -151t41.5 -149t25.5 -89l2 1l212 570q10 25 14.5 34t7.5 11h1.5h1.5h1.5t1.5 -1q4 -2 9 -13t13 -33v1z" />
    <glyph glyph-name="x" unicode="x" horiz-adv-x="694" 
d="M124 97l181 286l-160 269q-2 3 -4.5 6.5t-4.5 7.5q-15 24 -31 40.5t-38 24.5q-3 1 -5.5 1.5t-5.5 1.5q-10 2 -18.5 3t-12.5 1t-6.5 2t-2.5 5q0 4 3.5 5.5t13.5 1.5q9 0 23.5 -0.5t30.5 -0.5h6h6q19 -1 33.5 -1.5t17.5 -0.5t13.5 0.5t24.5 1.5h11.5h12.5q8 1 16.5 1h15.5
q11 0 14 -1.5t3 -5.5t-2 -5.5t-7 -1.5h-7t-8 -1q-3 0 -6 -0.5t-6 -1.5q-7 -2 -9.5 -7t-2.5 -10t1.5 -10.5t3.5 -11.5q1 -3 2.5 -5.5t2.5 -5.5q3 -5 5.5 -10t4.5 -10q7 -12 13.5 -24.5t13.5 -24.5q23 -41 46.5 -82.5t51.5 -87.5q10 14 29.5 44t40.5 64q1 2 2 3t1 3
q26 41 48 77t26 44t6 13.5t3 11.5q0 2 0.5 5t0.5 6v2t-1 2q-1 4 -5.5 8t-10.5 6q-2 1 -5 1.5t-6 0.5q-6 1 -11 1h-8q-4 0 -6.5 1.5t-2.5 5.5q0 3 4 5t13 2h6h6q12 0 23 -0.5t20 -0.5q13 -1 22 -1.5t12 -0.5t12 0.5t21 1.5q7 0 15.5 0.5t16.5 0.5h9.5h9.5q8 0 12 -2t4 -5
t-3 -5t-8 -2q-3 0 -9 -0.5t-12 -1.5q-3 0 -6 -1l-6 -2q-11 -3 -20 -10t-18 -18q-9 -10 -18.5 -23.5t-20.5 -29.5l-161 -241q7 -13 38.5 -65.5t67.5 -113.5q35 -59 66 -110t39 -61q1 -2 2.5 -3.5l3.5 -3.5q10 -13 22 -22.5t31 -15.5q1 0 2 -0.5t2 -0.5q10 -3 18.5 -4t12.5 -1
t6 -1.5t2 -4.5q0 -4 -3.5 -5.5t-10.5 -1.5q-37 0 -69 0.5t-63 0.5q-7 1 -14 1h-14q-4 0 -7 0.5t-6 0.5q-11 0 -14.5 1.5t-3.5 4.5t1.5 5t4.5 3q1 0 1.5 0.5l0.5 0.5q3 2 5 5.5t2 8.5q0 3 -1 6t-3 7q-40 74 -83.5 148t-88.5 150l-156 -264q-1 -3 -2.5 -5.5t-2.5 -5.5
q-4 -10 -6 -19t-2 -15q0 -7 4.5 -12t11.5 -7q2 0 4 -0.5t4 -0.5q3 -1 6 -1h5q4 0 6 -2t2 -5t-3.5 -4.5t-8.5 -1.5q-8 0 -19.5 0.5t-24.5 0.5h-4.5h-5.5q-15 1 -27 1.5t-15 0.5t-13 -0.5t-23 -1.5h-12h-12q-8 -1 -16 -1h-15q-5 0 -7 1.5t-2 4.5t2 5t5 2q6 0 16.5 1t21.5 4
q10 3 18.5 7.5t16.5 12.5q11 9 22.5 24t25.5 37v1z" />
    <glyph glyph-name="y" unicode="y" horiz-adv-x="654" 
d="M289 170v86q0 32 -4.5 52t-11.5 37q-2 4 -3.5 7.5t-3.5 7.5q-3 7 -30 51.5t-59 97.5q-1 1 -1.5 2.5t-1.5 2.5q-26 42 -49.5 79.5t-34.5 54.5q-19 28 -36.5 46.5t-31.5 27.5q-3 2 -6.5 4t-7.5 4q-8 4 -15.5 6t-12.5 2q-4 0 -7 1.5t-3 5.5q0 3 3 5t10 2q6 0 19 -0.5
t27 -0.5h4t4 -1q16 0 29 -0.5t15 -0.5q3 0 11 0.5t19 1.5q11 0 25 0.5t29 0.5q8 0 10.5 -2t2.5 -5q0 -1 -1 -2.5t-3 -1.5q-2 -1 -5 -2t-6 -3q-6 -3 -9.5 -7.5t-3.5 -10.5q0 -9 3.5 -18.5t9.5 -20.5t33.5 -58t58.5 -102q31 -53 58 -99t34 -57q7 15 30 57t50 89q1 1 1.5 2.5
t1.5 2.5q27 48 51.5 89.5t31.5 53.5q10 16 13.5 28.5t3.5 22.5q0 11 -3.5 18.5t-12.5 9.5q-2 1 -3.5 1.5t-2.5 0.5q-4 2 -6.5 3.5t-2.5 4.5t4.5 4.5t11.5 1.5h8h8q6 -1 12 -1h12q9 -1 16 -1.5t10 -0.5q2 0 15 0.5t29 1.5h3h4q14 0 27 0.5t19 0.5q5 0 9 -1.5t4 -4.5
q0 -4 -3.5 -6t-9.5 -2t-14.5 -1.5t-17.5 -5.5q-4 -2 -7.5 -3.5t-6.5 -3.5q-7 -4 -12.5 -8t-10.5 -10q-7 -6 -14 -14t-16 -19q-12 -14 -38 -55t-55 -89q-2 -4 -4.5 -8t-4.5 -7q-31 -52 -56.5 -97.5t-32.5 -61.5q-8 -19 -11 -37t-4 -35v-14v-14v-85q0 -13 0.5 -41t2.5 -60
q2 -22 10.5 -37t30.5 -18q4 -1 8.5 -1.5t9.5 -0.5q8 -1 15.5 -1.5t11.5 -0.5q5 0 6.5 -2t1.5 -4q0 -4 -4 -5.5t-12 -1.5h-10h-10q-16 0 -31.5 0.5t-28.5 0.5q-18 1 -29.5 1.5t-13.5 0.5t-13.5 -0.5t-26.5 -1.5h-8h-9q-11 0 -22 -0.5t-19 -0.5t-12 1.5t-4 5.5q0 2 2 4t6 2
q3 0 7 0.5t8 0.5q4 1 8 1.5t7 1.5q15 3 22.5 18t8.5 37q2 32 2.5 60t0.5 40v1z" />
    <glyph glyph-name="z" unicode="z" horiz-adv-x="692" 
d="M184 40h272q79 -1 110.5 12.5t47.5 35.5q4 5 7 12.5t6 15.5q3 7 4.5 14t2.5 12q2 8 3.5 12t5.5 4q5 0 6.5 -4.5t1.5 -18.5q0 -10 -2 -24.5t-5 -28.5l-2 -12l-2 -12q-3 -12 -5 -21.5t-4 -16.5q-1 -3 -1.5 -6t-1.5 -5q-3 -9 -8 -11.5t-19 -2.5q-63 0 -125.5 1t-126.5 1
l-128 2t-130 1q-9 0 -13.5 1t-4.5 6q0 4 2.5 9.5t11.5 18.5l32 48l32 48q96 145 191 290t184 290l-217 1q-10 -1 -20 -1t-21 -1q-29 -1 -57 -5.5t-46 -13.5q-15 -8 -26 -19.5t-18 -23.5q-6 -10 -9 -19t-4 -17q-1 -11 -4 -14.5t-7 -3.5t-5 3.5t-1 9.5q0 5 3 26t7 45
q0 1 0.5 2.5t0.5 3.5q3 17 5.5 32t3.5 24q2 11 4 15t6 4h1.5h1.5l6 -2t7 -2t10.5 -2t15.5 -1q59 -2 96.5 -2.5t60.5 -0.5h9h8l279 1q11 -1 15.5 -2.5t4.5 -6.5v-2v-2t-1 -3t-3 -5q-109 -172 -221.5 -344.5t-226.5 -345.5v1z" />
    <glyph glyph-name="braceleft" unicode="{" horiz-adv-x="360" 
d="M134 399l8 -6l8 -6q13 -11 24.5 -28t17.5 -40q1 -3 1.5 -5.5t1.5 -4.5q5 -25 6 -55t1 -85q0 -108 18.5 -154.5t41.5 -62.5q4 -2 7.5 -4t7.5 -4q10 -4 14.5 -6t6.5 -4q1 -1 1 -1.5v-1.5q0 -3 -3.5 -4t-14.5 -1q-10 0 -30.5 7.5t-41.5 26.5q-8 6 -16 14.5t-15 18.5
q-19 26 -35 73.5t-16 153.5q0 11 1 24.5t3 27.5v3.5v3.5q1 13 2 25t1 23q0 10 -1.5 18t-5.5 14q-7 11 -19.5 15.5t-29.5 7.5q-2 1 -4.5 1.5t-5.5 0.5q-2 0 -3 0.5t-2 0.5q-5 1 -6 2.5t-1 4.5q0 5 2 6.5t10 2.5q39 2 54 12t15 56q0 8 -0.5 16.5t-1.5 17.5q-1 6 -1.5 12
t-1.5 12q-2 15 -3.5 27.5t-1.5 21.5q0 76 18 113t46 63q8 7 17 13t18 11q17 8 33 12.5t26 4.5q7 0 10 -1.5t3 -3.5q0 -1 -1 -2.5t-2 -1.5q-2 -1 -5 -2t-8 -3q-7 -2 -16 -6.5t-19 -12.5q-17 -14 -31 -39.5t-14 -66.5v-23v-21q1 -47 0 -79t-8 -57q-5 -18 -16 -35t-23 -28
q-6 -4 -11 -7.5t-10 -5.5v1z" />
    <glyph glyph-name="bar" unicode="|" horiz-adv-x="500" 
 />
    <glyph glyph-name="braceright" unicode="}" horiz-adv-x="360" 
d="M226 399q-5 1 -10 4.5t-11 7.5q-12 11 -23 28t-16 35q-7 25 -8 57t0 79v21v23q0 40 -14 65.5t-31 39.5q-10 8 -19.5 13t-15.5 7q-4 2 -7.5 2.5t-4.5 1.5q-2 1 -3 2t-1 2q0 3 3 4.5t10 1.5q10 0 26 -4.5t33 -12.5q9 -5 18 -11t17 -13q29 -26 46.5 -63t17.5 -113
q0 -10 -1.5 -23.5t-3.5 -29.5q-1 -5 -1.5 -10t-0.5 -10q-1 -11 -2 -21.5t-1 -20.5q0 -15 2.5 -26.5t8.5 -17.5q5 -5 10.5 -8t11.5 -4q7 -3 14.5 -3.5t13.5 -0.5h4h4q8 -1 10 -2.5t2 -6.5q0 -3 -1 -4.5t-6 -2.5q-1 0 -2 -0.5t-3 -0.5q-3 0 -5.5 -0.5t-4.5 -1.5
q-17 -3 -29.5 -7.5t-19.5 -15.5q-4 -7 -5.5 -16.5t-1.5 -21.5q0 -10 1 -21l2 -22v-4.5t1 -4.5q1 -13 2 -25.5t1 -23.5q0 -106 -15.5 -153.5t-35.5 -73.5q-7 -10 -15 -18.5t-16 -14.5q-21 -19 -41 -26.5t-31 -7.5t-14.5 1t-3.5 3q0 1 0.5 2.5t1.5 2.5q2 2 6.5 4t13.5 5
q4 1 7.5 3t7.5 5q23 15 41.5 62t18.5 155v13.5v12.5q0 33 0.5 56t4.5 44l2 12t3 12q6 23 17.5 40t24.5 28l8 6t8 5v1z" />
    <glyph glyph-name="asciitilde" unicode="~" horiz-adv-x="500" 
 />
    <glyph glyph-name="Adieresis" unicode="&#xc4;" horiz-adv-x="700" 
d="M95 107l227 621q7 19 11 27t8 10q0 1 1 1h2h2t1 -1q4 -1 8 -8.5t11 -26.5q7 -17 45 -117t83 -216q30 -79 58.5 -151.5t46.5 -118.5q27 -67 48.5 -86.5t37.5 -24.5q11 -4 22 -5t18 -1q5 0 7.5 -1t2.5 -5t-6 -5.5t-14 -1.5h-53t-91 2h-6.5h-6.5h-4h-4q-10 1 -16 1.5t-6 4.5
q0 3 2 4.5t5 2.5h0.5t1.5 1q2 1 4.5 4.5t1.5 9.5v2v2q0 2 -0.5 4t-1.5 4l-93 247q-1 2 -3 3.5t-6 1.5l-215 1q-4 -1 -6 -3t-4 -6l-60 -176q-7 -20 -10.5 -37t-3.5 -31q0 -13 9.5 -19.5t20.5 -8.5q2 -1 4 -1h4l10 1q5 -1 7.5 -2.5t2.5 -4.5q0 -4 -4 -5.5t-11 -1.5t-15 0.5
t-17 0.5h-6h-6q-11 1 -20.5 1.5t-13.5 0.5t-15.5 -0.5t-27.5 -1.5q-11 0 -23 -0.5t-25 -0.5h-10.5h-10.5q-10 0 -14.5 1.5t-4.5 5.5q0 3 2.5 4.5t6.5 1.5h7t8 1q3 0 6.5 0.5t6.5 0.5q35 5 53 31t31 63v1zM235 328h191q4 -1 4.5 1t-0.5 5l-95 271q-4 10 -7.5 10t-7.5 -11
l-88 -269q-1 -2 -1 -3v-2t1.5 -2t2.5 -1v1zM249 830q-19 -1 -28.5 9.5t-12.5 22.5q0 2 -0.5 5t-0.5 5q0 3 0.5 6t1.5 6q3 12 13 21.5t28 9.5t30.5 -10.5t12.5 -29.5t-12 -32.5t-32 -13.5v1zM450 830q-19 -1 -28.5 9.5t-12.5 22.5q0 2 -0.5 5t-0.5 5q0 3 0.5 6t1.5 6
q3 12 13 21.5t28 9.5t30.5 -10.5t12.5 -29.5t-12 -32.5t-32 -13.5v1z" />
    <glyph glyph-name="Aring" unicode="&#xc5;" horiz-adv-x="700" 
d="M95 107l227 621q7 19 11 27t8 10q0 1 1 1h2h2t1 -1q4 -1 8 -8.5t11 -26.5q7 -17 45 -117t83 -216q30 -79 58.5 -151.5t46.5 -118.5q27 -67 48.5 -86.5t37.5 -24.5q11 -4 22 -5t18 -1q5 0 7.5 -1t2.5 -5t-6 -5.5t-14 -1.5h-53t-91 2h-6.5h-6.5h-4h-4q-10 1 -16 1.5t-6 4.5
q0 3 2 4.5t5 2.5h0.5t1.5 1q2 1 4.5 4.5t1.5 9.5v2v2q0 2 -0.5 4t-1.5 4l-93 247q-1 2 -3 3.5t-6 1.5l-215 1q-4 -1 -6 -3t-4 -6l-60 -176q-7 -20 -10.5 -37t-3.5 -31q0 -13 9.5 -19.5t20.5 -8.5q2 -1 4 -1h4l10 1q5 -1 7.5 -2.5t2.5 -4.5q0 -4 -4 -5.5t-11 -1.5t-15 0.5
t-17 0.5h-6h-6q-11 1 -20.5 1.5t-13.5 0.5t-15.5 -0.5t-27.5 -1.5q-11 0 -23 -0.5t-25 -0.5h-10.5h-10.5q-10 0 -14.5 1.5t-4.5 5.5q0 3 2.5 4.5t6.5 1.5h7t8 1q3 0 6.5 0.5t6.5 0.5q35 5 53 31t31 63v1zM235 328h191q4 -1 4.5 1t-0.5 5l-95 271q-4 10 -7.5 10t-7.5 -11
l-88 -269q-1 -2 -1 -3v-2t1.5 -2t2.5 -1v1zM329 820q-37 -1 -57.5 16t-20.5 42q0 34 33 60t85 26q38 0 59.5 -15.5t22.5 -41.5q0 -38 -33.5 -60.5t-73.5 -26.5q-4 -1 -7.5 -1h-7.5v1zM345 844q25 -1 42 14t17 36q0 18 -12.5 32t-39.5 14q-4 0 -8.5 -0.5t-9.5 -2.5
q-15 -4 -27 -15.5t-12 -30.5q0 -21 14 -33.5t31 -14.5h2.5h2.5v1z" />
    <glyph glyph-name="Ccedilla" unicode="&#xc7;" horiz-adv-x="805" 
d="M419 0h40q-4 -2 -14.5 -11.5t-22.5 -20.5l-1.5 -1.5l-1.5 -1.5q-12 -10 -22 -19.5t-13 -13.5q47 -5 73.5 -22.5t26.5 -48.5q0 -27 -20 -47t-43 -32q-2 -1 -4 -1.5t-4 -1.5q-6 -3 -11.5 -5t-11.5 -4q-16 -4 -30.5 -6.5t-24.5 -2.5q-5 0 -9 2t-4 6q0 7 6 8.5t14 2.5
q2 0 4.5 0.5t5.5 1.5q24 4 44 19.5t20 39.5q0 22 -14 41t-58 32q-3 1 -5 1.5t-4 1.5q-3 1 -4.5 2.5t-1.5 3.5t3 5.5t10 8.5l77 63v0zM515 -17q-112 0 -191.5 27t-138.5 80q-43 38 -68 82.5t-37 89.5q-9 32 -12.5 63.5t-3.5 60.5q0 32 8.5 77t31.5 93q12 27 30 53t42 50
q45 45 117.5 76t187.5 31q21 0 46.5 -1t52.5 -4q12 -2 23.5 -3.5t22.5 -3.5q29 -5 53.5 -9t48.5 -6q8 -1 10.5 -3.5t2.5 -7.5q0 -4 -1 -11.5t-2 -21.5q-1 -5 -1.5 -10.5t-0.5 -12.5q-1 -9 -1 -19.5t-1 -21.5v-18.5v-17.5q0 -9 -0.5 -15.5t-0.5 -10.5q-1 -11 -2.5 -16
t-6.5 -5t-6.5 5.5t-1.5 15.5v5.5v5.5q-2 27 -13 51.5t-29 39.5q-26 23 -80 40t-120 17q-88 0 -138.5 -19t-78.5 -42q-4 -3 -7 -6l-6 -6q-55 -52 -72.5 -118t-17.5 -143q0 -143 100.5 -254.5t260.5 -111.5q56 0 100 9.5t74 40.5q7 8 13 18t11 21q5 14 8.5 26t4.5 19
q2 8 4 11.5t6 3.5t5.5 -4.5t1.5 -10.5q0 -3 -3 -24.5t-7 -46.5q-2 -10 -4 -20.5t-4 -19.5q-1 -5 -2 -9l-2 -8q-1 -3 -1.5 -5.5t-1.5 -4.5q-2 -5 -4.5 -8t-7.5 -6q-2 -1 -4.5 -2t-6.5 -3q-22 -8 -57.5 -13.5t-72.5 -7.5q-13 0 -25.5 -0.5t-24.5 -0.5v0z" />
    <glyph glyph-name="Eacute" unicode="&#xc9;" horiz-adv-x="610" 
d="M178 287v176v150.5t-2 61.5v1.5v1.5q-1 26 -9.5 39t-33.5 18q-3 1 -8 1.5t-10 0.5q-4 1 -8.5 1h-7.5t-5.5 1.5t-2.5 4.5q0 5 4 6.5t12 1.5h16.5h17.5q10 -1 19.5 -1h18.5q16 -1 27.5 -1.5t13.5 -0.5h38.5h76.5q39 0 72.5 0.5t41.5 0.5q14 1 25.5 2.5t17.5 2.5q2 0 3.5 1
t2.5 1q0 1 0.5 1h0.5q2 1 3.5 1.5t3.5 0.5t3 -2.5t1 -6.5t-1.5 -10t-3.5 -17q-1 -4 -1.5 -9t-1.5 -11q0 -4 -1 -13.5t-1 -20.5q-1 -10 -1.5 -19t-1.5 -13v-1.5v-0.5q-1 -3 -2.5 -6t-4.5 -3q-4 0 -6 3.5t-2 9.5q0 4 -0.5 10t-1.5 13q-1 3 -2 6.5t-2 6.5q-5 12 -17.5 21
t-53.5 13q-6 1 -25.5 1.5t-42.5 0.5q-24 1 -44.5 1h-24.5q-3 0 -4.5 -2.5t-1.5 -7.5v-275q0 -6 1 -8.5t5 -2.5h29h52q25 0 47.5 0.5t30.5 1.5q18 2 29 4.5t18 9.5q5 6 8.5 9.5t6.5 3.5q2 0 3.5 -1.5t1.5 -6.5q0 -3 -1.5 -11t-3.5 -21q-1 -5 -1.5 -11t-1.5 -13
q-1 -5 -1.5 -12t-0.5 -14q-1 -13 -1.5 -24t-0.5 -14v-2.5v-2.5q0 -6 -1.5 -10t-5.5 -4t-5.5 2.5t-1.5 6.5q0 8 -0.5 15.5t-3.5 17.5q-1 2 -1.5 4t-1.5 4q-4 9 -14.5 17t-34.5 10q-9 1 -28.5 2t-40.5 1q-25 1 -46 1.5t-28 0.5q-4 0 -5.5 -2t-1.5 -5v-87v-24v-32v-13.5v-13.5
v-55v-34q2 -52 22.5 -67t93.5 -15h22.5t25.5 1t25.5 3.5t22.5 6.5q20 8 30 24.5t15 47.5q2 8 3.5 11.5t5.5 3.5t5 -4t1 -9v-0.5v-1.5q0 -3 -1.5 -18.5t-4.5 -32.5q0 -5 -1 -10.5t-1 -10.5q-2 -7 -3 -14t-2 -11q-5 -19 -15 -22t-39 -3q-57 0 -98.5 1t-70.5 2q-30 1 -48.5 2
t-29.5 1q-2 0 -13.5 -0.5t-26.5 -1.5h-8h-9q-11 0 -22 -0.5t-19 -0.5t-12 1.5t-4 5.5q0 2 2 4t6 2q3 0 7 0.5t8 0.5q4 1 8 1.5t7 1.5q15 3 20.5 18t8.5 37q4 32 4.5 88.5t0.5 128.5v1zM443 933q5 -8 11 -19t14 -26q2 -2 2 -3.5v-3.5q0 -3 -2 -4t-4 -1h-2t-3 1h-5h-6h-6
t-8 -1q-13 -1 -28 -4t-31 -7q-13 -4 -25.5 -7.5t-24.5 -7.5q-13 -4 -24 -8t-19 -8q-5 -2 -9 -3.5t-6 -1.5h-0.5h-1.5q-1 1 -2 2.5t-1 3.5q0 1 0.5 2t1.5 2q0 1 1.5 2t3.5 2q10 7 25 16.5t32 20.5q1 0 2 1t2 1q27 17 49.5 30.5t25.5 15.5q13 8 18.5 10.5t9.5 2.5h1.5h0.5
q2 -1 3.5 -3l4.5 -6v1z" />
    <glyph glyph-name="Ntilde" unicode="&#xd1;" horiz-adv-x="947" 
d="M192 612l13 -479q2 -62 10.5 -86.5t28.5 -30.5q3 -1 5.5 -1.5t5.5 -0.5q12 -3 23 -3.5t16 -0.5q4 0 6 -1.5t2 -4.5q0 -4 -4.5 -5.5t-13.5 -1.5q-21 0 -39 0.5t-32 0.5q-14 1 -23 1.5t-12 0.5t-12.5 -0.5t-21.5 -1.5q-13 0 -29 -0.5t-33 -0.5q-7 0 -11.5 1.5t-4.5 5.5
q0 3 2 4.5t6 1.5q5 0 13 0.5t17 2.5q3 1 5.5 1.5t5.5 1.5q19 5 24.5 32t5.5 95l1 574q0 28 2.5 38.5t8.5 10.5q3 0 8.5 -4.5t10.5 -10.5l2 -2l1 -1q4 -4 7 -7.5t6 -6.5q11 -13 107 -116t211 -227q9 -9 17.5 -18.5t16.5 -18.5l6 -6l6 -6q63 -69 118.5 -130t75.5 -82l-11 509
q-1 48 -8.5 68t-30.5 26q-3 1 -7 1.5t-7 0.5q-11 2 -20.5 2.5t-14.5 0.5t-6.5 2t-1.5 5q0 5 5.5 6t14.5 1h5.5h4.5q15 0 29 -0.5t26 -0.5q14 -1 24.5 -1.5t14.5 -0.5t12 0.5t19 1.5q11 0 25 0.5t29 0.5q8 0 13 -1t5 -6q0 -3 -3 -5t-8 -2q-4 0 -9.5 -0.5t-14.5 -2.5
q-25 -5 -31 -24.5t-6 -64.5l-2 -585q0 -50 -2 -60.5t-7 -10.5q-6 0 -19.5 11.5t-53.5 51.5q-6 6 -63 64t-124 128q-2 3 -4.5 5.5l-4.5 4.5q-17 18 -33.5 35t-31.5 34l-2 2l-2 2q-86 93 -159.5 174.5t-97.5 108.5v1zM554 830q-15 -1 -29.5 3.5t-26.5 9.5q-7 4 -13 7l-10 5
t-8.5 4.5t-9.5 4.5q-10 5 -22 9.5t-28 4.5q-15 0 -26.5 -6t-19.5 -13q-5 -5 -9 -9.5t-6 -7.5q-4 -4 -7.5 -6.5t-6.5 -2.5t-4.5 2t-1.5 4v2.5t1 2.5q1 2 2.5 4.5t3.5 5.5q4 6 10 14t13 16q9 10 19 19t21 15q6 3 11.5 5t11.5 2q17 0 37 -9t42 -19q1 -1 2.5 -1.5t2.5 -1.5
l5 -2.5t7 -2.5q4 -2 9 -3.5t10 -3.5q7 -2 14 -3.5t13 -1.5q15 0 26.5 4.5t19.5 10.5q6 4 10 8.5t5 5.5q1 2 2 3t2 3q2 2 4.5 3.5t3.5 1.5q3 0 5 -2t2 -4v-1.5v-1.5q-1 -2 -1.5 -4.5t-2.5 -5.5q-2 -5 -9 -14t-16 -18q-7 -8 -15 -15t-16 -12q-7 -5 -14 -7.5t-13 -2.5v1z" />
    <glyph glyph-name="Odieresis" unicode="&#xd6;" horiz-adv-x="915" 
d="M64 376q0 27 4.5 56.5t14.5 59.5q32 103 123.5 188.5t251.5 85.5q169 0 281 -100t112 -275q0 -168 -109 -288t-290 -120q-178 0 -269.5 99.5t-112.5 218.5q-3 19 -4.5 37.5t-1.5 36.5v1zM159 404q0 -176 92.5 -280t227.5 -104q23 0 53 5.5t61 19.5q61 29 111.5 101.5
t50.5 216.5q0 180 -92.5 274.5t-211.5 94.5q-125 0 -208.5 -82.5t-83.5 -246.5v1zM356 830q-19 -1 -28.5 9.5t-12.5 22.5q0 2 -0.5 5t-0.5 5q0 3 0.5 6t1.5 6q3 12 13 21.5t28 9.5t30.5 -10.5t12.5 -29.5t-12 -32.5t-32 -13.5v1zM557 830q-19 -1 -28.5 9.5t-12.5 22.5
q0 2 -0.5 5t-0.5 5q0 3 0.5 6t1.5 6q3 12 13 21.5t28 9.5t30.5 -10.5t12.5 -29.5t-12 -32.5t-32 -13.5v1z" />
    <glyph glyph-name="Udieresis" unicode="&#xdc;" horiz-adv-x="830" 
d="M120 317v146v150.5t-2 61.5v1.5v1.5q-1 26 -9.5 39t-33.5 18q-3 1 -8 1.5t-10 0.5q-4 1 -8.5 1h-7.5t-5.5 1.5t-2.5 4.5q0 5 4 6.5t12 1.5h16.5h17.5q9 -1 18.5 -1h18.5q17 -1 29 -1.5t15 -0.5t15 0.5t27 1.5h7h8q12 0 23 0.5t19 0.5t12 -1.5t4 -6.5q0 -3 -2.5 -4.5
t-5.5 -1.5h-1.5h-1.5q-4 0 -9 -1t-13 -2q-20 -3 -27.5 -17t-9.5 -40v-1.5v-1.5q-2 -23 -2 -61.5v-151.5v-139q0 -109 21.5 -163t53.5 -85q9 -9 18 -16t18 -12q27 -16 55 -21.5t60 -5.5q46 0 88 20t69 52q35 43 46.5 105.5t11.5 139.5v126v150.5t-2 61.5v1.5v1.5
q-1 26 -9.5 39t-33.5 18q-3 1 -8 1.5t-10 0.5q-4 1 -8.5 1h-7.5t-5.5 1.5t-2.5 4.5q0 5 4 6.5t12 1.5h12h11q12 0 23.5 -0.5t21.5 -0.5q15 -1 25.5 -1.5t12.5 -0.5q3 0 12 0.5t21 1.5h10.5h10.5q8 1 15.5 1h14.5q8 0 12 -1.5t4 -6.5q0 -3 -2.5 -4.5t-5.5 -1.5h-1.5h-1.5
q-4 0 -9 -0.5t-13 -2.5q-20 -4 -27.5 -17.5t-9.5 -39.5v-1.5v-1.5q-2 -23 -2 -61.5v-151.5v-106q0 -17 -0.5 -33t-1.5 -33q-4 -66 -23 -128.5t-67 -105.5q-9 -8 -17.5 -14.5t-16.5 -11.5q-46 -30 -90.5 -38.5t-81.5 -8.5q-18 0 -55.5 4t-78.5 20q-19 8 -37.5 19t-34.5 27
q-37 35 -62 94.5t-25 168.5v1zM329 830q-19 -1 -28.5 9.5t-12.5 22.5q0 2 -0.5 5t-0.5 5q0 3 0.5 6t1.5 6q3 12 13 21.5t28 9.5t30.5 -10.5t12.5 -29.5t-12 -32.5t-32 -13.5v1zM530 830q-19 -1 -28.5 9.5t-12.5 22.5q0 2 -0.5 5t-0.5 5q0 3 0.5 6t1.5 6q3 12 13 21.5t28 9.5
t30.5 -10.5t12.5 -29.5t-12 -32.5t-32 -13.5v1z" />
    <glyph glyph-name="aacute" unicode="&#xe1;" horiz-adv-x="700" 
d="M95 107l227 621q7 19 11 27t8 10q0 1 1 1h2h2t1 -1q4 -1 8 -8.5t11 -26.5q7 -17 45 -117t83 -216q30 -79 58.5 -151.5t46.5 -118.5q27 -67 48.5 -86.5t37.5 -24.5q11 -4 22 -5t18 -1q5 0 7.5 -1t2.5 -5t-6 -5.5t-14 -1.5h-53t-91 2h-6.5h-6.5h-4h-4q-10 1 -16 1.5t-6 4.5
q0 3 2 4.5t5 2.5h0.5t1.5 1q2 1 4.5 4.5t1.5 9.5v2v2q0 2 -0.5 4t-1.5 4l-93 247q-1 2 -3 3.5t-6 1.5l-215 1q-4 -1 -6 -3t-4 -6l-60 -176q-7 -20 -10.5 -37t-3.5 -31q0 -13 9.5 -19.5t20.5 -8.5q2 -1 4 -1h4l10 1q5 -1 7.5 -2.5t2.5 -4.5q0 -4 -4 -5.5t-11 -1.5t-15 0.5
t-17 0.5h-6h-6q-11 1 -20.5 1.5t-13.5 0.5t-15.5 -0.5t-27.5 -1.5q-11 0 -23 -0.5t-25 -0.5h-10.5h-10.5q-10 0 -14.5 1.5t-4.5 5.5q0 3 2.5 4.5t6.5 1.5h7t8 1q3 0 6.5 0.5t6.5 0.5q35 5 53 31t31 63v1zM235 328h191q4 -1 4.5 1t-0.5 5l-95 271q-4 10 -7.5 10t-7.5 -11
l-88 -269q-1 -2 -1 -3v-2t1.5 -2t2.5 -1v1zM478 933q5 -8 11 -19t14 -26q2 -2 2 -3.5v-3.5q0 -3 -2 -4t-4 -1h-2t-3 1h-5h-6h-6t-8 -1q-13 -1 -28 -4t-31 -7q-13 -4 -25.5 -7.5t-24.5 -7.5q-13 -4 -24 -8t-19 -8q-5 -2 -9 -3.5t-6 -1.5h-0.5h-1.5q-1 1 -2 2.5t-1 3.5
q0 1 0.5 2t1.5 2q0 1 1.5 2t3.5 2q10 7 25 16.5t32 20.5q1 0 2 1t2 1q27 17 49.5 30.5t25.5 15.5q13 8 18.5 10.5t9.5 2.5h1.5h0.5q2 -1 3.5 -3l4.5 -6v1z" />
    <glyph glyph-name="agrave" unicode="&#xe0;" horiz-adv-x="700" 
d="M95 107l227 621q7 19 11 27t8 10q0 1 1 1h2h2t1 -1q4 -1 8 -8.5t11 -26.5q7 -17 45 -117t83 -216q30 -79 58.5 -151.5t46.5 -118.5q27 -67 48.5 -86.5t37.5 -24.5q11 -4 22 -5t18 -1q5 0 7.5 -1t2.5 -5t-6 -5.5t-14 -1.5h-53t-91 2h-6.5h-6.5h-4h-4q-10 1 -16 1.5t-6 4.5
q0 3 2 4.5t5 2.5h0.5t1.5 1q2 1 4.5 4.5t1.5 9.5v2v2q0 2 -0.5 4t-1.5 4l-93 247q-1 2 -3 3.5t-6 1.5l-215 1q-4 -1 -6 -3t-4 -6l-60 -176q-7 -20 -10.5 -37t-3.5 -31q0 -13 9.5 -19.5t20.5 -8.5q2 -1 4 -1h4l10 1q5 -1 7.5 -2.5t2.5 -4.5q0 -4 -4 -5.5t-11 -1.5t-15 0.5
t-17 0.5h-6h-6q-11 1 -20.5 1.5t-13.5 0.5t-15.5 -0.5t-27.5 -1.5q-11 0 -23 -0.5t-25 -0.5h-10.5h-10.5q-10 0 -14.5 1.5t-4.5 5.5q0 3 2.5 4.5t6.5 1.5h7t8 1q3 0 6.5 0.5t6.5 0.5q35 5 53 31t31 63v1zM235 328h191q4 -1 4.5 1t-0.5 5l-95 271q-4 10 -7.5 10t-7.5 -11
l-88 -269q-1 -2 -1 -3v-2t1.5 -2t2.5 -1v1zM401 830q-7 -1 -33.5 7.5t-56.5 18.5q-2 1 -4.5 1.5t-4.5 1.5q-28 10 -52 18.5t-30 10.5q-13 5 -19.5 8t-8.5 6q-1 1 -1 1.5v1.5q0 3 2 4.5t5 2.5q1 0 2 0.5t2 0.5q5 1 9.5 2.5t9.5 3.5q2 0 4 0.5t4 1.5q10 3 19 6t14 5
q6 2 9.5 3.5t6.5 1.5q1 0 2 -0.5t2 -1.5q2 -2 4.5 -5.5t6.5 -8.5q4 -4 21.5 -18t39.5 -30l8 -6t8 -5q6 -4 11 -7.5t10 -6.5q6 -4 11 -6.5t7 -5.5l0.5 -0.5t0.5 -1.5q0 -2 -2.5 -3.5t-6.5 -1.5v1z" />
    <glyph glyph-name="acircumflex" unicode="&#xe2;" horiz-adv-x="700" 
d="M95 107l227 621q7 19 11 27t8 10q0 1 1 1h2h2t1 -1q4 -1 8 -8.5t11 -26.5q7 -17 45 -117t83 -216q30 -79 58.5 -151.5t46.5 -118.5q27 -67 48.5 -86.5t37.5 -24.5q11 -4 22 -5t18 -1q5 0 7.5 -1t2.5 -5t-6 -5.5t-14 -1.5h-53t-91 2h-6.5h-6.5h-4h-4q-10 1 -16 1.5t-6 4.5
q0 3 2 4.5t5 2.5h0.5t1.5 1q2 1 4.5 4.5t1.5 9.5v2v2q0 2 -0.5 4t-1.5 4l-93 247q-1 2 -3 3.5t-6 1.5l-215 1q-4 -1 -6 -3t-4 -6l-60 -176q-7 -20 -10.5 -37t-3.5 -31q0 -13 9.5 -19.5t20.5 -8.5q2 -1 4 -1h4l10 1q5 -1 7.5 -2.5t2.5 -4.5q0 -4 -4 -5.5t-11 -1.5t-15 0.5
t-17 0.5h-6h-6q-11 1 -20.5 1.5t-13.5 0.5t-15.5 -0.5t-27.5 -1.5q-11 0 -23 -0.5t-25 -0.5h-10.5h-10.5q-10 0 -14.5 1.5t-4.5 5.5q0 3 2.5 4.5t6.5 1.5h7t8 1q3 0 6.5 0.5t6.5 0.5q35 5 53 31t31 63v1zM235 328h191q4 -1 4.5 1t-0.5 5l-95 271q-4 10 -7.5 10t-7.5 -11
l-88 -269q-1 -2 -1 -3v-2t1.5 -2t2.5 -1v1zM477 845l-21 -22q-2 -3 -3.5 -4.5t-2.5 -1.5q-1 -1 -1.5 -1h-1.5h-2t-2 1l-2 2l-2 2q-5 6 -13 13t-17 15q-2 2 -4.5 4t-4.5 4q-15 11 -27.5 20.5t-17.5 12.5q-3 2 -5.5 3t-4.5 1q-3 0 -6.5 -1t-9.5 -4q-9 -5 -20.5 -13t-23.5 -17
q-2 -2 -5 -4t-5 -4q-9 -7 -16.5 -13t-14.5 -12q-6 -5 -11 -7.5t-7 -2.5q-3 0 -5 2.5t-2 5.5q0 2 0.5 3l1.5 3q1 1 2 2.5t2 2.5q4 4 20.5 19.5t35.5 32.5q19 18 35.5 33t20.5 19q6 5 10 7.5t6 2.5q3 0 6.5 -2.5t9.5 -7.5q3 -2 18 -13.5t33 -24.5q16 -13 30.5 -23.5
t19.5 -14.5q7 -4 9.5 -6t2.5 -4t-1 -3.5t-2 -3.5q-1 0 -1.5 -0.5t-0.5 -1.5v1z" />
    <glyph glyph-name="adieresis" unicode="&#xe4;" horiz-adv-x="700" 
d="M95 107l227 621q7 19 11 27t8 10q0 1 1 1h2h2t1 -1q4 -1 8 -8.5t11 -26.5q7 -17 45 -117t83 -216q30 -79 58.5 -151.5t46.5 -118.5q27 -67 48.5 -86.5t37.5 -24.5q11 -4 22 -5t18 -1q5 0 7.5 -1t2.5 -5t-6 -5.5t-14 -1.5h-53t-91 2h-6.5h-6.5h-4h-4q-10 1 -16 1.5t-6 4.5
q0 3 2 4.5t5 2.5h0.5t1.5 1q2 1 4.5 4.5t1.5 9.5v2v2q0 2 -0.5 4t-1.5 4l-93 247q-1 2 -3 3.5t-6 1.5l-215 1q-4 -1 -6 -3t-4 -6l-60 -176q-7 -20 -10.5 -37t-3.5 -31q0 -13 9.5 -19.5t20.5 -8.5q2 -1 4 -1h4l10 1q5 -1 7.5 -2.5t2.5 -4.5q0 -4 -4 -5.5t-11 -1.5t-15 0.5
t-17 0.5h-6h-6q-11 1 -20.5 1.5t-13.5 0.5t-15.5 -0.5t-27.5 -1.5q-11 0 -23 -0.5t-25 -0.5h-10.5h-10.5q-10 0 -14.5 1.5t-4.5 5.5q0 3 2.5 4.5t6.5 1.5h7t8 1q3 0 6.5 0.5t6.5 0.5q35 5 53 31t31 63v1zM235 328h191q4 -1 4.5 1t-0.5 5l-95 271q-4 10 -7.5 10t-7.5 -11
l-88 -269q-1 -2 -1 -3v-2t1.5 -2t2.5 -1v1zM249 830q-19 -1 -28.5 9.5t-12.5 22.5q0 2 -0.5 5t-0.5 5q0 3 0.5 6t1.5 6q3 12 13 21.5t28 9.5t30.5 -10.5t12.5 -29.5t-12 -32.5t-32 -13.5v1zM450 830q-19 -1 -28.5 9.5t-12.5 22.5q0 2 -0.5 5t-0.5 5q0 3 0.5 6t1.5 6
q3 12 13 21.5t28 9.5t30.5 -10.5t12.5 -29.5t-12 -32.5t-32 -13.5v1z" />
    <glyph glyph-name="atilde" unicode="&#xe3;" horiz-adv-x="700" 
d="M95 107l227 621q7 19 11 27t8 10q0 1 1 1h2h2t1 -1q4 -1 8 -8.5t11 -26.5q7 -17 45 -117t83 -216q30 -79 58.5 -151.5t46.5 -118.5q27 -67 48.5 -86.5t37.5 -24.5q11 -4 22 -5t18 -1q5 0 7.5 -1t2.5 -5t-6 -5.5t-14 -1.5h-53t-91 2h-6.5h-6.5h-4h-4q-10 1 -16 1.5t-6 4.5
q0 3 2 4.5t5 2.5h0.5t1.5 1q2 1 4.5 4.5t1.5 9.5v2v2q0 2 -0.5 4t-1.5 4l-93 247q-1 2 -3 3.5t-6 1.5l-215 1q-4 -1 -6 -3t-4 -6l-60 -176q-7 -20 -10.5 -37t-3.5 -31q0 -13 9.5 -19.5t20.5 -8.5q2 -1 4 -1h4l10 1q5 -1 7.5 -2.5t2.5 -4.5q0 -4 -4 -5.5t-11 -1.5t-15 0.5
t-17 0.5h-6h-6q-11 1 -20.5 1.5t-13.5 0.5t-15.5 -0.5t-27.5 -1.5q-11 0 -23 -0.5t-25 -0.5h-10.5h-10.5q-10 0 -14.5 1.5t-4.5 5.5q0 3 2.5 4.5t6.5 1.5h7t8 1q3 0 6.5 0.5t6.5 0.5q35 5 53 31t31 63v1zM235 328h191q4 -1 4.5 1t-0.5 5l-95 271q-4 10 -7.5 10t-7.5 -11
l-88 -269q-1 -2 -1 -3v-2t1.5 -2t2.5 -1v1zM421 830q-15 -1 -29.5 3.5t-26.5 9.5q-7 4 -13 7l-10 5t-8.5 4.5t-9.5 4.5q-10 5 -22 9.5t-28 4.5q-15 0 -26.5 -6t-19.5 -13q-5 -5 -9 -9.5t-6 -7.5q-4 -4 -7.5 -6.5t-6.5 -2.5t-4.5 2t-1.5 4v2.5t1 2.5q1 2 2.5 4.5t3.5 5.5
q4 6 10 14t13 16q9 10 19 19t21 15q6 3 11.5 5t11.5 2q17 0 37 -9t42 -19q1 -1 2.5 -1.5t2.5 -1.5l5 -2.5t7 -2.5q4 -2 9 -3.5t10 -3.5q7 -2 14 -3.5t13 -1.5q15 0 26.5 4.5t19.5 10.5q6 4 10 8.5t5 5.5q1 2 2 3t2 3q2 2 4.5 3.5t3.5 1.5q3 0 5 -2t2 -4v-1.5v-1.5
q-1 -2 -1.5 -4.5t-2.5 -5.5q-2 -5 -9 -14t-16 -18q-7 -8 -15 -15t-16 -12q-7 -5 -14 -7.5t-13 -2.5v1z" />
    <glyph glyph-name="aring" unicode="&#xe5;" horiz-adv-x="700" 
d="M95 107l227 621q7 19 11 27t8 10q0 1 1 1h2h2t1 -1q4 -1 8 -8.5t11 -26.5q7 -17 45 -117t83 -216q30 -79 58.5 -151.5t46.5 -118.5q27 -67 48.5 -86.5t37.5 -24.5q11 -4 22 -5t18 -1q5 0 7.5 -1t2.5 -5t-6 -5.5t-14 -1.5h-53t-91 2h-6.5h-6.5h-4h-4q-10 1 -16 1.5t-6 4.5
q0 3 2 4.5t5 2.5h0.5t1.5 1q2 1 4.5 4.5t1.5 9.5v2v2q0 2 -0.5 4t-1.5 4l-93 247q-1 2 -3 3.5t-6 1.5l-215 1q-4 -1 -6 -3t-4 -6l-60 -176q-7 -20 -10.5 -37t-3.5 -31q0 -13 9.5 -19.5t20.5 -8.5q2 -1 4 -1h4l10 1q5 -1 7.5 -2.5t2.5 -4.5q0 -4 -4 -5.5t-11 -1.5t-15 0.5
t-17 0.5h-6h-6q-11 1 -20.5 1.5t-13.5 0.5t-15.5 -0.5t-27.5 -1.5q-11 0 -23 -0.5t-25 -0.5h-10.5h-10.5q-10 0 -14.5 1.5t-4.5 5.5q0 3 2.5 4.5t6.5 1.5h7t8 1q3 0 6.5 0.5t6.5 0.5q35 5 53 31t31 63v1zM235 328h191q4 -1 4.5 1t-0.5 5l-95 271q-4 10 -7.5 10t-7.5 -11
l-88 -269q-1 -2 -1 -3v-2t1.5 -2t2.5 -1v1zM329 820q-37 -1 -57.5 16t-20.5 42q0 34 33 60t85 26q38 0 59.5 -15.5t22.5 -41.5q0 -38 -33.5 -60.5t-73.5 -26.5q-4 -1 -7.5 -1h-7.5v1zM345 844q25 -1 42 14t17 36q0 18 -12.5 32t-39.5 14q-4 0 -8.5 -0.5t-9.5 -2.5
q-15 -4 -27 -15.5t-12 -30.5q0 -21 14 -33.5t31 -14.5h2.5h2.5v1z" />
    <glyph glyph-name="ccedilla" unicode="&#xe7;" horiz-adv-x="805" 
d="M419 0h40q-4 -2 -14.5 -11.5t-22.5 -20.5l-1.5 -1.5l-1.5 -1.5q-12 -10 -22 -19.5t-13 -13.5q47 -5 73.5 -22.5t26.5 -48.5q0 -27 -20 -47t-43 -32q-2 -1 -4 -1.5t-4 -1.5q-6 -3 -11.5 -5t-11.5 -4q-16 -4 -30.5 -6.5t-24.5 -2.5q-5 0 -9 2t-4 6q0 7 6 8.5t14 2.5
q2 0 4.5 0.5t5.5 1.5q24 4 44 19.5t20 39.5q0 22 -14 41t-58 32q-3 1 -5 1.5t-4 1.5q-3 1 -4.5 2.5t-1.5 3.5t3 5.5t10 8.5l77 63v0zM515 -17q-112 0 -191.5 27t-138.5 80q-43 38 -68 82.5t-37 89.5q-9 32 -12.5 63.5t-3.5 60.5q0 32 8.5 77t31.5 93q12 27 30 53t42 50
q45 45 117.5 76t187.5 31q21 0 46.5 -1t52.5 -4q12 -2 23.5 -3.5t22.5 -3.5q29 -5 53.5 -9t48.5 -6q8 -1 10.5 -3.5t2.5 -7.5q0 -4 -1 -11.5t-2 -21.5q-1 -5 -1.5 -10.5t-0.5 -12.5q-1 -9 -1 -19.5t-1 -21.5v-18.5v-17.5q0 -9 -0.5 -15.5t-0.5 -10.5q-1 -11 -2.5 -16
t-6.5 -5t-6.5 5.5t-1.5 15.5v5.5v5.5q-2 27 -13 51.5t-29 39.5q-26 23 -80 40t-120 17q-88 0 -138.5 -19t-78.5 -42q-4 -3 -7 -6l-6 -6q-55 -52 -72.5 -118t-17.5 -143q0 -143 100.5 -254.5t260.5 -111.5q56 0 100 9.5t74 40.5q7 8 13 18t11 21q5 14 8.5 26t4.5 19
q2 8 4 11.5t6 3.5t5.5 -4.5t1.5 -10.5q0 -3 -3 -24.5t-7 -46.5q-2 -10 -4 -20.5t-4 -19.5q-1 -5 -2 -9l-2 -8q-1 -3 -1.5 -5.5t-1.5 -4.5q-2 -5 -4.5 -8t-7.5 -6q-2 -1 -4.5 -2t-6.5 -3q-22 -8 -57.5 -13.5t-72.5 -7.5q-13 0 -25.5 -0.5t-24.5 -0.5v0z" />
    <glyph glyph-name="eacute" unicode="&#xe9;" horiz-adv-x="610" 
d="M178 287v176v150.5t-2 61.5v1.5v1.5q-1 26 -9.5 39t-33.5 18q-3 1 -8 1.5t-10 0.5q-4 1 -8.5 1h-7.5t-5.5 1.5t-2.5 4.5q0 5 4 6.5t12 1.5h16.5h17.5q10 -1 19.5 -1h18.5q16 -1 27.5 -1.5t13.5 -0.5h38.5h76.5q39 0 72.5 0.5t41.5 0.5q14 1 25.5 2.5t17.5 2.5q2 0 3.5 1
t2.5 1q0 1 0.5 1h0.5q2 1 3.5 1.5t3.5 0.5t3 -2.5t1 -6.5t-1.5 -10t-3.5 -17q-1 -4 -1.5 -9t-1.5 -11q0 -4 -1 -13.5t-1 -20.5q-1 -10 -1.5 -19t-1.5 -13v-1.5v-0.5q-1 -3 -2.5 -6t-4.5 -3q-4 0 -6 3.5t-2 9.5q0 4 -0.5 10t-1.5 13q-1 3 -2 6.5t-2 6.5q-5 12 -17.5 21
t-53.5 13q-6 1 -25.5 1.5t-42.5 0.5q-24 1 -44.5 1h-24.5q-3 0 -4.5 -2.5t-1.5 -7.5v-275q0 -6 1 -8.5t5 -2.5h29h52q25 0 47.5 0.5t30.5 1.5q18 2 29 4.5t18 9.5q5 6 8.5 9.5t6.5 3.5q2 0 3.5 -1.5t1.5 -6.5q0 -3 -1.5 -11t-3.5 -21q-1 -5 -1.5 -11t-1.5 -13
q-1 -5 -1.5 -12t-0.5 -14q-1 -13 -1.5 -24t-0.5 -14v-2.5v-2.5q0 -6 -1.5 -10t-5.5 -4t-5.5 2.5t-1.5 6.5q0 8 -0.5 15.5t-3.5 17.5q-1 2 -1.5 4t-1.5 4q-4 9 -14.5 17t-34.5 10q-9 1 -28.5 2t-40.5 1q-25 1 -46 1.5t-28 0.5q-4 0 -5.5 -2t-1.5 -5v-87v-24v-32v-13.5v-13.5
v-55v-34q2 -52 22.5 -67t93.5 -15h22.5t25.5 1t25.5 3.5t22.5 6.5q20 8 30 24.5t15 47.5q2 8 3.5 11.5t5.5 3.5t5 -4t1 -9v-0.5v-1.5q0 -3 -1.5 -18.5t-4.5 -32.5q0 -5 -1 -10.5t-1 -10.5q-2 -7 -3 -14t-2 -11q-5 -19 -15 -22t-39 -3q-57 0 -98.5 1t-70.5 2q-30 1 -48.5 2
t-29.5 1h-4.5t-8.5 -1h-12h-15q-4 0 -8.5 -0.5t-8.5 -0.5q-11 0 -22 -0.5t-19 -0.5t-12 1.5t-4 5.5q0 2 2 4t6 2q3 0 7 0.5t8 0.5q4 1 8 1.5t7 1.5q15 3 20.5 18t8.5 37q4 32 4.5 88.5t0.5 128.5v1zM443 933q5 -8 11 -19t14 -26q2 -2 2 -3.5v-3.5q0 -3 -2 -4t-4 -1h-2t-3 1
h-5h-6h-6t-8 -1q-13 -1 -28 -4t-31 -7q-13 -4 -25.5 -7.5t-24.5 -7.5q-13 -4 -24 -8t-19 -8q-5 -2 -9 -3.5t-6 -1.5h-0.5h-1.5q-1 1 -2 2.5t-1 3.5q0 1 0.5 2t1.5 2q0 1 1.5 2t3.5 2q10 7 25 16.5t32 20.5q1 0 2 1t2 1q27 17 49.5 30.5t25.5 15.5q13 8 18.5 10.5t9.5 2.5
h1.5h0.5q2 -1 3.5 -3l4.5 -6v1z" />
    <glyph glyph-name="egrave" unicode="&#xe8;" horiz-adv-x="610" 
d="M178 287v176v150.5t-2 61.5v1.5v1.5q-1 26 -9.5 39t-33.5 18q-3 1 -8 1.5t-10 0.5q-4 1 -8.5 1h-7.5t-5.5 1.5t-2.5 4.5q0 5 4 6.5t12 1.5h16.5h17.5q10 -1 19.5 -1h18.5q16 -1 27.5 -1.5t13.5 -0.5h38.5h76.5q39 0 72.5 0.5t41.5 0.5q14 1 25.5 2.5t17.5 2.5q2 0 3.5 1
t2.5 1q0 1 0.5 1h0.5q2 1 3.5 1.5t3.5 0.5t3 -2.5t1 -6.5t-1.5 -10t-3.5 -17q-1 -4 -1.5 -9t-1.5 -11q0 -4 -1 -13.5t-1 -20.5q-1 -10 -1.5 -19t-1.5 -13v-1.5v-0.5q-1 -3 -2.5 -6t-4.5 -3q-4 0 -6 3.5t-2 9.5q0 4 -0.5 10t-1.5 13q-1 3 -2 6.5t-2 6.5q-5 12 -17.5 21
t-53.5 13q-6 1 -25.5 1.5t-42.5 0.5q-24 1 -44.5 1h-24.5q-3 0 -4.5 -2.5t-1.5 -7.5v-275q0 -6 1 -8.5t5 -2.5h29h52q25 0 47.5 0.5t30.5 1.5q18 2 29 4.5t18 9.5q5 6 8.5 9.5t6.5 3.5q2 0 3.5 -1.5t1.5 -6.5q0 -3 -1.5 -11t-3.5 -21q-1 -5 -1.5 -11t-1.5 -13
q-1 -5 -1.5 -12t-0.5 -14q-1 -13 -1.5 -24t-0.5 -14v-2.5v-2.5q0 -6 -1.5 -10t-5.5 -4t-5.5 2.5t-1.5 6.5q0 8 -0.5 15.5t-3.5 17.5q-1 2 -1.5 4t-1.5 4q-4 9 -14.5 17t-34.5 10q-9 1 -28.5 2t-40.5 1q-25 1 -46 1.5t-28 0.5q-4 0 -5.5 -2t-1.5 -5v-87v-24v-32v-13.5v-13.5
v-55v-34q2 -52 22.5 -67t93.5 -15h22.5t25.5 1t25.5 3.5t22.5 6.5q20 8 30 24.5t15 47.5q2 8 3.5 11.5t5.5 3.5t5 -4t1 -9v-0.5v-1.5q0 -3 -1.5 -18.5t-4.5 -32.5q0 -5 -1 -10.5t-1 -10.5q-2 -7 -3 -14t-2 -11q-5 -19 -15 -22t-39 -3q-57 0 -98.5 1t-70.5 2q-30 1 -48.5 2
t-29.5 1h-4.5t-8.5 -1h-12h-15q-4 0 -8.5 -0.5t-8.5 -0.5q-11 0 -22 -0.5t-19 -0.5t-12 1.5t-4 5.5q0 2 2 4t6 2q3 0 7 0.5t8 0.5q4 1 8 1.5t7 1.5q15 3 20.5 18t8.5 37q4 32 4.5 88.5t0.5 128.5v1zM376 830q-7 -1 -33.5 7.5t-56.5 18.5q-2 1 -4.5 1.5t-4.5 1.5
q-28 10 -52 18.5t-30 10.5q-13 5 -19.5 8t-8.5 6q-1 1 -1 1.5v1.5q0 3 2 4.5t5 2.5q1 0 2 0.5t2 0.5q5 1 9.5 2.5t9.5 3.5q2 0 4 0.5t4 1.5q10 3 19 6t14 5q6 2 9.5 3.5t6.5 1.5q1 0 2 -0.5t2 -1.5q2 -2 4.5 -5.5t6.5 -8.5q4 -4 21.5 -18t39.5 -30l8 -6t8 -5q6 -4 11 -7.5
t10 -6.5q6 -4 11 -6.5t7 -5.5l0.5 -0.5t0.5 -1.5q0 -2 -2.5 -3.5t-6.5 -1.5v1z" />
    <glyph glyph-name="ecircumflex" unicode="&#xea;" horiz-adv-x="610" 
d="M178 287v176v150.5t-2 61.5v1.5v1.5q-1 26 -9.5 39t-33.5 18q-3 1 -8 1.5t-10 0.5q-4 1 -8.5 1h-7.5t-5.5 1.5t-2.5 4.5q0 5 4 6.5t12 1.5h16.5h17.5q10 -1 19.5 -1h18.5q16 -1 27.5 -1.5t13.5 -0.5h38.5h76.5q39 0 72.5 0.5t41.5 0.5q14 1 25.5 2.5t17.5 2.5q2 0 3.5 1
t2.5 1q0 1 0.5 1h0.5q2 1 3.5 1.5t3.5 0.5t3 -2.5t1 -6.5t-1.5 -10t-3.5 -17q-1 -4 -1.5 -9t-1.5 -11q0 -4 -1 -13.5t-1 -20.5q-1 -10 -1.5 -19t-1.5 -13v-1.5v-0.5q-1 -3 -2.5 -6t-4.5 -3q-4 0 -6 3.5t-2 9.5q0 4 -0.5 10t-1.5 13q-1 3 -2 6.5t-2 6.5q-5 12 -17.5 21
t-53.5 13q-6 1 -25.5 1.5t-42.5 0.5q-24 1 -44.5 1h-24.5q-3 0 -4.5 -2.5t-1.5 -7.5v-275q0 -6 1 -8.5t5 -2.5h29h52q25 0 47.5 0.5t30.5 1.5q18 2 29 4.5t18 9.5q5 6 8.5 9.5t6.5 3.5q2 0 3.5 -1.5t1.5 -6.5q0 -3 -1.5 -11t-3.5 -21q-1 -5 -1.5 -11t-1.5 -13
q-1 -5 -1.5 -12t-0.5 -14q-1 -13 -1.5 -24t-0.5 -14v-2.5v-2.5q0 -6 -1.5 -10t-5.5 -4t-5.5 2.5t-1.5 6.5q0 8 -0.5 15.5t-3.5 17.5q-1 2 -1.5 4t-1.5 4q-4 9 -14.5 17t-34.5 10q-9 1 -28.5 2t-40.5 1q-25 1 -46 1.5t-28 0.5q-4 0 -5.5 -2t-1.5 -5v-87v-24v-32v-13.5v-13.5
v-55v-34q2 -52 22.5 -67t93.5 -15h22.5t25.5 1t25.5 3.5t22.5 6.5q20 8 30 24.5t15 47.5q2 8 3.5 11.5t5.5 3.5t5 -4t1 -9v-0.5v-1.5q0 -3 -1.5 -18.5t-4.5 -32.5q0 -5 -1 -10.5t-1 -10.5q-2 -7 -3 -14t-2 -11q-5 -19 -15 -22t-39 -3q-57 0 -98.5 1t-70.5 2q-30 1 -48.5 2
t-29.5 1h-4.5t-8.5 -1h-12h-15q-4 0 -8.5 -0.5t-8.5 -0.5q-11 0 -22 -0.5t-19 -0.5t-12 1.5t-4 5.5q0 2 2 4t6 2q3 0 7 0.5t8 0.5q4 1 8 1.5t7 1.5q15 3 20.5 18t8.5 37q4 32 4.5 88.5t0.5 128.5v1zM452 845l-21 -22q-2 -3 -3.5 -4.5t-2.5 -1.5q-1 -1 -1.5 -1h-1.5h-2t-2 1
l-2 2l-2 2q-5 6 -13 13t-17 15q-2 2 -4.5 4t-4.5 4q-15 11 -27.5 20.5t-17.5 12.5q-3 2 -5.5 3t-4.5 1q-3 0 -6.5 -1t-9.5 -4q-9 -5 -20.5 -13t-23.5 -17q-2 -2 -5 -4t-5 -4q-9 -7 -16.5 -13t-14.5 -12q-6 -5 -11 -7.5t-7 -2.5q-3 0 -5 2.5t-2 5.5q0 2 0.5 3l1.5 3
q1 1 2 2.5t2 2.5q4 4 20.5 19.5t35.5 32.5q19 18 35.5 33t20.5 19q6 5 10 7.5t6 2.5q3 0 6.5 -2.5t9.5 -7.5q3 -2 18 -13.5t33 -24.5q16 -13 30.5 -23.5t19.5 -14.5q7 -4 9.5 -6t2.5 -4t-1 -3.5t-2 -3.5q-1 0 -1.5 -0.5t-0.5 -1.5v1z" />
    <glyph glyph-name="edieresis" unicode="&#xeb;" horiz-adv-x="610" 
d="M178 287v176v150.5t-2 61.5v1.5v1.5q-1 26 -9.5 39t-33.5 18q-3 1 -8 1.5t-10 0.5q-4 1 -8.5 1h-7.5t-5.5 1.5t-2.5 4.5q0 5 4 6.5t12 1.5h16.5h17.5q10 -1 19.5 -1h18.5q16 -1 27.5 -1.5t13.5 -0.5h38.5h76.5q39 0 72.5 0.5t41.5 0.5q14 1 25.5 2.5t17.5 2.5q2 0 3.5 1
t2.5 1q0 1 0.5 1h0.5q2 1 3.5 1.5t3.5 0.5t3 -2.5t1 -6.5t-1.5 -10t-3.5 -17q-1 -4 -1.5 -9t-1.5 -11q0 -4 -1 -13.5t-1 -20.5q-1 -10 -1.5 -19t-1.5 -13v-1.5v-0.5q-1 -3 -2.5 -6t-4.5 -3q-4 0 -6 3.5t-2 9.5q0 4 -0.5 10t-1.5 13q-1 3 -2 6.5t-2 6.5q-5 12 -17.5 21
t-53.5 13q-6 1 -25.5 1.5t-42.5 0.5q-24 1 -44.5 1h-24.5q-3 0 -4.5 -2.5t-1.5 -7.5v-275q0 -6 1 -8.5t5 -2.5h29h52q25 0 47.5 0.5t30.5 1.5q18 2 29 4.5t18 9.5q5 6 8.5 9.5t6.5 3.5q2 0 3.5 -1.5t1.5 -6.5q0 -3 -1.5 -11t-3.5 -21q-1 -5 -1.5 -11t-1.5 -13
q-1 -5 -1.5 -12t-0.5 -14q-1 -13 -1.5 -24t-0.5 -14v-2.5v-2.5q0 -6 -1.5 -10t-5.5 -4t-5.5 2.5t-1.5 6.5q0 8 -0.5 15.5t-3.5 17.5q-1 2 -1.5 4t-1.5 4q-4 9 -14.5 17t-34.5 10q-9 1 -28.5 2t-40.5 1q-25 1 -46 1.5t-28 0.5q-4 0 -5.5 -2t-1.5 -5v-87v-24v-32v-13.5v-13.5
v-55v-34q2 -52 22.5 -67t93.5 -15h22.5t25.5 1t25.5 3.5t22.5 6.5q20 8 30 24.5t15 47.5q2 8 3.5 11.5t5.5 3.5t5 -4t1 -9v-0.5v-1.5q0 -3 -1.5 -18.5t-4.5 -32.5q0 -5 -1 -10.5t-1 -10.5q-2 -7 -3 -14t-2 -11q-5 -19 -15 -22t-39 -3q-57 0 -98.5 1t-70.5 2q-30 1 -48.5 2
t-29.5 1h-4.5t-8.5 -1h-12h-15q-4 0 -8.5 -0.5t-8.5 -0.5q-11 0 -22 -0.5t-19 -0.5t-12 1.5t-4 5.5q0 2 2 4t6 2q3 0 7 0.5t8 0.5q4 1 8 1.5t7 1.5q15 3 20.5 18t8.5 37q4 32 4.5 88.5t0.5 128.5v1zM224 830q-19 -1 -28.5 9.5t-12.5 22.5q0 2 -0.5 5t-0.5 5q0 3 0.5 6t1.5 6
q3 12 13 21.5t28 9.5t30.5 -10.5t12.5 -29.5t-12 -32.5t-32 -13.5v1zM425 830q-19 -1 -28.5 9.5t-12.5 22.5q0 2 -0.5 5t-0.5 5q0 3 0.5 6t1.5 6q3 12 13 21.5t28 9.5t30.5 -10.5t12.5 -29.5t-12 -32.5t-32 -13.5v1z" />
    <glyph glyph-name="iacute" unicode="&#xed;" horiz-adv-x="440" 
d="M262 463v-176q0 -73 0.5 -129.5t4.5 -88.5q2 -22 9.5 -37t29.5 -18q4 -1 8.5 -1.5t9.5 -0.5q8 -1 15.5 -1.5t11.5 -0.5q5 0 6.5 -2t1.5 -4q0 -4 -4 -5.5t-12 -1.5h-10h-10q-16 0 -31.5 0.5t-28.5 0.5q-18 1 -29.5 1.5t-13.5 0.5t-13.5 -0.5t-26.5 -1.5h-8h-9
q-11 0 -22 -0.5t-19 -0.5t-12 1.5t-4 5.5q0 2 2 4t6 2q3 0 7 0.5t8 0.5q4 1 8 1.5t7 1.5q15 3 20.5 18t8.5 37q4 32 4.5 88.5t0.5 128.5v177v150.5t-2 61.5v1.5v1.5q-1 26 -9 39t-25 17q-2 1 -4 1.5t-4 0.5q-7 1 -13 1.5t-10 0.5q-3 0 -5.5 1.5t-2.5 4.5q0 5 4 6.5t12 1.5
h19t22 -1h10h10q15 -1 26.5 -1.5t13.5 -0.5t13.5 0.5t26.5 1.5h8h9q11 0 22 0.5t19 0.5t12 -1.5t4 -6.5q0 -3 -2.5 -4.5t-5.5 -1.5h-1.5h-1.5q-4 0 -9 -1t-13 -2q-20 -4 -27.5 -17.5t-9.5 -39.5v-1.5v-1.5q-2 -23 -2 -61.5v-151.5v1zM348 933q5 -8 11 -19t14 -26
q2 -2 2 -3.5v-3.5q0 -3 -2 -4t-4 -1h-2t-3 1h-5h-6h-6t-8 -1q-13 -1 -28 -4t-31 -7q-13 -4 -25.5 -7.5t-24.5 -7.5q-13 -4 -24 -8t-19 -8q-5 -2 -9 -3.5t-6 -1.5h-0.5h-1.5q-1 1 -2 2.5t-1 3.5q0 1 0.5 2t1.5 2q0 1 1.5 2t3.5 2q10 7 25 16.5t32 20.5q1 0 2 1t2 1
q27 17 49.5 30.5t25.5 15.5q13 8 18.5 10.5t9.5 2.5h1.5h0.5q2 -1 3.5 -3l4.5 -6v1z" />
    <glyph glyph-name="igrave" unicode="&#xec;" horiz-adv-x="440" 
d="M262 463v-176q0 -73 0.5 -129.5t4.5 -88.5q2 -22 9.5 -37t29.5 -18q4 -1 8.5 -1.5t9.5 -0.5q8 -1 15.5 -1.5t11.5 -0.5q5 0 6.5 -2t1.5 -4q0 -4 -4 -5.5t-12 -1.5h-10h-10q-16 0 -31.5 0.5t-28.5 0.5q-18 1 -29.5 1.5t-13.5 0.5t-13.5 -0.5t-26.5 -1.5h-8h-9
q-11 0 -22 -0.5t-19 -0.5t-12 1.5t-4 5.5q0 2 2 4t6 2q3 0 7 0.5t8 0.5q4 1 8 1.5t7 1.5q15 3 20.5 18t8.5 37q4 32 4.5 88.5t0.5 128.5v177v150.5t-2 61.5v1.5v1.5q-1 26 -9 39t-25 17q-2 1 -4 1.5t-4 0.5q-7 1 -13 1.5t-10 0.5q-3 0 -5.5 1.5t-2.5 4.5q0 5 4 6.5t12 1.5
h19t22 -1h10h10q15 -1 26.5 -1.5t13.5 -0.5t13.5 0.5t26.5 1.5h8h9q11 0 22 0.5t19 0.5t12 -1.5t4 -6.5q0 -3 -2.5 -4.5t-5.5 -1.5h-1.5h-1.5q-4 0 -9 -1t-13 -2q-20 -4 -27.5 -17.5t-9.5 -39.5v-1.5v-1.5q-2 -23 -2 -61.5v-151.5v1zM271 830q-7 -1 -33.5 7.5t-56.5 18.5
q-2 1 -4.5 1.5t-4.5 1.5q-28 10 -52 18.5t-30 10.5q-13 5 -19.5 8t-8.5 6q-1 1 -1 1.5v1.5q0 3 2 4.5t5 2.5q1 0 2 0.5t2 0.5q5 1 9.5 2.5t9.5 3.5q2 0 4 0.5t4 1.5q10 3 19 6t14 5q6 2 9.5 3.5t6.5 1.5q1 0 2 -0.5t2 -1.5q2 -2 4.5 -5.5t6.5 -8.5q4 -4 21.5 -18t39.5 -30
l8 -6t8 -5q6 -4 11 -7.5t10 -6.5q6 -4 11 -6.5t7 -5.5l0.5 -0.5t0.5 -1.5q0 -2 -2.5 -3.5t-6.5 -1.5v1z" />
    <glyph glyph-name="icircumflex" unicode="&#xee;" horiz-adv-x="440" 
d="M262 463v-176q0 -73 0.5 -129.5t4.5 -88.5q2 -22 9.5 -37t29.5 -18q4 -1 8.5 -1.5t9.5 -0.5q8 -1 15.5 -1.5t11.5 -0.5q5 0 6.5 -2t1.5 -4q0 -4 -4 -5.5t-12 -1.5h-10h-10q-16 0 -31.5 0.5t-28.5 0.5q-18 1 -29.5 1.5t-13.5 0.5t-13.5 -0.5t-26.5 -1.5h-8h-9
q-11 0 -22 -0.5t-19 -0.5t-12 1.5t-4 5.5q0 2 2 4t6 2q3 0 7 0.5t8 0.5q4 1 8 1.5t7 1.5q15 3 20.5 18t8.5 37q4 32 4.5 88.5t0.5 128.5v177v150.5t-2 61.5v1.5v1.5q-1 26 -9 39t-25 17q-2 1 -4 1.5t-4 0.5q-7 1 -13 1.5t-10 0.5q-3 0 -5.5 1.5t-2.5 4.5q0 5 4 6.5t12 1.5
h19t22 -1h10h10q15 -1 26.5 -1.5t13.5 -0.5t13.5 0.5t26.5 1.5h8h9q11 0 22 0.5t19 0.5t12 -1.5t4 -6.5q0 -3 -2.5 -4.5t-5.5 -1.5h-1.5h-1.5q-4 0 -9 -1t-13 -2q-20 -4 -27.5 -17.5t-9.5 -39.5v-1.5v-1.5q-2 -23 -2 -61.5v-151.5v1zM347 845l-21 -22q-2 -3 -3.5 -4.5
t-2.5 -1.5q-1 -1 -1.5 -1h-1.5h-2t-2 1l-2 2l-2 2q-5 6 -13 13t-17 15q-2 2 -4.5 4t-4.5 4q-15 11 -27.5 20.5t-17.5 12.5q-3 2 -5.5 3t-4.5 1q-3 0 -6.5 -1t-9.5 -4q-9 -5 -20.5 -13t-23.5 -17q-2 -2 -5 -4t-5 -4q-9 -7 -16.5 -13t-14.5 -12q-6 -5 -11 -7.5t-7 -2.5
q-3 0 -5 2.5t-2 5.5q0 2 0.5 3l1.5 3q1 1 2 2.5t2 2.5q4 4 20.5 19.5t35.5 32.5q19 18 35.5 33t20.5 19q6 5 10 7.5t6 2.5q3 0 6.5 -2.5t9.5 -7.5q3 -2 18 -13.5t33 -24.5q16 -13 30.5 -23.5t19.5 -14.5q7 -4 9.5 -6t2.5 -4t-1 -3.5t-2 -3.5q-1 0 -1.5 -0.5t-0.5 -1.5v1z
" />
    <glyph glyph-name="idieresis" unicode="&#xef;" horiz-adv-x="440" 
d="M262 463v-176q0 -73 0.5 -129.5t4.5 -88.5q2 -22 9.5 -37t29.5 -18q4 -1 8.5 -1.5t9.5 -0.5q8 -1 15.5 -1.5t11.5 -0.5q5 0 6.5 -2t1.5 -4q0 -4 -4 -5.5t-12 -1.5h-10h-10q-16 0 -31.5 0.5t-28.5 0.5q-18 1 -29.5 1.5t-13.5 0.5t-13.5 -0.5t-26.5 -1.5h-8h-9
q-11 0 -22 -0.5t-19 -0.5t-12 1.5t-4 5.5q0 2 2 4t6 2q3 0 7 0.5t8 0.5q4 1 8 1.5t7 1.5q15 3 20.5 18t8.5 37q4 32 4.5 88.5t0.5 128.5v177v150.5t-2 61.5v1.5v1.5q-1 26 -9 39t-25 17q-2 1 -4 1.5t-4 0.5q-7 1 -13 1.5t-10 0.5q-3 0 -5.5 1.5t-2.5 4.5q0 5 4 6.5t12 1.5
h19t22 -1h10h10q15 -1 26.5 -1.5t13.5 -0.5t13.5 0.5t26.5 1.5h8h9q11 0 22 0.5t19 0.5t12 -1.5t4 -6.5q0 -3 -2.5 -4.5t-5.5 -1.5h-1.5h-1.5q-4 0 -9 -1t-13 -2q-20 -4 -27.5 -17.5t-9.5 -39.5v-1.5v-1.5q-2 -23 -2 -61.5v-151.5v1zM119 830q-19 -1 -28.5 9.5t-12.5 22.5
q0 2 -0.5 5t-0.5 5q0 3 0.5 6t1.5 6q3 12 13 21.5t28 9.5t30.5 -10.5t12.5 -29.5t-12 -32.5t-32 -13.5v1zM320 830q-19 -1 -28.5 9.5t-12.5 22.5q0 2 -0.5 5t-0.5 5q0 3 0.5 6t1.5 6q3 12 13 21.5t28 9.5t30.5 -10.5t12.5 -29.5t-12 -32.5t-32 -13.5v1z" />
    <glyph glyph-name="ntilde" unicode="&#xf1;" horiz-adv-x="947" 
d="M192 612l13 -479q2 -62 10.5 -86.5t28.5 -30.5q3 -1 5.5 -1.5t5.5 -0.5q12 -3 23 -3.5t16 -0.5q4 0 6 -1.5t2 -4.5q0 -4 -4.5 -5.5t-13.5 -1.5q-21 0 -39 0.5t-32 0.5q-14 1 -23 1.5t-12 0.5t-12.5 -0.5t-21.5 -1.5q-13 0 -29 -0.5t-33 -0.5q-7 0 -11.5 1.5t-4.5 5.5
q0 3 2 4.5t6 1.5q5 0 13 0.5t17 2.5q3 1 5.5 1.5t5.5 1.5q19 5 24.5 32t5.5 95l1 574q0 28 2.5 38.5t8.5 10.5q3 0 8.5 -4.5t10.5 -10.5l2 -2l1 -1q4 -4 7 -7.5t6 -6.5q11 -13 107 -116t211 -227q9 -9 17.5 -18.5t16.5 -18.5l6 -6l6 -6q63 -69 118.5 -130t75.5 -82l-11 509
q-1 48 -8.5 68t-30.5 26q-3 1 -7 1.5t-7 0.5q-11 2 -20.5 2.5t-14.5 0.5t-6.5 2t-1.5 5q0 5 5.5 6t14.5 1h5.5h4.5q15 0 29 -0.5t26 -0.5q14 -1 24.5 -1.5t14.5 -0.5t12 0.5t19 1.5q11 0 25 0.5t29 0.5q8 0 13 -1t5 -6q0 -3 -3 -5t-8 -2q-4 0 -9.5 -0.5t-14.5 -2.5
q-25 -5 -31 -24.5t-6 -64.5l-2 -585q0 -50 -2 -60.5t-7 -10.5q-6 0 -19.5 11.5t-53.5 51.5q-6 6 -63 64t-124 128q-2 3 -4.5 5.5l-4.5 4.5q-17 18 -33.5 35t-31.5 34l-2 2l-2 2q-86 93 -159.5 174.5t-97.5 108.5v1zM554 830q-15 -1 -29.5 3.5t-26.5 9.5q-7 4 -13 7l-10 5
t-8.5 4.5t-9.5 4.5q-10 5 -22 9.5t-28 4.5q-15 0 -26.5 -6t-19.5 -13q-5 -5 -9 -9.5t-6 -7.5q-4 -4 -7.5 -6.5t-6.5 -2.5t-4.5 2t-1.5 4v2.5t1 2.5q1 2 2.5 4.5t3.5 5.5q4 6 10 14t13 16q9 10 19 19t21 15q6 3 11.5 5t11.5 2q17 0 37 -9t42 -19q1 -1 2.5 -1.5t2.5 -1.5
l5 -2.5t7 -2.5q4 -2 9 -3.5t10 -3.5q7 -2 14 -3.5t13 -1.5q15 0 26.5 4.5t19.5 10.5q6 4 10 8.5t5 5.5q1 2 2 3t2 3q2 2 4.5 3.5t3.5 1.5q3 0 5 -2t2 -4v-1.5v-1.5q-1 -2 -1.5 -4.5t-2.5 -5.5q-2 -5 -9 -14t-16 -18q-7 -8 -15 -15t-16 -12q-7 -5 -14 -7.5t-13 -2.5v1z" />
    <glyph glyph-name="oacute" unicode="&#xf3;" horiz-adv-x="915" 
d="M64 376q0 27 4.5 56.5t14.5 59.5q32 103 123.5 188.5t251.5 85.5q169 0 281 -100t112 -275q0 -168 -109 -288t-290 -120q-178 0 -269.5 99.5t-112.5 218.5q-3 19 -4.5 37.5t-1.5 36.5v1zM159 404q0 -176 92.5 -280t227.5 -104q23 0 53 5.5t61 19.5q61 29 111.5 101.5
t50.5 216.5q0 180 -92.5 274.5t-211.5 94.5q-125 0 -208.5 -82.5t-83.5 -246.5v1zM585 933q5 -8 11 -19t14 -26q2 -2 2 -3.5v-3.5q0 -3 -2 -4t-4 -1h-2t-3 1h-5h-6h-6t-8 -1q-13 -1 -28 -4t-31 -7q-13 -4 -25.5 -7.5t-24.5 -7.5q-13 -4 -24 -8t-19 -8q-5 -2 -9 -3.5t-6 -1.5
h-0.5h-1.5q-1 1 -2 2.5t-1 3.5q0 1 0.5 2t1.5 2q0 1 1.5 2t3.5 2q10 7 25 16.5t32 20.5q1 0 2 1t2 1q27 17 49.5 30.5t25.5 15.5q13 8 18.5 10.5t9.5 2.5h1.5h0.5q2 -1 3.5 -3l4.5 -6v1z" />
    <glyph glyph-name="ograve" unicode="&#xf2;" horiz-adv-x="915" 
d="M64 376q0 27 4.5 56.5t14.5 59.5q32 103 123.5 188.5t251.5 85.5q169 0 281 -100t112 -275q0 -168 -109 -288t-290 -120q-178 0 -269.5 99.5t-112.5 218.5q-3 19 -4.5 37.5t-1.5 36.5v1zM159 404q0 -176 92.5 -280t227.5 -104q23 0 53 5.5t61 19.5q61 29 111.5 101.5
t50.5 216.5q0 180 -92.5 274.5t-211.5 94.5q-125 0 -208.5 -82.5t-83.5 -246.5v1zM508 830q-7 -1 -33.5 7.5t-56.5 18.5q-2 1 -4.5 1.5t-4.5 1.5q-28 10 -52 18.5t-30 10.5q-13 5 -19.5 8t-8.5 6q-1 1 -1 1.5v1.5q0 3 2 4.5t5 2.5q1 0 2 0.5t2 0.5q5 1 9.5 2.5t9.5 3.5
q2 0 4 0.5t4 1.5q10 3 19 6t14 5q6 2 9.5 3.5t6.5 1.5q1 0 2 -0.5t2 -1.5q2 -2 4.5 -5.5t6.5 -8.5q4 -4 21.5 -18t39.5 -30l8 -6t8 -5q6 -4 11 -7.5t10 -6.5q6 -4 11 -6.5t7 -5.5l0.5 -0.5t0.5 -1.5q0 -2 -2.5 -3.5t-6.5 -1.5v1z" />
    <glyph glyph-name="ocircumflex" unicode="&#xf4;" horiz-adv-x="915" 
d="M64 376q0 27 4.5 56.5t14.5 59.5q32 103 123.5 188.5t251.5 85.5q169 0 281 -100t112 -275q0 -168 -109 -288t-290 -120q-178 0 -269.5 99.5t-112.5 218.5q-3 19 -4.5 37.5t-1.5 36.5v1zM159 404q0 -176 92.5 -280t227.5 -104q23 0 53 5.5t61 19.5q61 29 111.5 101.5
t50.5 216.5q0 180 -92.5 274.5t-211.5 94.5q-125 0 -208.5 -82.5t-83.5 -246.5v1zM584 845l-21 -22q-2 -3 -3.5 -4.5t-2.5 -1.5q-1 -1 -1.5 -1h-1.5h-2t-2 1l-2 2l-2 2q-5 6 -13 13t-17 15q-2 2 -4.5 4t-4.5 4q-15 11 -27.5 20.5t-17.5 12.5q-3 2 -5.5 3t-4.5 1
q-3 0 -6.5 -1t-9.5 -4q-9 -5 -20.5 -13t-23.5 -17q-2 -2 -5 -4t-5 -4q-9 -7 -16.5 -13t-14.5 -12q-6 -5 -11 -7.5t-7 -2.5q-3 0 -5 2.5t-2 5.5q0 2 0.5 3l1.5 3q1 1 2 2.5t2 2.5q4 4 20.5 19.5t35.5 32.5q19 18 35.5 33t20.5 19q6 5 10 7.5t6 2.5q3 0 6.5 -2.5t9.5 -7.5
q3 -2 18 -13.5t33 -24.5q16 -13 30.5 -23.5t19.5 -14.5q7 -4 9.5 -6t2.5 -4t-1 -3.5t-2 -3.5q-1 0 -1.5 -0.5t-0.5 -1.5v1z" />
    <glyph glyph-name="odieresis" unicode="&#xf6;" horiz-adv-x="915" 
d="M64 376q0 27 4.5 56.5t14.5 59.5q32 103 123.5 188.5t251.5 85.5q169 0 281 -100t112 -275q0 -168 -109 -288t-290 -120q-178 0 -269.5 99.5t-112.5 218.5q-3 19 -4.5 37.5t-1.5 36.5v1zM159 404q0 -176 92.5 -280t227.5 -104q23 0 53 5.5t61 19.5q61 29 111.5 101.5
t50.5 216.5q0 180 -92.5 274.5t-211.5 94.5q-125 0 -208.5 -82.5t-83.5 -246.5v1zM356 830q-19 -1 -28.5 9.5t-12.5 22.5q0 2 -0.5 5t-0.5 5q0 3 0.5 6t1.5 6q3 12 13 21.5t28 9.5t30.5 -10.5t12.5 -29.5t-12 -32.5t-32 -13.5v1zM557 830q-19 -1 -28.5 9.5t-12.5 22.5
q0 2 -0.5 5t-0.5 5q0 3 0.5 6t1.5 6q3 12 13 21.5t28 9.5t30.5 -10.5t12.5 -29.5t-12 -32.5t-32 -13.5v1z" />
    <glyph glyph-name="otilde" unicode="&#xf5;" horiz-adv-x="915" 
d="M64 376q0 27 4.5 56.5t14.5 59.5q32 103 123.5 188.5t251.5 85.5q169 0 281 -100t112 -275q0 -168 -109 -288t-290 -120q-178 0 -269.5 99.5t-112.5 218.5q-3 19 -4.5 37.5t-1.5 36.5v1zM159 404q0 -176 92.5 -280t227.5 -104q23 0 53 5.5t61 19.5q61 29 111.5 101.5
t50.5 216.5q0 180 -92.5 274.5t-211.5 94.5q-125 0 -208.5 -82.5t-83.5 -246.5v1zM528 830q-15 -1 -29.5 3.5t-26.5 9.5q-7 4 -13 7l-10 5t-8.5 4.5t-9.5 4.5q-10 5 -22 9.5t-28 4.5q-15 0 -26.5 -6t-19.5 -13q-5 -5 -9 -9.5t-6 -7.5q-4 -4 -7.5 -6.5t-6.5 -2.5t-4.5 2
t-1.5 4v2.5t1 2.5q1 2 2.5 4.5t3.5 5.5q4 6 10 14t13 16q9 10 19 19t21 15q6 3 11.5 5t11.5 2q17 0 37 -9t42 -19q1 -1 2.5 -1.5t2.5 -1.5l5 -2.5t7 -2.5q4 -2 9 -3.5t10 -3.5q7 -2 14 -3.5t13 -1.5q15 0 26.5 4.5t19.5 10.5q6 4 10 8.5t5 5.5q1 2 2 3t2 3q2 2 4.5 3.5
t3.5 1.5q3 0 5 -2t2 -4v-1.5v-1.5q-1 -2 -1.5 -4.5t-2.5 -5.5q-2 -5 -9 -14t-16 -18q-7 -8 -15 -15t-16 -12q-7 -5 -14 -7.5t-13 -2.5v1z" />
    <glyph glyph-name="uacute" unicode="&#xfa;" horiz-adv-x="830" 
d="M120 317v146v150.5t-2 61.5v1.5v1.5q-1 26 -9.5 39t-33.5 18q-3 1 -8 1.5t-10 0.5q-4 1 -8.5 1h-7.5t-5.5 1.5t-2.5 4.5q0 5 4 6.5t12 1.5h16.5h17.5q9 -1 18.5 -1h18.5q17 -1 29 -1.5t15 -0.5t15 0.5t27 1.5h7h8q12 0 23 0.5t19 0.5t12 -1.5t4 -6.5q0 -3 -2.5 -4.5
t-5.5 -1.5h-1.5h-1.5q-4 0 -9 -1t-13 -2q-20 -3 -27.5 -17t-9.5 -40v-1.5v-1.5q-2 -23 -2 -61.5v-151.5v-139q0 -109 21.5 -163t53.5 -85q9 -9 18 -16t18 -12q27 -16 55 -21.5t60 -5.5q46 0 88 20t69 52q35 43 46.5 105.5t11.5 139.5v126v150.5t-2 61.5v1.5v1.5
q-1 26 -9.5 39t-33.5 18q-3 1 -8 1.5t-10 0.5q-4 1 -8.5 1h-7.5t-5.5 1.5t-2.5 4.5q0 5 4 6.5t12 1.5h12h11q12 0 23.5 -0.5t21.5 -0.5q15 -1 25.5 -1.5t12.5 -0.5q3 0 12 0.5t21 1.5h10.5h10.5q8 1 15.5 1h14.5q8 0 12 -1.5t4 -6.5q0 -3 -2.5 -4.5t-5.5 -1.5h-1.5h-1.5
q-4 0 -9 -0.5t-13 -2.5q-20 -4 -27.5 -17.5t-9.5 -39.5v-1.5v-1.5q-2 -23 -2 -61.5v-151.5v-106q0 -17 -0.5 -33t-1.5 -33q-4 -66 -23 -128.5t-67 -105.5q-9 -8 -17.5 -14.5t-16.5 -11.5q-46 -30 -90.5 -38.5t-81.5 -8.5q-18 0 -55.5 4t-78.5 20q-19 8 -37.5 19t-34.5 27
q-37 35 -62 94.5t-25 168.5v1zM563 933q5 -8 11 -19t14 -26q2 -2 2 -3.5v-3.5q0 -3 -2 -4t-4 -1h-2t-3 1h-5h-6h-6t-8 -1q-13 -1 -28 -4t-31 -7q-13 -4 -25.5 -7.5t-24.5 -7.5q-13 -4 -24 -8t-19 -8q-5 -2 -9 -3.5t-6 -1.5h-0.5h-1.5q-1 1 -2 2.5t-1 3.5q0 1 0.5 2t1.5 2
q0 1 1.5 2t3.5 2q10 7 25 16.5t32 20.5q1 0 2 1t2 1q27 17 49.5 30.5t25.5 15.5q13 8 18.5 10.5t9.5 2.5h1.5h0.5q2 -1 3.5 -3l4.5 -6v1z" />
    <glyph glyph-name="ugrave" unicode="&#xf9;" horiz-adv-x="830" 
d="M120 317v146v150.5t-2 61.5v1.5v1.5q-1 26 -9.5 39t-33.5 18q-3 1 -8 1.5t-10 0.5q-4 1 -8.5 1h-7.5t-5.5 1.5t-2.5 4.5q0 5 4 6.5t12 1.5h16.5h17.5q9 -1 18.5 -1h18.5q17 -1 29 -1.5t15 -0.5t15 0.5t27 1.5h7h8q12 0 23 0.5t19 0.5t12 -1.5t4 -6.5q0 -3 -2.5 -4.5
t-5.5 -1.5h-1.5h-1.5q-4 0 -9 -1t-13 -2q-20 -3 -27.5 -17t-9.5 -40v-1.5v-1.5q-2 -23 -2 -61.5v-151.5v-139q0 -109 21.5 -163t53.5 -85q9 -9 18 -16t18 -12q27 -16 55 -21.5t60 -5.5q46 0 88 20t69 52q35 43 46.5 105.5t11.5 139.5v126v150.5t-2 61.5v1.5v1.5
q-1 26 -9.5 39t-33.5 18q-3 1 -8 1.5t-10 0.5q-4 1 -8.5 1h-7.5t-5.5 1.5t-2.5 4.5q0 5 4 6.5t12 1.5h12h11q12 0 23.5 -0.5t21.5 -0.5q15 -1 25.5 -1.5t12.5 -0.5q3 0 12 0.5t21 1.5h10.5h10.5q8 1 15.5 1h14.5q8 0 12 -1.5t4 -6.5q0 -3 -2.5 -4.5t-5.5 -1.5h-1.5h-1.5
q-4 0 -9 -0.5t-13 -2.5q-20 -4 -27.5 -17.5t-9.5 -39.5v-1.5v-1.5q-2 -23 -2 -61.5v-151.5v-106q0 -17 -0.5 -33t-1.5 -33q-4 -66 -23 -128.5t-67 -105.5q-9 -8 -17.5 -14.5t-16.5 -11.5q-46 -30 -90.5 -38.5t-81.5 -8.5q-18 0 -55.5 4t-78.5 20q-19 8 -37.5 19t-34.5 27
q-37 35 -62 94.5t-25 168.5v1zM466 830q-7 -1 -33.5 7.5t-56.5 18.5q-2 1 -4.5 1.5t-4.5 1.5q-28 10 -52 18.5t-30 10.5q-13 5 -19.5 8t-8.5 6q-1 1 -1 1.5v1.5q0 3 2 4.5t5 2.5q1 0 2 0.5t2 0.5q5 1 9.5 2.5t9.5 3.5q2 0 4 0.5t4 1.5q10 3 19 6t14 5q6 2 9.5 3.5t6.5 1.5
q1 0 2 -0.5t2 -1.5q2 -2 4.5 -5.5t6.5 -8.5q4 -4 21.5 -18t39.5 -30l8 -6t8 -5q6 -4 11 -7.5t10 -6.5q6 -4 11 -6.5t7 -5.5l0.5 -0.5t0.5 -1.5q0 -2 -2.5 -3.5t-6.5 -1.5v1z" />
    <glyph glyph-name="ucircumflex" unicode="&#xfb;" horiz-adv-x="830" 
d="M120 317v146v150.5t-2 61.5v1.5v1.5q-1 26 -9.5 39t-33.5 18q-3 1 -8 1.5t-10 0.5q-4 1 -8.5 1h-7.5t-5.5 1.5t-2.5 4.5q0 5 4 6.5t12 1.5h16.5h17.5q9 -1 18.5 -1h18.5q17 -1 29 -1.5t15 -0.5t15 0.5t27 1.5h7h8q12 0 23 0.5t19 0.5t12 -1.5t4 -6.5q0 -3 -2.5 -4.5
t-5.5 -1.5h-1.5h-1.5q-4 0 -9 -1t-13 -2q-20 -3 -27.5 -17t-9.5 -40v-1.5v-1.5q-2 -23 -2 -61.5v-151.5v-139q0 -109 21.5 -163t53.5 -85q9 -9 18 -16t18 -12q27 -16 55 -21.5t60 -5.5q46 0 88 20t69 52q35 43 46.5 105.5t11.5 139.5v126v150.5t-2 61.5v1.5v1.5
q-1 26 -9.5 39t-33.5 18q-3 1 -8 1.5t-10 0.5q-4 1 -8.5 1h-7.5t-5.5 1.5t-2.5 4.5q0 5 4 6.5t12 1.5h12h11q12 0 23.5 -0.5t21.5 -0.5q15 -1 25.5 -1.5t12.5 -0.5q3 0 12 0.5t21 1.5h10.5h10.5q8 1 15.5 1h14.5q8 0 12 -1.5t4 -6.5q0 -3 -2.5 -4.5t-5.5 -1.5h-1.5h-1.5
q-4 0 -9 -0.5t-13 -2.5q-20 -4 -27.5 -17.5t-9.5 -39.5v-1.5v-1.5q-2 -23 -2 -61.5v-151.5v-106q0 -17 -0.5 -33t-1.5 -33q-4 -66 -23 -128.5t-67 -105.5q-9 -8 -17.5 -14.5t-16.5 -11.5q-46 -30 -90.5 -38.5t-81.5 -8.5q-18 0 -55.5 4t-78.5 20q-19 8 -37.5 19t-34.5 27
q-37 35 -62 94.5t-25 168.5v1zM552 845l-21 -22q-2 -3 -3.5 -4.5t-2.5 -1.5q-1 -1 -1.5 -1h-1.5h-2t-2 1l-2 2l-2 2q-5 6 -13 13t-17 15q-2 2 -4.5 4t-4.5 4q-15 11 -27.5 20.5t-17.5 12.5q-3 2 -5.5 3t-4.5 1q-3 0 -6.5 -1t-9.5 -4q-9 -5 -20.5 -13t-23.5 -17q-2 -2 -5 -4
t-5 -4q-9 -7 -16.5 -13t-14.5 -12q-6 -5 -11 -7.5t-7 -2.5q-3 0 -5 2.5t-2 5.5q0 2 0.5 3l1.5 3q1 1 2 2.5t2 2.5q4 4 20.5 19.5t35.5 32.5q19 18 35.5 33t20.5 19q6 5 10 7.5t6 2.5q3 0 6.5 -2.5t9.5 -7.5q3 -2 18 -13.5t33 -24.5q16 -13 30.5 -23.5t19.5 -14.5
q7 -4 9.5 -6t2.5 -4t-1 -3.5t-2 -3.5q-1 0 -1.5 -0.5t-0.5 -1.5v1z" />
    <glyph glyph-name="udieresis" unicode="&#xfc;" horiz-adv-x="830" 
d="M120 317v146v150.5t-2 61.5v1.5v1.5q-1 26 -9.5 39t-33.5 18q-3 1 -8 1.5t-10 0.5q-4 1 -8.5 1h-7.5t-5.5 1.5t-2.5 4.5q0 5 4 6.5t12 1.5h16.5h17.5q9 -1 18.5 -1h18.5q17 -1 29 -1.5t15 -0.5t15 0.5t27 1.5h7h8q12 0 23 0.5t19 0.5t12 -1.5t4 -6.5q0 -3 -2.5 -4.5
t-5.5 -1.5h-1.5h-1.5q-4 0 -9 -1t-13 -2q-20 -3 -27.5 -17t-9.5 -40v-1.5v-1.5q-2 -23 -2 -61.5v-151.5v-139q0 -109 21.5 -163t53.5 -85q9 -9 18 -16t18 -12q27 -16 55 -21.5t60 -5.5q46 0 88 20t69 52q35 43 46.5 105.5t11.5 139.5v126v150.5t-2 61.5v1.5v1.5
q-1 26 -9.5 39t-33.5 18q-3 1 -8 1.5t-10 0.5q-4 1 -8.5 1h-7.5t-5.5 1.5t-2.5 4.5q0 5 4 6.5t12 1.5h12h11q12 0 23.5 -0.5t21.5 -0.5q15 -1 25.5 -1.5t12.5 -0.5q3 0 12 0.5t21 1.5h10.5h10.5q8 1 15.5 1h14.5q8 0 12 -1.5t4 -6.5q0 -3 -2.5 -4.5t-5.5 -1.5h-1.5h-1.5
q-4 0 -9 -0.5t-13 -2.5q-20 -4 -27.5 -17.5t-9.5 -39.5v-1.5v-1.5q-2 -23 -2 -61.5v-151.5v-106q0 -17 -0.5 -33t-1.5 -33q-4 -66 -23 -128.5t-67 -105.5q-9 -8 -17.5 -14.5t-16.5 -11.5q-46 -30 -90.5 -38.5t-81.5 -8.5q-18 0 -55.5 4t-78.5 20q-19 8 -37.5 19t-34.5 27
q-37 35 -62 94.5t-25 168.5v1zM329 830q-19 -1 -28.5 9.5t-12.5 22.5q0 2 -0.5 5t-0.5 5q0 3 0.5 6t1.5 6q3 12 13 21.5t28 9.5t30.5 -10.5t12.5 -29.5t-12 -32.5t-32 -13.5v1zM530 830q-19 -1 -28.5 9.5t-12.5 22.5q0 2 -0.5 5t-0.5 5q0 3 0.5 6t1.5 6q3 12 13 21.5t28 9.5
t30.5 -10.5t12.5 -29.5t-12 -32.5t-32 -13.5v1z" />
    <glyph glyph-name="dagger" unicode="&#x2020;" horiz-adv-x="500" 
 />
    <glyph glyph-name="degree" horiz-adv-x="500" 
 />
    <glyph glyph-name="cent" unicode="&#xa2;" horiz-adv-x="558" 
d="M360 597l-45 -434q6 -1 12.5 -1.5t12.5 -0.5q6 -1 12 -1h12q53 0 86.5 14.5t43.5 62.5q2 8 4 11.5t5 3.5t4.5 -3.5t1.5 -8.5q0 -3 -1.5 -17.5t-4.5 -30.5q0 -5 -1 -10t-1 -10q-2 -8 -3 -14t-2 -10q-1 -8 -4 -11.5t-9 -5.5q-10 -3 -20.5 -5t-21.5 -4q-24 -4 -48 -5.5
t-43 -1.5h-13h-12q-4 0 -8.5 0.5t-9.5 0.5l-14 -134q-1 -5 -3 -7.5t-6 -3.5l-23 -5h-2h-2q-3 0 -4.5 1t-0.5 5l18 152q-89 16 -151 81.5t-62 174.5q0 51 15.5 90t33.5 64q8 11 15.5 19t13.5 13l2 2t2 1q39 32 82 46.5t108 17.5l11 101q1 3 2.5 5t7.5 3l20 5q1 -1 1.5 -1
t0.5 1h1.5h0.5q4 0 5.5 -2t0.5 -5l-13 -107q18 -1 44 -4t53 -10q11 -2 21 -5t20 -7q1 -1 2 -1.5t2 -1.5q2 -2 2.5 -4t0.5 -7q0 -8 -0.5 -19t-1.5 -24q0 -6 -0.5 -12t-1.5 -12q0 -8 -0.5 -14.5t-1.5 -10.5q-1 -7 -3 -9.5t-5 -2.5t-4 3t-1 9q-1 10 -3 20.5t-8 21.5
q-2 3 -4 6.5t-5 7.5q-2 3 -6 6t-9 6q-14 9 -39 17t-59 10v1zM277 174l45 424q-89 -1 -140 -56t-51 -135q0 -96 39.5 -149.5t86.5 -76.5l10 -4l10 -4v1z" />
    <glyph glyph-name="sterling" unicode="&#xa3;" horiz-adv-x="595" 
d="M254 0h-233q-11 0 -19.5 1t-8.5 8q0 8 5.5 11.5t13.5 5.5q75 15 100 78t35 147l13 106h-75q-4 -1 -7.5 -1.5t-5.5 -0.5q-3 0 -4.5 -0.5t-3.5 -0.5t-3 1.5t-1 3.5v2t1 2l12 22q2 4 5.5 5.5t8.5 1.5l79 1l10 70q2 17 5.5 36t7.5 38q11 49 32.5 95t58.5 78q5 5 10.5 9
t11.5 8q36 25 70 32t59 7h6.5h6.5q21 -1 40.5 -4t33.5 -8q5 -1 9.5 -2t8.5 -2q2 0 4.5 -0.5t4.5 -0.5q4 -1 5.5 -4t1.5 -8v-6.5v-6.5q0 -25 -1 -47.5t-2 -37.5q-1 -6 -1.5 -10t-0.5 -6q-1 -5 -2.5 -8.5t-5.5 -3.5t-6 3.5t-2 11.5q0 7 -2.5 17.5t-6.5 22.5q-3 7 -6.5 14
t-8.5 13q-13 18 -37.5 28t-61.5 10q-58 0 -97 -48.5t-51 -139.5l-18 -150h109q11 -1 18.5 0t13.5 2q6 0 9.5 1t5.5 1q3 0 4.5 -1.5t1.5 -3.5v-1.5v-0.5q0 -1 -0.5 -1.5t-0.5 -1.5l-11 -23q-2 -5 -6 -7t-10 -2l-140 1l-5 -42q-3 -24 -10.5 -62t-23.5 -78q-12 -32 -31 -63
t-46 -54l2 -1l312 3q41 0 63.5 18t29.5 63q1 5 3 7.5t5 2.5t5 -3t2 -12q0 -5 -2.5 -25.5t-5.5 -43.5q-1 -11 -3 -21t-4 -19q0 -4 -0.5 -6.5t-1.5 -5.5v-0.5v-1.5q-2 -11 -11 -14t-50 -3q-23 0 -43 0.5t-40 1.5h-9.5h-8.5q-25 1 -51 2t-58 1v0z" />
    <glyph glyph-name="section" unicode="&#xa7;" horiz-adv-x="500" 
 />
    <glyph glyph-name="bullet" horiz-adv-x="420" 
d="M172 395q0 22 -6.5 36t-14.5 21q-4 4 -7.5 6.5t-6.5 3.5l-4 2l-4 2q-3 1 -4.5 2.5t-1.5 4.5q0 5 3 6.5t9 1.5q10 0 37 -4.5l57 -9.5q4 -1 8.5 -2t8.5 -2q5 -1 11 -2t11 -2q16 -4 23 -8t7 -9q0 -6 -2 -11t-4 -9q-20 -31 -46.5 -57.5t-54.5 -51.5q-3 -2 -5.5 -4.5
l-5.5 -5.5l-2 -2l-2 -2h-1v-1l-8 -6t-7 -3h-0.5h-1.5l-2 2t-1 3t1 5t2 7v0.5t1 0.5q0 2 1 4t1 3q2 8 4 17t3 18q2 13 3 24.5t1 20.5v1z" />
    <glyph glyph-name="paragraph" unicode="&#xb6;" horiz-adv-x="500" 
 />
    <glyph glyph-name="germandbls" unicode="&#xdf;" horiz-adv-x="1140" 
d="M248 -17q-35 0 -69 6t-65 20q-1 1 -2 1.5t-2 0.5q-8 5 -9.5 11.5t-1.5 24.5q0 21 1 40t2 33q0 11 1 19.5t1 13.5q1 8 2.5 12t5.5 4q5 0 6 -2.5t1 -8.5q0 -7 0.5 -16.5t2.5 -20.5q11 -55 54.5 -78.5t93.5 -23.5q67 0 102.5 37.5t39.5 82.5q1 3 1 6.5v6.5q0 25 -5.5 46
t-17.5 41q-14 21 -36.5 43t-55.5 50l-45 38q-64 52 -92 94.5t-35 82.5q-2 10 -2.5 19.5t-0.5 19.5q0 80 56 130t151 50q29 0 51.5 -2.5t41.5 -7.5q14 -3 21.5 -4t13.5 -1t8 -1.5t2 -5.5q0 -2 -0.5 -9t-1.5 -20t-1.5 -32t-0.5 -45q0 -12 -1.5 -17.5t-5.5 -5.5t-5.5 3.5
t-2.5 9.5q0 4 -1.5 10.5t-2.5 13.5q-2 8 -4.5 15t-4.5 11t-7 10.5t-15 14.5q-14 11 -38.5 19.5t-64.5 8.5q-52 0 -87.5 -30.5t-35.5 -85.5q0 -15 3 -28t9 -26q12 -24 38 -50t72 -64l28 -21q56 -45 87 -81.5t45 -71.5q8 -20 11 -40.5t3 -42.5q0 -17 -4.5 -41.5t-17.5 -50.5
q-10 -20 -25 -39t-38 -35q-32 -22 -71 -31.5t-80 -9.5v0zM818 -17q-35 0 -69 6t-65 20q-1 1 -2 1.5t-2 0.5q-8 5 -9.5 11.5t-1.5 24.5q0 21 1 40t2 33q0 11 1 19.5t1 13.5q1 8 2.5 12t5.5 4q5 0 6 -2.5t1 -8.5q0 -7 0.5 -16.5t2.5 -20.5q11 -55 54.5 -78.5t93.5 -23.5
q67 0 102.5 37.5t39.5 82.5q1 3 1 6.5v6.5q0 25 -5.5 46t-17.5 41q-14 21 -36.5 43t-55.5 50l-45 38q-64 52 -92 94.5t-35 82.5q-2 10 -2.5 19.5t-0.5 19.5q0 80 56 130t151 50q29 0 51.5 -2.5t41.5 -7.5q14 -3 21.5 -4t13.5 -1t8 -1.5t2 -5.5q0 -2 -0.5 -9t-1.5 -20
t-1.5 -32t-0.5 -45q0 -12 -1.5 -17.5t-5.5 -5.5t-5.5 3.5t-2.5 9.5q0 4 -1.5 10.5t-2.5 13.5q-2 8 -4.5 15t-4.5 11t-7 10.5t-15 14.5q-14 11 -38.5 19.5t-64.5 8.5q-52 0 -87.5 -30.5t-35.5 -85.5q0 -15 3 -28t9 -26q12 -24 38 -50t72 -64l28 -21q56 -45 87 -81.5t45 -71.5
q8 -20 11 -40.5t3 -42.5q0 -17 -4.5 -41.5t-17.5 -50.5q-10 -20 -25 -39t-38 -35q-32 -22 -71 -31.5t-80 -9.5v0z" />
    <glyph glyph-name="registered" unicode="&#xae;" horiz-adv-x="906" 
d="M453 -17q-161 0 -275.5 114t-115.5 276q1 164 115.5 278.5t276.5 114.5q161 0 275.5 -114.5t114.5 -278.5q0 -162 -114.5 -276t-276.5 -114v0zM456 25q140 -1 237.5 103t96.5 246q1 144 -97 247t-239 103q-144 0 -241.5 -103t-96.5 -247q-1 -142 97 -246t243 -104v1z
M338 328v101v23v20v46.5t-1 31.5q-1 18 -12.5 24t-34.5 7q-4 0 -6.5 2t-2.5 6q0 3 3.5 4.5t8.5 1.5l17 1q2 -1 10.5 -1.5t17.5 -0.5h0.5h1.5q9 0 17 -0.5t9 -0.5h6h6q4 0 8.5 0.5t8.5 0.5q8 0 17.5 0.5t22.5 0.5q39 0 62 -5t35 -10q5 -3 8.5 -5t6.5 -4q2 -2 4.5 -4t5.5 -4
q11 -11 20 -28.5t9 -42.5v-7.5t-1 -7.5q-2 -25 -17 -52t-52 -64q36 -45 65 -84.5t54 -65.5l3.5 -3.5l3.5 -3.5q11 -11 24.5 -20.5t29.5 -9.5q6 0 8 -2.5t2 -5.5q0 -2 -2 -4t-10 -2l-14 1q-6 -1 -12.5 -1t-13.5 1q-12 1 -23.5 3t-20.5 7l-6 4l-6 4q-15 11 -30.5 30t-35.5 46
q-3 5 -6.5 9.5t-7.5 9.5q-14 19 -26.5 37.5t-20.5 30.5l-80 1v-49q0 -75 2.5 -91t6.5 -21q3 -4 9 -5l12 -2h7.5h5.5h2h2q5 0 7 -1.5t3 -5.5q-1 -4 -3.5 -6t-7.5 -2l-19 1q-2 -1 -9.5 -0.5t-16.5 0.5h-0.5h-1.5q-8 0 -15.5 0.5t-8.5 0.5t-9 -0.5t-18 -0.5h-0.5h-1.5
q-9 0 -17 -0.5t-11 -0.5l-18 1q-4 -1 -6.5 1t-2.5 5t3 5t8 2q26 1 34 5.5t9 25.5q2 16 2 43v79v1zM391 568v-191q7 -5 18.5 -7.5t24.5 -3.5q5 -1 10 -1h9q5 0 10 0.5t10 1.5t10 3t10 6q15 11 25.5 32.5t10.5 53.5q0 47 -25.5 78t-74.5 31h-7.5t-12.5 -1q-5 0 -10 -1t-8 -2v1
z" />
    <glyph glyph-name="copyright" unicode="&#xa9;" horiz-adv-x="906" 
d="M454 -17q-163 0 -277.5 113.5t-114.5 276.5q0 164 114.5 278.5t277.5 114.5q161 0 275.5 -114.5t114.5 -278.5q0 -163 -114.5 -276.5t-275.5 -113.5v0zM454 25q143 0 239.5 103.5t96.5 245.5q0 143 -96.5 246.5t-239.5 103.5q-144 0 -241.5 -103.5t-96.5 -246.5
q-1 -142 96.5 -246t241.5 -104v1zM477 153q-109 -1 -179.5 61.5t-70.5 168.5q0 44 13.5 77.5t29.5 55.5q6 9 12.5 16.5t12.5 12.5q30 29 71.5 43t97.5 14q11 0 33.5 -1.5t48.5 -6.5q5 -1 12 -2.5t15 -2.5q1 0 2 -0.5t2 -0.5q10 -2 19 -4t10 -2h3t3 1h2.5h2.5q2 0 2 -1.5
v-3.5t-0.5 -16.5t-1.5 -31.5q-1 -15 -2 -28t-2 -18q-1 -4 -2.5 -6t-4.5 -2q-4 0 -5.5 3.5t-1.5 7.5v1.5v1.5q-1 6 -1.5 12.5t-2.5 12.5q-1 6 -4 11.5t-8 10.5q-2 2 -8.5 6.5t-17.5 9.5q-15 7 -40.5 13t-61.5 6q-79 0 -121.5 -43.5t-42.5 -122.5q0 -106 59.5 -162.5
t133.5 -56.5q39 0 60 7t31 15l1.5 1.5l1.5 1.5q6 6 10.5 14t6.5 16q2 5 3.5 10t2.5 10q2 5 3.5 7.5t5.5 2.5t5 -2.5t1 -6.5q0 -6 -2 -25.5t-7 -41.5q0 -1 -0.5 -2t-0.5 -2q-1 -3 -1.5 -6t-1.5 -5q-2 -8 -5 -11t-10 -5q-1 0 -2 -0.5t-2 -0.5q-3 -1 -6 -1.5t-6 -1.5
q-30 -7 -57 -8t-38 -1v1z" />
    <glyph glyph-name="trademark" unicode="&#x2122;" horiz-adv-x="750" 
d="M71 750h175q11 -1 19 -0.5t13 1.5q6 1 9.5 1.5t4.5 0.5q2 0 2 -3.5v-11.5v-9t-1 -16q0 -8 -0.5 -14.5t-0.5 -9.5q-1 -7 -2.5 -9.5t-3.5 -2.5t-3.5 1.5t-2.5 4.5q0 1 -0.5 2.5t-0.5 2.5l-1 10q-1 9 -8.5 15.5t-39.5 6.5l-54 1v-183v-58.5t1 -33.5t6 -19t15 -8l13 -1
q8 -1 10 -2.5t2 -3.5t-2.5 -3.5t-10.5 -1.5h-11.5t-13.5 1h-5.5h-4.5q-9 0 -16 0.5t-9 0.5t-9 -0.5t-17 -0.5h-6.5t-7.5 -1h-12.5h-11.5q-7 0 -9.5 1.5t-2.5 3.5t2.5 3.5t9.5 1.5l13 1q13 1 17.5 8t5.5 14q1 2 1 3.5v2.5q1 13 1 33.5v57.5v184h-63q-24 -1 -35 -9t-13 -19
q-1 -7 -3.5 -9t-5.5 -2q-2 0 -3 1.5t-1 5.5v0.5v1.5v1.5v0.5q0 4 1.5 11t2.5 15q0 1 0.5 2.5t0.5 2.5q2 9 3.5 16t1.5 8q0 2 0.5 3.5t1.5 2.5q1 2 1.5 2.5l0.5 0.5h0.5h0.5q1 0 3 -1l4 -2q2 0 5 -1t7 -1q3 0 6 -0.5t6 -0.5h1.5h0.5q7 -1 13.5 -1.5t9.5 -0.5v1zM376 646
l-17 -171v-3.5t-1 -3.5q0 -6 -0.5 -13.5t-0.5 -18.5v-1.5v-0.5q1 -7 5.5 -12t10.5 -5q12 0 15.5 -1.5t3.5 -3.5q0 -3 -2 -4t-7 -1h-10t-11 1h-4h-4q-8 0 -14 0.5t-9 0.5q-2 0 -6.5 -0.5t-10.5 -0.5q-5 0 -10.5 -0.5t-11.5 -0.5h-2.5h-3.5q-4 0 -6.5 1t-2.5 4t3 4t9 1l7 1
q9 -1 16 6.5t10 29.5l39 287v0.5v0.5q1 7 4 12t7 5q5 0 8 -4t6 -10l127 -261l124 265q3 4 6 7t7 3q5 0 6.5 -5.5t2.5 -12.5l35 -274q4 -30 12 -39t27 -11l6 1q5 -1 7.5 -2.5t2.5 -3.5q0 -3 -2 -4t-7 -1t-16.5 0.5t-24.5 0.5q-14 1 -26.5 1.5t-16.5 1.5t-6.5 4t-3.5 9
l-24 218l-2 1l-99 -209q-5 -13 -9.5 -19.5t-9.5 -6.5t-9.5 7t-9.5 15q0 1 -0.5 1.5t-0.5 1.5l-103 213h-3v0z" />
    <glyph glyph-name="acute" unicode="&#xb4;" horiz-adv-x="911" 
d="M583 933q5 -8 11 -19t14 -26q2 -2 2 -3.5v-3.5q0 -3 -2 -4t-4 -1h-2t-3 1h-5h-6h-6t-8 -1q-13 -1 -28 -4t-31 -7q-13 -4 -25.5 -7.5t-24.5 -7.5q-13 -4 -24 -8t-19 -8q-5 -2 -9 -3.5t-6 -1.5h-0.5h-1.5q-1 1 -2 2.5t-1 3.5q0 1 0.5 2t1.5 2q0 1 1.5 2t3.5 2q10 7 25 16.5
t32 20.5q1 0 2 1t2 1q27 17 49.5 30.5t25.5 15.5q13 8 18.5 10.5t9.5 2.5h1.5h0.5q2 -1 3.5 -3l4.5 -6v1z" />
    <glyph glyph-name="dieresis" unicode="&#xa8;" horiz-adv-x="911" 
d="M354 830q-19 -1 -28.5 9.5t-12.5 22.5q0 2 -0.5 5t-0.5 5q0 3 0.5 6t1.5 6q3 12 13 21.5t28 9.5t30.5 -10.5t12.5 -29.5t-12 -32.5t-32 -13.5v1zM555 830q-19 -1 -28.5 9.5t-12.5 22.5q0 2 -0.5 5t-0.5 5q0 3 0.5 6t1.5 6q3 12 13 21.5t28 9.5t30.5 -10.5t12.5 -29.5
t-12 -32.5t-32 -13.5v1z" />
    <glyph glyph-name="AE" unicode="&#x2260;" 
 />
    <glyph glyph-name="Oslash" unicode="&#xc6;" horiz-adv-x="912" 
d="M473 341h-176q-6 -1 -10 -2t-8 -6q-4 -6 -21 -33t-37 -59q-18 -30 -34 -56.5t-22 -36.5q-25 -42 -34 -64.5t-9 -36.5q0 -10 5.5 -17.5t14.5 -11.5q4 -2 9 -3t11 -2q7 -2 13 -2.5t11 -0.5t8.5 -1.5t3.5 -5.5q0 -3 -5 -4.5t-12 -1.5h-4.5h-5.5q-18 0 -36 0.5t-34 0.5
q-17 1 -29 1.5t-16 0.5q-3 0 -14.5 -0.5t-26.5 -1.5q-11 0 -23 -0.5t-25 -0.5h-11.5h-11.5q-8 0 -10.5 1.5t-2.5 5.5q0 3 3 4.5t8 1.5q4 0 13 1t19 5q3 1 5.5 2t4.5 2q18 10 33 22.5t29 28.5q10 12 20 25.5t22 30.5q24 33 127 193.5t240 375.5q14 21 17.5 29t4.5 13
q2 6 5 10t8 4q3 0 6.5 -0.5t8.5 -0.5q1 -1 3 -1h4q2 -1 5 -1h5h38.5h76.5q39 0 72.5 0.5t41.5 0.5q14 1 25.5 2.5t17.5 2.5q2 0 3.5 1t2.5 1q0 1 0.5 1h0.5q2 1 3.5 1.5t3.5 0.5t3 -2.5t1 -6.5t-1.5 -10t-3.5 -17q-1 -4 -1.5 -9t-1.5 -11q0 -4 -1 -13.5t-1 -20.5
q-1 -10 -1.5 -19t-1.5 -13v-1.5v-0.5q-1 -3 -2.5 -6t-4.5 -3q-4 0 -6 3.5t-2 9.5q0 4 -0.5 10t-1.5 13q-1 3 -2 6.5t-2 6.5q-5 12 -17.5 21t-53.5 13q-6 1 -25.5 1.5t-42.5 0.5q-24 1 -44.5 1h-24.5q-3 0 -4.5 -2.5t-1.5 -7.5v-316q0 -6 1 -8.5t5 -2.5h29h52q25 0 47.5 0.5
t30.5 1.5q18 2 29 4.5t18 9.5q5 6 8.5 9.5t6.5 3.5q2 0 3.5 -1.5t1.5 -6.5q0 -3 -1.5 -11t-3.5 -21q-1 -5 -1.5 -11t-1.5 -13q0 -5 -0.5 -10t-1.5 -10q-1 -12 -1.5 -22.5t-0.5 -14.5v-3v-4q-1 -3 -2.5 -6t-4.5 -3q-4 0 -5.5 3t-2.5 8q0 4 -0.5 10t-2.5 14q-1 2 -1.5 4
t-2.5 4q-5 9 -18 17t-37 10q-7 1 -26.5 1.5t-40.5 0.5h-43h-26q-4 0 -5.5 -2t-1.5 -7v-44v-24v-32v-14v-14v-54.5v-34.5q2 -51 22.5 -66t93.5 -15h22.5t25.5 1t25.5 3.5t22.5 6.5q20 8 30 24t15 47q2 8 3.5 11.5t5.5 3.5t5 -4t1 -9v-0.5v-1.5q0 -3 -1.5 -18t-4.5 -32
q0 -6 -1 -11t-1 -10q-2 -8 -3 -14.5t-2 -10.5q-5 -19 -15 -22t-39 -3q-57 0 -98.5 1t-70.5 2q-30 1 -48.5 2t-29.5 1q-4 0 -15 -0.5t-24 -1.5h-9h-8q-10 -1 -20 -1h-18t-12 1.5t-4 5.5q0 2 2 4t6 2q3 0 6.5 0.5t7.5 0.5q4 1 7.5 1.5t6.5 1.5q15 3 20.5 18t8.5 37
q4 32 4.5 88.5t0.5 128.5v47q0 4 -2 5.5t-7 1.5v1zM482 385v270q0 3 -2 3.5t-5 -1.5q0 -1 -0.5 -1.5l-1.5 -1.5q-6 -10 -30 -48.5t-51 -82.5q-30 -48 -55 -90t-28 -48q-3 -5 -1.5 -7t5.5 -2l160 1q5 -1 7 1t2 6v1z" />
    <glyph glyph-name="plusminus" unicode="&#xd8;" horiz-adv-x="915" 
d="M202 66l-87 -93q-2 -3 -4.5 -3t-5.5 3l-20 19q-3 3 -3.5 5.5t1.5 3.5l87 95q-41 42 -66 96t-34 111q-3 18 -4.5 36t-1.5 36q0 28 4.5 57.5t14.5 59.5q32 103 123.5 188.5t251.5 85.5q82 0 145 -21t113 -61l82 89q3 2 6.5 1.5t7.5 -4.5l20 -15l3 -4.5t0 -3.5
q0 -1 -0.5 -2.5t-2.5 -3.5l-81 -86q47 -49 73.5 -115t26.5 -149q0 -168 -109 -288t-290 -120q-79 0 -141.5 22t-108.5 60v1zM695 595l-441 -473q44 -50 101 -76t124 -26q23 0 53 5.5t61 19.5q61 29 111.5 101.5t50.5 216.5q0 71 -16 129.5t-44 101.5v1zM227 157l440 475
q-43 49 -99.5 74.5t-117.5 25.5q-124 0 -207.5 -82.5t-83.5 -246.5q0 -74 18 -136.5t50 -110.5v1z" />
    <glyph glyph-name="yen" unicode="&#x221e;" 
 />
    <glyph glyph-name="mu" unicode="&#xb1;" horiz-adv-x="500" 
 />
    <glyph glyph-name="ordfeminine" unicode="&#x2264;" 
 />
    <glyph glyph-name="ordmasculine" unicode="&#x2265;" 
 />
    <glyph glyph-name="ae" unicode="&#xa5;" horiz-adv-x="635" 
d="M352 306v-141v-11v-10v-43t1 -35q1 -23 11 -35.5t35 -16.5q4 -1 8.5 -1t9.5 -1q8 0 15.5 -0.5t11.5 -0.5q3 0 5.5 -2.5t2.5 -5.5t-4 -4.5t-12 -1.5h-12.5h-12.5q-14 0 -28 0.5t-26 1.5q-17 0 -28.5 0.5t-12.5 0.5q-2 0 -13.5 -0.5t-28.5 -1.5q-12 0 -26.5 -0.5
t-29.5 -0.5h-11.5h-10.5q-10 0 -13 1.5t-3 4.5t1.5 5.5t5.5 2.5q5 0 12 0.5t15 0.5q5 0 10 0.5t9 1.5q26 4 35.5 16.5t10.5 35.5q1 14 1 35v43v10v10v142h-162q-6 -1 -6.5 2t0.5 8l7 22q2 3 4.5 4t6.5 1l148 1q-10 13 -36.5 57t-56.5 95q-29 48 -54.5 91t-36.5 63
q-5 8 -10 15.5t-9 14.5q-12 16 -23 27t-20 17q-3 2 -6.5 4t-7.5 3q-10 4 -18 5t-11 1q-4 0 -7 1.5t-3 5.5t2.5 6t7.5 2q6 0 18.5 -0.5t26.5 -0.5h3h3q16 -1 28.5 -1.5t14.5 -0.5t9.5 0.5t18.5 1.5q11 0 24.5 0.5t27.5 0.5q5 0 8.5 -1.5t3.5 -6.5q0 -3 -4.5 -5t-9.5 -4
q-6 -1 -9.5 -6.5t-3.5 -11.5q0 -7 3 -17t10 -21q6 -11 30.5 -54.5t52.5 -94.5q1 -1 1.5 -2t1.5 -2q27 -49 51.5 -90.5t32.5 -53.5q8 13 29.5 52.5t45.5 84.5q25 46 46.5 86t29.5 53q10 17 14 29.5t4 23.5q0 8 -3.5 13.5t-12.5 9.5q-1 0 -2.5 0.5t-2.5 1.5q-4 1 -7 3t-3 6
t4.5 5.5t11.5 1.5h6.5h7.5q6 0 12 -0.5t12 -0.5q8 -1 14.5 -1.5t9.5 -0.5q2 0 14.5 0.5t27.5 1.5h3.5h2.5q14 0 26.5 0.5t18.5 0.5q5 0 8.5 -1.5t3.5 -5.5t-3.5 -6t-8.5 -2t-12 -1t-15 -4q-4 -1 -8 -3l-8 -4q-8 -4 -14.5 -9t-13.5 -11q-5 -6 -11 -13.5t-13 -17.5
q-12 -16 -39 -62t-57 -100q-1 -2 -2.5 -4t-2.5 -4q-28 -49 -53 -94.5t-37 -66.5l162 1q6 -1 8 -3.5t0 -6.5l-6 -22q-1 -5 -5 -6t-9 -1l-152 1v0z" />
    <glyph glyph-name="oslash" unicode="&#xb5;" horiz-adv-x="1050" 
d="M855 740l67 -614q1 -10 2.5 -20t3.5 -20q5 -22 15.5 -41t32.5 -26t40 -8t25 -1q4 0 6 -1t2 -4q0 -4 -6 -6t-15 -2t-34 0.5t-54 1.5q-23 1 -44.5 1.5t-34.5 1.5q-17 2 -22.5 4t-5.5 6q0 3 1.5 4.5t5.5 2.5q2 1 3.5 6.5t1.5 13.5v8t-1 8l-48 517h-3l-245 -520
q-12 -26 -17.5 -37t-9.5 -15q-1 0 -2.5 -0.5t-3.5 -0.5h-1.5h-1.5q-4 1 -10 11t-18 34q-8 16 -23 45.5t-32 62.5l-41 82l-21 42q-3 7 -23 49t-43 92q-23 49 -42.5 91.5t-23.5 52.5l-4 1l-40 -464q0 -9 -0.5 -17.5t-0.5 -17.5v-8.5v-8.5q0 -11 7.5 -20t18.5 -11
q13 -3 23.5 -4t14.5 -1q3 0 5.5 -1.5t2.5 -3.5q0 -5 -4.5 -6.5t-13.5 -1.5h-12.5h-12.5q-8 1 -16.5 1h-15.5q-14 1 -23.5 1.5t-12.5 0.5t-13 -0.5t-22 -1.5h-8h-8q-9 -1 -17.5 -1h-15.5t-12 1.5t-5 6.5q0 2 3 3.5t7 1.5h1.5h1.5q5 0 11 0.5t16 2.5q24 4 30.5 28t9.5 51v2v2
l72 653q2 7 4.5 12t6.5 5q3 0 5.5 -1.5t4.5 -4.5q1 -2 2.5 -4t2.5 -5l306 -628l294 628q3 6 6.5 10.5t8.5 4.5t8 -6.5t4 -20.5v1z" />
    <glyph glyph-name="questiondown" unicode="&#x2202;" 
 />
    <glyph glyph-name="exclamdown" unicode="&#x3a3;" 
 />
    <glyph glyph-name="florin" unicode="&#x220f;" 
 />
    <glyph glyph-name="guillemotleft" unicode="&#x3c0;" 
 />
    <glyph glyph-name="guillemotright" unicode="&#x222b;" 
 />
    <glyph glyph-name="ellipsis" unicode="&#xaa;" horiz-adv-x="400" 
d="M245 522h-120q-2 -1 -3 -2.5t-2 -3.5l-22 -59q-1 -3 -1.5 -5t-1.5 -4l-2 -10t-1 -8q0 -5 3 -8.5t7 -4.5q1 -1 2 -1h2l5 1q3 -1 4.5 -2t1.5 -3q0 -3 -2.5 -4t-6.5 -1h-9t-11 1h-2h-2q-6 0 -12 0.5t-9 0.5q-4 0 -10.5 -0.5t-14.5 -0.5t-16.5 -0.5t-17.5 -0.5h-2h-2
q-4 0 -6.5 1t-2.5 4q0 2 1.5 3t3.5 1h4h4t4 0.5t3 0.5q17 2 27.5 13t17.5 29l127 296q3 6 6 8.5t7 2.5h1.5h0.5q3 -1 5.5 -4.5t6.5 -12.5q4 -7 24 -53t44 -99q1 -3 2.5 -6l2.5 -5q16 -35 30.5 -66.5t25.5 -51.5q14 -25 22.5 -35.5t16.5 -13.5q1 0 2 -0.5t2 -0.5
q6 -1 12 -1.5t10 -0.5q2 0 3.5 -1t1.5 -3q0 -3 -3 -4t-8 -1q-6 0 -33 0.5t-65 1.5q-8 0 -12.5 1t-4.5 2q0 2 1.5 3t2.5 2l0.5 0.5t1.5 0.5q1 1 2 2.5t1 3.5v0.5v1.5q-1 0 -1 0.5v0.5l-40 91l-0.5 0.5t-1.5 0.5l-1.5 1.5t-2.5 0.5v1zM137 552h94q2 -1 3 0.5t0 2.5l-46 113
q-1 2 -2.5 3t-2.5 1t-2.5 -1t-2.5 -4l-43 -111q-1 -2 0 -3.5t2 -1.5v1z" />
    <glyph glyph-name="Agrave" unicode="&#xba;" horiz-adv-x="437" 
d="M216 405q-102 -1 -148.5 54.5t-47.5 122.5v1.5v1.5q0 10 1 20t4 20q13 53 61 97t133 44q87 0 143 -46t56 -127q0 -78 -55 -133.5t-147 -55.5v1zM230 432q10 -1 23 1.5t27 9.5q25 13 46 44.5t21 92.5q0 72 -38.5 113t-85.5 46q-3 1 -6.5 1h-6.5h-6.5t-6.5 -1
q-40 -5 -73 -40t-33 -103q0 -71 42 -118t97 -47v1z" />
    <glyph glyph-name="Atilde" unicode="&#x3a9;" 
 />
    <glyph glyph-name="Otilde" unicode="&#xe6;" horiz-adv-x="912" 
d="M473 341h-176q-6 -1 -10 -2t-8 -6q-4 -6 -21 -33t-37 -59q-18 -30 -34 -56.5t-22 -36.5q-25 -42 -34 -64.5t-9 -36.5q0 -10 5.5 -17.5t14.5 -11.5q4 -2 9 -3t11 -2q7 -2 13 -2.5t11 -0.5t8.5 -1.5t3.5 -5.5q0 -3 -5 -4.5t-12 -1.5h-4.5h-5.5q-18 0 -36 0.5t-34 0.5
q-17 1 -29 1.5t-16 0.5q-3 0 -14.5 -0.5t-26.5 -1.5q-11 0 -23 -0.5t-25 -0.5h-11.5h-11.5q-8 0 -10.5 1.5t-2.5 5.5q0 3 3 4.5t8 1.5q4 0 13 1t19 5q3 1 5.5 2t4.5 2q18 10 33 22.5t29 28.5q10 12 20 25.5t22 30.5q24 33 127 193.5t240 375.5q14 21 17.5 29t4.5 13
q2 6 5 10t8 4q3 0 6.5 -0.5t8.5 -0.5q1 -1 3 -1h4q2 -1 5 -1h5h38.5h76.5q39 0 72.5 0.5t41.5 0.5q14 1 25.5 2.5t17.5 2.5q2 0 3.5 1t2.5 1q0 1 0.5 1h0.5q2 1 3.5 1.5t3.5 0.5t3 -2.5t1 -6.5t-1.5 -10t-3.5 -17q-1 -4 -1.5 -9t-1.5 -11q0 -4 -1 -13.5t-1 -20.5
q-1 -10 -1.5 -19t-1.5 -13v-1.5v-0.5q-1 -3 -2.5 -6t-4.5 -3q-4 0 -6 3.5t-2 9.5q0 4 -0.5 10t-1.5 13q-1 3 -2 6.5t-2 6.5q-5 12 -17.5 21t-53.5 13q-6 1 -25.5 1.5t-42.5 0.5q-24 1 -44.5 1h-24.5q-3 0 -4.5 -2.5t-1.5 -7.5v-316q0 -6 1 -8.5t5 -2.5h29h52q25 0 47.5 0.5
t30.5 1.5q18 2 29 4.5t18 9.5q5 6 8.5 9.5t6.5 3.5q2 0 3.5 -1.5t1.5 -6.5q0 -3 -1.5 -11t-3.5 -21q-1 -5 -1.5 -11t-1.5 -13q0 -5 -0.5 -10t-1.5 -10q-1 -12 -1.5 -22.5t-0.5 -14.5v-3v-4q-1 -3 -2.5 -6t-4.5 -3q-4 0 -5.5 3t-2.5 8q0 4 -0.5 10t-2.5 14q-1 2 -1.5 4
t-2.5 4q-5 9 -18 17t-37 10q-7 1 -26.5 1.5t-40.5 0.5h-43h-26q-4 0 -5.5 -2t-1.5 -7v-44v-24v-32v-14v-14v-54.5v-34.5q2 -51 22.5 -66t93.5 -15h22.5t25.5 1t25.5 3.5t22.5 6.5q20 8 30 24t15 47q2 8 3.5 11.5t5.5 3.5t5 -4t1 -9v-0.5v-1.5q0 -3 -1.5 -18t-4.5 -32
q0 -6 -1 -11t-1 -10q-2 -8 -3 -14.5t-2 -10.5q-5 -19 -15 -22t-39 -3q-57 0 -98.5 1t-70.5 2q-30 1 -48.5 2t-29.5 1q-4 0 -15 -0.5t-24 -1.5h-9h-8q-10 -1 -20 -1h-18t-12 1.5t-4 5.5q0 2 2 4t6 2q3 0 6.5 0.5t7.5 0.5q4 1 7.5 1.5t6.5 1.5q15 3 20.5 18t8.5 37
q4 32 4.5 88.5t0.5 128.5v47q0 4 -2 5.5t-7 1.5v1zM482 385v270q0 3 -2 3.5t-5 -1.5q0 -1 -0.5 -1.5l-1.5 -1.5q-6 -10 -30 -48.5t-51 -82.5q-30 -48 -55 -90t-28 -48q-3 -5 -1.5 -7t5.5 -2l160 1q5 -1 7 1t2 6v1z" />
    <glyph glyph-name="OE" unicode="&#xf8;" horiz-adv-x="915" 
d="M202 66l-87 -93q-2 -3 -4.5 -3t-5.5 3l-20 19q-3 3 -3.5 5.5t1.5 3.5l87 95q-41 42 -66 96t-34 111q-3 18 -4.5 36t-1.5 36q0 28 4.5 57.5t14.5 59.5q32 103 123.5 188.5t251.5 85.5q82 0 145 -21t113 -61l82 89q3 2 6.5 1.5t7.5 -4.5l20 -15l3 -4.5t0 -3.5
q0 -1 -0.5 -2.5t-2.5 -3.5l-81 -86q47 -49 73.5 -115t26.5 -149q0 -168 -109 -288t-290 -120q-79 0 -141.5 22t-108.5 60v1zM695 595l-441 -473q44 -50 101 -76t124 -26q23 0 53 5.5t61 19.5q61 29 111.5 101.5t50.5 216.5q0 71 -16 129.5t-44 101.5v1zM227 157l440 475
q-43 49 -99.5 74.5t-117.5 25.5q-124 0 -207.5 -82.5t-83.5 -246.5q0 -74 18 -136.5t50 -110.5v1z" />
    <glyph glyph-name="oe" unicode="&#xbf;" horiz-adv-x="488" 
d="M265 17q37 -1 61.5 11t36.5 27q18 22 25.5 45t9.5 48q1 8 2.5 12.5t5.5 4.5t5.5 -2.5t2.5 -7.5q2 -6 2.5 -27t1.5 -45v-23.5v-21.5q0 -2 -0.5 -4t-1.5 -4t-3 -4t-6 -4q-3 -2 -7 -4t-9 -4q-24 -12 -62.5 -21.5t-87.5 -9.5q-84 0 -125.5 37.5t-51.5 83.5q-2 9 -3 17.5
t-1 16.5q0 43 13 75.5t35 63.5q23 33 55 67.5t69 80.5q27 34 34 50t7 28v1.5v0.5q0 11 -4 24t-15 27q-5 7 -7 11t-2 6v1.5t1 0.5q0 2 2 3.5t4 2.5q1 0 2 0.5t2 0.5q4 0 10 -4.5t13 -10.5q3 -2 5.5 -5t5.5 -6q2 -2 4 -4.5t4 -4.5q12 -15 19 -26.5t9 -22.5q1 -3 1 -5.5v-4.5
q0 -10 -5.5 -23t-16.5 -27q-6 -7 -11.5 -14.5t-11.5 -14.5q-5 -6 -10.5 -11.5t-10.5 -11.5q-6 -8 -12.5 -15.5t-12.5 -15.5q-35 -44 -53.5 -78t-26.5 -66q-5 -17 -6.5 -33.5t-1.5 -34.5q0 -10 2 -22t6 -25q9 -30 35 -55t74 -25v1zM263 767q22 -1 34 -13.5t15 -27.5
q0 -3 0.5 -5.5t0.5 -5.5q0 -4 -0.5 -8t-1.5 -7q-5 -14 -16.5 -25t-32.5 -11q-22 0 -36.5 13t-14.5 35q0 23 14.5 38.5t37.5 15.5v1z" />
    <glyph glyph-name="endash" unicode="&#xa1;" horiz-adv-x="320" 
d="M158 596q7 -1 9.5 -10t4.5 -31q0 -3 0.5 -6t0.5 -6q1 -11 3 -49.5t5 -81.5q3 -48 5.5 -88.5t2.5 -46.5t1.5 -35t3.5 -62q2 -29 4.5 -55t5.5 -37q2 -6 3 -10.5t1 -8.5q0 -2 -0.5 -3.5t-0.5 -3.5q-1 -2 -2 -3.5t-2 -3.5q-3 -5 -6.5 -10t-8.5 -11q-9 -10 -20.5 -20
t-22.5 -17q-4 -3 -8 -5l-8 -4q-5 -3 -8 -4t-5 -1h-1h-1q-3 0 -4.5 2t-1.5 8q0 3 3 20t6 45q2 15 3.5 31.5t2.5 34.5q0 7 3.5 76t8.5 150q3 76 6.5 140t4.5 73v4t1 4q0 9 2.5 16.5t8.5 7.5v1zM162 767q22 -1 34 -13.5t15 -27.5q0 -3 0.5 -5.5t0.5 -5.5q0 -4 -0.5 -8t-1.5 -7
q-5 -14 -16.5 -25t-32.5 -11q-22 0 -36.5 13t-14.5 35q0 23 14.5 38.5t37.5 15.5v1z" />
    <glyph glyph-name="emdash" unicode="&#xac;" 
 />
    <glyph glyph-name="quotedblleft" unicode="&#x221a;" 
 />
    <glyph glyph-name="quotedblright" unicode="&#x192;" horiz-adv-x="535" 
d="M157 342h-41q-33 -1 -50 -1.5t-25 -2.5h-1.5h-1.5q-4 0 -6 2.5t0 6.5l10 21q2 4 6 7.5t8 3.5q2 0 6 -0.5t10 -0.5q6 -1 13.5 -1.5t16.5 -0.5l61 1q10 106 32.5 182.5t64.5 127.5q27 32 63.5 55.5t100.5 23.5q31 0 55 -4.5t45 -13.5q8 -4 10 -7.5t2 -7.5q0 -10 -2.5 -37
t-8.5 -71q-1 -10 -3.5 -14.5t-5.5 -4.5q-4 0 -5.5 4.5t-1.5 14.5q0 20 -4 35.5t-12 30.5q-8 16 -29 28.5t-53 12.5q-41 0 -72.5 -19.5t-50.5 -63.5q-14 -32 -24 -87t-18 -114q-2 -18 -4 -36.5t-4 -35.5l116 1q17 -1 29 -0.5t20 1.5l13.5 1.5t7.5 0.5q5 0 7.5 -4t-2.5 -11
l-11 -18q-3 -6 -8.5 -8.5t-11.5 -2.5q-3 0 -12.5 0.5t-22.5 1.5q-8 0 -17 0.5t-18 1.5h-11.5h-11.5l-70 1q-5 -32 -10.5 -77.5t-11.5 -94.5q-4 -34 -8.5 -67t-9.5 -61q-2 -11 -3.5 -21.5t-3.5 -19.5q-18 -88 -48.5 -140.5t-80.5 -76.5q-9 -5 -20 -8t-22 -5q-8 -1 -15 -1.5
t-14 -0.5q-20 0 -28.5 2t-8.5 7q0 4 2 7t5 3q37 0 65.5 9t50.5 45q17 28 29 78t22 141l32 282v0z" />
    <glyph glyph-name="quoteleft" unicode="&#x2248;" 
 />
    <glyph glyph-name="quoteright" unicode="&#x2206;" 
 />
    <glyph glyph-name="ydieresis" unicode="&#xab;" horiz-adv-x="560" 
d="M294 240l-30 -33q-1 -2 -2 -3l-2 -2q-1 0 -2 -0.5t-2 -0.5t-6.5 4.5t-16.5 17.5q-8 10 -28 31.5t-41 44.5q-23 25 -43 46.5t-28 29.5q-9 9 -13 13.5t-5 8.5v1.5v0.5q0 2 4.5 7.5t14.5 14.5q8 6 33.5 31t54.5 54q32 31 59 58l31 31q6 5 10 8t8 3h1.5h0.5q3 -1 5 -3t2 -5
q0 -4 -2 -7.5t-4 -5.5q-2 -3 -26 -31t-53 -62q-1 0 -1.5 -1t-1.5 -2q-21 -26 -40.5 -49t-28.5 -36q7 -8 29.5 -32t49.5 -51l5.5 -5.5l5.5 -5.5q14 -13 27 -26t25 -23q8 -7 11 -10t3 -5q0 -1 -0.5 -2l-0.5 -1q-1 -1 -1.5 -2t-1.5 -2v1zM481 240l-30 -33q-1 -2 -2 -3l-2 -2
q-1 0 -2 -0.5t-2 -0.5t-6.5 4.5t-16.5 17.5q-8 10 -28 31.5t-41 44.5q-23 25 -43 46.5t-28 29.5q-9 9 -13 13.5t-5 8.5v1.5v0.5q0 2 4.5 7.5t14.5 14.5q8 6 33.5 31t54.5 54q32 31 59 58l31 31q6 5 10 8t8 3h1.5h0.5q3 -1 5 -3t2 -5q0 -4 -2 -7.5t-4 -5.5q-2 -3 -26 -31
t-53 -62q-1 0 -1.5 -1t-1.5 -2q-21 -26 -40.5 -49t-28.5 -36q7 -8 29.5 -32t49.5 -51l5.5 -5.5l5.5 -5.5q14 -13 27 -26t25 -23q8 -7 11 -10t3 -5q0 -1 -0.5 -2l-0.5 -1q-1 -1 -1.5 -2t-1.5 -2v1z" />
    <glyph glyph-name="Ydieresis" unicode="&#xbb;" horiz-adv-x="560" 
d="M79 569l30 33q1 0 2 1l2 2q1 0 2 0.5t2 0.5q2 0 7 -4.5t16 -17.5q8 -10 28 -31.5t41 -44.5q23 -25 43 -46.5t28 -29.5q9 -9 13 -13.5t5 -8.5v-1v-1q0 -2 -4 -7.5t-15 -14.5q-8 -6 -33.5 -31t-54.5 -54q-32 -31 -59 -58l-31 -31q-6 -5 -10 -8t-8 -3h-1h-1q-3 1 -5 3.5
t-2 4.5q0 4 2 7.5t4 5.5q2 3 26 31t53 62q1 0 1.5 1t1.5 2q21 26 40.5 49t28.5 36q-7 8 -29.5 32t-49.5 51l-5.5 5.5l-5.5 5.5q-14 13 -27 26t-25 23l-11 11t-3 4t0.5 2t0.5 2q1 0 1.5 1t1.5 2v1zM266 569l30 33q1 0 2 1l2 2q1 0 2 0.5t2 0.5q2 0 7 -4.5t16 -17.5
q8 -10 28 -31.5t41 -44.5q23 -25 43 -46.5t28 -29.5q9 -9 13 -13.5t5 -8.5v-1v-1q0 -2 -4 -7.5t-15 -14.5q-8 -6 -33.5 -31t-54.5 -54q-32 -31 -59 -58l-31 -31q-6 -5 -10 -8t-8 -3h-1h-1q-3 1 -5 3.5t-2 4.5q0 4 2 7.5t4 5.5q2 3 26 31t53 62q1 0 1.5 1t1.5 2
q21 26 40.5 49t28.5 36q-7 8 -29.5 32t-49.5 51l-5.5 5.5l-5.5 5.5q-14 13 -27 26t-25 23l-11 11t-3 4t0.5 2t0.5 2q1 0 1.5 1t1.5 2v1z" />
    <glyph glyph-name="fraction" unicode="&#x2026;" horiz-adv-x="1000" 
d="M166 0q-24 0 -36.5 12.5t-15.5 28.5q0 3 -0.5 5.5t-0.5 5.5q0 4 0.5 7.5t1.5 7.5q4 15 16.5 27t34.5 12q23 0 38.5 -14t15.5 -37t-15 -39t-39 -16v0zM500 0q-24 0 -36.5 12.5t-15.5 28.5q0 3 -0.5 5.5t-0.5 5.5q0 4 0.5 7.5t1.5 7.5q4 15 16.5 27t34.5 12q23 0 38.5 -14
t15.5 -37t-15 -39t-39 -16v0zM834 0q-24 0 -36.5 12.5t-15.5 28.5q0 3 -0.5 5.5t-0.5 5.5q0 4 0.5 7.5t1.5 7.5q4 15 16.5 27t34.5 12q23 0 38.5 -14t15.5 -37t-15 -39t-39 -16v0z" />
    <glyph glyph-name="currency" unicode="&#xc0;" horiz-adv-x="700" 
d="M95 107l227 621q7 19 11 27t8 10q0 1 1 1h2h2t1 -1q4 -1 8 -8.5t11 -26.5q7 -17 45 -117t83 -216q30 -79 58.5 -151.5t46.5 -118.5q27 -67 48.5 -86.5t37.5 -24.5q11 -4 22 -5t18 -1q5 0 7.5 -1t2.5 -5t-6 -5.5t-14 -1.5h-53t-91 2h-6.5h-6.5h-4h-4q-10 1 -16 1.5t-6 4.5
q0 3 2 4.5t5 2.5h0.5t1.5 1q2 1 4.5 4.5t1.5 9.5v2v2q0 2 -0.5 4t-1.5 4l-93 247q-1 2 -3 3.5t-6 1.5l-215 1q-4 -1 -6 -3t-4 -6l-60 -176q-7 -20 -10.5 -37t-3.5 -31q0 -13 9.5 -19.5t20.5 -8.5q2 -1 4 -1h4l10 1q5 -1 7.5 -2.5t2.5 -4.5q0 -4 -4 -5.5t-11 -1.5t-15 0.5
t-17 0.5h-6h-6q-11 1 -20.5 1.5t-13.5 0.5t-15.5 -0.5t-27.5 -1.5q-11 0 -23 -0.5t-25 -0.5h-10.5h-10.5q-10 0 -14.5 1.5t-4.5 5.5q0 3 2.5 4.5t6.5 1.5h7t8 1q3 0 6.5 0.5t6.5 0.5q35 5 53 31t31 63v1zM235 328h191q4 -1 4.5 1t-0.5 5l-95 271q-4 10 -7.5 10t-7.5 -11
l-88 -269q-1 -2 -1 -3v-2t1.5 -2t2.5 -1v1zM401 830q-7 -1 -33.5 7.5t-56.5 18.5q-2 1 -4.5 1.5t-4.5 1.5q-28 10 -52 18.5t-30 10.5q-13 5 -19.5 8t-8.5 6q-1 1 -1 1.5v1.5q0 3 2 4.5t5 2.5q1 0 2 0.5t2 0.5q5 1 9.5 2.5t9.5 3.5q2 0 4 0.5t4 1.5q10 3 19 6t14 5
q6 2 9.5 3.5t6.5 1.5q1 0 2 -0.5t2 -1.5q2 -2 4.5 -5.5t6.5 -8.5q4 -4 21.5 -18t39.5 -30l8 -6t8 -5q6 -4 11 -7.5t10 -6.5q6 -4 11 -6.5t7 -5.5l0.5 -0.5t0.5 -1.5q0 -2 -2.5 -3.5t-6.5 -1.5v1z" />
    <glyph glyph-name="guilsinglleft" unicode="&#xc3;" horiz-adv-x="700" 
d="M95 107l227 621q7 19 11 27t8 10q0 1 1 1h2h2t1 -1q4 -1 8 -8.5t11 -26.5q7 -17 45 -117t83 -216q30 -79 58.5 -151.5t46.5 -118.5q27 -67 48.5 -86.5t37.5 -24.5q11 -4 22 -5t18 -1q5 0 7.5 -1t2.5 -5t-6 -5.5t-14 -1.5h-53t-91 2h-6.5h-6.5h-4h-4q-10 1 -16 1.5t-6 4.5
q0 3 2 4.5t5 2.5h0.5t1.5 1q2 1 4.5 4.5t1.5 9.5v2v2q0 2 -0.5 4t-1.5 4l-93 247q-1 2 -3 3.5t-6 1.5l-215 1q-4 -1 -6 -3t-4 -6l-60 -176q-7 -20 -10.5 -37t-3.5 -31q0 -13 9.5 -19.5t20.5 -8.5q2 -1 4 -1h4l10 1q5 -1 7.5 -2.5t2.5 -4.5q0 -4 -4 -5.5t-11 -1.5t-15 0.5
t-17 0.5h-6h-6q-11 1 -20.5 1.5t-13.5 0.5t-15.5 -0.5t-27.5 -1.5q-11 0 -23 -0.5t-25 -0.5h-10.5h-10.5q-10 0 -14.5 1.5t-4.5 5.5q0 3 2.5 4.5t6.5 1.5h7t8 1q3 0 6.5 0.5t6.5 0.5q35 5 53 31t31 63v1zM235 328h191q4 -1 4.5 1t-0.5 5l-95 271q-4 10 -7.5 10t-7.5 -11
l-88 -269q-1 -2 -1 -3v-2t1.5 -2t2.5 -1v1zM421 830q-15 -1 -29.5 3.5t-26.5 9.5q-7 4 -13 7l-10 5t-8.5 4.5t-9.5 4.5q-10 5 -22 9.5t-28 4.5q-15 0 -26.5 -6t-19.5 -13q-5 -5 -9 -9.5t-6 -7.5q-4 -4 -7.5 -6.5t-6.5 -2.5t-4.5 2t-1.5 4v2.5t1 2.5q1 2 2.5 4.5t3.5 5.5
q4 6 10 14t13 16q9 10 19 19t21 15q6 3 11.5 5t11.5 2q17 0 37 -9t42 -19q1 -1 2.5 -1.5t2.5 -1.5l5 -2.5t7 -2.5q4 -2 9 -3.5t10 -3.5q7 -2 14 -3.5t13 -1.5q15 0 26.5 4.5t19.5 10.5q6 4 10 8.5t5 5.5q1 2 2 3t2 3q2 2 4.5 3.5t3.5 1.5q3 0 5 -2t2 -4v-1.5v-1.5
q-1 -2 -1.5 -4.5t-2.5 -5.5q-2 -5 -9 -14t-16 -18q-7 -8 -15 -15t-16 -12q-7 -5 -14 -7.5t-13 -2.5v1z" />
    <glyph glyph-name="guilsinglright" unicode="&#xd5;" horiz-adv-x="915" 
d="M64 376q0 27 4.5 56.5t14.5 59.5q32 103 123.5 188.5t251.5 85.5q169 0 281 -100t112 -275q0 -168 -109 -288t-290 -120q-178 0 -269.5 99.5t-112.5 218.5q-3 19 -4.5 37.5t-1.5 36.5v1zM159 404q0 -176 92.5 -280t227.5 -104q23 0 53 5.5t61 19.5q61 29 111.5 101.5
t50.5 216.5q0 180 -92.5 274.5t-211.5 94.5q-125 0 -208.5 -82.5t-83.5 -246.5v1zM528 830q-15 -1 -29.5 3.5t-26.5 9.5q-7 4 -13 7l-10 5t-8.5 4.5t-9.5 4.5q-10 5 -22 9.5t-28 4.5q-15 0 -26.5 -6t-19.5 -13q-5 -5 -9 -9.5t-6 -7.5q-4 -4 -7.5 -6.5t-6.5 -2.5t-4.5 2
t-1.5 4v2.5t1 2.5q1 2 2.5 4.5t3.5 5.5q4 6 10 14t13 16q9 10 19 19t21 15q6 3 11.5 5t11.5 2q17 0 37 -9t42 -19q1 -1 2.5 -1.5t2.5 -1.5l5 -2.5t7 -2.5q4 -2 9 -3.5t10 -3.5q7 -2 14 -3.5t13 -1.5q15 0 26.5 4.5t19.5 10.5q6 4 10 8.5t5 5.5q1 2 2 3t2 3q2 2 4.5 3.5
t3.5 1.5q3 0 5 -2t2 -4v-1.5v-1.5q-1 -2 -1.5 -4.5t-2.5 -5.5q-2 -5 -9 -14t-16 -18q-7 -8 -15 -15t-16 -12q-7 -5 -14 -7.5t-13 -2.5v1z" />
    <glyph glyph-name="fi" unicode="&#x152;" horiz-adv-x="1187" 
d="M839 704v-276q0 -6 1 -8.5t5 -2.5h29h52q25 0 47.5 0.5t30.5 1.5q18 2 29 4.5t18 9.5q5 6 8.5 9.5t6.5 3.5q2 0 3.5 -1.5t1.5 -6.5q0 -3 -1.5 -11t-3.5 -21q-1 -5 -1.5 -11t-1.5 -13q0 -5 -0.5 -10t-1.5 -10q-1 -12 -1.5 -22.5t-0.5 -14.5v-3v-4q-1 -3 -2.5 -6t-4.5 -3
q-4 0 -5.5 3t-2.5 8q0 4 -0.5 10t-2.5 14q-1 2 -1.5 4t-2.5 4q-5 9 -18 17t-37 10q-7 1 -26.5 1.5t-40.5 0.5h-43h-26q-4 0 -5.5 -2t-1.5 -7v-44v-37.5v-39.5v-4v-4v-80.5v-48.5q2 -51 22.5 -66t93.5 -15h22.5t25.5 1t25.5 3.5t22.5 6.5q20 8 30 24t15 47q2 8 3.5 11.5
t5.5 3.5t5 -4t1 -9v-0.5v-1.5q0 -3 -1.5 -18t-4.5 -32q0 -6 -1 -11t-1 -10q-2 -8 -3 -14.5t-2 -10.5q-5 -19 -15 -22t-39 -3q-57 0 -98.5 1t-70.5 2q-30 1 -48.5 2t-29.5 1q-6 0 -11 -0.5t-9 -1.5q-4 0 -7.5 -0.5t-6.5 -0.5q-4 0 -7 1.5t-3 4.5q0 4 0.5 8t1.5 10
q0 2 0.5 5.5t0.5 6.5l2 89h-3q-9 -10 -25 -28.5t-42 -38.5q-37 -27 -94.5 -49.5t-141.5 -22.5q-179 0 -271 100.5t-112 221.5q-2 18 -3.5 35t-1.5 34q0 26 4 54t12 56q31 106 124.5 194t259.5 88q92 1 154 -26.5t99 -60.5q10 -10 19 -19.5t16 -18.5l4 1v65q0 5 -0.5 10.5
t-0.5 10.5t-0.5 8.5t-0.5 6.5q0 4 3 6.5t7 2.5q2 0 5 -0.5t6 -0.5q4 -1 9 -1.5t11 -0.5h39.5h76.5q39 0 73 0.5t42 0.5q14 1 25.5 2.5t17.5 2.5q2 0 3.5 1t2.5 1q0 1 0.5 1h0.5q2 1 3.5 1.5t3.5 0.5t3 -2.5t1 -6.5t-1.5 -10t-3.5 -16q-1 -4 -1.5 -8.5t-1.5 -10.5
q0 -4 -1 -13.5t-1 -20.5q-1 -10 -1.5 -19t-1.5 -13v-1.5v-0.5q-1 -3 -2.5 -6t-4.5 -3q-4 0 -6 3.5t-2 9.5q0 4 -0.5 10t-1.5 13q-1 3 -2 6.5t-2 6.5q-5 12 -17.5 21t-53.5 13q-6 1 -25.5 1.5t-42.5 0.5q-24 1 -44.5 1h-24.5q-3 0 -4.5 -2.5t-1.5 -9.5v1zM478 21
q23 -1 53 4.5t62 20.5q61 28 111.5 100.5t50.5 216.5q0 180 -93 274.5t-212 94.5q-124 0 -207.5 -82.5t-83.5 -246.5q0 -175 92.5 -279t226.5 -104v1z" />
    <glyph glyph-name="fl" unicode="&#x153;" horiz-adv-x="1187" 
d="M839 704v-276q0 -6 1 -8.5t5 -2.5h29h52q25 0 47.5 0.5t30.5 1.5q18 2 29 4.5t18 9.5q5 6 8.5 9.5t6.5 3.5q2 0 3.5 -1.5t1.5 -6.5q0 -3 -1.5 -11t-3.5 -21q-1 -5 -1.5 -11t-1.5 -13q0 -5 -0.5 -10t-1.5 -10q-1 -12 -1.5 -22.5t-0.5 -14.5v-3v-4q-1 -3 -2.5 -6t-4.5 -3
q-4 0 -5.5 3t-2.5 8q0 4 -0.5 10t-2.5 14q-1 2 -1.5 4t-2.5 4q-5 9 -18 17t-37 10q-7 1 -26.5 1.5t-40.5 0.5h-43h-26q-4 0 -5.5 -2t-1.5 -7v-44v-37.5v-39.5v-4v-4v-80.5v-48.5q2 -51 22.5 -66t93.5 -15h22.5t25.5 1t25.5 3.5t22.5 6.5q20 8 30 24t15 47q2 8 3.5 11.5
t5.5 3.5t5 -4t1 -9v-0.5v-1.5q0 -3 -1.5 -18t-4.5 -32q0 -6 -1 -11t-1 -10q-2 -8 -3 -14.5t-2 -10.5q-5 -19 -15 -22t-39 -3q-37 0 -68 0.5t-57 1.5q-12 0 -23 0.5t-21 0.5q-29 1 -48 2t-30 1q-6 0 -11 -0.5t-9 -1.5q-4 0 -7.5 -0.5t-6.5 -0.5q-4 0 -7 1.5t-3 4.5q0 4 0.5 8
t1.5 10q0 2 0.5 5.5t0.5 6.5l2 89h-3q-9 -10 -25 -28.5t-42 -38.5q-37 -27 -94.5 -49.5t-141.5 -22.5q-179 0 -271 100.5t-112 221.5q-2 18 -3.5 35t-1.5 34q0 26 4 54t12 56q31 106 124.5 194t259.5 88q92 1 154 -26.5t99 -60.5q10 -10 19 -19.5t16 -18.5l4 1v65
q0 5 -0.5 10.5t-0.5 10.5t-0.5 8.5t-0.5 6.5q0 4 3 6.5t7 2.5q2 0 5 -0.5t6 -0.5q4 -1 9 -1.5t11 -0.5h39.5h76.5q39 0 73 0.5t42 0.5q14 1 25.5 2.5t17.5 2.5q2 0 3.5 1t2.5 1q0 1 0.5 1h0.5q2 1 3.5 1.5t3.5 0.5t3 -2.5t1 -6.5t-1.5 -10t-3.5 -16q-1 -4 -1.5 -8.5
t-1.5 -10.5q0 -4 -1 -13.5t-1 -20.5q-1 -10 -1.5 -19t-1.5 -13v-1.5v-0.5q-1 -3 -2.5 -6t-4.5 -3q-4 0 -6 3.5t-2 9.5q0 4 -0.5 10t-1.5 13q-1 3 -2 6.5t-2 6.5q-5 12 -17.5 21t-53.5 13q-6 1 -25.5 1.5t-42.5 0.5q-24 1 -44.5 1h-24.5q-3 0 -4.5 -2.5t-1.5 -9.5v1zM478 21
q23 -1 53 4.5t62 20.5q61 28 111.5 100.5t50.5 216.5q0 180 -93 274.5t-212 94.5q-124 0 -207.5 -82.5t-83.5 -246.5q0 -175 92.5 -279t226.5 -104v1z" />
    <glyph glyph-name="daggerdbl" horiz-adv-x="500" 
d="M0 382v46h500v-46h-500v0z" />
    <glyph glyph-name="periodcentered" unicode="&#x2014;" horiz-adv-x="1000" 
d="M1000 382h-1000v46h1000v-46v0z" />
    <glyph glyph-name="quotedblbase" unicode="&#x201c;" 
d="M113 659q0 -17 4 -30.5t8 -22.5q2 -5 4 -8t4 -5q5 -5 6.5 -8l2.5 -5v-2v-2q0 -2 -2 -3.5t-5 -2.5h-0.5h-1.5q-6 0 -15.5 2t-19.5 5q-3 1 -6.5 2t-6.5 2q-7 2 -12.5 4t-9.5 3q-1 0 -1.5 0.5l-1.5 1.5q-7 4 -10.5 9t-3.5 15q0 13 2 26t6 26q8 29 22 57t29 51q7 11 14 20
t13 17q3 5 6 6.5t7 1.5h0.5h1.5l2 -2t1 -3t-1 -5t-3 -8q-2 -3 -3.5 -7t-3.5 -8q-9 -24 -17.5 -57.5t-8.5 -70.5v1zM243 659q0 -17 4 -30.5t8 -22.5q2 -5 4 -8t4 -5q5 -5 6.5 -8l2.5 -5v-2v-2q0 -2 -2 -3.5t-5 -2.5h-0.5h-1.5q-6 0 -15.5 2t-19.5 5q-3 1 -6.5 2t-6.5 2
q-7 2 -12.5 4t-9.5 3q-1 0 -1.5 0.5l-1.5 1.5q-7 4 -10.5 9t-3.5 15q0 13 2 26t6 26q8 29 22 57t29 51q7 11 14 20t13 17q3 5 6 6.5t7 1.5h0.5h1.5l2 -2t1 -3t-1 -5t-3 -8q-2 -3 -3.5 -7t-3.5 -8q-9 -24 -17.5 -57.5t-8.5 -70.5v1z" />
    <glyph glyph-name="perthousand" unicode="&#x201d;" 
d="M82 732q0 15 -4 28.5t-8 22.5q-2 5 -4 8t-4 5q-4 5 -6 8t-3 6v1v2q0 2 2 3.5t5 2.5h1h1q6 0 15.5 -2t19.5 -5q3 -1 6.5 -2t6.5 -2q7 -2 12.5 -3.5t9.5 -3.5q1 0 1.5 -0.5l1.5 -1.5q7 -4 10.5 -9t3.5 -15q0 -13 -2 -26t-6 -26q-8 -29 -22 -57t-29 -51q-7 -11 -14 -20
t-13 -17q-3 -4 -6 -6t-7 -2h-0.5h-1.5l-2 2t-1 3t1 5t3 8q2 3 3.5 7t3.5 8q9 24 17.5 57.5t8.5 70.5v1zM212 732q0 15 -4 28.5t-8 22.5q-2 5 -4 8t-4 5q-4 5 -6 8t-3 6v1v2q0 2 2 3.5t5 2.5h1h1q6 0 15.5 -2t19.5 -5q3 -1 6.5 -2t6.5 -2q7 -2 12.5 -3.5t9.5 -3.5
q1 0 1.5 -0.5l1.5 -1.5q7 -4 10.5 -9t3.5 -15q0 -13 -2 -26t-6 -26q-8 -29 -22 -57t-29 -51q-7 -11 -14 -20t-13 -17q-3 -4 -6 -6t-7 -2h-0.5h-1.5l-2 2t-1 3t1 5t3 8q2 3 3.5 7t3.5 8q9 24 17.5 57.5t8.5 70.5v1z" />
    <glyph glyph-name="Acircumflex" unicode="&#x2018;" horiz-adv-x="200" 
d="M115 659q0 -17 4 -30.5t8 -22.5q2 -5 4 -8t4 -5q5 -5 6.5 -8l2.5 -5v-2v-2q0 -2 -2 -3.5t-5 -2.5h-0.5h-1.5q-6 0 -15.5 2t-19.5 5q-3 1 -6.5 2t-6.5 2q-7 2 -12.5 4t-9.5 3q-1 0 -1.5 0.5l-1.5 1.5q-7 4 -10.5 9t-3.5 15q0 13 2 26t6 26q8 29 22 57t29 51q7 11 14 20
t13 17q3 5 6 6.5t7 1.5h0.5h1.5l2 -2t1 -3t-1 -5t-3 -8q-2 -3 -3.5 -7t-3.5 -8q-9 -24 -17.5 -57.5t-8.5 -70.5v1z" />
    <glyph glyph-name="Ecircumflex" unicode="&#x2019;" horiz-adv-x="200" 
d="M85 732q0 15 -4 28.5t-8 22.5q-2 5 -4 8t-4 5q-4 5 -6 8t-3 6v1v2q0 2 2 3.5t5 2.5h1h1q6 0 15.5 -2t19.5 -5q3 -1 6.5 -2t6.5 -2q7 -2 12.5 -3.5t9.5 -3.5q1 0 1.5 -0.5l1.5 -1.5q7 -4 10.5 -9t3.5 -15q0 -13 -2 -26t-6 -26q-8 -29 -22 -57t-29 -51q-7 -11 -14 -20
t-13 -17q-3 -4 -6 -6t-7 -2h-0.5h-1.5l-2 2t-1 3t1 5t3 8q2 3 3.5 7t3.5 8q9 24 17.5 57.5t8.5 70.5v1z" />
    <glyph glyph-name="Aacute" unicode="&#xf7;" 
 />
    <glyph glyph-name="Edieresis" unicode="&#x25ca;" 
 />
    <glyph glyph-name="Egrave" unicode="&#xff;" horiz-adv-x="654" 
d="M289 170v86q0 32 -4.5 52t-11.5 37q-2 4 -3.5 7.5t-3.5 7.5q-3 7 -30 51.5t-59 97.5q-1 1 -1.5 2.5t-1.5 2.5q-26 42 -49.5 79.5t-34.5 54.5q-19 28 -36.5 46.5t-31.5 27.5q-3 2 -6.5 4t-7.5 4q-8 4 -15.5 6t-12.5 2q-4 0 -7 1.5t-3 5.5q0 3 3 5t10 2q6 0 19 -0.5
t27 -0.5h4t4 -1q16 0 29 -0.5t15 -0.5q3 0 11 0.5t19 1.5q11 0 25 0.5t29 0.5q8 0 10.5 -2t2.5 -5q0 -1 -1 -2.5t-3 -1.5q-2 -1 -5 -2t-6 -3q-6 -3 -9.5 -7.5t-3.5 -10.5q0 -9 3.5 -18.5t9.5 -20.5t33.5 -58t58.5 -102q31 -53 58 -99t34 -57q7 15 30 57t50 89q1 1 1.5 2.5
t1.5 2.5q27 48 51.5 89.5t31.5 53.5q10 16 13.5 28.5t3.5 22.5q0 11 -3.5 18.5t-12.5 9.5q-2 1 -3.5 1.5t-2.5 0.5q-4 2 -6.5 3.5t-2.5 4.5t4.5 4.5t11.5 1.5h8h8q6 -1 12 -1h12q9 -1 16 -1.5t10 -0.5q2 0 15 0.5t29 1.5h3h4q14 0 27 0.5t19 0.5q5 0 9 -1.5t4 -4.5
q0 -4 -3.5 -6t-9.5 -2t-14.5 -1.5t-17.5 -5.5q-4 -2 -7.5 -3.5t-6.5 -3.5q-7 -4 -12.5 -8t-10.5 -10q-7 -6 -14 -14t-16 -19q-12 -14 -38 -55t-55 -89q-2 -4 -4.5 -8t-4.5 -7q-31 -52 -56.5 -97.5t-32.5 -61.5q-8 -19 -11 -37t-4 -35v-14v-14v-85q0 -13 0.5 -41t2.5 -60
q2 -22 10.5 -37t30.5 -18q4 -1 8.5 -1.5t9.5 -0.5q8 -1 15.5 -1.5t11.5 -0.5q5 0 6.5 -2t1.5 -4q0 -4 -4 -5.5t-12 -1.5h-10h-10q-16 0 -31.5 0.5t-28.5 0.5q-18 1 -29.5 1.5t-13.5 0.5t-13.5 -0.5t-26.5 -1.5h-8h-9q-11 0 -22 -0.5t-19 -0.5t-12 1.5t-4 5.5q0 2 2 4t6 2
q3 0 7 0.5t8 0.5q4 1 8 1.5t7 1.5q15 3 22.5 18t8.5 37q2 32 2.5 60t0.5 40v1zM251 830q-19 -1 -28.5 9.5t-12.5 22.5q0 2 -0.5 5t-0.5 5q0 3 0.5 6t1.5 6q3 12 13 21.5t28 9.5t30.5 -10.5t12.5 -29.5t-12 -32.5t-32 -13.5v1zM452 830q-19 -1 -28.5 9.5t-12.5 22.5
q0 2 -0.5 5t-0.5 5q0 3 0.5 6t1.5 6q3 12 13 21.5t28 9.5t30.5 -10.5t12.5 -29.5t-12 -32.5t-32 -13.5v1z" />
    <glyph glyph-name="Iacute" unicode="&#x178;" horiz-adv-x="654" 
d="M289 170v86q0 32 -4.5 52t-11.5 37q-2 4 -3.5 7.5t-3.5 7.5q-3 7 -30 51.5t-59 97.5q-1 1 -1.5 2.5t-1.5 2.5q-26 42 -49.5 79.5t-34.5 54.5q-19 28 -36.5 46.5t-31.5 27.5q-3 2 -6.5 4t-7.5 4q-8 4 -15.5 6t-12.5 2q-4 0 -7 1.5t-3 5.5q0 3 3 5t10 2q6 0 19 -0.5
t27 -0.5h4t4 -1q16 0 29 -0.5t15 -0.5q3 0 11 0.5t19 1.5q11 0 25 0.5t29 0.5q8 0 10.5 -2t2.5 -5q0 -1 -1 -2.5t-3 -1.5q-2 -1 -5 -2t-6 -3q-6 -3 -9.5 -7.5t-3.5 -10.5q0 -9 3.5 -18.5t9.5 -20.5t33.5 -58t58.5 -102q31 -53 58 -99t34 -57q7 15 30 57t50 89q1 1 1.5 2.5
t1.5 2.5q27 48 51.5 89.5t31.5 53.5q10 16 13.5 28.5t3.5 22.5q0 11 -3.5 18.5t-12.5 9.5q-2 1 -3.5 1.5t-2.5 0.5q-4 2 -6.5 3.5t-2.5 4.5t4.5 4.5t11.5 1.5h8h8q6 -1 12 -1h12q9 -1 16 -1.5t10 -0.5q2 0 15 0.5t29 1.5h3h4q14 0 27 0.5t19 0.5q5 0 9 -1.5t4 -4.5
q0 -4 -3.5 -6t-9.5 -2t-14.5 -1.5t-17.5 -5.5q-4 -2 -7.5 -3.5t-6.5 -3.5q-7 -4 -12.5 -8t-10.5 -10q-7 -6 -14 -14t-16 -19q-12 -14 -38 -55t-55 -89q-2 -4 -4.5 -8t-4.5 -7q-31 -52 -56.5 -97.5t-32.5 -61.5q-8 -19 -11 -37t-4 -35v-14v-14v-85q0 -13 0.5 -41t2.5 -60
q2 -22 10.5 -37t30.5 -18q4 -1 8.5 -1.5t9.5 -0.5q8 -1 15.5 -1.5t11.5 -0.5q5 0 6.5 -2t1.5 -4q0 -4 -4 -5.5t-12 -1.5h-10h-10q-16 0 -31.5 0.5t-28.5 0.5q-18 1 -29.5 1.5t-13.5 0.5t-13.5 -0.5t-26.5 -1.5h-8h-9q-11 0 -22 -0.5t-19 -0.5t-12 1.5t-4 5.5q0 2 2 4t6 2
q3 0 7 0.5t8 0.5q4 1 8 1.5t7 1.5q15 3 22.5 18t8.5 37q2 32 2.5 60t0.5 40v1zM251 830q-19 -1 -28.5 9.5t-12.5 22.5q0 2 -0.5 5t-0.5 5q0 3 0.5 6t1.5 6q3 12 13 21.5t28 9.5t30.5 -10.5t12.5 -29.5t-12 -32.5t-32 -13.5v1zM452 830q-19 -1 -28.5 9.5t-12.5 22.5
q0 2 -0.5 5t-0.5 5q0 3 0.5 6t1.5 6q3 12 13 21.5t28 9.5t30.5 -10.5t12.5 -29.5t-12 -32.5t-32 -13.5v1z" />
    <glyph glyph-name="Icircumflex" unicode="&#x2215;" horiz-adv-x="500" 
 />
    <glyph glyph-name="Idieresis" unicode="&#xa4;" horiz-adv-x="500" 
 />
    <glyph glyph-name="Igrave" unicode="&#x2039;" horiz-adv-x="375" 
d="M294 240l-30 -33q-1 -2 -2 -3l-2 -2q-1 0 -2 -0.5t-2 -0.5t-6.5 4.5t-16.5 17.5q-8 10 -28 31.5t-41 44.5q-23 25 -43 46.5t-28 29.5q-9 9 -13 13.5t-5 8.5v1.5v0.5q0 2 4.5 7.5t14.5 14.5q8 6 33.5 31t54.5 54q32 31 59 58l31 31q6 5 10 8t8 3h1.5h0.5q3 -1 5 -3t2 -5
q0 -4 -2 -7.5t-4 -5.5q-2 -3 -26 -31t-53 -62q-1 0 -1.5 -1t-1.5 -2q-21 -26 -40.5 -49t-28.5 -36q7 -8 29.5 -32t49.5 -51l5.5 -5.5l5.5 -5.5q14 -13 27 -26t25 -23q8 -7 11 -10t3 -5q0 -1 -0.5 -2l-0.5 -1q-1 -1 -1.5 -2t-1.5 -2v1z" />
    <glyph glyph-name="Oacute" unicode="&#x203a;" horiz-adv-x="375" 
d="M81 569l30 33q1 0 2 1l2 2q1 0 2 0.5t2 0.5q2 0 7 -4.5t16 -17.5q8 -10 28 -31.5t41 -44.5q23 -25 43 -46.5t28 -29.5q9 -9 13 -13.5t5 -8.5v-1v-1q0 -2 -4 -7.5t-15 -14.5q-8 -6 -33.5 -31t-54.5 -54q-32 -31 -59 -58l-31 -31q-6 -5 -10 -8t-8 -3h-1h-1q-3 1 -5 3.5
t-2 4.5q0 4 2 7.5t4 5.5q2 3 26 31t53 62q1 0 1.5 1t1.5 2q21 26 40.5 49t28.5 36q-7 8 -29.5 32t-49.5 51l-5.5 5.5l-5.5 5.5q-14 13 -27 26t-25 23l-11 11t-3 4t0.5 2t0.5 2q1 0 1.5 1t1.5 2v1z" />
    <glyph glyph-name="Ocircumflex" unicode="&#xf001;" horiz-adv-x="1032" 
d="M178 287v176v150.5t-2 61.5v1.5v1.5q-1 26 -9.5 39t-33.5 18q-3 1 -8 1.5t-10 0.5q-4 1 -8.5 1h-7.5t-5.5 1.5t-2.5 4.5q0 5 4 6.5t12 1.5h16.5h17.5q10 -1 19.5 -1h18.5q16 -1 27.5 -1.5t13.5 -0.5h44.5h78.5t78 0.5t45 0.5h7t7 1q9 0 17 0.5t13 2.5l3 1.5t2 0.5
q3 2 5 3t4 1q3 0 4.5 -2.5t1.5 -6.5t-1.5 -10t-3.5 -17q-1 -4 -1.5 -9t-1.5 -11q0 -4 -1 -13.5t-1 -20.5q-1 -10 -1.5 -19t-1.5 -13v-1.5v-0.5q-1 -3 -3 -6t-5 -3q-4 0 -5.5 3.5t-1.5 8.5q0 4 -1 11t-3 14q-1 4 -2.5 7t-2.5 6q-1 2 -2.5 4.5t-4.5 4.5q-8 9 -23 15.5t-38 7.5
l-154 4q-4 -1 -6.5 -3.5t-2.5 -8.5v-275q0 -5 1.5 -7.5t5.5 -2.5l128 2q13 -1 24 -1t21 1q18 2 28.5 5t17.5 13q2 2 3 3.5t3 3.5q1 1 2.5 2t2.5 1q3 0 4 -2t1 -6q0 -3 -1.5 -11t-3.5 -21q-1 -5 -1.5 -11t-1.5 -13q-1 -6 -1.5 -13.5t-0.5 -14.5q-1 -13 -1.5 -24.5t-0.5 -14.5
v-1.5v-0.5q0 -7 -1 -12t-6 -5q-4 0 -5.5 2.5t-1.5 6.5q0 5 -1 11t-2 13q0 3 -1 6l-2 6q-1 2 -2 4.5t-3 5.5q-6 8 -17.5 16t-29.5 10q-9 1 -30 1.5t-44 1.5h-48h-29q-4 0 -5.5 -2t-1.5 -7v-84q0 -73 0.5 -129.5t4.5 -88.5q2 -22 9.5 -37t29.5 -18q4 -1 8.5 -1.5t9.5 -0.5
q8 -1 15.5 -1.5t11.5 -0.5q5 0 6.5 -2t1.5 -4q0 -4 -4 -5.5t-12 -1.5h-10h-10q-16 0 -31.5 0.5t-28.5 0.5q-18 1 -29.5 1.5t-13.5 0.5t-13.5 -0.5t-26.5 -1.5h-8h-9q-11 0 -22 -0.5t-19 -0.5t-12 1.5t-4 5.5q0 2 2 4t6 2q3 0 7 0.5t8 0.5q4 1 8 1.5t7 1.5q15 3 20.5 18
t8.5 37q4 32 4.5 88.5t0.5 128.5v1zM854 463v-176q0 -73 0.5 -129.5t4.5 -88.5q2 -22 9.5 -37t29.5 -18q4 -1 8.5 -1.5t9.5 -0.5q8 -1 15.5 -1.5t11.5 -0.5q5 0 6.5 -2t1.5 -4q0 -4 -4 -5.5t-12 -1.5h-10h-10q-16 0 -31.5 0.5t-28.5 0.5q-18 1 -29.5 1.5t-13.5 0.5
t-13.5 -0.5t-26.5 -1.5h-8h-9q-11 0 -22 -0.5t-19 -0.5t-12 1.5t-4 5.5q0 2 2 4t6 2q3 0 7 0.5t8 0.5q4 1 8 1.5t7 1.5q15 3 20.5 18t8.5 37q4 32 4.5 88.5t0.5 128.5v177v150.5t-2 61.5v1.5v1.5q-1 26 -9 39t-25 17q-2 1 -4 1.5t-4 0.5q-7 1 -13 1.5t-10 0.5q-3 0 -5.5 1.5
t-2.5 4.5q0 5 4 6.5t12 1.5h19t22 -1h10h10q15 -1 26.5 -1.5t13.5 -0.5t13.5 0.5t26.5 1.5h8h9q11 0 22 0.5t19 0.5t12 -1.5t4 -6.5q0 -3 -2.5 -4.5t-5.5 -1.5h-1.5h-1.5q-4 0 -9 -1t-13 -2q-20 -4 -27.5 -17.5t-9.5 -39.5v-1.5v-1.5q-2 -23 -2 -61.5v-151.5v1z" />
    <glyph glyph-name="Ograve" unicode="&#xf002;" horiz-adv-x="1184" 
d="M854 463v-178q0 -111 4.5 -163.5t17.5 -66.5q12 -12 37 -17.5t83 -5.5q40 0 71.5 4t49.5 26q6 7 11 16.5t8 18.5q3 7 4.5 13t2.5 12t3 9.5t6 3.5t5 -3.5t1 -11.5q0 -5 -2 -21.5t-4 -35.5q-2 -12 -4.5 -23.5t-4.5 -19.5q0 -1 -0.5 -2.5t-1.5 -2.5q-4 -14 -14 -17.5
t-47 -3.5q-54 0 -94.5 1t-71.5 2q-32 1 -56 2t-46 1q-3 0 -14.5 -0.5t-26.5 -1.5h-8h-8q-11 0 -22 -0.5t-19 -0.5t-12 1.5t-4 5.5q0 2 2 4t6 2q3 0 7 0.5t8 0.5q4 1 8 1.5t7 1.5q15 3 20.5 18t8.5 37q4 32 4.5 88.5t0.5 128.5v177v150.5t-2 61.5v1.5v1.5q-1 26 -9.5 39
t-33.5 18q-3 1 -8 1.5t-10 0.5q-4 1 -8.5 1h-7.5t-5.5 1.5t-2.5 4.5q0 5 4 6.5t12 1.5h16.5h17.5q10 -1 19.5 -1h18.5q16 -1 27.5 -1.5t13.5 -0.5t15 0.5t30 1.5h7h8q14 0 26.5 0.5t21.5 0.5q8 0 12 -1.5t4 -6.5q0 -3 -2.5 -4.5t-5.5 -1.5q-4 0 -11 -0.5t-14 -1.5
q-2 0 -4 -0.5t-4 -0.5q-22 -4 -29.5 -17.5t-9.5 -39.5v-1.5v-1.5q-2 -23 -2 -61.5v-151.5v1zM178 287v176v150.5t-2 61.5v1.5v1.5q-1 26 -9.5 39t-33.5 18q-3 1 -8 1.5t-10 0.5q-4 1 -8.5 1h-7.5t-5.5 1.5t-2.5 4.5q0 5 4 6.5t12 1.5h16.5h17.5q10 -1 19.5 -1h18.5
q16 -1 27.5 -1.5t13.5 -0.5h44.5h78.5t78 0.5t45 0.5h7t7 1q9 0 17 0.5t13 2.5l3 1.5t2 0.5q3 2 5 3t4 1q3 0 4.5 -2.5t1.5 -6.5t-1.5 -10t-3.5 -17q-1 -4 -1.5 -9t-1.5 -11q0 -4 -1 -13.5t-1 -20.5q-1 -10 -1.5 -19t-1.5 -13v-1.5v-0.5q-1 -3 -3 -6t-5 -3q-4 0 -5.5 3.5
t-1.5 8.5q0 4 -1 11t-3 14q-1 4 -2.5 7t-2.5 6q-1 2 -2.5 4.5t-4.5 4.5q-8 9 -23 15.5t-38 7.5l-154 4q-4 -1 -6.5 -3.5t-2.5 -8.5v-275q0 -5 1.5 -7.5t5.5 -2.5l128 2q13 -1 24 -1t21 1q18 2 28.5 5t17.5 13q2 2 3 3.5t3 3.5q1 1 2.5 2t2.5 1q3 0 4 -2t1 -6q0 -3 -1.5 -11
t-3.5 -21q-1 -5 -1.5 -11t-1.5 -13q-1 -6 -1.5 -13.5t-0.5 -14.5q-1 -13 -1.5 -24.5t-0.5 -14.5v-1.5v-0.5q0 -7 -1 -12t-6 -5q-4 0 -5.5 2.5t-1.5 6.5q0 5 -1 11t-2 13q0 3 -1 6l-2 6q-1 2 -2 4.5t-3 5.5q-6 8 -17.5 16t-29.5 10q-9 1 -30 1.5t-44 1.5h-48h-29
q-4 0 -5.5 -2t-1.5 -7v-84q0 -73 0.5 -129.5t4.5 -88.5q2 -22 9.5 -37t29.5 -18q4 -1 8.5 -1.5t9.5 -0.5q8 -1 15.5 -1.5t11.5 -0.5q5 0 6.5 -2t1.5 -4q0 -4 -4 -5.5t-12 -1.5h-10h-10q-16 0 -31.5 0.5t-28.5 0.5q-18 1 -29.5 1.5t-13.5 0.5t-13.5 -0.5t-26.5 -1.5h-8h-9
q-11 0 -22 -0.5t-19 -0.5t-12 1.5t-4 5.5q0 2 2 4t6 2q3 0 7 0.5t8 0.5q4 1 8 1.5t7 1.5q15 3 20.5 18t8.5 37q4 32 4.5 88.5t0.5 128.5v1z" />
    <glyph glyph-name="Uacute" unicode="&#x2021;" horiz-adv-x="500" 
 />
    <glyph glyph-name="Ucircumflex" unicode="&#x2219;" horiz-adv-x="250" 
d="M124 332q-24 -1 -37 13t-16 30q-1 3 -1 5.5v5.5q0 4 0.5 8t1.5 8q5 15 17.5 27t35.5 12t39 -14t16 -38t-15 -41t-41 -17v1z" />
    <glyph glyph-name="Ugrave" unicode="&#x201a;" 
 />
    <glyph glyph-name="dotlessi" unicode="&#x201e;" 
d="M82 49q0 15 -4 28.5t-8 22.5q-2 5 -4 8t-4 5q-4 5 -6 8t-3 6v1v2q0 2 2 3.5t5 2.5h1h1q6 0 15.5 -2t19.5 -5q3 -1 6.5 -2t6.5 -2q7 -2 12.5 -3.5t9.5 -3.5q1 0 1.5 -0.5l1.5 -1.5q7 -4 10.5 -9t3.5 -15q0 -13 -2 -26t-6 -26q-8 -29 -22 -56.5t-29 -50.5q-7 -11 -14 -20
t-13 -17q-3 -5 -6 -6.5t-7 -1.5h-0.5h-1.5l-2 2t-1 3t1 5t3 8q2 3 3.5 7t3.5 8q9 24 17.5 57t8.5 70v1zM212 49q0 15 -4 28.5t-8 22.5q-2 5 -4 8t-4 5q-4 5 -6 8t-3 6v1v2q0 2 2 3.5t5 2.5h1h1q6 0 15.5 -2t19.5 -5q3 -1 6.5 -2t6.5 -2q7 -2 12.5 -3.5t9.5 -3.5
q1 0 1.5 -0.5l1.5 -1.5q7 -4 10.5 -9t3.5 -15q0 -13 -2 -26t-6 -26q-8 -29 -22 -56.5t-29 -50.5q-7 -11 -14 -20t-13 -17q-3 -5 -6 -6.5t-7 -1.5h-0.5h-1.5l-2 2t-1 3t1 5t3 8q2 3 3.5 7t3.5 8q9 24 17.5 57t8.5 70v1z" />
    <glyph glyph-name="circumflex" unicode="&#x2030;" horiz-adv-x="500" 
 />
    <glyph glyph-name="tilde" unicode="&#xc2;" horiz-adv-x="700" 
d="M95 107l227 621q7 19 11 27t8 10q0 1 1 1h2h2t1 -1q4 -1 8 -8.5t11 -26.5q7 -17 45 -117t83 -216q30 -79 58.5 -151.5t46.5 -118.5q27 -67 48.5 -86.5t37.5 -24.5q11 -4 22 -5t18 -1q5 0 7.5 -1t2.5 -5t-6 -5.5t-14 -1.5h-53t-91 2h-6.5h-6.5h-4h-4q-10 1 -16 1.5t-6 4.5
q0 3 2 4.5t5 2.5h0.5t1.5 1q2 1 4.5 4.5t1.5 9.5v2v2q0 2 -0.5 4t-1.5 4l-93 247q-1 2 -3 3.5t-6 1.5l-215 1q-4 -1 -6 -3t-4 -6l-60 -176q-7 -20 -10.5 -37t-3.5 -31q0 -13 9.5 -19.5t20.5 -8.5q2 -1 4 -1h4l10 1q5 -1 7.5 -2.5t2.5 -4.5q0 -4 -4 -5.5t-11 -1.5t-15 0.5
t-17 0.5h-6h-6q-11 1 -20.5 1.5t-13.5 0.5t-15.5 -0.5t-27.5 -1.5q-11 0 -23 -0.5t-25 -0.5h-10.5h-10.5q-10 0 -14.5 1.5t-4.5 5.5q0 3 2.5 4.5t6.5 1.5h7t8 1q3 0 6.5 0.5t6.5 0.5q35 5 53 31t31 63v1zM235 328h191q4 -1 4.5 1t-0.5 5l-95 271q-4 10 -7.5 10t-7.5 -11
l-88 -269q-1 -2 -1 -3v-2t1.5 -2t2.5 -1v1zM477 845l-21 -22q-2 -3 -3.5 -4.5t-2.5 -1.5q-1 -1 -1.5 -1h-1.5h-2t-2 1l-2 2l-2 2q-5 6 -13 13t-17 15q-2 2 -4.5 4t-4.5 4q-15 11 -27.5 20.5t-17.5 12.5q-3 2 -5.5 3t-4.5 1q-3 0 -6.5 -1t-9.5 -4q-9 -5 -20.5 -13t-23.5 -17
q-2 -2 -5 -4t-5 -4q-9 -7 -16.5 -13t-14.5 -12q-6 -5 -11 -7.5t-7 -2.5q-3 0 -5 2.5t-2 5.5q0 2 0.5 3l1.5 3q1 1 2 2.5t2 2.5q4 4 20.5 19.5t35.5 32.5q19 18 35.5 33t20.5 19q6 5 10 7.5t6 2.5q3 0 6.5 -2.5t9.5 -7.5q3 -2 18 -13.5t33 -24.5q16 -13 30.5 -23.5
t19.5 -14.5q7 -4 9.5 -6t2.5 -4t-1 -3.5t-2 -3.5q-1 0 -1.5 -0.5t-0.5 -1.5v1z" />
    <glyph glyph-name="macron" unicode="&#xca;" horiz-adv-x="610" 
d="M178 287v176v150.5t-2 61.5v1.5v1.5q-1 26 -9.5 39t-33.5 18q-3 1 -8 1.5t-10 0.5q-4 1 -8.5 1h-7.5t-5.5 1.5t-2.5 4.5q0 5 4 6.5t12 1.5h16.5h17.5q10 -1 19.5 -1h18.5q16 -1 27.5 -1.5t13.5 -0.5h38.5h76.5q39 0 72.5 0.5t41.5 0.5q14 1 25.5 2.5t17.5 2.5q2 0 3.5 1
t2.5 1q0 1 0.5 1h0.5q2 1 3.5 1.5t3.5 0.5t3 -2.5t1 -6.5t-1.5 -10t-3.5 -17q-1 -4 -1.5 -9t-1.5 -11q0 -4 -1 -13.5t-1 -20.5q-1 -10 -1.5 -19t-1.5 -13v-1.5v-0.5q-1 -3 -2.5 -6t-4.5 -3q-4 0 -6 3.5t-2 9.5q0 4 -0.5 10t-1.5 13q-1 3 -2 6.5t-2 6.5q-5 12 -17.5 21
t-53.5 13q-6 1 -25.5 1.5t-42.5 0.5q-24 1 -44.5 1h-24.5q-3 0 -4.5 -2.5t-1.5 -7.5v-275q0 -6 1 -8.5t5 -2.5h29h52q25 0 47.5 0.5t30.5 1.5q18 2 29 4.5t18 9.5q5 6 8.5 9.5t6.5 3.5q2 0 3.5 -1.5t1.5 -6.5q0 -3 -1.5 -11t-3.5 -21q-1 -5 -1.5 -11t-1.5 -13
q-1 -5 -1.5 -12t-0.5 -14q-1 -13 -1.5 -24t-0.5 -14v-2.5v-2.5q0 -6 -1.5 -10t-5.5 -4t-5.5 2.5t-1.5 6.5q0 8 -0.5 15.5t-3.5 17.5q-1 2 -1.5 4t-1.5 4q-4 9 -14.5 17t-34.5 10q-9 1 -28.5 2t-40.5 1q-25 1 -46 1.5t-28 0.5q-4 0 -5.5 -2t-1.5 -5v-87v-24v-32v-13.5v-13.5
v-55v-34q2 -52 22.5 -67t93.5 -15h22.5t25.5 1t25.5 3.5t22.5 6.5q20 8 30 24.5t15 47.5q2 8 3.5 11.5t5.5 3.5t5 -4t1 -9v-0.5v-1.5q0 -3 -1.5 -18.5t-4.5 -32.5q0 -5 -1 -10.5t-1 -10.5q-2 -7 -3 -14t-2 -11q-5 -19 -15 -22t-39 -3q-57 0 -98.5 1t-70.5 2q-30 1 -48.5 2
t-29.5 1q-2 0 -13.5 -0.5t-26.5 -1.5h-8h-9q-11 0 -22 -0.5t-19 -0.5t-12 1.5t-4 5.5q0 2 2 4t6 2q3 0 7 0.5t8 0.5q4 1 8 1.5t7 1.5q15 3 20.5 18t8.5 37q4 32 4.5 88.5t0.5 128.5v1zM452 845l-21 -22q-2 -3 -3.5 -4.5t-2.5 -1.5q-1 -1 -1.5 -1h-1.5h-2t-2 1l-2 2l-2 2
q-5 6 -13 13t-17 15q-2 2 -4.5 4t-4.5 4q-15 11 -27.5 20.5t-17.5 12.5q-3 2 -5.5 3t-4.5 1q-3 0 -6.5 -1t-9.5 -4q-9 -5 -20.5 -13t-23.5 -17q-2 -2 -5 -4t-5 -4q-9 -7 -16.5 -13t-14.5 -12q-6 -5 -11 -7.5t-7 -2.5q-3 0 -5 2.5t-2 5.5q0 2 0.5 3l1.5 3q1 1 2 2.5t2 2.5
q4 4 20.5 19.5t35.5 32.5q19 18 35.5 33t20.5 19q6 5 10 7.5t6 2.5q3 0 6.5 -2.5t9.5 -7.5q3 -2 18 -13.5t33 -24.5q16 -13 30.5 -23.5t19.5 -14.5q7 -4 9.5 -6t2.5 -4t-1 -3.5t-2 -3.5q-1 0 -1.5 -0.5t-0.5 -1.5v1z" />
    <glyph glyph-name="breve" unicode="&#xc1;" horiz-adv-x="700" 
d="M95 107l227 621q7 19 11 27t8 10q0 1 1 1h2h2t1 -1q4 -1 8 -8.5t11 -26.5q7 -17 45 -117t83 -216q30 -79 58.5 -151.5t46.5 -118.5q27 -67 48.5 -86.5t37.5 -24.5q11 -4 22 -5t18 -1q5 0 7.5 -1t2.5 -5t-6 -5.5t-14 -1.5h-53t-91 2h-6.5h-6.5h-4h-4q-10 1 -16 1.5t-6 4.5
q0 3 2 4.5t5 2.5h0.5t1.5 1q2 1 4.5 4.5t1.5 9.5v2v2q0 2 -0.5 4t-1.5 4l-93 247q-1 2 -3 3.5t-6 1.5l-215 1q-4 -1 -6 -3t-4 -6l-60 -176q-7 -20 -10.5 -37t-3.5 -31q0 -13 9.5 -19.5t20.5 -8.5q2 -1 4 -1h4l10 1q5 -1 7.5 -2.5t2.5 -4.5q0 -4 -4 -5.5t-11 -1.5t-15 0.5
t-17 0.5h-6h-6q-11 1 -20.5 1.5t-13.5 0.5t-15.5 -0.5t-27.5 -1.5q-11 0 -23 -0.5t-25 -0.5h-10.5h-10.5q-10 0 -14.5 1.5t-4.5 5.5q0 3 2.5 4.5t6.5 1.5h7t8 1q3 0 6.5 0.5t6.5 0.5q35 5 53 31t31 63v1zM235 328h191q4 -1 4.5 1t-0.5 5l-95 271q-4 10 -7.5 10t-7.5 -11
l-88 -269q-1 -2 -1 -3v-2t1.5 -2t2.5 -1v1zM478 933q5 -8 11 -19t14 -26q2 -2 2 -3.5v-3.5q0 -3 -2 -4t-4 -1h-2t-3 1h-5h-6h-6t-8 -1q-13 -1 -28 -4t-31 -7q-13 -4 -25.5 -7.5t-24.5 -7.5q-13 -4 -24 -8t-19 -8q-5 -2 -9 -3.5t-6 -1.5h-0.5h-1.5q-1 1 -2 2.5t-1 3.5
q0 1 0.5 2t1.5 2q0 1 1.5 2t3.5 2q10 7 25 16.5t32 20.5q1 0 2 1t2 1q27 17 49.5 30.5t25.5 15.5q13 8 18.5 10.5t9.5 2.5h1.5h0.5q2 -1 3.5 -3l4.5 -6v1z" />
    <glyph glyph-name="dotaccent" unicode="&#xcb;" horiz-adv-x="610" 
d="M178 287v176v150.5t-2 61.5v1.5v1.5q-1 26 -9.5 39t-33.5 18q-3 1 -8 1.5t-10 0.5q-4 1 -8.5 1h-7.5t-5.5 1.5t-2.5 4.5q0 5 4 6.5t12 1.5h16.5h17.5q10 -1 19.5 -1h18.5q16 -1 27.5 -1.5t13.5 -0.5h38.5h76.5q39 0 72.5 0.5t41.5 0.5q14 1 25.5 2.5t17.5 2.5q2 0 3.5 1
t2.5 1q0 1 0.5 1h0.5q2 1 3.5 1.5t3.5 0.5t3 -2.5t1 -6.5t-1.5 -10t-3.5 -17q-1 -4 -1.5 -9t-1.5 -11q0 -4 -1 -13.5t-1 -20.5q-1 -10 -1.5 -19t-1.5 -13v-1.5v-0.5q-1 -3 -2.5 -6t-4.5 -3q-4 0 -6 3.5t-2 9.5q0 4 -0.5 10t-1.5 13q-1 3 -2 6.5t-2 6.5q-5 12 -17.5 21
t-53.5 13q-6 1 -25.5 1.5t-42.5 0.5q-24 1 -44.5 1h-24.5q-3 0 -4.5 -2.5t-1.5 -7.5v-275q0 -6 1 -8.5t5 -2.5h29h52q25 0 47.5 0.5t30.5 1.5q18 2 29 4.5t18 9.5q5 6 8.5 9.5t6.5 3.5q2 0 3.5 -1.5t1.5 -6.5q0 -3 -1.5 -11t-3.5 -21q-1 -5 -1.5 -11t-1.5 -13
q-1 -5 -1.5 -12t-0.5 -14q-1 -13 -1.5 -24t-0.5 -14v-2.5v-2.5q0 -6 -1.5 -10t-5.5 -4t-5.5 2.5t-1.5 6.5q0 8 -0.5 15.5t-3.5 17.5q-1 2 -1.5 4t-1.5 4q-4 9 -14.5 17t-34.5 10q-9 1 -28.5 2t-40.5 1q-25 1 -46 1.5t-28 0.5q-4 0 -5.5 -2t-1.5 -5v-87v-24v-32v-13.5v-13.5
v-55v-34q2 -52 22.5 -67t93.5 -15h22.5t25.5 1t25.5 3.5t22.5 6.5q20 8 30 24.5t15 47.5q2 8 3.5 11.5t5.5 3.5t5 -4t1 -9v-0.5v-1.5q0 -3 -1.5 -18.5t-4.5 -32.5q0 -5 -1 -10.5t-1 -10.5q-2 -7 -3 -14t-2 -11q-5 -19 -15 -22t-39 -3q-57 0 -98.5 1t-70.5 2q-30 1 -48.5 2
t-29.5 1q-2 0 -13.5 -0.5t-26.5 -1.5h-8h-9q-11 0 -22 -0.5t-19 -0.5t-12 1.5t-4 5.5q0 2 2 4t6 2q3 0 7 0.5t8 0.5q4 1 8 1.5t7 1.5q15 3 20.5 18t8.5 37q4 32 4.5 88.5t0.5 128.5v1zM224 830q-19 -1 -28.5 9.5t-12.5 22.5q0 2 -0.5 5t-0.5 5q0 3 0.5 6t1.5 6q3 12 13 21.5
t28 9.5t30.5 -10.5t12.5 -29.5t-12 -32.5t-32 -13.5v1zM425 830q-19 -1 -28.5 9.5t-12.5 22.5q0 2 -0.5 5t-0.5 5q0 3 0.5 6t1.5 6q3 12 13 21.5t28 9.5t30.5 -10.5t12.5 -29.5t-12 -32.5t-32 -13.5v1z" />
    <glyph glyph-name="ring" unicode="&#xc8;" horiz-adv-x="610" 
d="M178 287v176v150.5t-2 61.5v1.5v1.5q-1 26 -9.5 39t-33.5 18q-3 1 -8 1.5t-10 0.5q-4 1 -8.5 1h-7.5t-5.5 1.5t-2.5 4.5q0 5 4 6.5t12 1.5h16.5h17.5q10 -1 19.5 -1h18.5q16 -1 27.5 -1.5t13.5 -0.5h38.5h76.5q39 0 72.5 0.5t41.5 0.5q14 1 25.5 2.5t17.5 2.5q2 0 3.5 1
t2.5 1q0 1 0.5 1h0.5q2 1 3.5 1.5t3.5 0.5t3 -2.5t1 -6.5t-1.5 -10t-3.5 -17q-1 -4 -1.5 -9t-1.5 -11q0 -4 -1 -13.5t-1 -20.5q-1 -10 -1.5 -19t-1.5 -13v-1.5v-0.5q-1 -3 -2.5 -6t-4.5 -3q-4 0 -6 3.5t-2 9.5q0 4 -0.5 10t-1.5 13q-1 3 -2 6.5t-2 6.5q-5 12 -17.5 21
t-53.5 13q-6 1 -25.5 1.5t-42.5 0.5q-24 1 -44.5 1h-24.5q-3 0 -4.5 -2.5t-1.5 -7.5v-275q0 -6 1 -8.5t5 -2.5h29h52q25 0 47.5 0.5t30.5 1.5q18 2 29 4.5t18 9.5q5 6 8.5 9.5t6.5 3.5q2 0 3.5 -1.5t1.5 -6.5q0 -3 -1.5 -11t-3.5 -21q-1 -5 -1.5 -11t-1.5 -13
q-1 -5 -1.5 -12t-0.5 -14q-1 -13 -1.5 -24t-0.5 -14v-2.5v-2.5q0 -6 -1.5 -10t-5.5 -4t-5.5 2.5t-1.5 6.5q0 8 -0.5 15.5t-3.5 17.5q-1 2 -1.5 4t-1.5 4q-4 9 -14.5 17t-34.5 10q-9 1 -28.5 2t-40.5 1q-25 1 -46 1.5t-28 0.5q-4 0 -5.5 -2t-1.5 -5v-87v-24v-32v-13.5v-13.5
v-55v-34q2 -52 22.5 -67t93.5 -15h22.5t25.5 1t25.5 3.5t22.5 6.5q20 8 30 24.5t15 47.5q2 8 3.5 11.5t5.5 3.5t5 -4t1 -9v-0.5v-1.5q0 -3 -1.5 -18.5t-4.5 -32.5q0 -5 -1 -10.5t-1 -10.5q-2 -7 -3 -14t-2 -11q-5 -19 -15 -22t-39 -3q-57 0 -98.5 1t-70.5 2q-30 1 -48.5 2
t-29.5 1q-2 0 -13.5 -0.5t-26.5 -1.5h-8h-9q-11 0 -22 -0.5t-19 -0.5t-12 1.5t-4 5.5q0 2 2 4t6 2q3 0 7 0.5t8 0.5q4 1 8 1.5t7 1.5q15 3 20.5 18t8.5 37q4 32 4.5 88.5t0.5 128.5v1zM376 830q-7 -1 -33.5 7.5t-56.5 18.5q-2 1 -4.5 1.5t-4.5 1.5q-28 10 -52 18.5t-30 10.5
q-13 5 -19.5 8t-8.5 6q-1 1 -1 1.5v1.5q0 3 2 4.5t5 2.5q1 0 2 0.5t2 0.5q5 1 9.5 2.5t9.5 3.5q2 0 4 0.5t4 1.5q10 3 19 6t14 5q6 2 9.5 3.5t6.5 1.5q1 0 2 -0.5t2 -1.5q2 -2 4.5 -5.5t6.5 -8.5q4 -4 21.5 -18t39.5 -30l8 -6t8 -5q6 -4 11 -7.5t10 -6.5q6 -4 11 -6.5
t7 -5.5l0.5 -0.5t0.5 -1.5q0 -2 -2.5 -3.5t-6.5 -1.5v1z" />
    <glyph glyph-name="cedilla" unicode="&#xcd;" horiz-adv-x="440" 
d="M262 463v-176q0 -73 0.5 -129.5t4.5 -88.5q2 -22 9.5 -37t29.5 -18q4 -1 8.5 -1.5t9.5 -0.5q8 -1 15.5 -1.5t11.5 -0.5q5 0 6.5 -2t1.5 -4q0 -4 -4 -5.5t-12 -1.5h-10h-10q-16 0 -31.5 0.5t-28.5 0.5q-18 1 -29.5 1.5t-13.5 0.5t-13.5 -0.5t-26.5 -1.5h-8h-9
q-11 0 -22 -0.5t-19 -0.5t-12 1.5t-4 5.5q0 2 2 4t6 2q3 0 7 0.5t8 0.5q4 1 8 1.5t7 1.5q15 3 20.5 18t8.5 37q4 32 4.5 88.5t0.5 128.5v177v150.5t-2 61.5v1.5v1.5q-1 26 -9 39t-25 17q-2 1 -4 1.5t-4 0.5q-7 1 -13 1.5t-10 0.5q-3 0 -5.5 1.5t-2.5 4.5q0 5 4 6.5t12 1.5
h19t22 -1h10h10q15 -1 26.5 -1.5t13.5 -0.5t13.5 0.5t26.5 1.5h8h9q11 0 22 0.5t19 0.5t12 -1.5t4 -6.5q0 -3 -2.5 -4.5t-5.5 -1.5h-1.5h-1.5q-4 0 -9 -1t-13 -2q-20 -4 -27.5 -17.5t-9.5 -39.5v-1.5v-1.5q-2 -23 -2 -61.5v-151.5v1zM348 933q5 -8 11 -19t14 -26
q2 -2 2 -3.5v-3.5q0 -3 -2 -4t-4 -1h-2t-3 1h-5h-6h-6t-8 -1q-13 -1 -28 -4t-31 -7q-13 -4 -25.5 -7.5t-24.5 -7.5q-13 -4 -24 -8t-19 -8q-5 -2 -9 -3.5t-6 -1.5h-0.5h-1.5q-1 1 -2 2.5t-1 3.5q0 1 0.5 2t1.5 2q0 1 1.5 2t3.5 2q10 7 25 16.5t32 20.5q1 0 2 1t2 1
q27 17 49.5 30.5t25.5 15.5q13 8 18.5 10.5t9.5 2.5h1.5h0.5q2 -1 3.5 -3l4.5 -6v1z" />
    <glyph glyph-name="hungarumlaut" unicode="&#xce;" horiz-adv-x="440" 
d="M262 463v-176q0 -73 0.5 -129.5t4.5 -88.5q2 -22 9.5 -37t29.5 -18q4 -1 8.5 -1.5t9.5 -0.5q8 -1 15.5 -1.5t11.5 -0.5q5 0 6.5 -2t1.5 -4q0 -4 -4 -5.5t-12 -1.5h-10h-10q-16 0 -31.5 0.5t-28.5 0.5q-18 1 -29.5 1.5t-13.5 0.5t-13.5 -0.5t-26.5 -1.5h-8h-9
q-11 0 -22 -0.5t-19 -0.5t-12 1.5t-4 5.5q0 2 2 4t6 2q3 0 7 0.5t8 0.5q4 1 8 1.5t7 1.5q15 3 20.5 18t8.5 37q4 32 4.5 88.5t0.5 128.5v177v150.5t-2 61.5v1.5v1.5q-1 26 -9 39t-25 17q-2 1 -4 1.5t-4 0.5q-7 1 -13 1.5t-10 0.5q-3 0 -5.5 1.5t-2.5 4.5q0 5 4 6.5t12 1.5
h19t22 -1h10h10q15 -1 26.5 -1.5t13.5 -0.5t13.5 0.5t26.5 1.5h8h9q11 0 22 0.5t19 0.5t12 -1.5t4 -6.5q0 -3 -2.5 -4.5t-5.5 -1.5h-1.5h-1.5q-4 0 -9 -1t-13 -2q-20 -4 -27.5 -17.5t-9.5 -39.5v-1.5v-1.5q-2 -23 -2 -61.5v-151.5v1zM347 845l-21 -22q-2 -3 -3.5 -4.5
t-2.5 -1.5q-1 -1 -1.5 -1h-1.5h-2t-2 1l-2 2l-2 2q-5 6 -13 13t-17 15q-2 2 -4.5 4t-4.5 4q-15 11 -27.5 20.5t-17.5 12.5q-3 2 -5.5 3t-4.5 1q-3 0 -6.5 -1t-9.5 -4q-9 -5 -20.5 -13t-23.5 -17q-2 -2 -5 -4t-5 -4q-9 -7 -16.5 -13t-14.5 -12q-6 -5 -11 -7.5t-7 -2.5
q-3 0 -5 2.5t-2 5.5q0 2 0.5 3l1.5 3q1 1 2 2.5t2 2.5q4 4 20.5 19.5t35.5 32.5q19 18 35.5 33t20.5 19q6 5 10 7.5t6 2.5q3 0 6.5 -2.5t9.5 -7.5q3 -2 18 -13.5t33 -24.5q16 -13 30.5 -23.5t19.5 -14.5q7 -4 9.5 -6t2.5 -4t-1 -3.5t-2 -3.5q-1 0 -1.5 -0.5t-0.5 -1.5v1z
" />
    <glyph glyph-name="ogonek" unicode="&#xcf;" horiz-adv-x="440" 
d="M262 463v-176q0 -73 0.5 -129.5t4.5 -88.5q2 -22 9.5 -37t29.5 -18q4 -1 8.5 -1.5t9.5 -0.5q8 -1 15.5 -1.5t11.5 -0.5q5 0 6.5 -2t1.5 -4q0 -4 -4 -5.5t-12 -1.5h-10h-10q-16 0 -31.5 0.5t-28.5 0.5q-18 1 -29.5 1.5t-13.5 0.5t-13.5 -0.5t-26.5 -1.5h-8h-9
q-11 0 -22 -0.5t-19 -0.5t-12 1.5t-4 5.5q0 2 2 4t6 2q3 0 7 0.5t8 0.5q4 1 8 1.5t7 1.5q15 3 20.5 18t8.5 37q4 32 4.5 88.5t0.5 128.5v177v150.5t-2 61.5v1.5v1.5q-1 26 -9 39t-25 17q-2 1 -4 1.5t-4 0.5q-7 1 -13 1.5t-10 0.5q-3 0 -5.5 1.5t-2.5 4.5q0 5 4 6.5t12 1.5
h19t22 -1h10h10q15 -1 26.5 -1.5t13.5 -0.5t13.5 0.5t26.5 1.5h8h9q11 0 22 0.5t19 0.5t12 -1.5t4 -6.5q0 -3 -2.5 -4.5t-5.5 -1.5h-1.5h-1.5q-4 0 -9 -1t-13 -2q-20 -4 -27.5 -17.5t-9.5 -39.5v-1.5v-1.5q-2 -23 -2 -61.5v-151.5v1zM119 830q-19 -1 -28.5 9.5t-12.5 22.5
q0 2 -0.5 5t-0.5 5q0 3 0.5 6t1.5 6q3 12 13 21.5t28 9.5t30.5 -10.5t12.5 -29.5t-12 -32.5t-32 -13.5v1zM320 830q-19 -1 -28.5 9.5t-12.5 22.5q0 2 -0.5 5t-0.5 5q0 3 0.5 6t1.5 6q3 12 13 21.5t28 9.5t30.5 -10.5t12.5 -29.5t-12 -32.5t-32 -13.5v1z" />
    <glyph glyph-name="caron" unicode="&#xcc;" horiz-adv-x="440" 
d="M262 463v-176q0 -73 0.5 -129.5t4.5 -88.5q2 -22 9.5 -37t29.5 -18q4 -1 8.5 -1.5t9.5 -0.5q8 -1 15.5 -1.5t11.5 -0.5q5 0 6.5 -2t1.5 -4q0 -4 -4 -5.5t-12 -1.5h-10h-10q-16 0 -31.5 0.5t-28.5 0.5q-18 1 -29.5 1.5t-13.5 0.5t-13.5 -0.5t-26.5 -1.5h-8h-9
q-11 0 -22 -0.5t-19 -0.5t-12 1.5t-4 5.5q0 2 2 4t6 2q3 0 7 0.5t8 0.5q4 1 8 1.5t7 1.5q15 3 20.5 18t8.5 37q4 32 4.5 88.5t0.5 128.5v177v150.5t-2 61.5v1.5v1.5q-1 26 -9 39t-25 17q-2 1 -4 1.5t-4 0.5q-7 1 -13 1.5t-10 0.5q-3 0 -5.5 1.5t-2.5 4.5q0 5 4 6.5t12 1.5
h19t22 -1h10h10q15 -1 26.5 -1.5t13.5 -0.5t13.5 0.5t26.5 1.5h8h9q11 0 22 0.5t19 0.5t12 -1.5t4 -6.5q0 -3 -2.5 -4.5t-5.5 -1.5h-1.5h-1.5q-4 0 -9 -1t-13 -2q-20 -4 -27.5 -17.5t-9.5 -39.5v-1.5v-1.5q-2 -23 -2 -61.5v-151.5v1zM271 830q-7 -1 -33.5 7.5t-56.5 18.5
q-2 1 -4.5 1.5t-4.5 1.5q-28 10 -52 18.5t-30 10.5q-13 5 -19.5 8t-8.5 6q-1 1 -1 1.5v1.5q0 3 2 4.5t5 2.5q1 0 2 0.5t2 0.5q5 1 9.5 2.5t9.5 3.5q2 0 4 0.5t4 1.5q10 3 19 6t14 5q6 2 9.5 3.5t6.5 1.5q1 0 2 -0.5t2 -1.5q2 -2 4.5 -5.5t6.5 -8.5q4 -4 21.5 -18t39.5 -30
l8 -6t8 -5q6 -4 11 -7.5t10 -6.5q6 -4 11 -6.5t7 -5.5l0.5 -0.5t0.5 -1.5q0 -2 -2.5 -3.5t-6.5 -1.5v1z" />
    <glyph glyph-name="Lslash" unicode="&#xd3;" horiz-adv-x="915" 
d="M64 376q0 27 4.5 56.5t14.5 59.5q32 103 123.5 188.5t251.5 85.5q169 0 281 -100t112 -275q0 -168 -109 -288t-290 -120q-178 0 -269.5 99.5t-112.5 218.5q-3 19 -4.5 37.5t-1.5 36.5v1zM159 404q0 -176 92.5 -280t227.5 -104q23 0 53 5.5t61 19.5q61 29 111.5 101.5
t50.5 216.5q0 180 -92.5 274.5t-211.5 94.5q-125 0 -208.5 -82.5t-83.5 -246.5v1zM585 933q5 -8 11 -19t14 -26q2 -2 2 -3.5v-3.5q0 -3 -2 -4t-4 -1h-2t-3 1h-5h-6h-6t-8 -1q-13 -1 -28 -4t-31 -7q-13 -4 -25.5 -7.5t-24.5 -7.5q-13 -4 -24 -8t-19 -8q-5 -2 -9 -3.5t-6 -1.5
h-0.5h-1.5q-1 1 -2 2.5t-1 3.5q0 1 0.5 2t1.5 2q0 1 1.5 2t3.5 2q10 7 25 16.5t32 20.5q1 0 2 1t2 1q27 17 49.5 30.5t25.5 15.5q13 8 18.5 10.5t9.5 2.5h1.5h0.5q2 -1 3.5 -3l4.5 -6v1z" />
    <glyph glyph-name="lslash" unicode="&#xd4;" horiz-adv-x="915" 
d="M64 376q0 27 4.5 56.5t14.5 59.5q32 103 123.5 188.5t251.5 85.5q169 0 281 -100t112 -275q0 -168 -109 -288t-290 -120q-178 0 -269.5 99.5t-112.5 218.5q-3 19 -4.5 37.5t-1.5 36.5v1zM159 404q0 -176 92.5 -280t227.5 -104q23 0 53 5.5t61 19.5q61 29 111.5 101.5
t50.5 216.5q0 180 -92.5 274.5t-211.5 94.5q-125 0 -208.5 -82.5t-83.5 -246.5v1zM584 845l-21 -22q-2 -3 -3.5 -4.5t-2.5 -1.5q-1 -1 -1.5 -1h-1.5h-2t-2 1l-2 2l-2 2q-5 6 -13 13t-17 15q-2 2 -4.5 4t-4.5 4q-15 11 -27.5 20.5t-17.5 12.5q-3 2 -5.5 3t-4.5 1
q-3 0 -6.5 -1t-9.5 -4q-9 -5 -20.5 -13t-23.5 -17q-2 -2 -5 -4t-5 -4q-9 -7 -16.5 -13t-14.5 -12q-6 -5 -11 -7.5t-7 -2.5q-3 0 -5 2.5t-2 5.5q0 2 0.5 3l1.5 3q1 1 2 2.5t2 2.5q4 4 20.5 19.5t35.5 32.5q19 18 35.5 33t20.5 19q6 5 10 7.5t6 2.5q3 0 6.5 -2.5t9.5 -7.5
q3 -2 18 -13.5t33 -24.5q16 -13 30.5 -23.5t19.5 -14.5q7 -4 9.5 -6t2.5 -4t-1 -3.5t-2 -3.5q-1 0 -1.5 -0.5t-0.5 -1.5v1z" />
    <glyph glyph-name="Scaron" unicode="&#xf000;" 
 />
    <glyph glyph-name="scaron" unicode="&#xd2;" 
 />
    <glyph glyph-name="Eth" unicode="&#xda;" horiz-adv-x="830" 
d="M120 317v146v150.5t-2 61.5v1.5v1.5q-1 26 -9.5 39t-33.5 18q-3 1 -8 1.5t-10 0.5q-4 1 -8.5 1h-7.5t-5.5 1.5t-2.5 4.5q0 5 4 6.5t12 1.5h16.5h17.5q9 -1 18.5 -1h18.5q17 -1 29 -1.5t15 -0.5t15 0.5t27 1.5h7h8q12 0 23 0.5t19 0.5t12 -1.5t4 -6.5q0 -3 -2.5 -4.5
t-5.5 -1.5h-1.5h-1.5q-4 0 -9 -1t-13 -2q-20 -3 -27.5 -17t-9.5 -40v-1.5v-1.5q-2 -23 -2 -61.5v-151.5v-139q0 -109 21.5 -163t53.5 -85q9 -9 18 -16t18 -12q27 -16 55 -21.5t60 -5.5q46 0 88 20t69 52q35 43 46.5 105.5t11.5 139.5v126v150.5t-2 61.5v1.5v1.5
q-1 26 -9.5 39t-33.5 18q-3 1 -8 1.5t-10 0.5q-4 1 -8.5 1h-7.5t-5.5 1.5t-2.5 4.5q0 5 4 6.5t12 1.5h12h11q12 0 23.5 -0.5t21.5 -0.5q15 -1 25.5 -1.5t12.5 -0.5q3 0 12 0.5t21 1.5h10.5h10.5q8 1 15.5 1h14.5q8 0 12 -1.5t4 -6.5q0 -3 -2.5 -4.5t-5.5 -1.5h-1.5h-1.5
q-4 0 -9 -0.5t-13 -2.5q-20 -4 -27.5 -17.5t-9.5 -39.5v-1.5v-1.5q-2 -23 -2 -61.5v-151.5v-106q0 -17 -0.5 -33t-1.5 -33q-4 -66 -23 -128.5t-67 -105.5q-9 -8 -17.5 -14.5t-16.5 -11.5q-46 -30 -90.5 -38.5t-81.5 -8.5q-18 0 -55.5 4t-78.5 20q-19 8 -37.5 19t-34.5 27
q-37 35 -62 94.5t-25 168.5v1zM563 933q5 -8 11 -19t14 -26q2 -2 2 -3.5v-3.5q0 -3 -2 -4t-4 -1h-2t-3 1h-5h-6h-6t-8 -1q-13 -1 -28 -4t-31 -7q-13 -4 -25.5 -7.5t-24.5 -7.5q-13 -4 -24 -8t-19 -8q-5 -2 -9 -3.5t-6 -1.5h-0.5h-1.5q-1 1 -2 2.5t-1 3.5q0 1 0.5 2t1.5 2
q0 1 1.5 2t3.5 2q10 7 25 16.5t32 20.5q1 0 2 1t2 1q27 17 49.5 30.5t25.5 15.5q13 8 18.5 10.5t9.5 2.5h1.5h0.5q2 -1 3.5 -3l4.5 -6v1z" />
    <glyph glyph-name="eth" unicode="&#xdb;" horiz-adv-x="830" 
d="M120 317v146v150.5t-2 61.5v1.5v1.5q-1 26 -9.5 39t-33.5 18q-3 1 -8 1.5t-10 0.5q-4 1 -8.5 1h-7.5t-5.5 1.5t-2.5 4.5q0 5 4 6.5t12 1.5h16.5h17.5q9 -1 18.5 -1h18.5q17 -1 29 -1.5t15 -0.5t15 0.5t27 1.5h7h8q12 0 23 0.5t19 0.5t12 -1.5t4 -6.5q0 -3 -2.5 -4.5
t-5.5 -1.5h-1.5h-1.5q-4 0 -9 -1t-13 -2q-20 -3 -27.5 -17t-9.5 -40v-1.5v-1.5q-2 -23 -2 -61.5v-151.5v-139q0 -109 21.5 -163t53.5 -85q9 -9 18 -16t18 -12q27 -16 55 -21.5t60 -5.5q46 0 88 20t69 52q35 43 46.5 105.5t11.5 139.5v126v150.5t-2 61.5v1.5v1.5
q-1 26 -9.5 39t-33.5 18q-3 1 -8 1.5t-10 0.5q-4 1 -8.5 1h-7.5t-5.5 1.5t-2.5 4.5q0 5 4 6.5t12 1.5h12h11q12 0 23.5 -0.5t21.5 -0.5q15 -1 25.5 -1.5t12.5 -0.5q3 0 12 0.5t21 1.5h10.5h10.5q8 1 15.5 1h14.5q8 0 12 -1.5t4 -6.5q0 -3 -2.5 -4.5t-5.5 -1.5h-1.5h-1.5
q-4 0 -9 -0.5t-13 -2.5q-20 -4 -27.5 -17.5t-9.5 -39.5v-1.5v-1.5q-2 -23 -2 -61.5v-151.5v-106q0 -17 -0.5 -33t-1.5 -33q-4 -66 -23 -128.5t-67 -105.5q-9 -8 -17.5 -14.5t-16.5 -11.5q-46 -30 -90.5 -38.5t-81.5 -8.5q-18 0 -55.5 4t-78.5 20q-19 8 -37.5 19t-34.5 27
q-37 35 -62 94.5t-25 168.5v1zM552 845l-21 -22q-2 -3 -3.5 -4.5t-2.5 -1.5q-1 -1 -1.5 -1h-1.5h-2t-2 1l-2 2l-2 2q-5 6 -13 13t-17 15q-2 2 -4.5 4t-4.5 4q-15 11 -27.5 20.5t-17.5 12.5q-3 2 -5.5 3t-4.5 1q-3 0 -6.5 -1t-9.5 -4q-9 -5 -20.5 -13t-23.5 -17q-2 -2 -5 -4
t-5 -4q-9 -7 -16.5 -13t-14.5 -12q-6 -5 -11 -7.5t-7 -2.5q-3 0 -5 2.5t-2 5.5q0 2 0.5 3l1.5 3q1 1 2 2.5t2 2.5q4 4 20.5 19.5t35.5 32.5q19 18 35.5 33t20.5 19q6 5 10 7.5t6 2.5q3 0 6.5 -2.5t9.5 -7.5q3 -2 18 -13.5t33 -24.5q16 -13 30.5 -23.5t19.5 -14.5
q7 -4 9.5 -6t2.5 -4t-1 -3.5t-2 -3.5q-1 0 -1.5 -0.5t-0.5 -1.5v1z" />
    <glyph glyph-name="Thorn" unicode="&#xd9;" horiz-adv-x="830" 
d="M120 317v146v150.5t-2 61.5v1.5v1.5q-1 26 -9.5 39t-33.5 18q-3 1 -8 1.5t-10 0.5q-4 1 -8.5 1h-7.5t-5.5 1.5t-2.5 4.5q0 5 4 6.5t12 1.5h16.5h17.5q9 -1 18.5 -1h18.5q17 -1 29 -1.5t15 -0.5t15 0.5t27 1.5h7h8q12 0 23 0.5t19 0.5t12 -1.5t4 -6.5q0 -3 -2.5 -4.5
t-5.5 -1.5h-1.5h-1.5q-4 0 -9 -1t-13 -2q-20 -3 -27.5 -17t-9.5 -40v-1.5v-1.5q-2 -23 -2 -61.5v-151.5v-139q0 -109 21.5 -163t53.5 -85q9 -9 18 -16t18 -12q27 -16 55 -21.5t60 -5.5q46 0 88 20t69 52q35 43 46.5 105.5t11.5 139.5v126v150.5t-2 61.5v1.5v1.5
q-1 26 -9.5 39t-33.5 18q-3 1 -8 1.5t-10 0.5q-4 1 -8.5 1h-7.5t-5.5 1.5t-2.5 4.5q0 5 4 6.5t12 1.5h12h11q12 0 23.5 -0.5t21.5 -0.5q15 -1 25.5 -1.5t12.5 -0.5q3 0 12 0.5t21 1.5h10.5h10.5q8 1 15.5 1h14.5q8 0 12 -1.5t4 -6.5q0 -3 -2.5 -4.5t-5.5 -1.5h-1.5h-1.5
q-4 0 -9 -0.5t-13 -2.5q-20 -4 -27.5 -17.5t-9.5 -39.5v-1.5v-1.5q-2 -23 -2 -61.5v-151.5v-106q0 -17 -0.5 -33t-1.5 -33q-4 -66 -23 -128.5t-67 -105.5q-9 -8 -17.5 -14.5t-16.5 -11.5q-46 -30 -90.5 -38.5t-81.5 -8.5q-18 0 -55.5 4t-78.5 20q-19 8 -37.5 19t-34.5 27
q-37 35 -62 94.5t-25 168.5v1zM466 830q-7 -1 -33.5 7.5t-56.5 18.5q-2 1 -4.5 1.5t-4.5 1.5q-28 10 -52 18.5t-30 10.5q-13 5 -19.5 8t-8.5 6q-1 1 -1 1.5v1.5q0 3 2 4.5t5 2.5q1 0 2 0.5t2 0.5q5 1 9.5 2.5t9.5 3.5q2 0 4 0.5t4 1.5q10 3 19 6t14 5q6 2 9.5 3.5t6.5 1.5
q1 0 2 -0.5t2 -1.5q2 -2 4.5 -5.5t6.5 -8.5q4 -4 21.5 -18t39.5 -30l8 -6t8 -5q6 -4 11 -7.5t10 -6.5q6 -4 11 -6.5t7 -5.5l0.5 -0.5t0.5 -1.5q0 -2 -2.5 -3.5t-6.5 -1.5v1z" />
    <glyph glyph-name="thorn" unicode="&#x131;" horiz-adv-x="440" 
d="M262 463v-176q0 -73 0.5 -129.5t4.5 -88.5q2 -22 9.5 -37t29.5 -18q4 -1 8.5 -1.5t9.5 -0.5q8 -1 15.5 -1.5t11.5 -0.5q5 0 6.5 -2t1.5 -4q0 -4 -4 -5.5t-12 -1.5h-10h-10q-16 0 -31.5 0.5t-28.5 0.5q-18 1 -29.5 1.5t-13.5 0.5t-13.5 -0.5t-26.5 -1.5h-8h-9
q-11 0 -22 -0.5t-19 -0.5t-12 1.5t-4 5.5q0 2 2 4t6 2q3 0 7 0.5t8 0.5q4 1 8 1.5t7 1.5q15 3 20.5 18t8.5 37q4 32 4.5 88.5t0.5 128.5v177v150.5t-2 61.5v1.5v1.5q-1 26 -9 39t-25 17q-2 1 -4 1.5t-4 0.5q-7 1 -13 1.5t-10 0.5q-3 0 -5.5 1.5t-2.5 4.5q0 5 4 6.5t12 1.5
h19t22 -1h10h10q15 -1 26.5 -1.5t13.5 -0.5t13.5 0.5t26.5 1.5h8h9q11 0 22 0.5t19 0.5t12 -1.5t4 -6.5q0 -3 -2.5 -4.5t-5.5 -1.5h-1.5h-1.5q-4 0 -9 -1t-13 -2q-20 -4 -27.5 -17.5t-9.5 -39.5v-1.5v-1.5q-2 -23 -2 -61.5v-151.5v1z" />
    <glyph glyph-name="onehalf" unicode="&#x2dc;" horiz-adv-x="911" 
d="M582 845l-21 -22q-2 -3 -3.5 -4.5t-2.5 -1.5q-1 -1 -1.5 -1h-1.5h-2t-2 1l-2 2l-2 2q-5 6 -13 13t-17 15q-2 2 -4.5 4t-4.5 4q-15 11 -27.5 20.5t-17.5 12.5q-3 2 -5.5 3t-4.5 1q-3 0 -6.5 -1t-9.5 -4q-9 -5 -20.5 -13t-23.5 -17q-2 -2 -5 -4t-5 -4q-9 -7 -16.5 -13
t-14.5 -12q-6 -5 -11 -7.5t-7 -2.5q-3 0 -5 2.5t-2 5.5q0 2 0.5 3l1.5 3q1 1 2 2.5t2 2.5q4 4 20.5 19.5t35.5 32.5q19 18 35.5 33t20.5 19q6 5 10 7.5t6 2.5q3 0 6.5 -2.5t9.5 -7.5q3 -2 18 -13.5t33 -24.5q16 -13 30.5 -23.5t19.5 -14.5q7 -4 9.5 -6t2.5 -4t-1 -3.5
t-2 -3.5q-1 0 -1.5 -0.5t-0.5 -1.5v1z" />
    <glyph glyph-name="arrowright" unicode="&#x2c6;" horiz-adv-x="911" 
d="M526 830q-15 -1 -29.5 3.5t-26.5 9.5q-7 4 -13 7l-10 5t-8.5 4.5t-9.5 4.5q-10 5 -22 9.5t-28 4.5q-15 0 -26.5 -6t-19.5 -13q-5 -5 -9 -9.5t-6 -7.5q-4 -4 -7.5 -6.5t-6.5 -2.5t-4.5 2t-1.5 4v2.5t1 2.5q1 2 2.5 4.5t3.5 5.5q4 6 10 14t13 16q9 10 19 19t21 15
q6 3 11.5 5t11.5 2q17 0 37 -9t42 -19q1 -1 2.5 -1.5t2.5 -1.5l5 -2.5t7 -2.5q4 -2 9 -3.5t10 -3.5q7 -2 14 -3.5t13 -1.5q15 0 26.5 4.5t19.5 10.5q6 4 10 8.5t5 5.5q1 2 2 3t2 3q2 2 4.5 3.5t3.5 1.5q3 0 5 -2t2 -4v-1.5v-1.5q-1 -2 -1.5 -4.5t-2.5 -5.5q-2 -5 -9 -14
t-16 -18q-7 -8 -15 -15t-16 -12q-7 -5 -14 -7.5t-13 -2.5v1z" />
    <glyph glyph-name="house" unicode="&#x2c9;" horiz-adv-x="911" 
d="M343 900h235q6 -1 8 -4t0 -7l-8 -21q-1 -4 -3 -5.5t-6 -1.5l-235 1q-5 -1 -7.5 0t-2.5 5v0v1v0v0l8 26q1 3 4 4t7 1v1z" />
    <glyph glyph-name="endash" unicode="&#x2d8;" horiz-adv-x="911" 
d="M316 904l32 24q1 -1 1.5 -0.5t0.5 1.5q2 1 3.5 2t3.5 1t3.5 -1.5l3.5 -3.5q0 -2 1 -3.5t2 -3.5q1 -1 1.5 -2t1.5 -2q7 -9 14.5 -16t15.5 -12q21 -13 39 -16t25 -3q31 0 52.5 9t35.5 20q20 15 27.5 23t11.5 9h1.5h0.5q4 0 6 -2t2 -6t-7 -13.5t-18 -19.5q-3 -4 -6.5 -7
t-7.5 -7q-6 -5 -12 -9.5t-11 -7.5t-9.5 -5.5t-8.5 -4.5q-18 -10 -37.5 -14.5t-45.5 -4.5q-8 0 -16 1l-16 2q-16 4 -31.5 10.5t-29.5 15.5q-2 2 -5 4l-6 4q-2 2 -4 3.5t-4 3.5q-7 6 -12 12t-5 9t1.5 5t3.5 3q1 0 1.5 0.5l0.5 0.5v1z" />
    <glyph glyph-name="sfthyphen" unicode="&#x2d9;" horiz-adv-x="911" 
d="M455 830q-23 -1 -35 11.5t-15 27.5q0 3 -0.5 5.5t-0.5 5.5t0.5 7t1.5 8q4 14 16 25.5t33 11.5q22 0 37 -13t15 -36q0 -22 -14.5 -38t-37.5 -16v1z" />
    <glyph glyph-name="filledbox" unicode="&#x2da;" horiz-adv-x="911" 
d="M434 820q-37 -1 -57.5 16t-20.5 42q0 34 33 60t85 26q38 0 59.5 -15.5t22.5 -41.5q0 -38 -33.5 -60.5t-73.5 -26.5q-4 -1 -7.5 -1h-7.5v1zM450 844q25 -1 42 14t17 36q0 18 -12.5 32t-39.5 14q-4 0 -8.5 -0.5t-9.5 -2.5q-15 -4 -27 -15.5t-12 -30.5q0 -21 14 -33.5
t31 -14.5h2.5h2.5v1z" />
    <glyph glyph-name="bullet" unicode="&#xb8;" horiz-adv-x="911" 
d="M472 0h40q-4 -2 -14.5 -11.5t-22.5 -20.5l-1.5 -1.5l-1.5 -1.5q-12 -10 -22 -19.5t-13 -13.5q47 -5 73.5 -22.5t26.5 -48.5q0 -27 -20 -47t-43 -32q-2 -1 -4 -1.5t-4 -1.5q-6 -3 -11.5 -5t-11.5 -4q-16 -4 -30.5 -6.5t-24.5 -2.5q-5 0 -9 2t-4 6q0 7 6 8.5t14 2.5
q2 0 4.5 0.5t5.5 1.5q24 4 44 19.5t20 39.5q0 22 -14 41t-58 32q-3 1 -5 1.5t-4 1.5q-3 1 -4.5 2.5t-1.5 3.5t3 5.5t10 8.5l77 63v0z" />
    <glyph glyph-name="uni02BA" unicode="&#x2ba;" horiz-adv-x="911" 
d="M393 943q7 8 10 13t6 6h0.5h0.5q3 0 6 -0.5t7 -2.5q8 -4 17.5 -9.5t19.5 -12.5q5 -3 5 -5.5t-2 -3.5q-3 -1 -11 -4t-19 -9q-9 -6 -20 -13t-22 -15q-7 -5 -13.5 -10.5t-13.5 -10.5q-8 -6 -15.5 -13t-13.5 -13q-4 -5 -6.5 -7.5t-5.5 -3.5h-0.5h-1.5t-2.5 1.5t-1.5 3.5v1.5
t1 0.5v1.5v0.5q1 3 12 18.5t24 33.5q0 1 0.5 1.5l1.5 1.5q12 17 23 31t14 18v1zM523 945q8 8 12 12.5t7 4.5t6.5 -1t7.5 -3q8 -4 16 -10t19 -15q4 -4 3.5 -6.5t-2.5 -3.5t-11 -2.5t-20 -7.5q-9 -5 -20 -11.5t-21 -14.5q-6 -3 -11 -6.5t-10 -7.5q-13 -10 -24.5 -19t-19.5 -16
q-5 -6 -8.5 -7.5t-5.5 -1.5q-1 0 -2.5 1.5t-1.5 3.5v0.5t1 1.5v0.5v0.5q1 3 13.5 19t27.5 35l0.5 1t1.5 1q14 18 26.5 32.5t15.5 18.5v1z" />
    <glyph glyph-name="glyph223" unicode="&#x2db;" horiz-adv-x="911" 
d="M470 -1h35q-6 -6 -13.5 -13t-15.5 -15q-18 -19 -33 -41.5t-15 -46.5q0 -5 1 -10.5t4 -11.5q5 -11 16.5 -21.5t31.5 -16.5q15 -5 27 -5.5t23 -0.5h2.5h2.5q8 0 10 -2t2 -5t-1.5 -5.5t-6.5 -3.5q-2 -1 -6 -2t-10 -2q-10 -2 -23 -4t-28 -2q-43 0 -77 17t-34 52q0 9 3 18
t7 18q8 16 20 30.5t25 27.5q17 17 32.5 29.5t20.5 15.5v0z" />
    <glyph glyph-name="glyph224" unicode="&#x2c7;" horiz-adv-x="911" 
d="M329 920l21 22q2 1 3.5 2.5t2.5 1.5q1 1 1.5 1h1.5h2t2 -1t2 -1.5t2 -2.5q5 -6 13 -13t17 -15q2 -2 4.5 -4t4.5 -4q14 -12 27 -21.5t18 -11.5q3 -1 5.5 -2.5t4.5 -1.5q3 0 6.5 1t9.5 4q9 5 20.5 13t23.5 17q2 2 5 4t5 4q9 7 16.5 13.5t14.5 11.5q6 5 11 7.5t7 2.5
q3 0 5 -2.5t2 -5.5q0 -1 -0.5 -2.5t-1.5 -2.5q-1 -2 -2 -3t-2 -3q-4 -4 -20.5 -19.5t-35.5 -32.5q-19 -18 -35.5 -33t-20.5 -19q-6 -5 -10 -7.5t-7 -2.5q-2 0 -5.5 2.5t-9.5 7.5q-3 2 -18 13.5t-33 24.5q-16 13 -30.5 23.5t-19.5 14.5q-7 5 -9.5 7t-2.5 3q0 2 1 3.5t2 3.5
q1 0 1.5 0.5t0.5 1.5v1z" />
    <glyph glyph-name="glyph225" unicode="&#x141;" horiz-adv-x="592" 
d="M262 381v-96q0 -102 4 -159t18 -71q12 -12 37 -17.5t83 -5.5q40 0 71.5 4t49.5 26q6 7 11 16.5t8 18.5q3 7 4.5 13t2.5 12t3 9.5t6 3.5t5 -3.5t1 -11.5q0 -5 -2 -21.5t-4 -35.5q-2 -12 -4.5 -23.5t-4.5 -19.5q0 -1 -0.5 -2.5t-1.5 -2.5q-4 -14 -14 -17.5t-47 -3.5
q-54 0 -94.5 1t-71.5 2q-32 1 -56 2t-46 1q-3 0 -14.5 -0.5t-26.5 -1.5h-8h-8q-11 0 -22 -0.5t-19 -0.5t-12 1.5t-4 5.5q0 2 2 4t6 2q3 0 7 0.5t8 0.5q4 1 8 1.5t7 1.5q15 3 20.5 18t8.5 37q4 32 4.5 88.5t0.5 128.5v57l-89 -46q0 -1 -0.5 -1h-1.5q-1 -1 -1.5 -1h-0.5h-1.5
t-0.5 1q-1 0 -1.5 1t-1.5 2l-10 23v0.5t-1 0.5q0 2 0.5 3.5t2.5 2.5l106 56v78v150.5t-2 61.5v1.5v1.5q-1 26 -9.5 39t-33.5 18q-3 1 -8 1.5t-10 0.5q-4 1 -8.5 1h-7.5t-5.5 1.5t-2.5 4.5q0 5 4 6.5t12 1.5h16.5h17.5q10 -1 19.5 -1h18.5q16 -1 27.5 -1.5t13.5 -0.5t15 0.5
t30 1.5h7h8q14 0 26.5 0.5t21.5 0.5q8 0 12 -1.5t4 -6.5q0 -3 -2.5 -4.5t-5.5 -1.5q-4 0 -11 -0.5t-14 -1.5q-2 0 -4 -0.5t-4 -0.5q-22 -4 -29.5 -17.5t-9.5 -39.5v-1.5v-1.5q-2 -23 -2 -61.5v-151.5v-38l149 72h1.5h1.5q2 0 3 -1t2 -3l11 -22q2 -4 0.5 -6t-5.5 -4l-163 -79
v0z" />
    <glyph glyph-name="glyph226" unicode="&#x142;" horiz-adv-x="592" 
d="M262 381v-96q0 -102 4 -159t18 -71q12 -12 37 -17.5t83 -5.5q40 0 71.5 4t49.5 26q6 7 11 16.5t8 18.5q3 7 4.5 13t2.5 12t3 9.5t6 3.5t5 -3.5t1 -11.5q0 -5 -2 -21.5t-4 -35.5q-2 -12 -4.5 -23.5t-4.5 -19.5q0 -1 -0.5 -2.5t-1.5 -2.5q-4 -14 -14 -17.5t-47 -3.5
q-54 0 -94.5 1t-71.5 2q-32 1 -56 2t-46 1h-5t-9 -1h-12.5h-14.5h-6.5t-7.5 -1q-11 0 -22.5 -0.5t-20.5 -0.5q-8 0 -12 1.5t-4 5.5q0 2 2 4t6 2q3 0 7 0.5t8 0.5q4 1 8 1.5t7 1.5q15 3 20.5 18t8.5 37q4 32 4.5 88.5t0.5 128.5v57l-89 -46q0 -1 -0.5 -1h-1.5q-1 -1 -1.5 -1
h-0.5h-1.5t-0.5 1q-1 0 -1.5 1t-1.5 2l-10 23v0.5t-1 0.5q0 2 0.5 3.5t2.5 2.5l106 56v78v150.5t-2 61.5v1.5v1.5q-1 26 -9.5 39t-33.5 18q-3 1 -8 1.5t-10 0.5q-4 1 -8.5 1h-7.5t-5.5 1.5t-2.5 4.5q0 5 4 6.5t12 1.5h16.5h17.5q10 -1 19.5 -1h18.5q16 -1 27.5 -1.5
t13.5 -0.5t15 0.5t30 1.5h7h8q14 0 26.5 0.5t21.5 0.5q8 0 12 -1.5t4 -6.5q0 -3 -2.5 -4.5t-5.5 -1.5q-4 0 -11 -0.5t-14 -1.5q-2 0 -4 -0.5t-4 -0.5q-22 -4 -29.5 -17.5t-9.5 -39.5v-1.5v-1.5q-2 -23 -2 -61.5v-151.5v-38l149 72h1.5h1.5q2 0 3 -1t2 -3l11 -22q2 -4 0.5 -6
t-5.5 -4l-163 -79v0z" />
    <glyph glyph-name="glyph227" unicode="&#x160;" horiz-adv-x="570" 
d="M248 -17q-35 0 -69 6t-65 20q-1 1 -2 1.5t-2 0.5q-8 5 -9.5 11.5t-1.5 24.5q0 21 1 40t2 33q0 11 1 19.5t1 13.5q1 8 2.5 12t5.5 4q5 0 6 -2.5t1 -8.5q0 -7 0.5 -16.5t2.5 -20.5q11 -55 54.5 -78.5t93.5 -23.5q67 0 102.5 37.5t39.5 82.5q1 3 1 6.5v6.5q0 25 -5.5 46
t-17.5 41q-14 21 -36.5 43t-55.5 50l-45 38q-64 52 -92 94.5t-35 82.5q-2 10 -2.5 19.5t-0.5 19.5q0 80 56 130t151 50q29 0 51.5 -2.5t41.5 -7.5q14 -3 21.5 -4t13.5 -1t8 -1.5t2 -5.5q0 -2 -0.5 -9t-1.5 -20t-1.5 -32t-0.5 -45q0 -12 -1.5 -17.5t-5.5 -5.5t-5.5 3.5
t-2.5 9.5q0 4 -1.5 10.5t-2.5 13.5q-2 8 -4.5 15t-4.5 11t-7 10.5t-15 14.5q-14 11 -38.5 19.5t-64.5 8.5q-52 0 -87.5 -30.5t-35.5 -85.5q0 -15 3 -28t9 -26q12 -24 38 -50t72 -64l28 -21q56 -45 87 -81.5t45 -71.5q8 -20 11 -40.5t3 -42.5q0 -17 -4.5 -41.5t-17.5 -50.5
q-10 -20 -25 -39t-38 -35q-32 -22 -71 -31.5t-80 -9.5v0zM174 920l21 22q2 1 3.5 2.5t2.5 1.5q1 1 1.5 1h1.5h2t2 -1t2 -1.5t2 -2.5q5 -6 13 -13t17 -15q2 -2 4.5 -4t4.5 -4q14 -12 27 -21.5t18 -11.5q3 -1 5.5 -2.5t4.5 -1.5q3 0 6.5 1t9.5 4q9 5 20.5 13t23.5 17q2 2 5 4
t5 4q9 7 16.5 13.5t14.5 11.5q6 5 11 7.5t7 2.5q3 0 5 -2.5t2 -5.5q0 -1 -0.5 -2.5t-1.5 -2.5q-1 -2 -2 -3t-2 -3q-4 -4 -20.5 -19.5t-35.5 -32.5q-19 -18 -35.5 -33t-20.5 -19q-6 -5 -10 -7.5t-7 -2.5q-2 0 -5.5 2.5t-9.5 7.5q-3 2 -18 13.5t-33 24.5q-16 13 -30.5 23.5
t-19.5 14.5q-7 5 -9.5 7t-2.5 3q0 2 1 3.5t2 3.5q1 0 1.5 0.5t0.5 1.5v1z" />
    <glyph glyph-name="glyph228" unicode="&#x161;" horiz-adv-x="570" 
d="M248 -17q-35 0 -69 6t-65 20q-1 1 -2 1.5t-2 0.5q-8 5 -9.5 11.5t-1.5 24.5q0 21 1 40t2 33q0 11 1 19.5t1 13.5q1 8 2.5 12t5.5 4q5 0 6 -2.5t1 -8.5q0 -7 0.5 -16.5t2.5 -20.5q11 -55 54.5 -78.5t93.5 -23.5q67 0 102.5 37.5t39.5 82.5q1 3 1 6.5v6.5q0 25 -5.5 46
t-17.5 41q-14 21 -36.5 43t-55.5 50l-45 38q-64 52 -92 94.5t-35 82.5q-2 10 -2.5 19.5t-0.5 19.5q0 80 56 130t151 50q29 0 51.5 -2.5t41.5 -7.5q14 -3 21.5 -4t13.5 -1t8 -1.5t2 -5.5q0 -2 -0.5 -9t-1.5 -20t-1.5 -32t-0.5 -45q0 -12 -1.5 -17.5t-5.5 -5.5t-5.5 3.5
t-2.5 9.5q0 4 -1.5 10.5t-2.5 13.5q-2 8 -4.5 15t-4.5 11t-7 10.5t-15 14.5q-14 11 -38.5 19.5t-64.5 8.5q-52 0 -87.5 -30.5t-35.5 -85.5q0 -15 3 -28t9 -26q12 -24 38 -50t72 -64l28 -21q56 -45 87 -81.5t45 -71.5q8 -20 11 -40.5t3 -42.5q0 -17 -4.5 -41.5t-17.5 -50.5
q-10 -20 -25 -39t-38 -35q-32 -22 -71 -31.5t-80 -9.5v0zM174 920l21 22q2 1 3.5 2.5t2.5 1.5q1 1 1.5 1h1.5h2t2 -1t2 -1.5t2 -2.5q5 -6 13 -13t17 -15q2 -2 4.5 -4t4.5 -4q14 -12 27 -21.5t18 -11.5q3 -1 5.5 -2.5t4.5 -1.5q3 0 6.5 1t9.5 4q9 5 20.5 13t23.5 17q2 2 5 4
t5 4q9 7 16.5 13.5t14.5 11.5q6 5 11 7.5t7 2.5q3 0 5 -2.5t2 -5.5q0 -1 -0.5 -2.5t-1.5 -2.5q-1 -2 -2 -3t-2 -3q-4 -4 -20.5 -19.5t-35.5 -32.5q-19 -18 -35.5 -33t-20.5 -19q-6 -5 -10 -7.5t-7 -2.5q-2 0 -5.5 2.5t-9.5 7.5q-3 2 -18 13.5t-33 24.5q-16 13 -30.5 23.5
t-19.5 14.5q-7 5 -9.5 7t-2.5 3q0 2 1 3.5t2 3.5q1 0 1.5 0.5t0.5 1.5v1z" />
    <glyph glyph-name="Zcaron" unicode="&#x17d;" 
 />
    <glyph glyph-name="zcaron" unicode="&#x17e;" 
 />
    <glyph glyph-name="brokenbar" unicode="&#xa6;" 
 />
    <glyph glyph-name="glyph232" unicode="&#xd0;" horiz-adv-x="917" 
d="M178 397v66v150.5t-2 61.5v1.5v1.5q-1 26 -9.5 39t-33.5 18q-3 1 -8 1.5t-10 0.5q-4 1 -8.5 1h-7.5t-5.5 1.5t-2.5 4.5q0 5 4 6.5t12 1.5h16.5h17.5q10 -1 19.5 -1h18.5q16 -1 27.5 -1.5t13.5 -0.5q5 0 18 0.5t32 1.5q16 0 35.5 0.5t39.5 0.5h5h5h10h10q41 0 94 -2
t109 -15q47 -11 93 -34t85 -63q38 -39 67.5 -102t29.5 -152q0 -94 -33 -166t-75 -116q-8 -9 -19 -19t-25 -20q-39 -28 -102 -51.5t-157 -23.5q-17 0 -35 0.5t-36 1.5t-35.5 2t-32.5 2q-33 2 -56 4t-27 2q-2 0 -13.5 -0.5t-26.5 -1.5h-8h-9q-11 0 -22 -0.5t-19 -0.5t-12 1.5
t-4 5.5q0 2 2 4t6 2q3 0 7 0.5t8 0.5q4 1 8 1.5t7 1.5q15 3 20.5 18t8.5 37q4 32 4.5 88.5t0.5 128.5v75h-88q-6 -1 -7 2t0 8l3 17q2 4 4.5 6t8.5 2l79 1v0zM262 360v-53q0 -65 0.5 -111.5t1.5 -58.5q0 -6 0.5 -13.5t1.5 -15.5q1 -15 3 -28.5t6 -18.5q1 -1 2 -2.5t2 -2.5
q12 -13 48.5 -24t117.5 -11q70 0 132 24.5t106 68.5q36 35 56 94t23 122q1 6 1 11.5v11.5q0 76 -22 131t-48 90q-7 9 -13.5 16.5t-12.5 14.5q-70 74 -153.5 93.5t-174.5 19.5h-10.5t-10.5 -1q-14 -1 -26.5 -2.5t-16.5 -3.5q-7 -3 -9.5 -7.5t-2.5 -12.5l-1 -293h205
q4 -1 6 -2.5t2 -5.5v-0.5v-1.5q-1 0 -1 -0.5v-1.5l-4 -18q-1 -6 -4.5 -7.5t-8.5 -1.5l-195 1v0z" />
    <glyph glyph-name="glyph233" unicode="&#xf0;" horiz-adv-x="917" 
d="M178 397v66v150.5t-2 61.5v1.5v1.5q-1 26 -9.5 39t-33.5 18q-3 1 -8 1.5t-10 0.5q-4 1 -8.5 1h-7.5t-5.5 1.5t-2.5 4.5q0 5 4 6.5t12 1.5h16.5h17.5q10 -1 19.5 -1h18.5q16 -1 27.5 -1.5t13.5 -0.5q5 0 18 0.5t32 1.5q16 0 35.5 0.5t39.5 0.5h5h5h10h10q41 0 94 -2
t109 -15q47 -11 93 -34t85 -63q38 -39 67.5 -102t29.5 -152q0 -94 -33 -166t-75 -116q-8 -9 -19 -19t-25 -20q-39 -28 -102 -51.5t-157 -23.5q-17 0 -35 0.5t-36 1.5t-35.5 2t-32.5 2q-33 2 -56 4t-27 2q-2 0 -13.5 -0.5t-26.5 -1.5h-8h-9q-11 0 -22 -0.5t-19 -0.5t-12 1.5
t-4 5.5q0 2 2 4t6 2q3 0 7 0.5t8 0.5q4 1 8 1.5t7 1.5q15 3 20.5 18t8.5 37q4 32 4.5 88.5t0.5 128.5v75h-88q-6 -1 -7 2t0 8l3 17q2 4 4.5 6t8.5 2l79 1v0zM262 360v-53q0 -65 0.5 -111.5t1.5 -58.5q0 -6 0.5 -13.5t1.5 -15.5q1 -15 3 -28.5t6 -18.5q1 -1 2 -2.5t2 -2.5
q12 -13 48.5 -24t117.5 -11q70 0 132 24.5t106 68.5q36 35 56 94t23 122q1 6 1 11.5v11.5q0 76 -22 131t-48 90q-7 9 -13.5 16.5t-12.5 14.5q-70 74 -153.5 93.5t-174.5 19.5h-10.5t-10.5 -1q-14 -1 -26.5 -2.5t-16.5 -3.5q-7 -3 -9.5 -7.5t-2.5 -12.5l-1 -293h205
q4 -1 6 -2.5t2 -5.5v-0.5v-1.5q-1 0 -1 -0.5v-1.5l-4 -18q-1 -6 -4.5 -7.5t-8.5 -1.5l-195 1v0z" />
    <glyph glyph-name="Yacute" unicode="&#xdd;" 
 />
    <glyph glyph-name="yacute" unicode="&#xfd;" 
 />
    <glyph glyph-name="glyph236" unicode="&#xde;" horiz-adv-x="647" 
d="M178 287v176v150.5t-2 61.5v1.5v1.5q-1 26 -9.5 39t-33.5 18q-3 1 -8 1.5t-10 0.5q-4 1 -8.5 1h-7.5t-5.5 1.5t-2.5 4.5q0 5 4 6.5t12 1.5h16h16q10 -1 19.5 -1h18.5q17 -1 28.5 -1.5t14.5 -0.5q2 0 14 0.5t29 1.5h21.5t23.5 1h15.5h14.5q8 0 12 -1.5t4 -5.5
q0 -3 -2.5 -5t-5.5 -2q-5 0 -13 -0.5t-16 -1.5q-3 -1 -5.5 -1t-4.5 -1q-24 -4 -34 -17.5t-11 -35.5q-1 -31 -1.5 -55t-0.5 -39q7 1 13.5 1t13.5 1q13 1 27 1.5t33 0.5q57 0 93 -9.5t57 -21.5q14 -8 22.5 -15t13.5 -11l3.5 -3.5l3.5 -3.5q16 -17 29 -46.5t13 -64.5
q0 -106 -69.5 -172t-176.5 -66h-4.5h-5.5t-6 0.5t-5 0.5h-1.5h-0.5q-3 1 -6 2.5t-3 4.5q0 6 5.5 7.5t21.5 1.5q73 0 123 47t50 116q0 18 -3.5 47t-19.5 60q-6 12 -14 24t-19 23q-7 7 -14 13t-14 10q-31 21 -59.5 24t-44.5 3h-2.5h-2.5q-13 0 -24.5 -1.5t-18.5 -4.5
q-4 -1 -6 -6t-2 -13v-250q0 -73 0.5 -129.5t4.5 -88.5q2 -22 9.5 -37t29.5 -18q4 -1 8.5 -1.5t9.5 -0.5q8 -1 15.5 -1.5t11.5 -0.5q5 0 6.5 -2t1.5 -4q0 -4 -4 -5.5t-12 -1.5h-10h-10q-16 0 -31.5 0.5t-28.5 0.5q-18 1 -29.5 1.5t-13.5 0.5q-1 0 -12 -0.5t-26 -1.5h-8.5
h-9.5q-11 -1 -21.5 -1h-18.5t-12 1.5t-4 5.5q0 2 2 4t6 2q3 0 7 0.5t8 0.5q4 1 8 1.5t7 1.5q15 3 20.5 18t8.5 37q4 32 4.5 88.5t0.5 128.5v1z" />
    <glyph glyph-name="glyph237" unicode="&#xfe;" horiz-adv-x="647" 
d="M178 287v176v150.5t-2 61.5v1.5v1.5q-1 26 -9.5 39t-33.5 18q-3 1 -8 1.5t-10 0.5q-4 1 -8.5 1h-7.5t-5.5 1.5t-2.5 4.5q0 5 4 6.5t12 1.5h16h16q10 -1 19.5 -1h18.5q17 -1 28.5 -1.5t14.5 -0.5q2 0 14 0.5t29 1.5h21.5t23.5 1h15.5h14.5q8 0 12 -1.5t4 -5.5
q0 -3 -2.5 -5t-5.5 -2q-5 0 -13 -0.5t-16 -1.5q-3 -1 -5.5 -1t-4.5 -1q-24 -4 -34 -17.5t-11 -35.5q-1 -31 -1.5 -55t-0.5 -39q7 1 13.5 1t13.5 1q13 1 27 1.5t33 0.5q57 0 93 -9.5t57 -21.5q14 -8 22.5 -15t13.5 -11l3.5 -3.5l3.5 -3.5q16 -17 29 -46.5t13 -64.5
q0 -106 -69.5 -172t-176.5 -66h-4.5h-5.5t-6 0.5t-5 0.5h-1.5h-0.5q-3 1 -6 2.5t-3 4.5q0 6 5.5 7.5t21.5 1.5q73 0 123 47t50 116q0 18 -3.5 47t-19.5 60q-6 12 -14 24t-19 23q-7 7 -14 13t-14 10q-31 21 -59.5 24t-44.5 3h-2.5h-2.5q-13 0 -24.5 -1.5t-18.5 -4.5
q-4 -1 -6 -6t-2 -13v-250q0 -73 0.5 -129.5t4.5 -88.5q2 -22 9.5 -37t29.5 -18q4 -1 8.5 -1.5t9.5 -0.5q8 -1 15.5 -1.5t11.5 -0.5q5 0 6.5 -2t1.5 -4q0 -4 -4 -5.5t-12 -1.5h-10h-10q-16 0 -31.5 0.5t-28.5 0.5q-18 1 -29.5 1.5t-13.5 0.5q-1 0 -12 -0.5t-26 -1.5h-8.5
h-9.5q-11 -1 -21.5 -1h-18.5t-12 1.5t-4 5.5q0 2 2 4t6 2q3 0 7 0.5t8 0.5q4 1 8 1.5t7 1.5q15 3 20.5 18t8.5 37q4 32 4.5 88.5t0.5 128.5v1z" />
    <glyph glyph-name="minus" unicode="&#x2212;" 
 />
    <glyph glyph-name="multiply" unicode="&#xd7;" 
 />
    <glyph glyph-name="uni00B9" unicode="&#xb9;" 
 />
    <glyph glyph-name="uni00B2" unicode="&#xb2;" 
 />
    <glyph glyph-name="uni00B3" unicode="&#xb3;" 
 />
    <glyph glyph-name="glyph243" unicode="&#xbd;" horiz-adv-x="500" 
 />
    <glyph glyph-name="onequarter" unicode="&#xbc;" 
 />
    <glyph glyph-name="threequarters" unicode="&#xbe;" 
 />
    <glyph glyph-name="franc" unicode="&#x20a3;" 
 />
    <glyph glyph-name="Gbreve" unicode="&#x11e;" 
 />
    <glyph glyph-name="gbreve" unicode="&#x11f;" 
 />
    <glyph glyph-name="Idotaccent" unicode="&#x130;" 
 />
    <glyph glyph-name="Scedilla" unicode="&#x15e;" 
 />
    <glyph glyph-name="scedilla" unicode="&#x15f;" 
 />
    <glyph glyph-name="Cacute" unicode="&#x106;" 
 />
    <glyph glyph-name="cacute" unicode="&#x107;" 
 />
    <glyph glyph-name="Ccaron" unicode="&#x10c;" 
 />
    <glyph glyph-name="ccaron" unicode="&#x10d;" 
 />
    <glyph glyph-name="dcroat" unicode="&#x111;" 
 />
    <glyph glyph-name="glyph257" unicode="&#x2192;" horiz-adv-x="500" 
 />
    <glyph glyph-name="glyph258" unicode="&#x2302;" 
 />
    <glyph glyph-name="glyph259" unicode="&#x2013;" horiz-adv-x="500" 
d="M0 382v46h500v-46h-500v0z" />
    <glyph glyph-name="uni00AD" unicode="&#xad;" horiz-adv-x="500" 
 />
    <glyph glyph-name="glyph261" unicode="&#x25a0;" horiz-adv-x="500" 
 />
    <glyph glyph-name="glyph262" unicode="&#x2022;" horiz-adv-x="420" 
d="M172 395q0 22 -6.5 36t-14.5 21q-4 4 -7.5 6.5t-6.5 3.5l-4 2l-4 2q-3 1 -4.5 2.5t-1.5 4.5q0 5 3 6.5t9 1.5q10 0 37 -4.5l57 -9.5q4 -1 8.5 -2t8.5 -2q5 -1 11 -2t11 -2q16 -4 23 -8t7 -9q0 -6 -2 -11t-4 -9q-20 -31 -46.5 -57.5t-54.5 -51.5q-3 -2 -5.5 -4.5
l-5.5 -5.5l-2 -2l-2 -2h-1v-1l-8 -6t-7 -3h-0.5h-1.5l-2 2t-1 3t1 5t2 7v0.5t1 0.5q0 2 1 4t1 3q2 8 4 17t3 18q2 13 3 24.5t1 20.5v1z" />
    <glyph glyph-name="glyph263" unicode="&#xaf;" 
 />
    <glyph glyph-name="glyph264" unicode="&#xb0;" 
 />
    <glyph glyph-name="glyph265" unicode="&#xb7;" 
 />
    <glyph glyph-name="underscoredbl" unicode="&#x2017;" 
 />
    <glyph glyph-name="exclamdbl" unicode="&#x203c;" 
 />
    <glyph glyph-name="uni207F" unicode="&#x207f;" 
 />
    <glyph glyph-name="peseta" unicode="&#x20a7;" 
 />
    <glyph glyph-name="Gamma" unicode="&#x393;" 
 />
    <glyph glyph-name="Theta" unicode="&#x398;" 
 />
    <glyph glyph-name="Phi" unicode="&#x3a6;" 
 />
    <glyph glyph-name="alpha" unicode="&#x3b1;" 
 />
    <glyph glyph-name="delta" unicode="&#x3b4;" 
 />
    <glyph glyph-name="epsilon" unicode="&#x3b5;" 
 />
    <glyph glyph-name="sigma" unicode="&#x3c3;" 
 />
    <glyph glyph-name="tau" unicode="&#x3c4;" 
 />
    <glyph glyph-name="phi" unicode="&#x3c6;" 
 />
    <glyph glyph-name="arrowleft" unicode="&#x2190;" 
 />
    <glyph glyph-name="arrowup" unicode="&#x2191;" 
 />
    <glyph glyph-name="arrowdown" unicode="&#x2193;" 
 />
    <glyph glyph-name="arrowboth" unicode="&#x2194;" 
 />
    <glyph glyph-name="arrowupdn" unicode="&#x2195;" 
 />
    </font>
</defs>
</svg>
